<svg width="64" height="64" fill="none" xmlns="http://www.w3.org/2000/svg"><g clip-path="url(#clip0_2398_1329)" fill="#0A0D50"><path d="M12.66 30.984c-4.095 0-7.426-3.3-7.426-7.356s3.331-7.356 7.425-7.356c4.094 0 7.424 3.3 7.424 7.356s-3.33 7.356-7.424 7.356zm0-12.648c-2.957 0-5.361 2.374-5.361 5.292 0 2.917 2.404 5.291 5.36 5.291 2.955 0 5.36-2.374 5.36-5.291 0-2.918-2.405-5.292-5.36-5.292zm2.987 33.014H2.698A2.692 2.692 0 010 48.67v-3.377c0-6.912 5.679-12.536 12.66-12.536 2.745 0 5.359.857 7.555 2.477a1.033 1.033 0 01-1.226 1.662 10.586 10.586 0 00-6.33-2.074c-5.841 0-10.594 4.698-10.594 10.471v3.377c0 .34.284.616.633.616h12.95a1.033 1.033 0 01-.001 2.065zm45.657-.78H48.355a1.033 1.033 0 010-2.065h12.95a.626.626 0 00.633-.616v-3.376c0-5.775-4.753-10.472-10.596-10.472-2.44 0-4.822.84-6.707 2.366a1.032 1.032 0 01-1.299-1.605 12.763 12.763 0 018.006-2.826c6.98 0 12.66 5.624 12.66 12.537v3.376c0 1.478-1.21 2.68-2.698 2.68zm-9.962-20.096c-4.094 0-7.424-3.3-7.424-7.356s3.33-7.356 7.424-7.356 7.425 3.3 7.425 7.356-3.331 7.356-7.425 7.356zm0-12.648c-2.955 0-5.36 2.374-5.36 5.292 0 2.918 2.405 5.291 5.36 5.291 2.956 0 5.36-2.373 5.36-5.291s-2.404-5.292-5.36-5.292z"/><path d="M46.009 54.71h-28.02c-1.862 0-3.376-1.503-3.376-3.351v-4.75c0-9.49 7.799-17.211 17.386-17.211s17.386 7.721 17.386 17.212v4.749c0 1.848-1.515 3.35-3.376 3.35zm-14.01-23.247c-8.448 0-15.321 6.795-15.321 15.147v4.75a1.3 1.3 0 001.31 1.286h28.02a1.3 1.3 0 001.311-1.287V46.61c0-8.352-6.872-15.147-15.32-15.147zm-.357-3.271c-5.26 0-9.54-4.24-9.54-9.452 0-5.21 4.28-9.45 9.54-9.45 5.261 0 9.54 4.24 9.54 9.45 0 5.213-4.28 9.452-9.54 9.452zm0-16.837c-4.122 0-7.476 3.313-7.476 7.386s3.354 7.387 7.476 7.387 7.476-3.314 7.476-7.387c0-4.073-3.354-7.386-7.476-7.386z"/></g><defs><clipPath id="clip0_2398_1329"><path fill="#fff" d="M0 0h64v64H0z"/></clipPath></defs></svg>