<svg width="64" height="64" fill="none" xmlns="http://www.w3.org/2000/svg"><g clip-path="url(#clip0_2398_1320)" fill="#0A0D50"><path d="M14.336 24.418a4.157 4.157 0 000 8.316A4.168 4.168 0 0018.5 28.57a4.162 4.162 0 00-4.162-4.153zm0 6.324a2.168 2.168 0 01-2.16-2.171c0-1.192.969-2.16 2.16-2.16 1.197 0 2.171.968 2.171 2.16a2.173 2.173 0 01-2.17 2.17z"/><path d="M49.334.127c-8.018 0-14.541 6.523-14.541 14.54 0 1.097.133 2.162.364 3.19H7.442c-4.032 0-7.311 3.28-7.311 7.31L.129 56.562c0 4.044 3.293 7.311 7.313 7.311h31.394c4.058 0 7.313-3.306 7.313-7.311l-.002-27.73c1.027.23 2.09.362 3.187.362 8.017 0 14.54-6.517 14.54-14.527 0-8.018-6.523-14.54-14.54-14.54zm-5.179 50.919v5.517c0 3.003-2.537 5.317-5.317 5.317H7.44a5.323 5.323 0 01-5.317-5.317v-5.517h42.032zM7.706 49.053l6.183-9.059 3.745 5.471a.995.995 0 001.644 0l8.414-12.316 10.877 15.895-30.863.009zm36.45 0H40.99l-12.477-18.23a.995.995 0 00-1.644 0l-8.413 12.316-3.745-5.473a.995.995 0 00-1.645 0L5.294 49.055H2.123V25.166a5.325 5.325 0 015.319-5.318h28.324a14.588 14.588 0 008.389 8.376v20.829zm5.178-21.85c-6.92 0-12.549-5.624-12.549-12.536 0-6.92 5.63-12.548 12.549-12.548 6.92 0 12.549 5.629 12.549 12.548 0 6.912-5.63 12.535-12.55 12.535z"/><path d="M54.566 13.84l-7.2-4.961a.997.997 0 00-1.561.819l-.012 9.923a.995.995 0 001.56.822l7.213-4.961a.997.997 0 000-1.641zm-6.78 3.886l.008-6.132 4.45 3.066-4.457 3.066z"/></g><defs><clipPath id="clip0_2398_1320"><path fill="#fff" d="M0 0h64v64H0z"/></clipPath></defs></svg>