<svg width="64" height="64" fill="none" xmlns="http://www.w3.org/2000/svg"><path fill-rule="evenodd" clip-rule="evenodd" d="M26.81 56.512l20.74 3.466a3.822 3.822 0 004.4-3.142l7.4-44.28a3.822 3.822 0 00-3.14-4.4l-8.897-1.488a3.826 3.826 0 00-3.656-2.698H19.675c-.548 0-1.074.218-1.462.606L5.78 17.008c-.2.2-.312.47-.312.752v34.928a3.824 3.824 0 003.824 3.824H26.81zM47.48 8.85l.002 43.838a3.822 3.822 0 01-3.824 3.824h-3.952L47.9 57.88a1.7 1.7 0 001.954-1.394l7.4-44.28c.154-.926-.47-1.8-1.394-1.954L47.479 8.85zM9.293 54.386h34.364a1.697 1.697 0 001.698-1.698V7.794c0-.938-.76-1.698-1.698-1.698H20.32V17.76c0 .586-.476 1.062-1.062 1.062H7.595v33.866c0 .938.76 1.698 1.698 1.698zm5.664-6.536H39.36a1.063 1.063 0 000-2.126H14.957a1.063 1.063 0 000 2.126zm0-7.642H39.36a1.063 1.063 0 000-2.124H14.957a1.063 1.063 0 000 2.124zm0-7.64H39.36a1.063 1.063 0 000-2.126H14.957a1.063 1.063 0 000 2.126zm0-7.64H39.36a1.063 1.063 0 000-2.126H14.957a1.063 1.063 0 000 2.126zm11.166-7.642H39.36a1.063 1.063 0 000-2.124H26.123a1.063 1.063 0 000 2.124zm-7.926-9.688v9.1h-9.1l9.1-9.1z" fill="#0A0D50"/></svg>