<?xml version="1.0" encoding="utf-8"?><svg viewBox="0 0 64 65" xmlns="http://www.w3.org/2000/svg" xmlns:xlink="http://www.w3.org/1999/xlink"><style>:root>svg{display:none}:root>svg:target{display:block}</style><svg fill="none" viewBox="0 0 24 24" id="datamarket--FilterOutlined" xmlns="http://www.w3.org/2000/svg"><path d="M20.626 3.61H3.371a.75.75 0 0 0-.644 1.124l5.451 9.268v5.639c0 .415.333.75.746.75h6.15a.747.747 0 0 0 .745-.75V14l5.454-9.267a.75.75 0 0 0-.647-1.125Zm-6.485 15.093H9.856v-3.656h4.287v3.656h-.002Zm.225-5.545-.223.389H9.854l-.223-.39-4.647-7.86h14.03l-4.648 7.86Z" fill="#000" fill-opacity=".88"/></svg><svg fill="none" viewBox="0 0 48 48" id="header--Group" xmlns="http://www.w3.org/2000/svg"><path d="M43.22 38.36a53.597 53.597 0 0 1-1.717 2.05c-.887.93-2.343 1.987-4.306 3.064-5.097 2.795-11.765 4.71-15.267 4.426-.44-.052-1.029-.11-1.467-.174-.53-.098-1.241-.216-1.768-.333.126.027.26.052.4.073 4 .6 12.388-1.736 18.734-5.216 2.896-1.589 4.866-3.14 5.772-4.416l-.38.525Z" fill="url(#ba)"/><path d="M45.72 34.191c-.777 1.64-3.308 3.79-7.335 5.998-7.596 4.167-17.637 6.962-22.426 6.245a5.526 5.526 0 0 1-1.29-.335c-.574-.267-1.346-.612-1.908-.904l-.788-.436c.444.255 1.048.445 1.815.56 5.29.793 16.383-2.296 24.775-6.898 4.786-2.625 7.66-5.175 8.266-7.03-.31.849-.734 1.978-1.109 2.8Z" fill="url(#bb)"/><path d="m47.76 27.399-.006.036c-.304 2.08-3.558 5.115-9.267 8.247-9.299 5.099-21.588 8.52-27.45 7.643-1.097-.165-1.891-.468-2.396-.886a53.066 53.066 0 0 1-2.098-1.968l-.07-.074c.51.544 1.416.935 2.741 1.134 6.189.927 19.163-2.686 28.979-8.07 6.291-3.45 9.758-6.79 9.808-8.988-.053.879-.125 2.053-.241 2.926Z" fill="url(#bc)"/><path d="m47.59 19.54.002.017.142.828c.347 2.293-3.32 5.979-10.274 9.793-10.305 5.65-23.924 9.443-30.42 8.47-1.607-.24-2.627-.75-3.097-1.466-.47-.784-1.086-1.836-1.506-2.648.41.84 1.485 1.434 3.272 1.702 6.613.99 20.477-2.87 30.967-8.623C44 23.596 47.743 19.718 47.083 17.407c.155.639.388 1.486.506 2.133Z" fill="url(#bd)"/><path d="M44.64 11.738c.277.513.667 1.187.922 1.711 1.105 2.265-2.637 6.31-10.29 10.508-10.49 5.753-24.354 9.613-30.967 8.622-1.995-.298-3.103-1.005-3.388-2.004C.78 30.01.573 29.26.46 28.687l-.193-1.095c.167 1.104 1.266 1.886 3.378 2.202 6.496.973 20.114-2.819 30.418-8.47 7.758-4.254 11.425-8.35 9.99-10.529l.589.943Z" fill="url(#be)"/><path d="M39.576 5.725c.593.546 1.384 1.275 1.945 1.854 1.878 1.995-1.59 6.062-9.306 10.294-9.815 5.383-22.788 8.995-28.976 8.068-2.222-.333-3.267-1.206-3.238-2.438.048-.805.114-1.88.207-2.68l.039-.279c-.193 1.31.781 2.24 3.045 2.58 5.862.877 18.151-2.545 27.449-7.644 7.555-4.143 10.81-8.12 8.62-9.935l.215.18Z" fill="url(#bf)"/><path d="M36.028 3.222c2.619 1.506-.26 5.272-7.432 9.205-8.391 4.602-19.482 7.69-24.772 6.898-2.275-.341-3.106-1.344-2.648-2.743.31-.846.744-1.968 1.106-2.793-.686 1.452.005 2.504 2.253 2.84 4.788.718 14.827-2.077 22.422-6.243 6.778-3.717 9.32-7.27 6.384-8.5.816.38 1.901.896 2.687 1.336Z" fill="url(#bg)"/><path d="M27.532.253c-.338-.05-.679-.091-1.02-.123a6.645 6.645 0 0 0-.446-.05c.44.051 1.028.109 1.466.173Z" fill="url(#bh)"/><path d="M27.533.253c.524.097 1.225.212 1.745.328 3.494.75 1.514 3.952-4.622 7.317-6.344 3.48-14.73 5.815-18.73 5.216-2.171-.326-2.604-1.449-1.53-2.964l.23-.321C5.774 8.35 5.796 8.322 6.49 7.575c-1.51 1.588-1.361 2.807.753 3.123 3.354.503 10.388-1.455 15.709-4.374C28.273 3.406 29.867.633 26.512.13c.342.032.683.073 1.021.123Z" fill="url(#bi)"/><path d="M23.206.129c2.403.36 1.261 2.346-2.55 4.437-3.812 2.09-8.85 3.493-11.253 3.133-2.131-.32-1.474-1.918 1.36-3.733.91-.581 1.006-.642 1.684-1.02.735-.391.735-.391 1.106-.57.673-.316.673-.316 1.012-.46.647-.269.647-.269.974-.392.617-.225.654-.238.986-.347.692-.218.692-.218 1.046-.317.753-.2.768-.203 1.165-.293.864-.182.897-.19 1.372-.268.268-.04.624-.096.892-.13.858-.11 1.612-.13 2.206-.04-.822.078-1.647.213-2.47.407-1.648-.247-5.102.715-7.715 2.148-2.613 1.433-3.395 2.795-1.748 3.041 1.647.247 5.1-.714 7.714-2.147C21.6 2.145 22.383.783 20.735.536a18.429 18.429 0 0 1 2.471-.407Z" fill="url(#bj)"/><path d="M17.477 1.606c.593.088.311.578-.629 1.094-.94.516-2.183.862-2.776.773-.593-.089-.311-.579.63-1.094.94-.516 2.183-.862 2.775-.773Z" fill="url(#bk)"/><defs><linearGradient id="ba" x1="18.326" y1="40.034" x2="48.931" y2="32.281" gradientUnits="userSpaceOnUse"><stop stop-color="#5CEAD2"/><stop offset="1" stop-color="#259CF4"/></linearGradient><linearGradient id="bb" x1="11.456" y1="34.695" x2="54.63" y2="24.5" gradientUnits="userSpaceOnUse"><stop stop-color="#5CEAD2"/><stop offset="1" stop-color="#259CF4"/></linearGradient><linearGradient id="bc" x1="5.857" y1="28.613" x2="57.556" y2="17.005" gradientUnits="userSpaceOnUse"><stop stop-color="#5CEAD2"/><stop offset="1" stop-color="#259CF4"/></linearGradient><linearGradient id="bd" x1="1.766" y1="22.071" x2="58.352" y2="9.764" gradientUnits="userSpaceOnUse"><stop stop-color="#5CEAD2"/><stop offset="1" stop-color="#259CF4"/></linearGradient><linearGradient id="be" x1="-.408" y1="15.578" x2="56.495" y2="3.465" gradientUnits="userSpaceOnUse"><stop stop-color="#5CEAD2"/><stop offset="1" stop-color="#259CF4"/></linearGradient><linearGradient id="bf" x1="-.623" y1="10.023" x2="52.007" y2="-1.031" gradientUnits="userSpaceOnUse"><stop stop-color="#5CEAD2"/><stop offset="1" stop-color="#259CF4"/></linearGradient><linearGradient id="bg" x1=".522" y1="5.714" x2="45.517" y2="-3.735" gradientUnits="userSpaceOnUse"><stop stop-color="#5CEAD2"/><stop offset="1" stop-color="#259CF4"/></linearGradient><linearGradient id="bh" x1="26.045" y1=".118" x2="27.14" y2="-.831" gradientUnits="userSpaceOnUse"><stop stop-color="#5CEAD2"/><stop offset="1" stop-color="#259CF4"/></linearGradient><linearGradient id="bi" x1="3.429" y1="2.981" x2="37.406" y2="-4.265" gradientUnits="userSpaceOnUse"><stop stop-color="#5CEAD2"/><stop offset="1" stop-color="#259CF4"/></linearGradient><linearGradient id="bj" x1="7.903" y1="1.747" x2="28.275" y2="-2.695" gradientUnits="userSpaceOnUse"><stop stop-color="#5CEAD2"/><stop offset="1" stop-color="#259CF4"/></linearGradient><linearGradient id="bk" x1="13.702" y1="2.005" x2="18.728" y2=".909" gradientUnits="userSpaceOnUse"><stop stop-color="#5CEAD2"/><stop offset="1" stop-color="#259CF4"/></linearGradient></defs></svg><svg fill="none" viewBox="0 0 64 64" id="svg--Achievement,_award,_cup,_goblet,_reward,_trophy" xmlns="http://www.w3.org/2000/svg"><path d="M42 53v-1a1 1 0 0 0-1-1h-3.762C35.89 49.926 35 48.088 35 46c0-3.313 2.238-6 5-6v-1h-2.649C42.988 36.844 47 31.396 47 25V9h1c1.1 0 2-.9 2-2s-.9-2-2-2H16c-1.1 0-2 .9-2 2s.9 2 2 2h1v16c0 6.396 4.012 11.844 9.65 14H24v1c2.762 0 5 2.687 5 6 0 2.088-.89 3.926-2.238 5H23a1 1 0 0 0-1 1v1a3 3 0 0 0-3 3v3h26v-3a3 3 0 0 0-3-3ZM16 8a1.001 1.001 0 0 1 0-2h32a1.001 1.001 0 0 1 0 2H16Zm2 17V9h28v16c0 7.72-6.28 14-14 14s-14-6.28-14-14Zm12 21c0-2.543-1.169-4.773-2.912-6h9.824C35.169 41.227 34 43.457 34 46c0 1.957.691 3.729 1.805 5h-7.609C29.309 49.729 30 47.957 30 46Zm-7 6h18v1H23v-1Zm21 6H20v-2c0-1.104.897-2 2-2h20c1.103 0 2 .896 2 2v2Z" fill="#0A0D50"/><path d="m9.895 14.003 6.105.555v-1.004l-6.015-.547L9.914 13l-.071.004A2.998 2.998 0 0 0 7 16v5.5c0 4.173 4.324 7.749 9.771 8.389-.109-.34-.195-.688-.282-1.036C11.721 28.16 8 25.076 8 21.5V16c0-1.067.841-1.942 1.895-1.997Z" fill="#0A0D50"/><path d="M6 21.5V16a4.005 4.005 0 0 1 3.957-4l6.043.549v-1.004L10 11a5 5 0 0 0-5 5v5.5c0 5.567 5.575 10.11 12.618 10.465a16.156 16.156 0 0 1-.461-1.021C10.895 30.432 6 26.394 6 21.5ZM47.513 28.853c-.087.349-.173.696-.282 1.036 5.445-.64 9.77-4.216 9.77-8.389V16a2.998 2.998 0 0 0-2.843-2.996L54.085 13l-.07.007-6.015.547v1.004l6.105-.555A2.003 2.003 0 0 1 56 16v5.5c0 3.576-3.721 6.66-8.488 7.353Z" fill="#0A0D50"/><path d="m54 11-6 .545v1.004L54.045 12A4.005 4.005 0 0 1 58 16v5.5c0 4.894-4.895 8.932-11.157 9.443-.14.348-.298.687-.461 1.021C53.426 31.61 59 27.067 59 21.5V16a5 5 0 0 0-5-5ZM41.5 23.5c0-5.244-4.253-9.5-9.5-9.5s-9.5 4.256-9.5 9.5S26.753 33 32 33s9.5-4.256 9.5-9.5Zm-18 0c0-4.688 3.813-8.5 8.5-8.5 4.687 0 8.5 3.813 8.5 8.5 0 4.687-3.813 8.5-8.5 8.5-4.687 0-8.5-3.812-8.5-8.5Z" fill="#0A0D50"/><path d="M32.5 20h-1v7h1v-7ZM34 28h-4v1h4v-1ZM34 18h-4v1h4v-1Z" fill="#0A0D50"/></svg><svg fill="none" viewBox="0 0 64 65" id="svg--Airplane,_business,_launch,_marketing,_paper,_paper_airplane" xmlns="http://www.w3.org/2000/svg"><path d="M19.035 33.24 5.262 32.181 59.029 9.042l.29.922L19.036 33.24Zm-9.656-1.746 9.424.725L51.425 13.37 9.379 31.494Z" fill="#0A0D50"/><path d="M58.66 9.189 18.337 32.488l3.89 14.592 10.249-10.249-.943-.472-8.786 8.787L19.5 32.971l36.525-21.105-.495.495 3.538-2.83-.461 1.167.84-.84.433-1.045-1.22.376Z" fill="#0A0D50"/><path d="m24.115 43.776 4.13-8.945-.717-.708-.091.074-5.14 11.136-.07 1.747 10.165-10.166-.95-.466-7.327 7.328Z" fill="#0A0D50"/><path d="m45.95 44.127-18.377-9.188-.136-.743L58.758 9.14l1.245-.609-14.053 35.596Zm-17.186-9.711 16.656 8.329 12.493-31.649-29.148 23.32ZM16 45.729l-11 9 .633.773 11.001-9-.633-.773ZM8.624 46.505l9.001-7-.613-.788-9.001 7 .613.788Z" fill="#0A0D50"/></svg><svg fill="none" viewBox="0 0 64 64" id="svg--Arm_wrestling,_competition,_handshake" xmlns="http://www.w3.org/2000/svg"><g filter="url(#ea)" fill="#0A0D50"><path d="M45.033 27.013c.014.004.026.007.038.012a1.32 1.32 0 0 1 .903-.581l-1.313-2.765c-.19.266-.47.469-.849.54l1.291 2.724-.07.07ZM36.237 35.789c.033-.07.054-.145.098-.208l-4.682-2.447a1.349 1.349 0 0 1-.852.429c-.102.038-.21.067-.328.083l5.234 2.737c.114-.243.29-.45.53-.594Z"/><path d="M48.45 27.962c.166-.305.416-.557.706-.709l-2.534-2.534-12.02 12.02 2.527 2.528c.073-.358.254-.681.52-.894l-1.634-1.634 10.607-10.606 1.829 1.829Z"/><path d="m54.842 59.516.28-1.136L36.93 40.067l12.435-12.434L59.47 37.805l.28-1.134-10.386-10.452-13.85 13.848 19.327 19.449ZM27.833 7.052c1.146-.502 2.602-1.067 3.123-1.067.186.006.422.118.667.276l.716-.716c-.425-.296-.916-.545-1.397-.56-.86 0-2.857.854-3.84 1.3.357.15.599.434.73.767ZM17.333 24.917c.285 0 .523.07.725.182l1.003-2.851a1.399 1.399 0 0 1-.938-.346l-1.072 3.042c.09-.015.182-.027.282-.027ZM46.03 18.768a2.978 2.978 0 0 0-2.056-.878 3.004 3.004 0 0 0-.419-3.718 2.983 2.983 0 0 0-2.22-.877 3.008 3.008 0 0 0-.608-3.366 2.986 2.986 0 0 0-2.057-.878 3.004 3.004 0 0 0-.419-3.718c-1.133-1.133-3.109-1.133-4.242 0l-3.794 3.794c.33.148.557.416.687.727l3.814-3.814c.756-.756 2.072-.756 2.828 0a2.003 2.003 0 0 1 0 2.828l-1.057 1.056c0 .002-.003.003-.004.005a.5.5 0 0 0 .707.707c.756-.756 2.073-.756 2.83 0 .778.78.778 2.049 0 2.829l-.708.707a.5.5 0 0 0 .707.707c.756-.756 2.072-.756 2.828 0 .378.378.586.88.586 1.414 0 .534-.208 1.036-.586 1.414l-1.06 1.06a.5.5 0 0 0 .706.708l.004-.004c.756-.751 2.07-.751 2.824.004.78.78.78 2.049 0 2.829l-7.778 7.778c-.716.716-2.145 1.557-3.12 1.836l-7.43 2.123c.225.256.344.59.365.935l7.34-2.097c1.148-.33 2.71-1.247 3.552-2.09l7.778-7.778a3.001 3.001 0 0 0 .002-4.243Z"/><path d="M26.129 37.961c.333.1.62.308.79.624l2.493-2.493-12.02-12.02-2.51 2.509c.32.13.599.355.777.639l1.733-1.733 10.606 10.606-1.87 1.868Z"/><path d="M14.563 25.486 4.25 35.976l.275 1.14L14.563 26.9l12.935 12.935L9.287 58.37l.277 1.145 19.348-19.681-14.349-14.35Z"/><path d="M22.902 43.017c-.78.779-2.05.78-2.83 0a2.002 2.002 0 0 1 0-2.828 2.001 2.001 0 0 1 2.829 2.828Zm-2.121-2.121a1 1 0 1 0 1.414 1.414 1 1 0 0 0-1.414-1.414ZM19.595 22.853c-.69 0-1.339-.269-1.827-.757l-1.385-1.385a2.569 2.569 0 0 1-.758-1.829c.001-.69.27-1.339.758-1.825.975-.977 2.68-.977 3.654 0l1.385 1.384a2.57 2.57 0 0 1 .758 1.828c0 .69-.27 1.34-.758 1.827a2.567 2.567 0 0 1-1.827.757Zm-1.385-5.554c-.423 0-.821.165-1.12.465a1.57 1.57 0 0 0-.465 1.118c0 .424.165.822.465 1.122l1.385 1.385c.598.598 1.643.598 2.24 0 .3-.299.465-.697.465-1.12 0-.424-.165-.821-.465-1.121l-1.385-1.384a1.571 1.571 0 0 0-1.12-.465Z"/><path d="M23.244 20.248c-.69 0-1.34-.27-1.828-.758l-2.947-2.947a2.57 2.57 0 0 1-.758-1.828c0-.69.27-1.34.758-1.827.975-.977 2.678-.977 3.654 0l2.947 2.948c.489.488.758 1.139.758 1.829a2.564 2.564 0 0 1-.758 1.825 2.563 2.563 0 0 1-1.826.758Zm-2.95-7.118c-.422 0-.82.165-1.118.464-.3.299-.465.697-.465 1.12 0 .424.165.821.465 1.121l2.947 2.947c.6.6 1.643.601 2.24 0 .3-.299.464-.695.465-1.118 0-.424-.165-.822-.465-1.122l-2.947-2.948a1.575 1.575 0 0 0-1.121-.464Z"/><path d="M26.891 17.642c-.69 0-1.34-.27-1.827-.758l-3.99-3.99a2.567 2.567 0 0 1-.758-1.827c0-.69.27-1.34.758-1.827.975-.976 2.678-.978 3.654 0l3.99 3.99c.488.487.758 1.137.758 1.827s-.27 1.34-.758 1.827a2.564 2.564 0 0 1-1.827.758Zm-3.99-8.16c-.424 0-.822.165-1.12.465a1.57 1.57 0 0 0-.466 1.12c0 .423.165.82.465 1.12l3.99 3.99c.598.6 1.643.6 2.24 0 .3-.3.465-.697.465-1.12 0-.423-.165-.821-.465-1.12l-3.99-3.99a1.571 1.571 0 0 0-1.12-.465Z"/><path d="M29.495 13.994a2.57 2.57 0 0 1-1.827-.757l-2.948-2.948a2.587 2.587 0 0 1 0-3.654c.975-.977 2.68-.977 3.655 0l2.947 2.947a2.57 2.57 0 0 1 .758 1.828c0 .69-.27 1.34-.758 1.827a2.566 2.566 0 0 1-1.827.757Zm-2.948-7.118a1.587 1.587 0 0 0-1.12 2.705l2.948 2.948c.6.599 1.644.598 2.24 0 .3-.3.465-.697.465-1.12 0-.424-.165-.821-.465-1.121L27.668 7.34a1.577 1.577 0 0 0-1.12-.465Z"/></g><defs><filter id="ea" x="-4" y="0" width="72" height="72" filterUnits="userSpaceOnUse" color-interpolation-filters="sRGB"><feFlood flood-opacity="0" result="BackgroundImageFix"/><feColorMatrix in="SourceAlpha" values="0 0 0 0 0 0 0 0 0 0 0 0 0 0 0 0 0 0 127 0" result="hardAlpha"/><feOffset dy="4"/><feGaussianBlur stdDeviation="2"/><feComposite in2="hardAlpha" operator="out"/><feColorMatrix values="0 0 0 0 0 0 0 0 0 0 0 0 0 0 0 0 0 0 0.25 0"/><feBlend in2="BackgroundImageFix" result="effect1_dropShadow_2057_12209"/><feBlend in="SourceGraphic" in2="effect1_dropShadow_2057_12209" result="shape"/></filter></defs></svg><svg fill="none" viewBox="0 0 64 64" id="svg--Audience,_goal,_marketing,_target,_target_audience" xmlns="http://www.w3.org/2000/svg"><path d="m43.228 38.021.253.072A12.94 12.94 0 0 0 45 31.998c0-4.347-2.14-8.184-5.415-10.544.122.46.21.967.278 1.501C42.393 25.158 44 28.391 44 32c0 2.108-.551 4.09-1.51 5.813l.738.21ZM24.137 22.957c.068-.535.156-1.042.278-1.5C21.14 23.814 19 27.651 19 31.998c0 2.204.553 4.276 1.52 6.095l.253-.072.737-.21A11.923 11.923 0 0 1 20 32c0-3.608 1.607-6.84 4.137-9.042ZM32.5 48h-1v11h1V48ZM32.5 5h-1v11h1V5ZM16 31.5H5v1h11v-1ZM59 31.5H48v1h11v-1ZM30.502 8.052V7.05C17.889 7.795 7.797 17.886 7.05 30.5h1.003C8.8 18.46 18.462 8.798 30.502 8.052ZM8.054 33.5H7.05c.746 12.613 10.838 22.705 23.45 23.451v-1.003C18.462 55.201 8.802 45.54 8.055 33.5ZM55.948 30.5h1.003C56.205 17.886 46.113 7.795 33.5 7.05v1.002C45.54 8.798 55.201 18.46 55.948 30.5ZM33.5 55.948v1.003c12.613-.746 22.705-10.838 23.451-23.451h-1.003C55.201 45.54 45.54 55.201 33.5 55.948Z" fill="#0A0D50"/><path d="M33.5 51.924v1c10.398-.736 18.688-9.025 19.424-19.424h-1c-.735 9.83-8.593 17.689-18.424 18.424ZM51.924 30.5h1c-.736-10.398-9.026-18.687-19.424-19.424v1c9.831.735 17.689 8.593 18.424 18.424ZM12.074 33.5h-1c.736 10.398 9.025 18.688 19.424 19.424v-1c-9.83-.735-17.689-8.594-18.424-18.424ZM30.498 12.076v-1C20.1 11.813 11.811 20.102 11.074 30.5h1c.735-9.831 8.593-17.69 18.424-18.424ZM41.934 38.694 36 37l-1 1.382-3 1.499-3-1.499L28 37l-6.953 1.983c.178.278 3.609 6.016 10.953 6.016 7.344 0 10.775-5.737 10.95-6.013l-1.016-.292Zm-19.215.852 4.695-1.339 2.264 5.535.018.01a11.972 11.972 0 0 1-6.977-4.206Zm9.28 4.453c-.395 0-.781-.036-1.167-.074l-1.804-4.411L32 40.999l2.972-1.485-1.804 4.411c-.386.038-.772.074-1.168.074Zm2.307-.247.018-.01 2.263-5.535 4.695 1.339a11.984 11.984 0 0 1-6.976 4.206Z" fill="#0A0D50"/><path d="M34.975 35.25H35v2.974l-3 1.625-3-1.625V35.25h.025a8.192 8.192 0 0 1-.821-1H28v4.667l4 2.199 4-2.199V34.25h-.204a8.192 8.192 0 0 1-.821 1ZM37.801 27.085h-.775a.652.652 0 0 0-.508-.413l-.979-.14a5.297 5.297 0 0 0-.698-.042c-.21 0-.418.01-.579.03l-1.298.162a.553.553 0 0 0-.47.402h-.98a.553.553 0 0 0-.473-.402l-1.299-.162a4.939 4.939 0 0 0-.579-.03c-.25 0-.507.014-.699.042l-.979.14a.653.653 0 0 0-.508.413h-.774v.645h.725l.162 1.133c.043.351.367.599.718.65l.98.099c.138.021.311.01.491.01.275 0 .567-.033.777-.075l.348-.074c.347-.07.702-.249.788-.593l.327-1.149s.061-.322.483-.322.483.322.483.322l.327 1.147c.086.343.441.601.79.671l.346.029c.21.042.502.045.778.045.18 0 .353-.02.491-.04l.98-.145c.35-.05.673-.22.717-.572l.162-1.135h.725v-.646Zm-6.59.225-.333 1.328c-.056.224-.313.468-.539.513l-.348.069a3.895 3.895 0 0 1-.714.059c-.17 0-.329-.009-.446-.026l-.979-.14a.576.576 0 0 1-.444-.452l-.162-1.299a.338.338 0 0 1 .283-.371l.98-.14c.168-.024.407-.038.653-.038.206 0 .397.01.54.027l1.297.163c.078.01.142.046.18.103.04.056.05.128.031.204Zm5.383 1.351a.578.578 0 0 1-.443.452l-.979.14a3.306 3.306 0 0 1-.446.026c-.267 0-.532-.022-.716-.059l-.347-.069c-.226-.045-.482-.29-.538-.513l-.332-1.328a.25.25 0 0 1 .031-.205.254.254 0 0 1 .18-.103l1.3-.163c.141-.017.332-.027.537-.027.247 0 .484.014.653.038l.98.14a.337.337 0 0 1 .283.371l-.163 1.3Z" fill="#0A0D50"/><path d="M36.67 22.059c.208.574.33 1.206.33 1.89v5c0 2.993-2.472 7-5 7s-5-4.007-5-7v-5c0-.672.12-1.291.32-1.856-.338.318-.976 2.04-1.279 2.938-.017-.051-.025-.097-.041-.147v4.066c0 3.526 2.825 7.999 6 7.999s6-4.473 6-8v-4.053c-.397-1.061-1.037-2.59-1.33-2.837Z" fill="#0A0D50"/><path d="M32.008 17.95c3.438 0 5.606 1.81 5.945 5.673-.337-.994-1.06-2.102-1.356-2.102-.463 0-.853.221-1.304.478-.706.401-1.674.951-3.285.951-1.615 0-2.584-.548-3.29-.948-.452-.256-.84-.476-1.302-.476-.296 0-1.019 1.106-1.354 2.097.34-3.861 2.508-5.673 5.946-5.673Zm0-1c-4.104 0-6.594 2.456-6.94 6.585-.214 2.533 1.034 5.214 1.034 5.214l.908-4.807c.18-.532.478-1.057.685-1.348.142.059.313.154.53.276.757.43 1.903 1.079 3.783 1.079 1.876 0 3.021-.651 3.78-1.082.215-.123.387-.219.53-.278.208.292.507.819.687 1.354l.846 4.962s1.185-2.683 1.098-5.371c-.129-4.003-2.838-6.584-6.94-6.584Z" fill="#0A0D50"/></svg><svg fill="none" viewBox="0 0 64 64" id="svg--Brain,_brainstorm,_idea,_mind" xmlns="http://www.w3.org/2000/svg"><path d="M17.922 31.599c1.6-.19 3.15.589 3.95 1.987.01.017.015.036.024.054a3.955 3.955 0 0 1 1.463-1.48 3.983 3.983 0 0 1 1.57-.506.5.5 0 0 1 .103.994 3.003 3.003 0 0 0-2.291 4.474 2.972 2.972 0 0 0 1.885 1.423.5.5 0 1 1-.242.97 3.97 3.97 0 0 1-2.512-1.897 3.956 3.956 0 0 1-.48-2.483c-.015-.036-.035-.067-.04-.106a3.026 3.026 0 0 0-.349-.945 3 3 0 0 0-2.964-1.491.498.498 0 0 1-.555-.437.499.499 0 0 1 .438-.557ZM11.813 45.442A3.998 3.998 0 0 1 15.5 43c.02 0 .04.005.06.005a3.96 3.96 0 0 1-.56-2.005c0-.562.114-1.104.34-1.613a.5.5 0 1 1 .914.404A3.004 3.004 0 0 0 19 44c.827 0 1.598-.33 2.171-.931a.5.5 0 0 1 .723.691 3.965 3.965 0 0 1-5.29.425c-.038-.005-.075-.003-.112-.017a3.006 3.006 0 0 0-3.759 1.665.5.5 0 1 1-.92-.391ZM21.998 53.002c.55 0 1.098-.114 1.616-.344a3.964 3.964 0 0 0 2.114-2.214 3.97 3.97 0 0 0-.072-3.06.5.5 0 0 0-.914.404c.324.732.343 1.547.054 2.294a2.976 2.976 0 0 1-1.586 1.661 2.996 2.996 0 0 1-3.955-1.532.5.5 0 0 0-.916.402 3.969 3.969 0 0 0 2.214 2.115c.468.183.957.274 1.445.274Z" fill="#0A0D50"/><path d="M8.102 44.256c.041.022.086.023.13.034A5.474 5.474 0 0 0 7.5 47c0 3.032 2.468 5.5 5.5 5.5.066 0 .13-.015.188-.038C13.843 55.065 16.196 57 19 57c.91 0 2.681-.409 2.775-.355A6.503 6.503 0 0 0 25 57.5c3.584 0 6.5-2.916 6.5-6.5a6.487 6.487 0 0 0-2.073-4.747C31.492 45.454 31.5 42.837 31.5 41c0-1.673-.006-3.995-1.565-5 1.56-1.005 1.565-3.327 1.565-5s-.006-3.995-1.565-5c1.56-1.005 1.565-3.327 1.565-5 0-1.708-.008-4.089-1.666-5.059A5.466 5.466 0 0 0 31.5 12c0-3.032-2.468-5.5-5.5-5.5-2.604 0-4.786 1.821-5.353 4.255A5.476 5.476 0 0 0 19 10.5a5.507 5.507 0 0 0-5.5 5.5c0 .077.018.15.021.228a.48.48 0 0 0-.209.014C10.773 16.983 9 19.352 9 22c0 1.129.336 2.203.906 3.131A4.986 4.986 0 0 0 6 30a5 5 0 0 0 1.872 3.89A5.994 5.994 0 0 0 5 39a6.008 6.008 0 0 0 3.102 5.256Zm.645-.727a.488.488 0 0 0-.161-.148A5.01 5.01 0 0 1 6 39a5.006 5.006 0 0 1 5.698-4.953.5.5 0 1 0 .135-.991 5.955 5.955 0 0 0-2.941.334A3.995 3.995 0 0 1 7 30a3.984 3.984 0 0 1 3.576-3.962 5.953 5.953 0 0 0 2.281 1.567.5.5 0 1 0 .358-.934A5.027 5.027 0 0 1 10 22a5.026 5.026 0 0 1 3.594-4.8c.017-.005.029-.018.045-.023a5.488 5.488 0 0 0 1.327 2.563.501.501 0 0 0 .734-.68A4.488 4.488 0 0 1 14.5 16a4.505 4.505 0 0 1 5.89-4.281c.041.014.082.012.124.015-.005.088-.014.176-.014.266a.5.5 0 0 0 1 0c0-2.481 2.019-4.5 4.5-4.5s4.5 2.019 4.5 4.5a4.476 4.476 0 0 1-1.718 3.538c-.01.008-.015.02-.024.028A4.552 4.552 0 0 0 28 15.5a.5.5 0 0 0 0 1c2.126 0 2.5 1.451 2.5 4.5s-.374 4.5-2.5 4.5a.5.5 0 0 0 0 1c2.126 0 2.5 1.451 2.5 4.5s-.374 4.5-2.5 4.5a.5.5 0 0 0 0 1c2.126 0 2.5 1.451 2.5 4.5s-.374 4.5-2.5 4.5a.5.5 0 0 0 0 1c.051 0 .094-.007.144-.009A5.497 5.497 0 0 1 30.5 51c0 3.032-2.468 5.5-5.5 5.5-.878 0-1.739-.22-2.515-.618a6.08 6.08 0 0 0 .827-.709.5.5 0 1 0-.719-.695A4.96 4.96 0 0 1 19 56c-2.757 0-5-2.243-5-5a.5.5 0 0 0-1 0c0 .171.012.338.025.505-.009 0-.017-.005-.025-.005A4.505 4.505 0 0 1 8.5 47a4.515 4.515 0 0 1 2.639-4.099.5.5 0 1 0-.414-.91 5.483 5.483 0 0 0-1.978 1.538Z" fill="#0A0D50"/><path d="M15 22c1.286 0 2.377.817 2.803 1.957.262-.282.578-.514.938-.68a2.985 2.985 0 0 1 2.295-.094.502.502 0 0 1 .297.643.503.503 0 0 1-.643.297 1.975 1.975 0 0 0-1.529.062 2 2 0 0 0 .151 3.692.502.502 0 0 1-.346.94 2.993 2.993 0 0 1-1.863-3.53A.48.48 0 0 1 17 25c0-1.103-.897-2-2-2a.5.5 0 0 1 0-1ZM20.358 15.513a.5.5 0 0 1 .704.069 2.502 2.502 0 0 0 3.936-3.084.497.497 0 0 1 .1-.699.498.498 0 0 1 .7.1c.458.61.7 1.336.7 2.101 0 .993-.42 1.886-1.086 2.522a.497.497 0 0 1-.089.121 2.507 2.507 0 0 0-.825 1.856c0 .668.26 1.296.732 1.769a.5.5 0 0 1-.708.707 3.478 3.478 0 0 1-1.025-2.476c0-.368.076-.726.188-1.069a3.493 3.493 0 0 1-3.396-1.213.5.5 0 0 1 .07-.704ZM46.076 31.599c-1.6-.19-3.15.589-3.949 1.987-.01.017-.016.036-.025.054a3.955 3.955 0 0 0-1.463-1.48 3.983 3.983 0 0 0-1.569-.506.5.5 0 0 0-.103.994 3.003 3.003 0 0 1 2.291 4.474 2.972 2.972 0 0 1-1.886 1.423.5.5 0 1 0 .242.97 3.97 3.97 0 0 0 2.512-1.897 3.956 3.956 0 0 0 .48-2.483c.015-.036.035-.067.041-.106.062-.331.18-.649.348-.945a3 3 0 0 1 2.964-1.491.498.498 0 0 0 .555-.437.499.499 0 0 0-.438-.557ZM52.184 45.442A3.998 3.998 0 0 0 48.498 43c-.02 0-.039.005-.059.005A3.96 3.96 0 0 0 49 41c0-.562-.115-1.104-.34-1.613a.5.5 0 1 0-.914.404A3.004 3.004 0 0 1 44.998 44c-.828 0-1.599-.33-2.172-.931a.5.5 0 0 0-.723.691 3.965 3.965 0 0 0 5.29.425c.038-.005.075-.003.112-.017a3.006 3.006 0 0 1 3.76 1.665.5.5 0 1 0 .92-.391ZM42.002 53.002c-.55 0-1.098-.114-1.616-.344a3.964 3.964 0 0 1-2.114-2.214 3.97 3.97 0 0 1 .072-3.06.5.5 0 0 1 .914.404 2.977 2.977 0 0 0-.054 2.294 2.976 2.976 0 0 0 1.586 1.661 2.996 2.996 0 0 0 3.955-1.532.5.5 0 0 1 .916.402 3.969 3.969 0 0 1-2.214 2.115 3.963 3.963 0 0 1-1.445.274Z" fill="#0A0D50"/><path d="M59 39a5.994 5.994 0 0 0-2.872-5.11A5 5 0 0 0 58 30a4.986 4.986 0 0 0-3.906-4.869c.57-.928.906-2.002.906-3.131a6.03 6.03 0 0 0-4.313-5.759.496.496 0 0 0-.209-.014c.004-.077.022-.15.022-.227 0-3.032-2.468-5.5-5.5-5.5-.563 0-1.117.088-1.647.255C42.786 8.321 40.604 6.5 38 6.5a5.507 5.507 0 0 0-5.5 5.5c0 1.503.603 2.91 1.666 3.941-1.658.97-1.666 3.351-1.666 5.059 0 1.673.006 3.995 1.565 5-1.56 1.005-1.565 3.327-1.565 5s.006 3.995 1.565 5c-1.56 1.005-1.565 3.327-1.565 5 0 1.837.008 4.454 2.073 5.253A6.487 6.487 0 0 0 32.5 51c0 3.584 2.916 6.5 6.5 6.5a6.503 6.503 0 0 0 3.225-.855C42.319 56.591 44.09 57 45 57c2.804 0 5.157-1.935 5.813-4.538A.503.503 0 0 0 51 52.5c3.032 0 5.5-2.468 5.5-5.5 0-.971-.269-1.896-.731-2.71.044-.011.089-.012.13-.034A6.009 6.009 0 0 0 59 39Zm-5.725 2.991a.5.5 0 1 0-.414.91A4.515 4.515 0 0 1 55.5 47c0 2.481-2.019 4.5-4.5 4.5-.009 0-.017.005-.025.005.013-.167.025-.334.025-.505a.5.5 0 0 0-1 0c0 2.757-2.243 5-5 5a4.963 4.963 0 0 1-3.594-1.522.5.5 0 0 0-.719.695c.256.265.535.499.827.709A5.512 5.512 0 0 1 39 56.5a5.507 5.507 0 0 1-5.5-5.5c0-1.801.881-3.478 2.356-4.509.05.002.093.009.144.009a.5.5 0 0 0 0-1c-2.126 0-2.5-1.451-2.5-4.5s.374-4.5 2.5-4.5a.5.5 0 0 0 0-1c-2.126 0-2.5-1.451-2.5-4.5s.374-4.5 2.5-4.5a.5.5 0 0 0 0-1c-2.126 0-2.5-1.451-2.5-4.5s.374-4.5 2.5-4.5a.5.5 0 0 0 0-1c-.276 0-.523.027-.758.066-.01-.009-.015-.021-.024-.028A4.476 4.476 0 0 1 33.5 12c0-2.481 2.019-4.5 4.5-4.5s4.5 2.019 4.5 4.5a.5.5 0 0 0 1 0c0-.09-.009-.178-.014-.267.042-.003.083-.001.124-.015A4.505 4.505 0 0 1 49.5 16a4.488 4.488 0 0 1-1.2 3.06.5.5 0 0 0 .734.68 5.483 5.483 0 0 0 1.327-2.563c.016.006.028.019.045.023A5.026 5.026 0 0 1 54 22a5.029 5.029 0 0 1-3.215 4.672.5.5 0 1 0 .358.934 5.967 5.967 0 0 0 2.281-1.567 3.982 3.982 0 0 1 1.684 7.351 5.955 5.955 0 0 0-2.941-.333.499.499 0 1 0 .135.991A5.006 5.006 0 0 1 58 39a5.01 5.01 0 0 1-2.586 4.381.498.498 0 0 0-.161.148 5.483 5.483 0 0 0-1.978-1.538Z" fill="#0A0D50"/><path d="M49 22a2.997 2.997 0 0 0-2.803 1.957 2.983 2.983 0 0 0-.938-.68 2.985 2.985 0 0 0-2.295-.094.502.502 0 0 0-.297.643c.097.26.382.389.643.297a1.975 1.975 0 0 1 1.53.062 2 2 0 0 1-.151 3.692.502.502 0 0 0 .345.94 2.993 2.993 0 0 0 1.863-3.53A.48.48 0 0 0 47 25c0-1.103.897-2 2-2a.5.5 0 0 0 0-1ZM43.64 15.513a.5.5 0 0 0-.704.069A2.502 2.502 0 0 1 39 12.498a.497.497 0 0 0-.1-.699.498.498 0 0 0-.699.1 3.478 3.478 0 0 0 .385 4.623.497.497 0 0 0 .089.121c.524.474.825 1.15.825 1.856 0 .668-.26 1.296-.732 1.769a.5.5 0 0 0 .708.707 3.478 3.478 0 0 0 1.025-2.476c0-.368-.076-.726-.188-1.069a3.493 3.493 0 0 0 3.396-1.213.5.5 0 0 0-.069-.704Z" fill="#0A0D50"/></svg><svg fill="none" viewBox="0 0 64 64" id="svg--Support" xmlns="http://www.w3.org/2000/svg"><g clip-path="url(#pa)" fill="#0A0D50"><path d="M45.033 27.013c.014.004.026.007.038.012a1.32 1.32 0 0 1 .903-.581l-1.313-2.765c-.19.266-.47.469-.849.54l1.291 2.724-.07.07ZM36.237 35.789c.033-.07.054-.145.098-.208l-4.682-2.447a1.349 1.349 0 0 1-.852.429c-.102.038-.21.067-.328.083l5.234 2.737c.114-.243.29-.45.53-.594Z"/><path d="M48.45 27.962c.166-.305.416-.557.706-.709l-2.534-2.534-12.02 12.02 2.527 2.528c.073-.358.254-.681.52-.894l-1.634-1.634 10.607-10.606 1.829 1.829Z"/><path d="m54.842 59.516.28-1.136L36.93 40.067l12.435-12.434L59.47 37.805l.28-1.134-10.386-10.452-13.85 13.848 19.327 19.449ZM27.833 7.052c1.146-.502 2.602-1.067 3.123-1.067.186.006.422.118.667.276l.716-.716c-.425-.296-.916-.545-1.397-.56-.86 0-2.857.854-3.84 1.3.357.15.599.434.73.767ZM17.333 24.917c.285 0 .523.07.725.182l1.003-2.851a1.399 1.399 0 0 1-.938-.346l-1.072 3.042c.09-.015.182-.027.282-.027ZM46.03 18.768a2.978 2.978 0 0 0-2.056-.878 3.004 3.004 0 0 0-.419-3.718 2.983 2.983 0 0 0-2.22-.877 3.008 3.008 0 0 0-.608-3.366 2.986 2.986 0 0 0-2.057-.878 3.004 3.004 0 0 0-.419-3.718c-1.133-1.133-3.109-1.133-4.242 0l-3.794 3.794c.33.148.557.416.687.727l3.814-3.814c.756-.756 2.072-.756 2.828 0a2.003 2.003 0 0 1 0 2.828l-1.057 1.056c0 .002-.003.003-.004.005a.5.5 0 0 0 .707.707c.756-.756 2.073-.756 2.83 0 .778.78.778 2.049 0 2.829l-.708.707a.5.5 0 0 0 .707.707c.756-.756 2.072-.756 2.828 0 .378.378.586.88.586 1.414 0 .534-.208 1.036-.586 1.414l-1.06 1.06a.5.5 0 0 0 .706.708l.004-.004c.756-.751 2.07-.751 2.824.004.78.78.78 2.049 0 2.829l-7.778 7.778c-.716.716-2.145 1.557-3.12 1.836l-7.43 2.123c.225.256.344.59.365.935l7.34-2.097c1.148-.33 2.71-1.247 3.552-2.09l7.778-7.778a3.001 3.001 0 0 0 .002-4.243Z"/><path d="M26.129 37.961c.333.1.62.308.79.624l2.493-2.493-12.02-12.02-2.51 2.509c.32.13.599.355.777.639l1.733-1.733 10.606 10.606-1.87 1.868Z"/><path d="M14.563 25.486 4.25 35.976l.275 1.14L14.563 26.9l12.935 12.935L9.287 58.37l.277 1.145 19.348-19.681-14.349-14.35Z"/><path d="M22.902 43.017c-.78.779-2.05.78-2.83 0a2.002 2.002 0 0 1 0-2.828 2.001 2.001 0 0 1 2.829 2.828Zm-2.121-2.121a1 1 0 1 0 1.414 1.414 1 1 0 0 0-1.414-1.414ZM19.595 22.853c-.69 0-1.339-.269-1.827-.757l-1.385-1.385a2.569 2.569 0 0 1-.758-1.829c.001-.69.27-1.339.758-1.825.975-.977 2.68-.977 3.654 0l1.385 1.384a2.57 2.57 0 0 1 .758 1.828c0 .69-.27 1.34-.758 1.827a2.567 2.567 0 0 1-1.827.757Zm-1.385-5.554c-.423 0-.821.165-1.12.465a1.57 1.57 0 0 0-.465 1.118c0 .424.165.822.465 1.122l1.385 1.385c.598.598 1.643.598 2.24 0 .3-.299.465-.697.465-1.12 0-.424-.165-.821-.465-1.121l-1.385-1.384a1.571 1.571 0 0 0-1.12-.465Z"/><path d="M23.244 20.248c-.69 0-1.34-.27-1.828-.758l-2.947-2.947a2.57 2.57 0 0 1-.758-1.828c0-.69.27-1.34.758-1.827.975-.977 2.678-.977 3.654 0l2.947 2.948c.489.488.758 1.139.758 1.829a2.564 2.564 0 0 1-.758 1.825 2.563 2.563 0 0 1-1.826.758Zm-2.95-7.118c-.422 0-.82.165-1.118.464-.3.299-.465.697-.465 1.12 0 .424.165.821.465 1.121l2.947 2.947c.6.6 1.643.601 2.24 0 .3-.299.464-.695.465-1.118 0-.424-.165-.822-.465-1.122l-2.947-2.948a1.575 1.575 0 0 0-1.121-.464Z"/><path d="M26.891 17.642c-.69 0-1.34-.27-1.827-.758l-3.99-3.99a2.567 2.567 0 0 1-.758-1.827c0-.69.27-1.34.758-1.827.975-.976 2.678-.978 3.654 0l3.99 3.99c.488.487.758 1.137.758 1.827s-.27 1.34-.758 1.827a2.564 2.564 0 0 1-1.827.758Zm-3.99-8.16c-.424 0-.822.165-1.12.465a1.57 1.57 0 0 0-.466 1.12c0 .423.165.82.465 1.12l3.99 3.99c.598.6 1.643.6 2.24 0 .3-.3.465-.697.465-1.12 0-.423-.165-.821-.465-1.12l-3.99-3.99a1.571 1.571 0 0 0-1.12-.465Z"/><path d="M29.495 13.994a2.57 2.57 0 0 1-1.827-.757l-2.948-2.948a2.587 2.587 0 0 1 0-3.654c.975-.977 2.68-.977 3.655 0l2.947 2.947a2.57 2.57 0 0 1 .758 1.828c0 .69-.27 1.34-.758 1.827a2.566 2.566 0 0 1-1.827.757Zm-2.948-7.118a1.587 1.587 0 0 0-1.12 2.705l2.948 2.948c.6.599 1.644.598 2.24 0 .3-.3.465-.697.465-1.12 0-.424-.165-.821-.465-1.121L27.668 7.34a1.577 1.577 0 0 0-1.12-.465Z"/></g><defs><clipPath id="pa"><path fill="#fff" d="M0 0h64v64H0z"/></clipPath></defs></svg><svg fill="none" viewBox="0 0 18 14" id="svg--Twitter_logo" xmlns="http://www.w3.org/2000/svg"><g clip-path="url(#qa)"><path d="M18 1.704a7.674 7.674 0 0 1-2.121.554A3.564 3.564 0 0 0 17.503.312a7.623 7.623 0 0 1-2.345.854A3.776 3.776 0 0 0 12.462.055c-2.04 0-3.693 1.575-3.693 3.518 0 .276.033.544.096.802-3.07-.147-5.79-1.548-7.612-3.676-.318.52-.5 1.124-.5 1.768 0 1.221.652 2.298 1.643 2.929a3.819 3.819 0 0 1-1.673-.44V5c0 1.704 1.273 3.126 2.962 3.45a3.876 3.876 0 0 1-1.667.06c.47 1.398 1.833 2.415 3.45 2.443A7.646 7.646 0 0 1 .88 12.46c-.298 0-.592-.016-.881-.049a10.833 10.833 0 0 0 5.66 1.58c6.793 0 10.508-5.36 10.508-10.01 0-.152-.004-.304-.01-.454A7.32 7.32 0 0 0 18 1.704Z" fill="#192031"/></g><defs><clipPath id="qa"><path fill="#fff" d="M0 0h18v14H0z"/></clipPath></defs></svg><svg fill="none" viewBox="0 0 18 14" id="svg--Vector" xmlns="http://www.w3.org/2000/svg"><path d="M18 1.704a7.674 7.674 0 0 1-2.121.554A3.564 3.564 0 0 0 17.503.312a7.623 7.623 0 0 1-2.345.854A3.776 3.776 0 0 0 12.462.055c-2.04 0-3.693 1.575-3.693 3.518 0 .276.033.544.096.802-3.07-.147-5.79-1.548-7.612-3.676-.318.52-.5 1.124-.5 1.768 0 1.221.652 2.298 1.643 2.929a3.819 3.819 0 0 1-1.673-.44V5c0 1.704 1.273 3.126 2.962 3.45a3.876 3.876 0 0 1-1.667.06c.47 1.398 1.833 2.415 3.45 2.443A7.646 7.646 0 0 1 .88 12.46c-.298 0-.592-.016-.881-.049a10.833 10.833 0 0 0 5.66 1.58c6.793 0 10.508-5.36 10.508-10.01 0-.152-.004-.304-.01-.454A7.32 7.32 0 0 0 18 1.704Z" fill="#192031"/></svg><svg fill="none" viewBox="0 0 16 16" id="svg--VectorGit" xmlns="http://www.w3.org/2000/svg"><path fill-rule="evenodd" clip-rule="evenodd" d="M7.986 0a7.987 7.987 0 0 0-2.528 15.563c.4.074.57-.171.57-.383v-1.357c-2.218.479-2.686-1.073-2.686-1.073a2.117 2.117 0 0 0-.924-1.17c-.725-.49.057-.484.057-.484a1.677 1.677 0 0 1 1.22.827 1.712 1.712 0 0 0 2.328.662c.032-.405.21-.784.502-1.067-1.768-.205-3.634-.89-3.634-3.948a3.08 3.08 0 0 1 .822-2.145 2.852 2.852 0 0 1 .08-2.11s.667-.217 2.196.815a7.588 7.588 0 0 1 3.993 0c1.524-1.032 2.191-.815 2.191-.815.296.667.324 1.422.08 2.11.54.583.834 1.351.821 2.145 0 3.07-1.865 3.743-3.645 3.942a1.9 1.9 0 0 1 .542 1.478v2.19c0 .263.143.463.57.383A7.987 7.987 0 0 0 7.986 0Z" fill="#192031"/></svg><svg fill="none" viewBox="0 0 24 24" id="svg--arrow-prev" xmlns="http://www.w3.org/2000/svg"><path d="M19 12H5M12 5l-7 7 7 7" stroke="#0A0D50" stroke-width="2" stroke-linecap="round" stroke-linejoin="round"/></svg><svg fill="none" viewBox="0 0 24 24" id="svg--arrow-right" xmlns="http://www.w3.org/2000/svg"><path d="M5 12h14M12 5l7 7-7 7"/></svg><svg fill="none" viewBox="0 0 32 32" id="svg--arrow-right-black" xmlns="http://www.w3.org/2000/svg"><path d="M19.242 7.906 27.335 16l-8.093 8.093M4.664 16h22.44"/></svg><svg fill="none" viewBox="0 0 24 24" id="svg--dashicons_email" xmlns="http://www.w3.org/2000/svg"><path d="M4.643 4.8h15.9c1.5 0 2.256.708 2.256 2.148v10.104c0 1.428-.756 2.148-2.256 2.148h-15.9c-1.5 0-2.256-.72-2.256-2.148V6.948c0-1.44.756-2.148 2.256-2.148Zm7.944 10.32 8.088-6.636c.288-.24.516-.792.156-1.284-.348-.492-.984-.504-1.404-.204l-6.84 4.632-6.828-4.632c-.42-.3-1.056-.288-1.404.204-.36.492-.132 1.044.156 1.284l8.076 6.636Z" fill="#192031"/></svg><svg fill="none" viewBox="0 0 7 14" id="svg--facebook_logo" xmlns="http://www.w3.org/2000/svg"><g clip-path="url(#la)"><path d="M1.787 14V7.43H0V5.067h1.787v-2.02C1.787 1.457 2.842 0 5.275 0c.984 0 1.713.092 1.713.092L6.93 2.3s-.742-.007-1.553-.007c-.877 0-1.017.393-1.017 1.046v1.727H7L6.885 7.43H4.36V14H1.787Z" fill="#192031"/></g><defs><clipPath id="la"><path fill="#fff" d="M0 0h7v14H0z"/></clipPath></defs></svg><svg fill="none" viewBox="0 0 64 64" id="svg--game,_partners,_puzzle,_solution" xmlns="http://www.w3.org/2000/svg"><path d="m21 27.83 5.068 5.068a.316.316 0 0 0-.027.018H26a4.505 4.505 0 0 0-4.5 4.5c0 2.481 2.019 4.5 4.5 4.5 2.48 0 4.5-2.019 4.5-4.5v-.041a.211.211 0 0 1 .018-.027l5.068 5.068-5.086 5.086c-.412.412-.648.955-.648 1.49 0 .445.166.855.464 1.152.18.182.823.773 1.5.773l.106-.002H32c1.379 0 2.5 1.121 2.5 2.5s-1.121 2.5-2.5 2.5a2.502 2.502 0 0 1-2.5-2.5V53.3c.038-.679-.518-1.316-.771-1.57a1.617 1.617 0 0 0-1.154-.463c-.534 0-1.077.236-1.49.648L21 57.001l-5.086-5.086c-.412-.412-.955-.648-1.49-.648-.444 0-.853.164-1.155.465-.251.252-.807.89-.77 1.568v.115c0 1.379-1.12 2.5-2.5 2.5a2.502 2.502 0 0 1-2.5-2.5c0-1.379 1.122-2.5 2.5-2.5h.092l.016.002h.077c.678 0 1.32-.592 1.499-.771.3-.299.466-.709.466-1.154 0-.535-.236-1.078-.648-1.49l-5.086-5.086 5.068-5.068a.63.63 0 0 1 .018.027v.041c0 2.481 2.019 4.5 4.5 4.5 2.48 0 4.5-2.019 4.5-4.5s-2.02-4.5-4.5-4.5h-.041l-.027-.018 5.065-5.066H21v-.002H21Zm0-.998a.998.998 0 0 0-.707.291l-5.086 5.086c-.39.389-.472.942-.184 1.229.27.272.617.479.793.479.01 0 .02 0 .028-.002h.155c1.934 0 3.5 1.566 3.5 3.5s-1.566 3.5-3.5 3.5a3.499 3.499 0 0 1-3.5-3.5v-.155c.025-.164-.19-.534-.477-.822a.622.622 0 0 0-.448-.171c-.26 0-.55.123-.782.355l-5.086 5.086a1.003 1.003 0 0 0 0 1.414l5.086 5.086c.389.389.472.942.184 1.229-.271.272-.617.479-.793.479-.01 0-.02 0-.028-.002H10a3.499 3.499 0 0 0-3.5 3.5c0 1.934 1.566 3.5 3.5 3.5s3.5-1.566 3.5-3.5v-.155c-.025-.164.189-.534.477-.822a.622.622 0 0 1 .448-.171c.259 0 .55.123.782.355l5.086 5.086A.991.991 0 0 0 21 58a.998.998 0 0 0 .707-.291l5.086-5.086c.232-.232.524-.355.782-.355.174 0 .332.056.448.171.287.288.502.658.477.822v.155c0 1.934 1.566 3.5 3.5 3.5s3.5-1.566 3.5-3.5-1.566-3.5-3.5-3.5h-.155c-.01.002-.02.002-.028.002-.176 0-.521-.207-.793-.479-.288-.287-.205-.841.184-1.229l5.086-5.086a1.003 1.003 0 0 0 0-1.414l-5.086-5.086c-.232-.232-.524-.355-.782-.355a.622.622 0 0 0-.448.171c-.287.288-.502.658-.477.822v.155c0 1.934-1.566 3.5-3.5 3.5a3.499 3.499 0 0 1-3.5-3.5c0-1.934 1.566-3.5 3.5-3.5h.155a.132.132 0 0 0 .028.002c.176 0 .52-.207.793-.479.288-.287.205-.841-.184-1.229l-5.086-5.086a.991.991 0 0 0-.707-.293ZM43 5.83l5.068 5.068a.63.63 0 0 1-.027.018H48a4.505 4.505 0 0 0-4.5 4.5c0 2.481 2.019 4.5 4.5 4.5 2.48 0 4.5-2.019 4.5-4.5v-.041a.211.211 0 0 1 .018-.027l5.068 5.068-5.068 5.068-.018-.026v-.042c0-2.481-2.02-4.5-4.5-4.5a4.505 4.505 0 0 0-4.5 4.5c0 2.481 2.019 4.5 4.5 4.5h.04l.028.018L43 35.002l-5.086-5.086c-.412-.412-.955-.648-1.49-.648-.444 0-.853.164-1.155.465-.251.252-.807.89-.77 1.568v.115c0 1.379-1.12 2.5-2.5 2.5a2.502 2.502 0 0 1-2.5-2.5c0-1.378 1.122-2.5 2.5-2.5h.092l.016.002h.077c.678 0 1.32-.592 1.499-.771.3-.3.466-.71.466-1.155 0-.534-.236-1.078-.648-1.49l-5.086-5.086L33.5 15.33c.412-.412.648-.955.648-1.49 0-.445-.166-.855-.464-1.152-.181-.181-.823-.773-1.501-.773l-.105.002H32a2.502 2.502 0 0 1-2.5-2.5c0-1.378 1.12-2.5 2.5-2.5 1.379 0 2.5 1.122 2.5 2.5v.115c-.038.679.518 1.317.77 1.571.3.298.71.462 1.155.462.534 0 1.077-.236 1.489-.648l5.083-5.084H43L43 5.83Zm0-.998a.998.998 0 0 0-.707.291l-5.086 5.086c-.232.232-.524.355-.782.355a.622.622 0 0 1-.448-.171c-.287-.288-.502-.658-.477-.822v-.155c0-1.934-1.566-3.5-3.5-3.5a3.499 3.499 0 0 0-3.5 3.5c0 1.934 1.566 3.5 3.5 3.5h.155a.264.264 0 0 1 .028-.002c.176 0 .52.207.793.479.288.287.205.841-.184 1.229l-5.086 5.086a1.003 1.003 0 0 0 0 1.414l5.086 5.086c.389.389.472.942.184 1.229-.271.272-.617.479-.793.479-.01 0-.02 0-.028-.002H32a3.499 3.499 0 0 0-3.5 3.5c0 1.934 1.566 3.5 3.5 3.5s3.5-1.566 3.5-3.5v-.155c-.025-.164.189-.534.477-.822a.622.622 0 0 1 .448-.171c.259 0 .55.123.782.355l5.086 5.086A.991.991 0 0 0 43 36a.998.998 0 0 0 .707-.291l5.086-5.086c.389-.389.472-.942.184-1.229-.271-.272-.617-.479-.793-.479a.23.23 0 0 0-.028.002H48a3.499 3.499 0 0 1-3.5-3.5c0-1.934 1.566-3.5 3.5-3.5s3.5 1.566 3.5 3.5v.155c-.025.164.189.534.477.822a.622.622 0 0 0 .448.171c.259 0 .55-.123.782-.355l5.086-5.086a1.003 1.003 0 0 0 0-1.414l-5.086-5.086c-.232-.232-.524-.355-.782-.355a.622.622 0 0 0-.448.171c-.287.288-.502.658-.477.822v.155c0 1.934-1.566 3.5-3.5 3.5a3.499 3.499 0 0 1-3.5-3.5c0-1.934 1.566-3.5 3.5-3.5h.155a.132.132 0 0 0 .028.002c.176 0 .52-.207.793-.479.288-.287.205-.841-.184-1.229l-5.086-5.086A.991.991 0 0 0 43 4.832Z" fill="#0A0D50"/></svg><svg fill="none" viewBox="0 0 16 15" id="svg--linkedin_logo" xmlns="http://www.w3.org/2000/svg"><g clip-path="url(#na)"><path d="M3.633 15V4.88H.203V15h3.43ZM1.918 3.497c1.196 0 1.94-.777 1.94-1.748C3.837.756 3.115 0 1.942 0 .767 0 0 .756 0 1.749c0 .97.744 1.748 1.896 1.748h.022ZM5.531 15h3.43V9.348c0-.302.023-.604.114-.82.248-.605.812-1.23 1.76-1.23 1.24 0 1.737.927 1.737 2.288V15h3.43V9.197c0-3.109-1.692-4.555-3.949-4.555-1.85 0-2.663 1.014-3.114 1.705h.023V4.88h-3.43c.044.95 0 10.12 0 10.12V15Z" fill="#192031"/></g><defs><clipPath id="na"><path fill="#fff" d="M0 0h16v15H0z"/></clipPath></defs></svg><svg fill="none" viewBox="0 0 24 24" id="svg--phone" xmlns="http://www.w3.org/2000/svg"><g clip-path="url(#oa)"><path d="M3.244 5.395 5.74 2.902a1.894 1.894 0 0 1 2.688 0l2.686 2.686a1.896 1.896 0 0 1 0 2.688L9.15 10.24a9.23 9.23 0 0 0 1.887 2.72 9.265 9.265 0 0 0 2.72 1.895l1.965-1.964a1.896 1.896 0 0 1 2.688 0l2.688 2.683a1.897 1.897 0 0 1 0 2.69l-2.491 2.492a3.08 3.08 0 0 1-2.67.858c-3.159-.52-6.292-2.2-8.821-4.727-2.527-2.524-4.205-5.656-4.732-8.825a3.085 3.085 0 0 1 .86-2.667Z" fill="#192031"/></g><defs><clipPath id="oa"><path fill="#fff" transform="matrix(-1 0 0 1 24 0)" d="M0 0h24v24H0z"/></clipPath></defs></svg></svg>