<svg width="18" height="18" fill="none" xmlns="http://www.w3.org/2000/svg"><g clip-path="url(#clip0_3893_12094)"><rect width="18" height="18" rx="7" fill="#fff"/><mask id="a" style="mask-type:alpha" maskUnits="userSpaceOnUse" x="-3" y="-3" width="24" height="24"><path fill="#D9D9D9" d="M-3-3h24v24H-3z"/></mask><g mask="url(#a)"><path d="M7.6 10.4L5.45 8.25a.948.948 0 00-.7-.275.948.948 0 00-.7.275.948.948 0 00-.275.7.95.95 0 00.275.7L6.9 12.5c.2.2.433.3.7.3.267 0 .5-.1.7-.3l5.65-5.65a.948.948 0 00.275-.7.948.948 0 00-.275-.7.948.948 0 00-.7-.275.948.948 0 00-.7.275L7.6 10.4zM2 18c-.55 0-1.02-.196-1.413-.587A1.926 1.926 0 010 16V2C0 1.45.196.98.588.587A1.926 1.926 0 012 0h14c.55 0 1.02.196 1.413.588C17.803.979 18 1.45 18 2v14c0 .55-.196 1.02-.587 1.413A1.926 1.926 0 0116 18H2z" fill="#99CF63"/></g></g><defs><clipPath id="clip0_3893_12094"><rect width="18" height="18" rx="7" fill="#fff"/></clipPath></defs></svg>