<svg width="98" height="99" fill="none" xmlns="http://www.w3.org/2000/svg"><g clip-path="url(#clip0_2283_2774)"><g clip-path="url(#clip1_2283_2774)"><g clip-path="url(#clip2_2283_2774)"><path fill-rule="evenodd" clip-rule="evenodd" d="M30 98.767H2c15.464 0 28-12.536 28-28v28z" fill="#FFFDFB"/></g></g></g><g clip-path="url(#clip3_2283_2774)"><g clip-path="url(#clip4_2283_2774)"><g clip-path="url(#clip5_2283_2774)"><path fill-rule="evenodd" clip-rule="evenodd" d="M98 30.767H70c15.464 0 28-12.536 28-28v28z" fill="#FFFDFB"/></g></g></g><defs><clipPath id="clip0_2283_2774"><path fill="#fff" transform="translate(0 68.767)" d="M0 0h30v30H0z"/></clipPath><clipPath id="clip1_2283_2774"><path fill="#fff" transform="translate(0 68.767)" d="M0 0h30v30H0z"/></clipPath><clipPath id="clip2_2283_2774"><path fill="#fff" transform="translate(0 68.767)" d="M0 0h30v30H0z"/></clipPath><clipPath id="clip3_2283_2774"><path fill="#fff" transform="translate(68 .767)" d="M0 0h30v30H0z"/></clipPath><clipPath id="clip4_2283_2774"><path fill="#fff" transform="translate(68 .767)" d="M0 0h30v30H0z"/></clipPath><clipPath id="clip5_2283_2774"><path fill="#fff" transform="translate(68 .767)" d="M0 0h30v30H0z"/></clipPath></defs></svg>