<svg width="64" height="64" viewBox="0 0 64 64" fill="none" xmlns="http://www.w3.org/2000/svg">
<g clip-path="url(#clip0_2398_1320)">
<path d="M14.3365 24.4184C12.0467 24.4184 10.1836 26.2811 10.1836 28.5708C10.1836 30.8663 12.0467 32.7339 14.3365 32.7339C16.6315 32.7339 18.4991 30.8664 18.4991 28.5708C18.499 26.2811 16.6315 24.4184 14.3365 24.4184ZM14.3365 30.7419C13.145 30.7419 12.1756 29.7683 12.1756 28.5709C12.1756 27.3794 13.1448 26.4105 14.3365 26.4105C15.5333 26.4105 16.507 27.3793 16.507 28.5709C16.507 29.7681 15.5333 30.7419 14.3365 30.7419Z" fill="#0A0D50"/>
<path d="M49.3337 0.126648C41.3158 0.126648 34.793 6.64952 34.793 14.6673C34.793 15.7641 34.9258 16.8288 35.1575 17.8566H7.44166C3.41041 17.8566 0.130906 21.1365 0.130906 25.1674C0.130656 28.1969 0.131656 13.8726 0.128906 56.5618C0.128906 60.6056 3.42178 63.8734 7.44153 63.8734H38.8364C42.8935 63.8734 46.149 60.5668 46.149 56.5618C46.1489 54.1043 46.1497 66.1002 46.147 28.8318C47.174 29.0624 48.2379 29.1944 49.3335 29.1944C57.3514 29.1944 63.8747 22.6774 63.8747 14.6674C63.8748 6.6494 57.3515 0.126648 49.3337 0.126648ZM44.1552 51.0456V56.5628C44.1552 59.5663 41.6183 61.8804 38.838 61.8804H7.43966C4.50791 61.8804 2.12291 59.4945 2.12291 56.5628V51.0456H44.1552ZM7.70616 49.0526L13.8895 39.994L17.6344 45.4654C17.8202 45.7368 18.1275 45.8993 18.4563 45.8993H18.4568C18.7855 45.8993 19.0934 45.7369 19.2787 45.4654L27.6919 33.1493L38.5694 49.0439L7.70616 49.0526ZM44.1552 49.0536H40.9899L28.5135 30.8226C28.3278 30.5513 28.0204 30.3888 27.6917 30.3888H27.6912C27.3624 30.3888 27.0545 30.5511 26.8693 30.8226L18.456 43.1388L14.7107 37.6664C14.5249 37.395 14.2175 37.2325 13.8888 37.2325H13.8883C13.559 37.2325 13.2517 37.3949 13.0659 37.6673L5.29428 49.0535H2.12303V25.1673C2.12303 22.2346 4.50903 19.8486 7.44166 19.8486H35.7658C37.2428 23.6946 40.3043 26.7516 44.155 28.2251V49.0536H44.1552ZM49.3337 27.2023C42.4145 27.2023 36.785 21.5791 36.785 14.6673C36.785 7.74765 42.4144 2.11865 49.3337 2.11865C56.2533 2.11865 61.8828 7.74752 61.8828 14.6673C61.8828 21.5791 56.2533 27.2023 49.3337 27.2023Z" fill="#0A0D50"/>
<path d="M54.5665 13.8405L47.3652 8.8789C47.0607 8.66877 46.6643 8.6464 46.3376 8.81665C46.0098 8.98877 45.8046 9.32827 45.8041 9.6979L45.793 19.6213C45.7925 19.9909 45.9972 20.3313 46.325 20.5035C46.6521 20.6758 47.047 20.6529 47.3536 20.4433L54.5661 15.4816C54.836 15.2959 54.9975 14.9885 54.9975 14.6606C54.9975 14.3328 54.8365 14.0263 54.5665 13.8405ZM47.7868 17.7264L47.7941 11.5936L52.2446 14.6595L47.7868 17.7264Z" fill="#0A0D50"/>
</g>
<defs>
<clipPath id="clip0_2398_1320">
<rect width="64" height="64" fill="white"/>
</clipPath>
</defs>
</svg>
