<svg width="64" height="64" viewBox="0 0 64 64" fill="none" xmlns="http://www.w3.org/2000/svg">
<g clip-path="url(#clip0_2398_1329)">
<path d="M12.6593 30.9839C8.56502 30.9839 5.23438 27.6835 5.23438 23.628C5.23438 19.5721 8.56502 16.2717 12.6593 16.2717C16.753 16.2717 20.0832 19.5716 20.0832 23.628C20.0832 27.684 16.753 30.9839 12.6593 30.9839ZM12.6593 18.3362C9.70313 18.3362 7.29889 20.7102 7.29889 23.628C7.29889 26.5454 9.70313 28.9193 12.6593 28.9193C15.6144 28.9193 18.0187 26.5454 18.0187 23.628C18.0187 20.7102 15.6144 18.3362 12.6593 18.3362Z" fill="#0A0D50"/>
<path d="M15.6467 51.3508H2.69808C1.21018 51.3508 0 50.1482 0 48.6699V45.2934C0 38.3811 5.67893 32.7571 12.6598 32.7571C15.4052 32.7571 18.0187 33.6139 20.2152 35.2344C20.6739 35.5731 20.7717 36.2193 20.433 36.6785C20.0943 37.1366 19.4486 37.2344 18.9894 36.8962C17.1502 35.5393 14.9617 34.8216 12.6598 34.8216C6.81754 34.8216 2.06452 39.5197 2.06452 45.2934V48.6699C2.06452 49.0096 2.34879 49.2863 2.69808 49.2863H15.6472C16.2167 49.2863 16.6794 49.7485 16.6794 50.3186C16.6794 50.8881 16.2167 51.3508 15.6467 51.3508Z" fill="#0A0D50"/>
<path d="M61.3036 50.5696H48.355C47.7854 50.5696 47.3227 50.1074 47.3227 49.5373C47.3227 48.9678 47.7854 48.505 48.355 48.505H61.3041C61.6534 48.505 61.9376 48.2288 61.9376 47.8891V44.5126C61.9376 38.7379 57.1846 34.0408 51.3424 34.0408C48.9024 34.0408 46.5203 34.8811 44.6347 36.4073C44.1922 36.7656 43.5425 36.6976 43.1831 36.2545C42.8247 35.8115 42.8923 35.1613 43.3363 34.8024C45.5878 32.9804 48.4311 31.9763 51.3424 31.9763C58.3227 31.9763 64.0016 37.5998 64.0016 44.5126V47.8891C64.0016 49.3669 62.7915 50.5696 61.3036 50.5696Z" fill="#0A0D50"/>
<path d="M51.3419 30.4738C47.2481 30.4738 43.918 27.1739 43.918 23.1179C43.918 19.062 47.2481 15.7616 51.3419 15.7616C55.4361 15.7616 58.7668 19.0615 58.7668 23.1179C58.7668 27.1744 55.4356 30.4738 51.3419 30.4738ZM51.3419 17.8261C48.3867 17.8261 45.9825 20.2001 45.9825 23.1179C45.9825 26.0358 48.3867 28.4093 51.3419 28.4093C54.298 28.4093 56.7022 26.0358 56.7022 23.1179C56.7022 20.2001 54.2975 17.8261 51.3419 17.8261Z" fill="#0A0D50"/>
<path d="M46.0089 54.7097H17.9888C16.1274 54.7097 14.6133 53.2067 14.6133 51.3589V46.6099C14.6133 37.119 22.4117 29.3977 31.9989 29.3977C41.5861 29.3977 49.3845 37.119 49.3845 46.6099V51.3589C49.3845 53.2067 47.8703 54.7097 46.0089 54.7097ZM31.9989 31.4627C23.5508 31.4627 16.6778 38.2581 16.6778 46.6104V51.3594C16.6778 52.0686 17.266 52.6457 17.9888 52.6457H46.0084C46.7312 52.6457 47.3194 52.0686 47.3194 51.3594V46.6104C47.3199 38.2581 40.447 31.4627 31.9989 31.4627Z" fill="#0A0D50"/>
<path d="M31.6419 28.1916C26.3818 28.1916 22.1016 23.9521 22.1016 18.7404C22.1016 13.5293 26.3813 9.29034 31.6419 9.29034C36.903 9.29034 41.1827 13.5298 41.1827 18.7409C41.1827 23.9526 36.9025 28.1916 31.6419 28.1916ZM31.6419 11.3549C27.5199 11.3549 24.1661 14.6684 24.1661 18.7409C24.1661 22.814 27.5199 26.1275 31.6419 26.1275C35.7644 26.1275 39.1182 22.814 39.1182 18.7409C39.1182 14.6684 35.7644 11.3549 31.6419 11.3549Z" fill="#0A0D50"/>
</g>
<defs>
<clipPath id="clip0_2398_1329">
<rect width="64" height="64" fill="white"/>
</clipPath>
</defs>
</svg>
