<svg width="64" height="64" viewBox="0 0 64 64" fill="none" xmlns="http://www.w3.org/2000/svg">
<path fill-rule="evenodd" clip-rule="evenodd" d="M26.8107 56.512L47.5508 59.978C48.5508 60.144 49.5747 59.908 50.4007 59.318C51.2267 58.73 51.7847 57.836 51.9507 56.836C53.4007 48.162 57.9008 21.232 59.3508 12.556C59.6988 10.474 58.2928 8.50397 56.2108 8.15597L47.3127 6.66797C46.8327 5.10597 45.3768 3.96997 43.6568 3.96997H19.6748C19.1268 3.96997 18.6007 4.18797 18.2127 4.57597C15.6427 7.14597 5.78075 17.008 5.78075 17.008C5.58075 17.208 5.46875 17.478 5.46875 17.76V52.688C5.46875 54.8 7.18075 56.512 9.29275 56.512H26.8107ZM47.4787 8.84997L47.4807 52.688C47.4807 53.702 47.0787 54.674 46.3607 55.392C45.6447 56.108 44.6708 56.512 43.6568 56.512H39.7047L47.9007 57.88C48.3447 57.956 48.8007 57.85 49.1667 57.588C49.5327 57.326 49.7808 56.93 49.8548 56.486C51.3048 47.81 55.8047 20.882 57.2547 12.206C57.4087 11.28 56.7847 10.406 55.8607 10.252L47.4787 8.84997ZM9.29275 54.386H43.6568C44.1088 54.386 44.5407 54.208 44.8587 53.888C45.1768 53.57 45.3548 53.138 45.3548 52.688V7.79397C45.3548 6.85597 44.5948 6.09597 43.6568 6.09597H20.3207V17.76C20.3207 18.346 19.8448 18.822 19.2588 18.822H7.59475V52.688C7.59475 53.626 8.35475 54.386 9.29275 54.386ZM14.9567 47.85H39.3607C39.9467 47.85 40.4227 47.374 40.4227 46.786C40.4227 46.2 39.9467 45.724 39.3607 45.724H14.9567C14.3707 45.724 13.8948 46.2 13.8948 46.786C13.8948 47.374 14.3707 47.85 14.9567 47.85ZM14.9567 40.208H39.3607C39.9467 40.208 40.4227 39.732 40.4227 39.146C40.4227 38.56 39.9467 38.084 39.3607 38.084H14.9567C14.3707 38.084 13.8948 38.56 13.8948 39.146C13.8948 39.732 14.3707 40.208 14.9567 40.208ZM14.9567 32.568H39.3607C39.9467 32.568 40.4227 32.092 40.4227 31.506C40.4227 30.92 39.9467 30.442 39.3607 30.442H14.9567C14.3707 30.442 13.8948 30.92 13.8948 31.506C13.8948 32.092 14.3707 32.568 14.9567 32.568ZM14.9567 24.928H39.3607C39.9467 24.928 40.4227 24.452 40.4227 23.864C40.4227 23.278 39.9467 22.802 39.3607 22.802H14.9567C14.3707 22.802 13.8948 23.278 13.8948 23.864C13.8948 24.452 14.3707 24.928 14.9567 24.928ZM26.1227 17.286H39.3607C39.9467 17.286 40.4227 16.81 40.4227 16.224C40.4227 15.638 39.9467 15.162 39.3607 15.162H26.1227C25.5367 15.162 25.0607 15.638 25.0607 16.224C25.0607 16.81 25.5367 17.286 26.1227 17.286ZM18.1967 7.59797V16.698H9.09675L18.1967 7.59797Z" fill="#0A0D50"/>
</svg>
