<svg width="84" height="84" fill="none" xmlns="http://www.w3.org/2000/svg"><g filter="url(#filter0_d_5087_1703)"><circle cx="42" cy="36" r="30" fill="#12126B"/><circle cx="42" cy="36" r="27.5" stroke="#fff" stroke-width="5"/></g><path d="M38.011 30.215c-1.711-.009-3.86.918-5.499 2.557a8.852 8.852 0 00-1.601 2.174c1.479-1.119 3.057-1.47 4.903-.434a21.67 21.67 0 012.197-4.297zm9.785 9.773a23.565 23.565 0 01-4.297 2.21c1.036 1.848.686 3.424-.434 4.902a8.804 8.804 0 002.175-1.602c1.644-1.642 2.572-3.796 2.556-5.51zm6.152-15.946A17.883 17.883 0 0052.735 24c-8.602 0-13.498 6.558-15.28 11.833l4.728 4.729C47.611 38.616 54 33.901 54 25.39c0-.439-.017-.888-.052-1.348zm-9.888 9.91a.999.999 0 111.414-1.414.999.999 0 11-1.414 1.414zm2.828-2.828a2 2 0 112.828-2.828 2 2 0 01-2.828 2.828zM31.969 43.578l-.906-.906 5.208-5.188.906.906-5.208 5.188zm4.979 1.857l-.906-.906 3.636-3.664.906.906-3.636 3.664zM30.906 48L30 47.094l6.448-6.438.906.906L30.906 48z" fill="#fff"/><defs><filter id="filter0_d_5087_1703" x="0" y="0" width="84" height="84" filterUnits="userSpaceOnUse" color-interpolation-filters="sRGB"><feFlood flood-opacity="0" result="BackgroundImageFix"/><feColorMatrix in="SourceAlpha" values="0 0 0 0 0 0 0 0 0 0 0 0 0 0 0 0 0 0 127 0" result="hardAlpha"/><feOffset dy="6"/><feGaussianBlur stdDeviation="6"/><feColorMatrix values="0 0 0 0 0.196078 0 0 0 0 0.286275 0 0 0 0 0.392157 0 0 0 0.1 0"/><feBlend in2="BackgroundImageFix" result="effect1_dropShadow_5087_1703"/><feBlend in="SourceGraphic" in2="effect1_dropShadow_5087_1703" result="shape"/></filter></defs></svg>