<svg width="80" height="80" fill="none" xmlns="http://www.w3.org/2000/svg"><path d="M70.716 8.3H33.762v29.917h36.954V8.299z" fill="#fff"/><path d="M70.716 38.437H33.762a.22.22 0 01-.219-.22V8.3a.22.22 0 01.22-.219h36.953a.22.22 0 01.22.22v29.918a.219.219 0 01-.22.22zm-36.734-.439h36.515V8.518H33.982v29.48z" fill="#7A7AFB"/><path d="M49.544 23.06h-9.87a.22.22 0 01-.219-.22v-6.214a.22.22 0 01.22-.22h3.27l1.507-1.586a.222.222 0 01.159-.068h4.936a.22.22 0 01.22.22v7.868a.22.22 0 01-.223.22zm-9.65-.44h9.43v-7.43h-4.622l-1.507 1.585a.217.217 0 01-.16.069h-3.143l.002 5.777zm24.912.44h-9.87a.22.22 0 01-.22-.22v-6.214a.22.22 0 01.22-.22h3.27l1.508-1.586a.218.218 0 01.16-.068h4.935a.22.22 0 01.22.22v7.868a.22.22 0 01-.223.22zm-9.65-.439h9.43V15.19h-4.623l-1.507 1.585a.218.218 0 01-.16.069h-3.143l.003 5.777zm-6.839 8.554h-7.722a.22.22 0 01-.22-.219v-5.848a.22.22 0 01.22-.22h7.722a.22.22 0 01.22.22v5.848a.219.219 0 01-.22.22zm-7.5-.438h7.281v-5.41h-7.284l.002 5.41z" fill="#7A7AFB"/><path d="M49.544 34.733h-9.872v-6.217h3.364l1.572-1.654h4.936v7.87z" fill="#fff"/><path d="M49.544 34.95h-9.87a.22.22 0 01-.219-.22v-6.214a.22.22 0 01.22-.22h3.27l1.507-1.586a.224.224 0 01.159-.068h4.936a.22.22 0 01.22.22v7.868a.22.22 0 01-.223.22zm-9.65-.44h9.43v-7.428h-4.622l-1.507 1.586a.221.221 0 01-.16.068h-3.143l.002 5.775zm24.912.44h-9.87a.22.22 0 01-.22-.22v-6.214a.22.22 0 01.22-.22h3.27l1.508-1.586a.218.218 0 01.16-.068h4.935a.22.22 0 01.22.22v7.868a.22.22 0 01-.223.22zm-9.65-.44h9.43v-7.428h-4.623l-1.507 1.586a.218.218 0 01-.16.068h-3.143l.003 5.775zm15.56-21.954H33.762a.22.22 0 010-.439h36.954a.22.22 0 01.22.22.219.219 0 01-.22.219zm-30.492-2.098h-4.737a.219.219 0 110-.438h4.737a.22.22 0 010 .438zm27.052.969a.222.222 0 01-.203-.137.218.218 0 01.05-.24L68.9 9.338a.221.221 0 01.243-.048.222.222 0 01.133.21.215.215 0 01-.072.154l-1.776 1.712a.215.215 0 01-.152.061z" fill="#7A7AFB"/><path d="M69.051 11.427a.216.216 0 01-.152-.061l-1.776-1.712a.216.216 0 01-.072-.155.225.225 0 01.061-.16.22.22 0 01.315 0l1.776 1.71a.22.22 0 01-.152.378z" fill="#7A7AFB"/><path d="M44.955 25.931c-.334.378-1.481-.323-2.47.2-3.544 1.879-7.983 9.87-10.55 11.749-.162.306-.323.602-.486.886-2.075 3.628-6.526 7.96-7.11 11.589-.623 3.853 3.924 6.765 3.864 9.81-.06 3.044-5.601 5.819-5.601 5.819s2.745 1.458 2.745 2.066c0 .61-4.326.498-4.326.498s-.325.531-3.805.559c-1.55.012-2.976.205-3.176-.56-.322-1.229 2.592-6.776 2.592-7.317 0-.542-10.14-3.832-9.12-12.648 1.069-9.248 7.8-9.943 11.962-17.126 2.745-4.741 2.637-7.817 3.802-11.229.893-2.613 4.118-4.833 7.631-3.792 4.454 1.32 5.483 5.175 5.29 8.216-.063.992-.284 2.223-.619 3.572 2.243-1.99 5.313-4.638 6.945-4.573 2.266.088 2.432 1.233 2.432 1.233s-.908-.018-.935.146c-.064.384 1.269.524.935.902z" fill="#12126B"/><path d="M21.64 29.548s-6.164-3.655-9.343-.2c-3.801 4.137.15 9.124 1.462 10.454 1.261 1.274 2.09 1.99 2.494 1.754a.4.4 0 00.227-.434.403.403 0 00-.065-.161s.425.332.73.024c.235-.234.034-.58.034-.58s.443.265.676-.147c.245-.431-.93-1.073-.964-1.445-.027-.304 1.174-.008 1.037-.593-.146-.62-2.032-.135-2.6-.702-.567-.566-1.568-1.502-.667-3.801l2.937-2.403 3.03 1.86 1.012-3.626z" fill="#12126B"/><path d="M18.436 30.956l3.494 6.308-8.34 5.507-3.37-6.326 8.216-5.489z" fill="#fff"/><path d="M13.592 42.99a.226.226 0 01-.135-.047.222.222 0 01-.059-.068l-3.37-6.327a.22.22 0 01.073-.286l8.215-5.488a.22.22 0 01.313.076l3.494 6.308a.22.22 0 01-.073.293l-8.34 5.502a.217.217 0 01-.118.038zm-3.084-6.474l3.162 5.939 7.968-5.264-3.28-5.922-7.85 5.247z" fill="#7A7AFB"/><path d="M12.297 29.348c-3.801 4.137.15 9.124 1.462 10.454 1.261 1.274 2.09 1.99 2.494 1.755a.405.405 0 00.162-.596s.425.331.73.024c.235-.234.034-.58.034-.58s.443.265.676-.147c.245-.431-.93-1.073-.964-1.445-.027-.304 1.174-.008 1.037-.593-.146-.62-2.032-.135-2.6-.702-.567-.566-1.25-1.401-.667-3.801.298-1.206.815-7.827-2.364-4.37z" fill="#12126B"/><path d="M27.37 69.107h13.955l6.554-2.617-12.9-.065-7.61 2.682z" fill="#fff"/><path d="M41.324 69.326H27.368a.22.22 0 01-.216-.182.218.218 0 01.143-.244l7.61-2.681a.207.207 0 01.073-.013l12.9.065a.217.217 0 01.215.178.22.22 0 01-.135.246l-6.552 2.615a.24.24 0 01-.082.016zm-12.674-.438h12.632l5.47-2.184-11.74-.06-6.362 2.244z" fill="#7A7AFB"/><path d="M32.045 70.448H46l6.553-2.616-12.9-.066-7.61 2.682z" fill="#fff"/><path d="M46.001 70.668H32.046a.218.218 0 01-.217-.182.22.22 0 01.144-.244l7.61-2.683a.217.217 0 01.073-.012l12.9.066a.219.219 0 01.08.422l-6.553 2.617a.22.22 0 01-.082.016zm-12.674-.439H45.96l5.468-2.184-11.736-.06-6.365 2.244z" fill="#7A7AFB"/><path d="M44.758 71.72h14.234l6.685-2.337-13.158-.058-7.761 2.394z" fill="#fff"/><path d="M58.991 71.941H44.757a.221.221 0 01-.216-.186.221.221 0 01.151-.242l7.762-2.396a.206.206 0 01.066-.01l13.159.059a.22.22 0 01.19.33.22.22 0 01-.117.096l-6.688 2.334a.199.199 0 01-.073.015zm-12.78-.439h12.744l5.446-1.9-11.85-.054-6.34 1.954z" fill="#7A7AFB"/><path d="M51.191 70.448h14.236l6.685-2.336-13.159-.059-7.762 2.395z" fill="#fff"/><path d="M65.424 70.668H51.19a.217.217 0 01-.217-.187.219.219 0 01.153-.242l7.762-2.392a.205.205 0 01.064-.01l13.16.06a.219.219 0 01.072.425l-6.684 2.34a.226.226 0 01-.076.005zm-12.78-.439h12.744l5.446-1.9-11.849-.053-6.341 1.953z" fill="#7A7AFB"/><path d="M54.191 68.503h12.35l5.8-2.027-11.416-.05-6.734 2.077z" fill="#fff"/><path d="M66.541 68.724h-12.35a.22.22 0 01-.065-.429l6.735-2.077a.228.228 0 01.065-.01l11.416.05a.221.221 0 01.217.183.219.219 0 01-.144.244l-5.801 2.025a.224.224 0 01-.073.014zm-10.893-.438h10.856l4.561-1.595-10.107-.044-5.31 1.639z" fill="#7A7AFB"/><path d="M36.43 24.101c.34-1.031-.26-2.156-1.338-2.511-1.079-.356-2.23.192-2.569 1.224-.34 1.031.259 2.156 1.338 2.511 1.078.356 2.228-.192 2.568-1.224z" fill="#fff"/><path d="M34.53 25.655c-.25 0-.5-.04-.737-.12-1.193-.392-1.851-1.643-1.477-2.788a2.126 2.126 0 011.121-1.261 2.34 2.34 0 013.05 1.005 2.13 2.13 0 01.152 1.681c-.3.908-1.167 1.483-2.11 1.483zm-.109-3.953c-.276 0-.549.06-.798.18a1.695 1.695 0 00-.89 1.004c-.302.916.235 1.918 1.197 2.235.962.318 1.99-.169 2.293-1.084a1.693 1.693 0 00-.122-1.338 1.874 1.874 0 00-1.076-.897 1.909 1.909 0 00-.604-.1z" fill="#7A7AFB"/><path d="M35.487 24.458a.333.333 0 100-.665.333.333 0 000 .665z" fill="#7A7AFB"/><path d="M33.483 23.63c.446-1.351-.34-2.825-1.753-3.291-1.414-.466-2.921.252-3.367 1.604-.445 1.352.34 2.826 1.753 3.292 1.414.466 2.922-.252 3.367-1.604z" fill="#fff"/><path d="M30.998 25.598c-.323 0-.644-.052-.95-.153-1.527-.503-2.376-2.105-1.893-3.57a2.722 2.722 0 011.434-1.612 2.96 2.96 0 012.21-.131c1.527.503 2.376 2.104 1.893 3.569a2.723 2.723 0 01-1.434 1.613 2.923 2.923 0 01-1.26.284zm-.146-5.181c-.37 0-.737.082-1.072.241a2.288 2.288 0 00-1.206 1.355c-.407 1.235.316 2.588 1.613 3.015a2.525 2.525 0 001.884-.11 2.29 2.29 0 001.207-1.355c.407-1.234-.317-2.587-1.614-3.014a2.598 2.598 0 00-.814-.132h.002z" fill="#7A7AFB"/><path d="M32.514 23.792a.333.333 0 100-.665.333.333 0 000 .665zm.972 3.941s-1.34 1.578-3.045 2.28c-1.146.473-2.459.55-3.642-.516-1.062-.956-1.242-2.068-1.058-3.08.301-1.652 1.578-3.037 1.578-3.037s.062 2.219 2.093 3.376c2.03 1.157 4.074.977 4.074.977z" fill="#7A7AFB"/><path d="M28.902 30.567c-.826 0-1.579-.303-2.249-.907-.985-.886-1.364-1.99-1.128-3.282.31-1.696 1.578-3.089 1.632-3.147a.22.22 0 01.38.146c0 .02.088 2.113 1.983 3.192a7.518 7.518 0 003.948.95.219.219 0 01.187.36c-.056.066-1.393 1.627-3.129 2.34a4.262 4.262 0 01-1.624.348zm-1.736-6.653c-.386.512-1.015 1.476-1.21 2.543-.206 1.132.127 2.1.99 2.878.95.856 2.1 1.016 3.411.475 1.137-.467 2.117-1.35 2.614-1.85a7.979 7.979 0 01-3.668-1.014c-1.515-.863-1.99-2.27-2.137-3.032z" fill="#7A7AFB"/><path d="M30.44 30.014c-1.145.472-2.458.549-3.64-.516-1.063-.957-1.243-2.069-1.06-3.08 0 0 2.386-.625 2.88 1.262 0 0 2.246-.16 1.82 2.334z" fill="#fff"/><path d="M28.902 30.567c-.826 0-1.579-.303-2.249-.907-.985-.886-1.364-1.99-1.128-3.282a.22.22 0 01.176-.173c.433-.1.88-.127 1.32-.08.896.11 1.501.57 1.762 1.338.32.01 1.003.1 1.47.614.414.455.549 1.12.403 1.974a.22.22 0 01-.133.166 4.262 4.262 0 01-1.621.35zM25.933 26.6c-.154 1.07.186 1.99 1.013 2.735.924.831 2.033 1.006 3.297.52.091-.657-.013-1.153-.312-1.484-.47-.52-1.288-.473-1.296-.472a.22.22 0 01-.227-.163c-.374-1.429-1.989-1.23-2.475-1.136z" fill="#7A7AFB"/><path d="M28.716 28.653a.219.219 0 01-.22-.192l-.095-.754a.218.218 0 01.189-.25.222.222 0 01.164.046.22.22 0 01.082.149l.096.753a.22.22 0 01-.216.248zm-6.3 2.167a.22.22 0 01-.216-.182c-.163-.934-1.34-1.29-1.35-1.294a.22.22 0 01.121-.42c.06.017 1.451.434 1.661 1.639a.22.22 0 01-.216.257zm9.664 7.037a.218.218 0 01-.219-.223.223.223 0 01.032-.11c2.12-3.47 3.368-9.081 3.38-9.138a.22.22 0 11.428.094c-.012.057-1.278 5.738-3.436 9.271a.22.22 0 01-.185.106zM21.031 68.645a.163.163 0 01-.04 0 .22.22 0 01-.176-.255c.061-.338-1.024-.883-1.609-1.175-.698-.351-1.048-.527-1.023-.804.019-.198.235-.366 1.445-1.213 1.462-1.024 3.903-2.736 4.376-3.868.662-1.584-.42-3.808-2.895-5.948a.22.22 0 11.288-.332c1.238 1.072 2.175 2.205 2.709 3.277.58 1.163.684 2.26.303 3.172-.522 1.249-2.933 2.94-4.529 4.059-.493.345-1 .7-1.2.877.233.143.474.273.72.391.92.461 1.96.985 1.842 1.645a.22.22 0 01-.21.174zM10.37 30.124a.218.218 0 01-.204-.3c.995-2.527 3.582-3.052 3.694-3.07a.219.219 0 01.26.259.218.218 0 01-.177.171c-.036.008-2.466.512-3.369 2.804a.22.22 0 01-.204.136zm-1.713 1.368a.219.219 0 01-.22-.22c0-2.659 2.296-4.505 2.393-4.582a.22.22 0 01.355.197.22.22 0 01-.082.147c-.023.017-2.227 1.794-2.227 4.24a.22.22 0 01-.22.218zm21.729 28.453h-.012a.22.22 0 01-.207-.23c.126-2.531-1.438-4.01-1.454-4.021a.22.22 0 01.298-.323c.073.065 1.731 1.625 1.594 4.368a.219.219 0 01-.219.206zm1.066-1.723a.22.22 0 01-.22-.196c-.23-2.09-1.077-3.379-1.746-4.094-.726-.773-1.408-1.056-1.415-1.058a.218.218 0 01-.116-.284.219.219 0 01.28-.123c.121.048 2.962 1.238 3.433 5.51a.22.22 0 01-.194.242l-.022.003z" fill="#7A7AFB"/></svg>