<svg width="80" height="80" fill="none" xmlns="http://www.w3.org/2000/svg"><path d="M21.648 7.86H7.619v12.133h14.029V7.859z" fill="#fff"/><path d="M21.648 20.212H7.62a.22.22 0 01-.22-.22V7.86a.22.22 0 01.22-.22h14.028a.22.22 0 01.22.22v12.133a.22.22 0 01-.22.22zM7.84 19.773h13.59V8.08H7.839v11.694z" fill="#7A7AFB"/><path d="M18.504 17.118h-7.742a.22.22 0 01-.219-.22v-5.94a.22.22 0 01.22-.22h7.741a.22.22 0 01.22.22v5.94a.22.22 0 01-.22.22zm-7.522-.439h7.303v-5.502h-7.303v5.502z" fill="#7A7AFB"/><path d="M14.635 14.146a.22.22 0 01-.134-.046l-3.87-2.968a.219.219 0 01.267-.349l3.738 2.867 3.737-2.867a.22.22 0 01.267.349L14.77 14.1a.22.22 0 01-.134.046zm32.077 0h-4.183a.22.22 0 01-.22-.22V8.08H27.532v3.485a.22.22 0 01-.22.22h-5.665a.22.22 0 010-.44h5.445V7.86a.22.22 0 01.22-.22h15.215a.219.219 0 01.22.22v5.847h3.963a.22.22 0 01.155.374.22.22 0 01-.155.065h.002z" fill="#7A7AFB"/><path d="M57.504 9.567H46.713v8.717h10.79V9.567z" fill="#fff"/><path d="M57.504 18.508h-10.79a.22.22 0 01-.22-.22v-8.72a.22.22 0 01.22-.22h10.79a.22.22 0 01.22.22v8.72a.22.22 0 01-.22.22zm-10.571-.44h10.352v-8.28H46.933v8.28z" fill="#7A7AFB"/><path d="M51.845 16.02a.22.22 0 01-.146-.055l-2.178-1.953a.22.22 0 01.293-.327l1.995 1.79 2.56-3.557a.218.218 0 01.365.013.222.222 0 01.027.166.217.217 0 01-.036.078l-2.702 3.755a.219.219 0 01-.156.09h-.022zm8.663 11.817h-8.4a.22.22 0 01-.22-.22v-9.329a.22.22 0 01.44 0v9.11h8.18a.22.22 0 01.155.375.22.22 0 01-.155.064z" fill="#7A7AFB"/><path d="M72.359 21.377H60.508v11.445h11.85V21.376z" fill="#fff"/><path d="M72.358 33.042H60.507a.22.22 0 01-.22-.22V21.377a.22.22 0 01.22-.22h11.85a.22.22 0 01.22.22v11.445a.219.219 0 01-.22.22zm-11.632-.44h11.412V21.597H60.726v11.007z" fill="#7A7AFB"/><path d="M51.414 46.534a.22.22 0 01-.22-.22v-8.59a.22.22 0 01.22-.22h14.8v-4.681a.22.22 0 01.439 0v4.901a.22.22 0 01-.22.22H51.634v8.37a.22.22 0 01-.22.22z" fill="#7A7AFB"/><path d="M63.042 46.315H39.787v13.878h23.255V46.315z" fill="#fff"/><path d="M63.04 60.413H39.787a.22.22 0 01-.22-.22V46.315a.218.218 0 01.22-.22H63.04a.22.22 0 01.219.22v13.878a.219.219 0 01-.22.22zm-23.035-.44h22.816V46.535H40.005v13.44z" fill="#7A7AFB"/><path d="M46.235 60.413h-3.886a.22.22 0 01-.22-.22v-4.108a.218.218 0 01.22-.22h3.886a.22.22 0 01.22.22v4.108a.22.22 0 01-.22.22zm-3.667-.439h3.447v-3.67h-3.447v3.67zm10.788.439h-3.883a.22.22 0 01-.22-.22v-6.326a.219.219 0 01.22-.22h3.887a.22.22 0 01.22.22v6.326a.22.22 0 01-.224.22zm-3.667-.439h3.448v-5.888h-3.444l-.004 5.888zm10.79.439h-3.886a.218.218 0 01-.22-.22V49.757a.22.22 0 01.22-.219h3.886a.219.219 0 01.22.22v10.435a.22.22 0 01-.22.22zm-3.667-.439h3.447v-9.997h-3.447v9.997zM45.46 48.909h-2.873a.218.218 0 01-.22-.22.22.22 0 01.22-.22h2.873a.22.22 0 110 .44zm2.055 1.726h-4.928a.218.218 0 01-.22-.22.22.22 0 01.22-.22h4.928a.219.219 0 01.155.375.22.22 0 01-.155.065zm18.918-19.552a3.984 3.984 0 11.658-7.912.218.218 0 01.178.168.22.22 0 01.002.085l-.524 3.117 2.405-2.048a.219.219 0 01.31.025 3.983 3.983 0 01-3.032 6.567l.003-.002zm0-7.528a3.542 3.542 0 00-1.583 6.714 3.543 3.543 0 004.418-5.298l-2.692 2.295a.22.22 0 01-.36-.203l.586-3.489a3.493 3.493 0 00-.37-.019z" fill="#7A7AFB"/><path d="M48.441 19.605s.084.292-.562.783c-.281.214-.694.482-.694.482s-4.776 5.374-7.013 7.96a34.224 34.224 0 01-6.95 6.09c-2.591 6.622-4.32 15.581-4.146 20.312.23 6.313 1.308 13.704 1.308 13.704s4.507 2.133 4.43 2.749c-.077.616-6.097.3-6.284-.196 0 0-5.228 1.17-6.46.77-1.233-.402 3.926-3.247 3.926-3.247s-11.43-11.859-10.005-29.21a45.631 45.631 0 011.057-6.79c-1.011-.586-2.041-1.793-1.404-4.265.722-2.805 3.284-4.36 5.02-5.11 3.226-5.67 7.147-8.413 8.722-9.364 3.696-2.232 6.774-.744 7.763.106 3.703 3.19 3.496 6.877 1.35 11.032.969-.545 2.4-1.438 3.537-2.51.917-.866 2.181-2.4 3.296-3.72.04-.573-.2-1.474.093-1.616.37-.181.658.475.658.83.89-1.032 1.5-1.78 1.763-1.58.306.235-.659 1.717-.659 1.717s.864-.26.772.417c.003-.003.622-.183.482.656z" fill="#12126B"/><path d="M31.544 34.02l-5.874-5.185-6.59 7.467 5.874 5.184 6.59-7.466z" fill="#fff"/><path d="M24.953 41.705a.219.219 0 01-.146-.054l-5.874-5.185a.22.22 0 01-.019-.31l6.59-7.466a.22.22 0 01.31-.019l5.874 5.184a.22.22 0 01.018.31l-6.589 7.466a.217.217 0 01-.164.074zm-5.564-5.421l5.545 4.894 6.299-7.138-5.545-4.893-6.3 7.137z" fill="#7A7AFB"/><path d="M29.873 32.766a.22.22 0 01-.146-.055l-2.536-2.238a.22.22 0 01-.018-.31l.924-1.048a.22.22 0 01.31-.02l2.536 2.239a.217.217 0 01.074.15.22.22 0 01-.055.16l-.923 1.048a.22.22 0 01-.166.074zm-2.226-2.477l2.207 1.948.634-.718-2.207-1.948-.634.718z" fill="#7A7AFB"/><path d="M38.548 22.95c1.122-.095 1.936-1.294 1.819-2.677-.118-1.384-1.124-2.427-2.246-2.332-1.122.096-1.937 1.295-1.819 2.678.118 1.383 1.124 2.427 2.246 2.331z" fill="#fff"/><path d="M38.404 23.173c-.553 0-1.084-.239-1.513-.684a3.035 3.035 0 01-.805-1.854c-.128-1.501.778-2.809 2.019-2.915.61-.052 1.205.19 1.676.678.472.508.756 1.162.804 1.853.128 1.502-.777 2.81-2.018 2.915a1.757 1.757 0 01-.163.007zm-.14-5.02c-.04 0-.083 0-.124.005-1 .085-1.726 1.18-1.618 2.44a2.59 2.59 0 00.685 1.586c.377.392.847.585 1.323.544 1-.084 1.725-1.179 1.618-2.44a2.6 2.6 0 00-.686-1.586c-.344-.357-.766-.55-1.198-.55z" fill="#7A7AFB"/><path d="M35.407 22.962c1.48-.126 2.563-1.614 2.417-3.324-.146-1.71-1.464-2.993-2.944-2.867-1.481.126-2.563 1.614-2.418 3.324.146 1.71 1.464 2.993 2.945 2.867z" fill="#fff"/><path d="M35.209 23.19c-.702 0-1.378-.286-1.923-.816a3.564 3.564 0 01-1.037-2.261 3.564 3.564 0 01.64-2.404c.494-.68 1.196-1.092 1.974-1.158 1.599-.136 3.026 1.243 3.182 3.067.156 1.824-1.02 3.425-2.617 3.56a2.442 2.442 0 01-.22.011zm-.125-6.21c-.06 0-.12 0-.181.008-.652.056-1.244.403-1.66.979a3.124 3.124 0 00-.556 2.108 3.12 3.12 0 00.905 1.984c.512.496 1.15.739 1.801.683 1.358-.115 2.352-1.5 2.217-3.087-.133-1.513-1.247-2.676-2.53-2.676l.004.002zm4.323 3.224a.34.34 0 100-.68.34.34 0 000 .68z" fill="#7A7AFB"/><path d="M36.957 19.948a.34.34 0 100-.68.34.34 0 000 .68zm-5.113 7.137c-1.444.074-3.006-.449-3.894-2.297-.471-.98-.611-1.895-.537-2.72.256-2.835 3.042-4.604 3.629-4.223.678.439-.76 2.946-.055 4.8 1.33 3.5 3.973 1.825 4.157 2.798.102.54-1.507 1.55-3.3 1.642z" fill="#7A7AFB"/><path d="M31.582 27.312c-1.72 0-3.072-.855-3.83-2.43-.453-.944-.64-1.897-.557-2.833.198-2.195 1.84-3.75 2.896-4.265.328-.16.781-.31 1.07-.123.44.282.293.98.107 1.864-.193.933-.438 2.095-.073 3.043.818 2.152 2.104 2.222 3.044 2.272.528.029 1.027.056 1.122.563.033.173-.027.359-.18.552-.476.605-1.85 1.275-3.324 1.35a5.852 5.852 0 01-.275.007zm-.749-9.299c-.098 0-.277.033-.55.166-.966.47-2.47 1.902-2.65 3.91-.078.855.096 1.732.512 2.604.916 1.902 2.509 2.233 3.685 2.173 1.406-.073 2.646-.731 3-1.183.078-.1.1-.17.094-.199-.027-.146-.194-.177-.715-.205-.94-.05-2.511-.135-3.43-2.555-.407-1.069-.15-2.299.055-3.288.126-.604.268-1.288.085-1.407a.182.182 0 00-.086-.016z" fill="#7A7AFB"/><path d="M31.844 27.085c-1.444.074-3.006-.449-3.894-2.297-.471-.98-.611-1.895-.537-2.72.206-.024 2.033-.242 2.912 1.025.821 1.18.52 1.97.52 1.97s1.636.303.999 2.022z" fill="#fff"/><path d="M31.582 27.312c-1.72 0-3.072-.855-3.83-2.429-.453-.944-.64-1.898-.557-2.834a.22.22 0 01.194-.198c.512-.06 2.237-.15 3.117 1.115.623.894.643 1.595.598 1.94.257.09.682.292.925.724.236.417.243.932.02 1.532a.219.219 0 01-.194.146c-.091.002-.183.004-.273.004zM27.62 22.27c-.04.798.139 1.61.528 2.423.878 1.829 2.379 2.204 3.538 2.18.126-.411.114-.755-.037-1.025-.256-.454-.838-.572-.844-.573a.22.22 0 01-.163-.292c.01-.027.239-.71-.496-1.767-.662-.952-1.942-.986-2.526-.946z" fill="#7A7AFB"/><path d="M30.407 26.167a.22.22 0 01-.166-.366c.204-.236.354-.658.394-.805a.22.22 0 11.423.119c-.008.025-.175.613-.485.971a.22.22 0 01-.166.08zm-9.468-2.413a.219.219 0 01-.074-.427c3.014-1.039 3.909-.016 3.946.028a.22.22 0 01-.335.284c-.019-.02-.804-.815-3.468.103a.218.218 0 01-.07.012z" fill="#7A7AFB"/><path d="M19.728 30.311s2.867 2.643 3.523 2.707c.655.065 1.52-.878 1.803-.366.169.305-.696 1.086-.696 1.086s1.8.754 1.627 1.205c-.194.508-1.774-.22-1.812-.14-.048.097 1.572.84 1.343 1.244-.335.59-1.762-.63-1.805-.585-.083.087 1.052 1.147.764 1.463-.232.253-1.283-.818-2.634-1.756-1.402-.972-3.13-1.819-4.609-2.11l2.496-2.747z" fill="#12126B"/><path d="M24.386 37.178c-.288 0-.708-.331-1.378-.86-.384-.304-.818-.648-1.294-.977-1.495-1.032-3.184-1.812-4.525-2.075a.22.22 0 01-.08-.398.22.22 0 01.165-.033c1.394.275 3.145 1.077 4.69 2.145.487.337.927.686 1.317.993.36.284.793.627 1.007.731-.073-.2-.377-.58-.503-.737-.262-.328-.393-.492-.233-.658.139-.147.276-.052.505.103.254.174.93.634 1.209.57a.08.08 0 00.05-.031c-.058-.176-.688-.567-.898-.697-.375-.233-.546-.339-.44-.549.095-.19.265-.137.603-.03.27.09.545.16.825.21.25.034.343 0 .366-.02-.055-.181-.758-.618-1.502-.93a.22.22 0 01-.063-.366c.341-.309.644-.696.647-.825-.056-.073-.24 0-.594.179-.32.16-.683.343-1.032.31-.695-.065-3.164-2.311-3.652-2.761a.22.22 0 11.298-.323c1.383 1.274 3.031 2.613 3.395 2.647.224.02.527-.131.794-.265.41-.206.919-.461 1.18.008.177.317-.165.779-.5 1.123.732.333 1.633.86 1.445 1.352-.124.324-.486.361-.887.298.338.264.566.549.404.835a.52.52 0 01-.343.256c-.245.057-.543-.04-.853-.2.21.321.329.638.125.86a.325.325 0 01-.248.115z" fill="#7A7AFB"/><path d="M20.713 31.264a.22.22 0 01-.186-.334c.843-1.376 2.246-2.422 2.308-2.466a.22.22 0 01.26.352c-.013.011-1.396 1.043-2.194 2.341a.22.22 0 01-.188.107zm12.651 3.523a.22.22 0 01-.204-.3c2.107-5.358 4.974-8.968 5.003-9.004a.217.217 0 01.232-.073.22.22 0 01.11.348c-.028.035-2.852 3.597-4.937 8.89a.218.218 0 01-.204.139zM28.437 71.51a.218.218 0 01-.2-.129c-2.664-5.91-4.105-16.036-4.12-16.138a.22.22 0 01.348-.204.219.219 0 01.086.142c.015.101 1.448 10.169 4.086 16.02a.22.22 0 01-.2.311v-.001zm18.24-51.243a.433.433 0 01-.303-.119.553.553 0 01-.177-.42c.01-.4.43-.776.478-.818a.22.22 0 01.288.332c-.134.116-.324.348-.328.496a.118.118 0 00.042.092c.14.03.659-.421 1.054-.932a.22.22 0 01.376.015.217.217 0 01.015.176.218.218 0 01-.045.077c-.138.176-.851 1.06-1.361 1.097l-.039.004z" fill="#7A7AFB"/><path d="M47.32 20.797a.43.43 0 01-.16-.031c-.412-.166-.395-.628-.33-.849a.219.219 0 01.402-.04.22.22 0 01.02.165c0 .008-.074.26.072.317.106.014.469-.326.757-.769a.22.22 0 01.366.24c-.2.309-.68.967-1.126.967zM14.75 46.914a.218.218 0 01-.215-.177c-.659-3.343-.338-8.226-.335-8.275a.22.22 0 11.44.03c0 .048-.322 4.875.326 8.16a.22.22 0 01-.216.262zm.283 7.746a.22.22 0 01-.19-.11c-1.94-3.36-2.374-9.698-2.391-9.967a.22.22 0 01.205-.234.221.221 0 01.234.205c.006.07.445 6.507 2.331 9.776a.22.22 0 01-.19.33zm26.068-24.74a.22.22 0 01-.178-.347c1.823-2.581 3.292-4.088 3.31-4.103a.22.22 0 01.313.307c-.014.015-1.463 1.5-3.265 4.05a.22.22 0 01-.18.092zm-1.314 4.2a.22.22 0 01-.195-.317c1.017-1.97 3.42-4.787 3.523-4.906a.222.222 0 01.239-.075.216.216 0 01.13.113.22.22 0 01-.037.247c-.024.03-2.472 2.899-3.466 4.823a.22.22 0 01-.194.116z" fill="#7A7AFB"/></svg>