<svg width="80" height="80" fill="none" xmlns="http://www.w3.org/2000/svg"><path d="M56.04 23.708a.806.806 0 10.001-1.612.806.806 0 000 1.612zm7.104 12.516a.806.806 0 100-1.612.806.806 0 000 1.612zM26.478 53.442a.807.807 0 100-1.614.807.807 0 000 1.614zM12.94 28.66a.806.806 0 100-1.613.806.806 0 000 1.613z" fill="#fff"/><path d="M56.04 23.938a1.036 1.036 0 110-2.072 1.036 1.036 0 010 2.072zm0-1.61a.577.577 0 100 1.158.577.577 0 000-1.16v.002z" fill="#7A7AFB"/><path d="M53.115 11.716a.807.807 0 100-1.613.807.807 0 000 1.613zm-33.027 9.476a.807.807 0 100-1.613.807.807 0 000 1.613z" fill="#fff"/><path d="M53.114 11.946a1.036 1.036 0 110-2.072 1.036 1.036 0 010 2.072zm0-1.61a.576.576 0 10.41.167.577.577 0 00-.41-.17v.003zM20.088 21.422a1.037 1.037 0 11-.001-2.073 1.037 1.037 0 01.001 2.073zm0-1.61a.576.576 0 10.533.355.577.577 0 00-.533-.358v.003zm43.056 16.642a1.037 1.037 0 110-2.073 1.037 1.037 0 010 2.073zm0-1.61a.577.577 0 10.409.167.575.575 0 00-.41-.17v.003zM26.478 53.671a1.038 1.038 0 01-1.017-1.238 1.035 1.035 0 111.017 1.238zm0-1.61a.575.575 0 00-.566.69.576.576 0 10.974-.522.583.583 0 00-.408-.17v.003zM12.939 28.89a1.036 1.036 0 110-2.072 1.036 1.036 0 010 2.072zm0-1.61a.576.576 0 10.408.167.577.577 0 00-.408-.17v.003z" fill="#7A7AFB"/><path d="M74.209 32.191H63.144v11.064H74.21V32.191z" fill="#fff"/><path d="M74.208 43.485H63.144a.232.232 0 01-.163-.067.232.232 0 01-.067-.163V32.191a.231.231 0 01.23-.23h11.064a.231.231 0 01.23.23v11.064a.23.23 0 01-.067.163.232.232 0 01-.163.067zm-10.834-.46h10.604V32.421H63.374v10.604z" fill="#7A7AFB"/><path d="M71.442 40.72H65.91a.23.23 0 01-.23-.23v-5.534a.232.232 0 01.23-.23h5.532a.23.23 0 01.23.23v5.532a.234.234 0 01-.067.163.23.23 0 01-.163.068zm-5.302-.46h5.072v-5.074H66.14v5.074z" fill="#7A7AFB"/><path d="M68.502 39.494a.228.228 0 01-.187-.096l-1.104-1.54a.226.226 0 01-.044-.174.23.23 0 01.267-.192.233.233 0 01.15.098l.888 1.236 1.405-2.688a.231.231 0 01.305-.088.23.23 0 01.102.3l-1.578 3.02a.232.232 0 01-.188.123h-.016z" fill="#7A7AFB"/><path d="M35.28 52.635H19.026v11.927H35.28V52.635z" fill="#fff"/><path d="M35.28 64.792H19.026a.231.231 0 01-.23-.23V52.635a.23.23 0 01.23-.23h16.252a.232.232 0 01.23.23v11.927a.23.23 0 01-.23.23zm-16.023-.46h15.792V52.865H19.257v11.467z" fill="#7A7AFB"/><path d="M25.92 59.142h-4.585a.23.23 0 01-.23-.23v-2.887a.23.23 0 01.23-.23H22.8l.662-.697a.234.234 0 01.166-.072h2.292a.23.23 0 01.23.23v3.656a.23.23 0 01-.23.23zm-4.356-.46h4.126v-3.196h-1.964l-.663.697a.229.229 0 01-.167.072h-1.33l-.002 2.427zm11.446.46h-4.587a.23.23 0 01-.23-.23v-2.887a.23.23 0 01.23-.23h1.465l.662-.697a.233.233 0 01.166-.072h2.293a.23.23 0 01.23.23v3.656a.229.229 0 01-.23.23zm-4.357-.46h4.126v-3.196h-1.964l-.664.697a.23.23 0 01-.167.072h-1.33v2.427zm-2.733 2.133h-4.585a.231.231 0 01-.23-.23.23.23 0 01.23-.23h4.585a.23.23 0 010 .46zm-1.507 1.381h-3.078a.231.231 0 01-.23-.23.23.23 0 01.23-.23h3.08a.231.231 0 01.23.23.23.23 0 01-.23.23h-.002zm8.597-1.381h-4.587a.231.231 0 01-.23-.23.23.23 0 01.23-.23h4.586a.23.23 0 010 .46zm-1.507 1.381h-3.08a.231.231 0 01-.23-.23.23.23 0 01.23-.23h3.08a.231.231 0 01.23.23.23.23 0 01-.23.23z" fill="#7A7AFB"/><path d="M68.63 10.91H46.849V22.9H68.63V10.91z" fill="#fff"/><path d="M68.63 23.131H46.847a.23.23 0 01-.23-.23V10.91a.23.23 0 01.23-.23H68.63a.229.229 0 01.23.23v11.993a.23.23 0 01-.23.23zm-21.553-.46H68.4V11.14H47.077v11.533z" fill="#7A7AFB"/><path d="M53.114 17.094H48.53a.23.23 0 01-.23-.23v-2.888a.23.23 0 01.23-.23h1.463l.662-.698a.23.23 0 01.168-.07h2.292a.23.23 0 01.23.23v3.656a.23.23 0 01-.23.23zm-4.356-.46h4.126v-3.197H50.92l-.662.697a.225.225 0 01-.167.072h-1.333v2.428zm11.273.46H55.45a.23.23 0 01-.23-.23v-2.888a.23.23 0 01.23-.23h1.457l.662-.698a.228.228 0 01.167-.07h2.293a.231.231 0 01.23.23v3.656a.23.23 0 01-.227.23zm-4.352-.46h4.126v-3.197h-1.968l-.663.697a.226.226 0 01-.166.072h-1.33v2.428zm11.271.46h-4.587a.23.23 0 01-.23-.23v-2.888a.23.23 0 01.23-.23h1.463l.663-.698a.228.228 0 01.167-.07h2.294a.23.23 0 01.23.23v3.656a.231.231 0 01-.23.23zm-4.356-.46h4.126v-3.197h-1.965l-.663.697a.234.234 0 01-.167.072h-1.332v2.428zm-1.912 2.478h-5.886a.23.23 0 110-.46h5.886a.23.23 0 110 .46zm-.966 1.773h-3.953a.23.23 0 01-.162-.392.229.229 0 01.162-.068h3.953a.23.23 0 110 .46z" fill="#7A7AFB"/><path d="M20.086 16.497H5.789v11.356h14.297V16.497z" fill="#fff"/><path d="M20.088 28.083H5.791a.23.23 0 01-.23-.23V16.497a.23.23 0 01.23-.23h14.297a.23.23 0 01.23.23v11.356a.23.23 0 01-.23.23zm-14.067-.46h13.837V16.727H6.021v10.896z" fill="#7A7AFB"/><path d="M14.49 18.776h-3.104a.23.23 0 010-.46h3.104a.23.23 0 110 .46zm2.158 1.84H9.23a.23.23 0 110-.46h7.418a.23.23 0 110 .46zm-.154 5.419h-7.11a.23.23 0 01-.23-.23v-3.637a.23.23 0 01.23-.23h7.11a.23.23 0 01.23.23v3.637a.23.23 0 01-.23.23zm-6.88-.46h6.65v-3.177h-6.65v3.177zm52.724 10.071H56.04a.23.23 0 01-.23-.23V23.708a.231.231 0 01.23-.23.23.23 0 01.23.23v11.478h6.067a.23.23 0 010 .46zm-35.86 16.413a.23.23 0 01-.23-.23v-4.332h-13.31a.23.23 0 01-.229-.23V28.66a.23.23 0 01.46 0v18.377h13.309a.23.23 0 01.23.23v4.562a.23.23 0 01-.23.23zm-1.176-31.444h-4.408a.23.23 0 110-.46h4.178V7.55a.23.23 0 01.23-.23h27.814a.23.23 0 01.23.23v2.553a.23.23 0 11-.46 0V7.78H25.532v12.605a.23.23 0 01-.23.23z" fill="#7A7AFB"/><path d="M65.158 41.545c-1.52 2.128-2.869 4.838-3.926 6.328-2.566 3.618-7.436 4.732-7.436 4.732s-2.898 3.986-4.585 8.064c-1.688 4.077-1.581 7.932-1.724 8.495-.144.562-2.562 3.44-3.971 3.526-.713.045-1.549-.068-1.549-.419s1.267-.213 1.9-3.373c.632-3.16.575-13.82-1.617-15.819-3.67-3.347-11.137-2.883-14.662-10.35-1.15-2.434-1.58-5.278-1.62-8.054-2.112-1.622-7.388-5.64-8.663-6.302-1.6-.832-3.09-1.221-3.635-1.574-.544-.352.005-.91.005-.91-.536-.553.015-.884.015-.884s-1.342-.756-.982-1.243c.36-.488 6.006 3.043 10.007 4.547 1.554.584 2.756.715 3.644.655a42.22 42.22 0 011.216-5.699c1.03-3.484 4.377-7.513 8.642-6.279 5.137 1.485 4.517 6.133 3.963 10.974.837.224 2.032.96 3.778 0 6.21-3.43 4.787-7.356 5.428-7.356.433 0 .384 1.65.384 1.65s.547-.562.704.269c0 0 .757-.126.57.72-.16.728-2.07 4.791-4.27 6.732-2.24 1.977-5.091 3.077-6.694 4.857.145.75.4 1.476.76 2.152 2.07 3.817 5.123.92 9.49 3.373 3.51 1.964 4.445 4.649 7.738 3.722 4.365-1.231 5.06-4.851 5.625-5.202.238-.15 1.036-.222 1.983-.598 1.29-.511 2.361-1.456 2.582-1.055.13.231-1.434 1.99-3.1 4.32z" fill="#12126B"/><path d="M40.71 23.405c.25-.975-.374-1.977-1.393-2.238-1.02-.262-2.05.317-2.299 1.292-.25.974.374 1.977 1.393 2.238 1.02.262 2.05-.317 2.3-1.292z" fill="#fff"/><path d="M38.908 24.99a2.25 2.25 0 01-.554-.07 2.17 2.17 0 01-1.311-.953 1.994 1.994 0 01-.248-1.566c.28-1.096 1.438-1.75 2.578-1.456a2.162 2.162 0 011.311.953 1.995 1.995 0 01-.72 2.82 2.14 2.14 0 01-1.056.272zm-.085-3.656c-.736 0-1.4.47-1.582 1.182a1.542 1.542 0 00.192 1.21 1.738 1.738 0 002.3.59 1.539 1.539 0 00.558-2.174 1.745 1.745 0 00-1.468-.806v-.002z" fill="#7A7AFB"/><path d="M39.82 22.933a.308.308 0 100-.617.308.308 0 000 .617z" fill="#7A7AFB"/><path d="M37.954 23.153c.328-1.277-.49-2.59-1.826-2.933-1.337-.343-2.685.415-3.013 1.693-.327 1.277.49 2.59 1.826 2.933 1.337.343 2.685-.415 3.013-1.693z" fill="#fff"/><path d="M35.593 25.16c-.237 0-.473-.03-.703-.088-1.456-.375-2.35-1.816-1.993-3.214a2.549 2.549 0 011.24-1.598A2.77 2.77 0 0136.19 20c1.457.374 2.35 1.815 1.994 3.213-.306 1.173-1.392 1.948-2.59 1.948zm-.11-4.79a2.267 2.267 0 00-1.121.291 2.095 2.095 0 00-1.018 1.311c-.296 1.15.45 2.343 1.66 2.653 1.212.31 2.437-.374 2.733-1.527.296-1.153-.45-2.343-1.66-2.654a2.42 2.42 0 00-.598-.075h.004z" fill="#7A7AFB"/><path d="M34.025 22.933a.308.308 0 100-.617.308.308 0 000 .617zm1.719 4.117c.32-.32.427-.73.24-.916-.187-.187-.597-.08-.916.24-.32.319-.427.729-.24.916.187.186.597.08.916-.24zm-9.781 7.685a.23.23 0 01-.23-.217c-.13-2.577.363-5.367.369-5.393a.23.23 0 11.452.082c-.005.027-.49 2.765-.362 5.29a.23.23 0 01-.218.242l-.011-.004zm11.165-5.562a.23.23 0 01-.203-.338c1-1.876 3.163-1.15 3.185-1.143a.228.228 0 01.131.117.228.228 0 01-.036.254.235.235 0 01-.16.076.232.232 0 01-.088-.013c-.077-.027-1.815-.599-2.628.925a.23.23 0 01-.201.122zm1.916 6.963a.23.23 0 01-.206-.33c.312-.638.913-1.038.939-1.055a.23.23 0 01.363.144.228.228 0 01-.11.24c-.007.005-.524.352-.78.874a.23.23 0 01-.206.127zM53.36 52.837c-.417 0-1.51-.02-2.385-.217a.233.233 0 01-.149-.1.235.235 0 01-.032-.176.232.232 0 01.191-.177.226.226 0 01.091.005c1.027.23 2.432.204 2.446.204h.005a.229.229 0 01.232.228.229.229 0 01-.228.232h-.17zM20.086 32.873a.231.231 0 01-.147-.053c-1.327-1.108-3.378-2.193-3.4-2.204a.23.23 0 11.215-.407c.086.045 2.115 1.118 3.48 2.257a.23.23 0 01-.148.407zm1.737 3.263a.23.23 0 01-.17-.077c-1.239-1.35-3.385-2.706-3.408-2.72a.23.23 0 11.244-.39c.09.057 2.223 1.404 3.504 2.802a.23.23 0 01-.17.383v.002zm26.557-5.493a.232.232 0 01-.217-.153.231.231 0 01.073-.256c.997-.801 2.548-3.133 2.564-3.157a.23.23 0 01.384.254c-.066.099-1.606 2.416-2.66 3.26a.23.23 0 01-.143.052zm12.093 20.172a.23.23 0 01-.209-.328.23.23 0 01.106-.108c2.267-1.133 3.23-3.366 3.24-3.388a.232.232 0 01.125-.124.232.232 0 01.3.126.231.231 0 01-.001.176c-.041.098-1.041 2.413-3.458 3.622a.23.23 0 01-.103.024zm-.84 2.43a.23.23 0 01-.077-.449c2.696-.905 4.287-3.223 4.302-3.247a.23.23 0 01.383.257c-.067.1-1.686 2.47-4.536 3.426a.215.215 0 01-.072.013z" fill="#7A7AFB"/></svg>