<svg width="80" height="80" fill="none" xmlns="http://www.w3.org/2000/svg"><path d="M8.063 23.233l5.215-5.342s2.587 1.276 4.59 3.81c2.002 2.532 2.337 3.91 2.337 3.91l-5.55 4.13s-1.21-4.338-6.592-6.508z" fill="#fff"/><path d="M14.656 29.963a.222.222 0 01-.216-.16c0-.01-.31-1.076-1.257-2.387-.872-1.208-2.484-2.878-5.206-3.976a.222.222 0 01-.074-.36l5.218-5.344a.222.222 0 01.257-.045c.107.054 2.655 1.327 4.666 3.87 2.011 2.544 2.365 3.939 2.378 3.997a.222.222 0 01-.083.23l-5.55 4.131a.222.222 0 01-.133.044zm-6.21-6.81c2.647 1.14 4.234 2.803 5.108 4.018a9.707 9.707 0 011.211 2.21l5.179-3.855c-.14-.401-.665-1.679-2.253-3.69-1.684-2.13-3.81-3.368-4.373-3.672l-4.872 4.99z" fill="#7A7AFB"/><path d="M14.485 20.024a.222.222 0 01-.122-.037l-1.083-.716a.22.22 0 01-.073-.314.22.22 0 01.317-.055l1.083.714a.221.221 0 01-.122.408zm-1.083.449a.222.222 0 01-.129-.041l-.633-.45a.223.223 0 11.26-.361l.633.449a.221.221 0 01-.128.403h-.003zm-2.334 3.755a.22.22 0 01-.121-.036l-1.33-.866a.222.222 0 01-.04-.339l.782-.823a.222.222 0 01.295-.026l1.248.913a.223.223 0 01.034.327l-.7.776a.222.222 0 01-.168.074zm-.986-1.128l.948.617.41-.453-.894-.653-.464.489zm3.172 3.025a.223.223 0 01-.157-.066l-1.374-1.389a.222.222 0 010-.314l2.718-2.695a.222.222 0 01.313 0l1.342 1.343a.222.222 0 010 .312l-2.685 2.741a.22.22 0 01-.159.067h.002zm-1.06-1.61l1.06 1.072 2.373-2.424-1.034-1.031-2.4 2.383zm2.76 3.863a.183.183 0 01-.035 0 .222.222 0 01-.151-.1l-1.012-1.575a.222.222 0 01.039-.285l3.465-3.088a.222.222 0 01.326.034l1.216 1.651a.222.222 0 01-.038.303l-3.67 3.01a.222.222 0 01-.14.05zm-.724-1.758l.774 1.206 3.315-2.718-.947-1.285-3.142 2.797z" fill="#7A7AFB"/><path d="M44.13 13.723L50.279 9.2s4.953 3.64 5.3 9.614l-6.536 2.735s-1.483-5.284-4.911-7.826z" fill="#fff"/><path d="M49.046 21.768a.221.221 0 01-.213-.162c-.015-.052-1.505-5.237-4.83-7.705a.22.22 0 010-.357l6.145-4.523a.222.222 0 01.262 0c.052.037 1.278.946 2.564 2.609 1.188 1.536 2.643 4.027 2.827 7.17a.223.223 0 01-.137.217l-6.536 2.735a.225.225 0 01-.082.016zM44.5 13.726c2.912 2.322 4.355 6.47 4.684 7.52l6.163-2.576c-.377-5.181-4.31-8.58-5.072-9.192L44.5 13.726z" fill="#7A7AFB"/><path d="M47.316 14.83a.212.212 0 01-.043-.005l-.882-.178a.222.222 0 01-.079-.402.222.222 0 01.167-.033l.616.125v-1.059a.222.222 0 11.443 0v1.331a.222.222 0 01-.081.171.22.22 0 01-.14.05zm1.321 2.133a.213.213 0 01-.064-.01l-.857-.262a.22.22 0 01-.15-.276.222.222 0 01.276-.15l.6.183.104-1.053a.222.222 0 01.394-.12.223.223 0 01.05.163l-.13 1.322a.22.22 0 01-.221.2l-.002.003zm1.183 2.297a.236.236 0 01-.064-.01l-.859-.262a.222.222 0 01.044-.433.22.22 0 01.086.009l.6.183.104-1.053a.222.222 0 11.444.044l-.13 1.322a.222.222 0 01-.225.2zm-1.185-5.835a.221.221 0 01-.211-.293.222.222 0 01.083-.11l1.822-1.285a.221.221 0 01.256.362l-1.822 1.283a.222.222 0 01-.128.043zm1.372 2.216a.221.221 0 01-.122-.407l1.848-1.218a.225.225 0 01.171-.04.222.222 0 01.14.35.223.223 0 01-.067.06l-1.848 1.217a.22.22 0 01-.122.038zm1.257 2.398a.222.222 0 01-.207-.305.22.22 0 01.093-.108l1.962-1.178a.222.222 0 01.228.38l-1.964 1.175a.222.222 0 01-.112.036z" fill="#7A7AFB"/><path d="M39.391 11.555l-5.987 2.104s-2.049-4.916 2.804-8.509l6.505-.41s-3.7 3.073-3.322 6.815z" fill="#fff"/><path d="M33.405 13.88a.221.221 0 01-.205-.136c-.021-.052-.53-1.295-.434-3.005.089-1.578.736-3.86 3.312-5.765a.222.222 0 01.118-.044l6.505-.41a.222.222 0 01.156.392c-.036.03-3.605 3.043-3.244 6.623a.222.222 0 01-.148.231l-5.987 2.104a.209.209 0 01-.073.01zm2.883-8.512c-1.918 1.437-2.957 3.247-3.08 5.377-.051.89.06 1.782.33 2.632l5.618-1.974c-.206-2.957 1.959-5.434 2.946-6.402l-5.814.367z" fill="#7A7AFB"/><path d="M13.523 73.882l5.423-1.941 7.46.431-4.655 2.212-8.228-.702z" fill="#fff"/><path d="M21.751 74.809h-.02l-8.226-.702a.22.22 0 01-.2-.192.22.22 0 01.144-.237l5.423-1.941a.223.223 0 01.087-.014l7.46.425a.22.22 0 01.206.179.222.222 0 01-.123.243l-4.657 2.21a.222.222 0 01-.094.029zm-7.194-1.058l7.153.61 3.818-1.814-6.549-.378-4.422 1.582z" fill="#7A7AFB"/><path d="M8.516 74.53l5.422-1.943 7.46.432-4.655 2.211-8.227-.7z" fill="#fff"/><path d="M16.743 75.452h-.019l-8.227-.7a.22.22 0 01-.202-.193.221.221 0 01.146-.238l5.419-1.942a.227.227 0 01.088-.013l7.46.433a.22.22 0 01.204.178.222.222 0 01-.122.243l-4.657 2.21a.228.228 0 01-.09.022zm-7.194-1.057l7.152.61 3.82-1.814-6.55-.378-4.422 1.582z" fill="#7A7AFB"/><path d="M55.754 73.496l6.396-1.97 8.798.51-5.491 2.287-9.703-.827z" fill="#fff"/><path d="M65.456 74.544h-.02l-9.701-.828a.222.222 0 01-.047-.432l6.396-1.97a.235.235 0 01.078-.009l8.797.508a.221.221 0 01.182.328.223.223 0 01-.108.099l-5.49 2.29a.218.218 0 01-.087.014zm-8.546-1.172l8.511.725 4.552-1.896-7.797-.451-5.266 1.622zM36.927 10.836a2.169 2.169 0 11.718-4.213.222.222 0 01.136.282l-.387 1.103.91-.733a.221.221 0 01.311.034 2.17 2.17 0 01-1.69 3.53l.002-.003zm0-3.895a1.726 1.726 0 101.474.823l-1.33 1.073a.222.222 0 01-.35-.246l.568-1.615a1.762 1.762 0 00-.362-.035z" fill="#7A7AFB"/><path d="M20.957 22.638s1.232-2.157 3.459-1.765c2.227.392 4.468 3.67 7.185 0l-.591-5.21c-4.314 2.52-4.874-1.289-7.227-1.233-2.353.056-3.754 3.054-3.754 3.054l.928 5.154z" fill="#fff"/><path d="M20.956 22.859a.224.224 0 01-.038 0 .222.222 0 01-.18-.18l-.928-5.158a.222.222 0 01.017-.133c.06-.128 1.487-3.122 3.95-3.178.932-.023 1.606.51 2.258 1.024 1.102.87 2.242 1.77 4.862.239a.223.223 0 01.332.166l.592 5.21a.222.222 0 01-.043.158c-1.01 1.363-1.97 1.813-2.882 1.813-.945 0-1.835-.484-2.669-.939-.644-.351-1.253-.683-1.853-.788-2.043-.36-3.178 1.574-3.228 1.657a.222.222 0 01-.19.109zm2.927-2.255a3.3 3.3 0 01.57.05c.671.119 1.341.483 1.989.836 1.606.875 3.124 1.7 4.928-.68l-.54-4.79c-.98.529-1.77.73-2.434.73-1.152 0-1.922-.607-2.633-1.17-.617-.486-1.2-.946-1.973-.928-2.006.048-3.315 2.447-3.527 2.864l.819 4.567c.46-.57 1.417-1.48 2.798-1.48h.003z" fill="#7A7AFB"/><path d="M67.221 32.974s.873-1.987-.535-3.178c-1.407-1.19-4.83-.776-3.662-4.551l3.922-2.544c.444 4.143 3.382 2.366 4.542 3.887 1.16 1.521-.21 4.086-.21 4.086l-4.057 2.3z" fill="#fff"/><path d="M67.222 33.196a.222.222 0 01-.202-.31c.033-.075.785-1.853-.476-2.92-.37-.316-.91-.515-1.478-.724-1.405-.518-3.15-1.164-2.255-4.062a.222.222 0 01.091-.12l3.924-2.545a.22.22 0 01.342.162c.266 2.478 1.404 2.682 2.601 2.9.7.126 1.423.257 1.895.876 1.233 1.617-.132 4.214-.19 4.326a.224.224 0 01-.087.088l-4.056 2.3a.223.223 0 01-.11.03zm-4.01-7.81c-.722 2.431.543 2.9 2.007 3.44.58.214 1.178.436 1.61.8 1.035.879.939 2.155.77 2.88l3.512-1.991c.183-.37 1.171-2.52.2-3.793-.37-.482-.948-.59-1.62-.71-1.134-.204-2.534-.457-2.918-2.934l-3.56 2.309z" fill="#7A7AFB"/><path d="M25.72 64.585h1.372V53.503H25.72v11.082z" fill="#fff"/><path d="M27.091 64.807H25.72a.222.222 0 01-.222-.222V53.503a.222.222 0 01.222-.221h1.371a.222.222 0 01.222.221v11.082a.222.222 0 01-.222.222zm-1.15-.443h.928v-10.64h-.927l-.001 10.64z" fill="#7A7AFB"/><path d="M30.302 68.702a.222.222 0 01-.221-.221 3.673 3.673 0 10-7.346 0 .222.222 0 11-.444 0 4.116 4.116 0 118.233 0 .222.222 0 01-.222.221z" fill="#7A7AFB"/><path d="M26.407 68.703a.222.222 0 01-.221-.222v-3.896a.222.222 0 01.443 0v3.896a.222.222 0 01-.222.222zm3.894 2.41a1.38 1.38 0 11.001-2.758 1.38 1.38 0 010 2.758zm0-2.315a.936.936 0 100 1.875.936.936 0 000-1.876v.001zm-7.792 2.315a1.38 1.38 0 110-2.759 1.38 1.38 0 010 2.76zm0-2.315a.934.934 0 00-.919 1.118.934.934 0 001.696.338.936.936 0 00-.777-1.457v.001z" fill="#7A7AFB"/><path d="M26.407 71.113a1.38 1.38 0 110-2.758 1.38 1.38 0 010 2.758zm0-2.315a.936.936 0 100 1.875.936.936 0 000-1.876v.001z" fill="#7A7AFB"/><path d="M22.268 43.684c-.839-3.042-1.441-7.105-4.478-6.26-7.022 1.956.771 16.415 4.45 19.115 3.457 2.538 8.156 1.523 8.998 1.307.842-.215 1.888-2.36 1.888-2.36L22.268 43.684z" fill="#fff"/><path d="M28.003 58.45h-.289c-2.22-.048-4.107-.63-5.606-1.73-1.483-1.092-3.517-3.865-5.07-6.908-1.075-2.11-2.801-6.107-2.277-9.175.301-1.766 1.3-2.919 2.967-3.426.665-.202 1.279-.154 1.818.148 1.467.813 2.148 3.342 2.75 5.573.058.218.116.434.174.644l10.822 11.762a.222.222 0 01.036.248c-.113.229-1.118 2.244-2.033 2.478-1.078.26-2.183.389-3.292.386zm-9.496-20.92a2.253 2.253 0 00-.653.105c-1.493.454-2.387 1.489-2.66 3.076-.83 4.86 4.368 13.587 7.175 15.648 3.46 2.54 8.274 1.41 8.811 1.272.511-.131 1.268-1.31 1.677-2.108L22.105 43.837a.224.224 0 01-.05-.092 90.64 90.64 0 01-.19-.698c-.578-2.143-1.233-4.578-2.536-5.3a1.667 1.667 0 00-.822-.216z" fill="#7A7AFB"/><path d="M51.656 25.79a16.618 16.618 0 01-2.419 5.11c-.302 3.347-2.839 5.023-5.656 5.799-1.848.509-4.608.708-6.92 1.535.447 1.61 1.301 3.432 2.932 4.568 4.164 2.89 6.688 3.451 6.805 4.236.114.757-6.045.54-10.467-2.726-1.38-1.02-2.393-1.967-3.133-2.787-.268.685-.402 1.498-.364 2.46.148 3.658 10.28 5.507 11.58 10.375 1.731 6.477-5.175 13-5.175 13s3.27 2.16 3.123 2.642c-.12.392-2.877.052-2.877.052s.918 1.099.745 1.32c-.436.553-5.707-1.19-5.832-1.517-.21-.55 2.727-9.35-1.17-11.793-5.715-3.584-12.015-.887-13.608-11.33-.585-3.834.573-7.448 1.922-10.731a15.137 15.137 0 01-2.187-2.07c-2.373-2.72-2.342-5.378-2.342-5.378l.97-.718s-.121-1.34.512-1.414c.632-.073-.866 2.218 3.158 5.249a8.19 8.19 0 001.635.955c2.587-4.093 6.453-7.294 10.662-8.997a23.44 23.44 0 012.366-.817c.7-1.137 1.676-3.136 1.737-5.514.129-5.034-2.177-4.887-1.726-5.338.45-.45 1.508.523 1.508.523l1.04-.37s1.752 1.451 2.717 5.086c.42 1.623.628 3.293.62 4.969 2.865.27 4.994 1.495 6.15 3.197.505-.24.968-.56 1.37-.947 1.876-1.873.073-4.469.597-4.61.523-.14 1.057 1.16 1.057 1.16l.868-.359s.638 2.09-.198 5.18z" fill="#12126B"/><path d="M53.355 30.84l-6.845 2.343 7.613-.315s-2.046 3.737 1.214 4.638c2.927.809 3.16-2.432 3.16-2.432s3.009.36 3.28-2.027c.27-2.386-2.207-2.206-2.207-2.206s1.756-1.08.9-2.702c-.856-1.62-2.342-.766-2.342-.766s.721-2.567-2.026-2.747c-2.747-.18-2.162 2.297-2.162 2.297s-1.441-.315-2.207 1.261c-.764 1.577 1.622 2.657 1.622 2.657z" fill="#fff"/><path d="M56.216 37.858a3.544 3.544 0 01-.938-.138c-.904-.25-1.512-.731-1.809-1.432-.484-1.143.01-2.545.29-3.184l-8.056.334a.222.222 0 01-.074-.434l7.16-2.217c-.45-.28-1.093-.778-1.33-1.442a1.56 1.56 0 01.074-1.257c.61-1.257 1.634-1.415 2.144-1.408-.037-.393-.026-1.096.423-1.626.415-.491 1.093-.71 2.014-.65.895.06 1.546.367 1.932.913.406.573.416 1.267.37 1.7.35-.112.726-.12 1.082-.025.483.14.876.49 1.168 1.043.586 1.109.074 2.057-.502 2.616.411.061.948.222 1.341.631.412.429.576 1.031.49 1.79-.073.67-.36 1.205-.843 1.588-.82.65-1.98.673-2.462.65-.074.468-.327 1.557-1.17 2.153a2.217 2.217 0 01-1.304.395zm-2.096-5.212a.222.222 0 01.195.328c-.01.018-.99 1.84-.437 3.143.241.568.752.964 1.517 1.175.766.212 1.392.148 1.87-.192.9-.634 1.01-2.028 1.01-2.041a.222.222 0 01.248-.205c.014 0 1.467.163 2.356-.542.387-.307.615-.74.677-1.289.07-.62-.054-1.102-.37-1.431-.568-.591-1.59-.53-1.601-.53a.221.221 0 01-.132-.41c.064-.04 1.568-.994.82-2.41-.232-.443-.536-.718-.9-.824-.579-.167-1.13.145-1.134.148a.223.223 0 01-.322-.122.223.223 0 01-.003-.13c0-.01.277-1.029-.23-1.742-.306-.431-.843-.674-1.597-.724-.773-.05-1.326.115-1.645.491-.499.587-.289 1.525-.287 1.534a.22.22 0 01-.152.263.221.221 0 01-.111.005c-.05-.012-1.284-.252-1.96 1.14a1.115 1.115 0 00-.059.91c.315.87 1.56 1.443 1.573 1.449a.22.22 0 01.083.339.223.223 0 01-.11.075l-6.035 1.871 6.727-.278.01-.001z" fill="#7A7AFB"/><path d="M57.228 32.324a.223.223 0 01-.221-.184.221.221 0 01.147-.248c.376-.128.858-.37 1.012-.801.122-.338.03-.762-.275-1.257-.492-.808-1.12-.77-1.453-.677-.504.142-.881.555-.881.829a.222.222 0 11-.444 0c0-.506.54-1.069 1.205-1.257.365-.102 1.285-.221 1.953.87.379.618.483 1.17.314 1.641-.169.471-.614.841-1.287 1.071a.223.223 0 01-.07.013zm1.267 2.972h-.023a.221.221 0 01-.197-.242c.02-.2.024-.768-.192-1.01a.221.221 0 01.019-.314.222.222 0 01.313.018c.383.431.31 1.257.301 1.35a.221.221 0 01-.22.198zm-3.892-7.647a.22.22 0 01-.186-.1c-.25-.383-.476-.405-.485-.405h.008V26.7c.046 0 .462.017.848.605a.221.221 0 01-.185.344z" fill="#7A7AFB"/><path d="M53.87 68.469h1.166l-.02-19.461H53.85l.02 19.46z" fill="#fff"/><path d="M55.037 68.69H53.87a.222.222 0 01-.223-.221l-.02-19.458c0-.03.007-.058.018-.085a.223.223 0 01.205-.137h1.166a.222.222 0 01.221.222l.021 19.46a.222.222 0 01-.221.222l-.001-.002zm-.945-.443h.72l-.017-19.014h-.723l.02 19.014z" fill="#7A7AFB"/><path d="M49.478 70.576h9.983l-4.369-2.107h-1.318l-4.296 2.107z" fill="#fff"/><path d="M59.46 70.797h-9.98a.223.223 0 01-.137-.048.223.223 0 01.04-.372l4.296-2.108a.218.218 0 01.097-.022h1.318a.23.23 0 01.097.021l4.366 2.106a.223.223 0 01-.097.422v.001zm-9.026-.443h8.057l-3.45-1.663h-1.216l-3.392 1.663z" fill="#7A7AFB"/><path d="M42.453 50.091h23.98v-1.426h-23.98v1.426z" fill="#fff"/><path d="M66.434 50.313h-23.98a.222.222 0 01-.222-.222v-1.426a.222.222 0 01.222-.222h23.98a.222.222 0 01.222.222v1.426a.222.222 0 01-.222.222zm-23.758-.444h23.536v-.982H42.676v.982z" fill="#7A7AFB"/><path d="M52.879 50.313H42.456a.222.222 0 01-.222-.222v-1.426a.222.222 0 01.222-.222h10.423a.222.222 0 01.221.222v1.426a.222.222 0 01-.221.222zm-10.201-.444h9.98v-.982h-9.98v.982z" fill="#7A7AFB"/><path d="M43.629 48.623l18.221.044.003-1.093-18.222-.044-.002 1.093z" fill="#fff"/><path d="M61.852 48.887L43.63 48.84a.222.222 0 01-.222-.222v-1.093a.222.222 0 01.222-.222l18.222.045a.222.222 0 01.222.222v1.093a.222.222 0 01-.222.222zm-18-.489l17.778.045v-.65l-17.778-.045v.65z" fill="#7A7AFB"/><path d="M50.914 47.543l10.94.028 3.515-8.958-10.94-.027-3.515 8.957z" fill="#fff"/><path d="M61.855 47.793l-10.94-.027a.223.223 0 01-.183-.097.219.219 0 01-.024-.206l3.513-8.957a.221.221 0 01.207-.14l10.94.028a.22.22 0 01.206.303l-3.512 8.955a.224.224 0 01-.207.14zm-10.616-.47l10.465.027 3.34-8.515-10.465-.025-3.34 8.513z" fill="#7A7AFB"/><path d="M58.253 44.872a.665.665 0 01-.306-.074c-.47-.246-.617-1.04-.335-1.808.178-.482.488-.85.831-.983a.691.691 0 01.583.022c.47.244.618 1.035.335 1.807-.178.483-.489.85-.831.982a.762.762 0 01-.277.054zm.466-2.475a.308.308 0 00-.116.023c-.222.086-.443.37-.574.723-.218.591-.11 1.139.122 1.26a.256.256 0 00.222 0c.222-.085.444-.37.575-.722.222-.592.11-1.14-.123-1.261a.221.221 0 00-.106-.027v.004zm-7.806 6.466a.222.222 0 01-.222-.221v-1.094a.222.222 0 11.444 0v1.094a.222.222 0 01-.222.221z" fill="#7A7AFB"/><path d="M49.539 30.947c.595-.767.427-1.893-.375-2.515-.802-.622-1.934-.505-2.529.262-.594.766-.427 1.892.375 2.514.802.622 1.934.505 2.529-.261z" fill="#fff"/><path d="M48.164 31.832a2.12 2.12 0 01-2.083-1.79 1.922 1.922 0 011.72-2.219 2.09 2.09 0 011.5.436c.897.696 1.083 1.964.413 2.826a1.946 1.946 0 01-1.55.747zm-.153-3.575a1.582 1.582 0 00-.743.185 1.489 1.489 0 00-.755 1.533c.064.422.29.802.628 1.061.703.546 1.7.444 2.218-.222.517-.665.37-1.657-.335-2.203a1.656 1.656 0 00-1.013-.354z" fill="#7A7AFB"/><path d="M48.225 30.928a.297.297 0 100-.594.297.297 0 000 .594z" fill="#7A7AFB"/><path d="M47.2 29.669c.78-1.005.56-2.48-.491-3.296-1.052-.816-2.535-.662-3.315.343-.78 1.004-.56 2.48.492 3.295 1.05.816 2.534.662 3.313-.342z" fill="#fff"/><path d="M45.397 30.758a2.688 2.688 0 01-1.648-.569c-1.146-.887-1.383-2.507-.53-3.607.853-1.099 2.48-1.27 3.626-.382a2.67 2.67 0 011.017 1.72 2.449 2.449 0 01-1.364 2.593c-.343.165-.72.25-1.101.245zm-.2-4.684a2.045 2.045 0 00-1.627.78c-.703.907-.5 2.245.452 2.985.952.739 2.3.603 3.003-.304a2.019 2.019 0 00.397-1.552 2.269 2.269 0 00-2.225-1.911v.002z" fill="#7A7AFB"/><path d="M44.903 27.232a.297.297 0 100-.595.297.297 0 000 .595zm.493 7.928c-.05 0-.1-.006-.148-.017-.374-.083-.523-.347-.63-.54-.082-.144-.137-.234-.238-.282-.312-.148-.756-.078-.76-.074a.222.222 0 01-.074-.437c.024-.004.583-.094 1.023.114.233.11.344.308.433.466.105.186.168.286.34.324.222.048.498-.295.693-.86.306-.882.275-1.863.029-1.982-.334-.16-.732.093-1.183.414a.668.668 0 01-.544.126c-.349-.08-.551-.431-.574-.471a.222.222 0 01.388-.215c.032.057.153.222.284.253a.222.222 0 00.188-.054c.436-.312 1.034-.739 1.63-.453.627.302.49 1.686.198 2.526-.253.747-.635 1.161-1.055 1.161z" fill="#7A7AFB"/><path d="M46.07 33.269c.066-.353-.048-.67-.257-.71-.209-.04-.432.214-.499.566-.067.353.048.67.256.71.209.04.432-.214.5-.566zm-19.951.138c-1.198 0-3.017-.456-3.094-.475a.222.222 0 11.109-.43c.018.005 1.842.462 2.985.462 1.034 0 1.737-.491 2.481-1.01.709-.494 1.441-1.005 2.46-1.05a.223.223 0 01.218.299.221.221 0 01-.199.145c-.887.038-1.539.49-2.226.97-.768.535-1.562 1.09-2.735 1.09zm.351 4.49c-3.162 0-5.195-1.511-5.29-1.584a.222.222 0 01.268-.353c.025.018 2.545 1.885 6.236 1.416a.222.222 0 11.056.44c-.422.054-.846.08-1.27.081zm10.076.4a.222.222 0 01-.178-.088c-.531-.71-.853-1.574-1.138-2.336-.41-1.097-.763-2.045-1.578-2.26a.223.223 0 01.113-.43c1.035.275 1.447 1.373 1.88 2.535.288.77.584 1.566 1.078 2.225a.223.223 0 01-.06.321.222.222 0 01-.117.033zm-3.896 3.295a.216.216 0 01-.163-.073l-1.477-1.6a.222.222 0 01.327-.301l1.478 1.605a.223.223 0 01-.043.333.223.223 0 01-.12.036h-.001zm6.292 28.523a.22.22 0 01-.165-.073c-.53-.592-1.774-1.978-1.87-2.172-.073-.154-.086-.174 1.23-2.845 1.06-2.15 2.514-5.092 2.828-6.243.509-1.857.084-3.252-1.421-4.667a.223.223 0 01-.007-.31.22.22 0 01.31-.013c1.642 1.543 2.104 3.07 1.545 5.108-.326 1.191-1.788 4.156-2.856 6.321-.534 1.082-1.085 2.199-1.194 2.503.196.257 1.02 1.194 1.765 2.02a.22.22 0 01.035.245.22.22 0 01-.2.127zm6.505-22.361a.223.223 0 01-.178-.37.222.222 0 01.153-.073c.043-.006.243-.04.263-.209-.119-.13-.74-.377-1.367-.541a.219.219 0 01-.135-.102.22.22 0 01.015-.247.222.222 0 01.232-.08c1.7.443 1.7.817 1.7.939 0 .48-.429.655-.658.68l-.025.003zm-9.324-24.788a.221.221 0 01-.074-.431c2.38-.822 5.457-.629 5.587-.62a.222.222 0 11-.03.444c-.03 0-3.119-.197-5.412.595a.22.22 0 01-.071.012zm13.043 5.69a.222.222 0 01-.222-.201 5.853 5.853 0 00-1.035-2.772.218.218 0 01-.052-.167.22.22 0 01.337-.166.22.22 0 01.065.06 6.198 6.198 0 011.123 3.005.224.224 0 01-.118.216.223.223 0 01-.083.025h-.015zm-31.443 6.506a.222.222 0 01-.157-.064c-1.121-1.123-1.911-2.661-1.944-2.728a.222.222 0 11.395-.2c.008.015.792 1.542 1.863 2.614a.222.222 0 01-.157.378zm-2.207-.522a.222.222 0 01-.168-.078c-1.327-1.552-2.015-3.65-2.043-3.738a.222.222 0 01.422-.136c.006.02.69 2.104 1.958 3.586a.221.221 0 01-.169.365zm29.548 10.31a.217.217 0 01-.07-.012c-1.415-.462-3.125-1.76-3.198-1.815a.218.218 0 01-.085-.147.225.225 0 01.043-.164.223.223 0 01.311-.042c.017.013 1.724 1.308 3.068 1.746a.222.222 0 01-.069.433zm2.044-.388a.22.22 0 01-.053-.007c-1.282-.318-2.825-1.236-2.889-1.273a.222.222 0 01.228-.381c.016.009 1.553.922 2.769 1.224a.22.22 0 01.166.242.224.224 0 01-.073.14.225.225 0 01-.147.055h-.001z" fill="#7A7AFB"/></svg>