<svg width="64" height="65" viewBox="0 0 64 65" fill="none" xmlns="http://www.w3.org/2000/svg">
<path d="M19.0347 33.24L5.26172 32.181L59.0287 9.04199L59.3197 9.96399L19.0347 33.24ZM9.37872 31.494L18.8027 32.219L51.4247 13.37L9.37872 31.494Z" fill="#0A0D50"/>
<path d="M58.6609 9.18899L18.3359 32.488L22.2269 47.08L32.4749 36.831L31.5319 36.359L22.7459 45.146L19.4999 32.971L56.0249 11.866L55.5299 12.361L59.0679 9.53099L58.6069 10.698L59.4469 9.85799L59.8799 8.81299L58.6609 9.18899Z" fill="#0A0D50"/>
<path d="M24.1146 43.776L28.2446 34.831L27.5276 34.123L27.4366 34.197L22.2966 45.333L22.2266 47.08L32.3916 36.914L31.4426 36.448L24.1146 43.776Z" fill="#0A0D50"/>
<path d="M45.9495 44.127L27.5735 34.939L27.4375 34.196L58.7565 9.14001L60.0015 8.53101L45.9495 44.127ZM28.7645 34.416L45.4205 42.745L57.9135 11.096L28.7645 34.416Z" fill="#0A0D50"/>
<path d="M16.0009 45.7288L5 54.7285L5.6332 55.5025L16.6341 46.5028L16.0009 45.7288Z" fill="#0A0D50"/>
<path d="M8.62426 46.5051L17.625 39.5054L17.0117 38.7168L8.01098 45.7164L8.62426 46.5051Z" fill="#0A0D50"/>
</svg>
