<svg width="64" height="64" viewBox="0 0 64 64" fill="none" xmlns="http://www.w3.org/2000/svg">
<g filter="url(#filter0_d_2057_12209)">
<path d="M45.0335 27.013C45.0465 27.017 45.0585 27.02 45.0705 27.025C45.2645 26.735 45.5615 26.513 45.9735 26.444L44.6605 23.679C44.4715 23.945 44.1905 24.148 43.8125 24.219L45.1035 26.943L45.0335 27.013Z" fill="#0A0D50"/>
<path d="M36.2367 35.7888C36.2697 35.7198 36.2907 35.6438 36.3347 35.5808L31.6527 33.1338C31.4507 33.3598 31.1647 33.5148 30.8007 33.5628C30.6987 33.6008 30.5907 33.6298 30.4727 33.6458L35.7067 36.3828C35.8207 36.1398 35.9977 35.9328 36.2367 35.7888Z" fill="#0A0D50"/>
<path d="M48.4506 27.962C48.6156 27.657 48.8656 27.405 49.1556 27.253L46.6216 24.719L34.6016 36.739L37.1286 39.267C37.2016 38.909 37.3826 38.586 37.6496 38.373L36.0146 36.739L46.6216 26.133L48.4506 27.962Z" fill="#0A0D50"/>
<path d="M54.8416 59.516L55.1226 58.38L36.9296 40.067L49.3646 27.633L59.4706 37.805L59.7516 36.671L49.3646 26.219L35.5156 40.067L54.8416 59.516Z" fill="#0A0D50"/>
<path d="M27.8326 7.05186C28.9786 6.54986 30.4346 5.98486 30.9556 5.98486C31.1416 5.99086 31.3776 6.10286 31.6226 6.26086L32.3386 5.54486C31.9136 5.24886 31.4226 4.99986 30.9416 4.98486C30.0826 4.98486 28.0846 5.83886 27.1016 6.28486C27.4586 6.43486 27.7006 6.71886 27.8326 7.05186Z" fill="#0A0D50"/>
<path d="M17.3328 24.9169C17.6178 24.9169 17.8558 24.9879 18.0578 25.0989L19.0608 22.2479C18.6648 22.2429 18.3548 22.1079 18.1228 21.9019L17.0508 24.9439C17.1418 24.9289 17.2328 24.9169 17.3328 24.9169Z" fill="#0A0D50"/>
<path d="M46.0302 18.7679C45.4792 18.2159 44.7512 17.9069 43.9742 17.8899C44.7032 16.7319 44.5632 15.1799 43.5552 14.1719C42.9652 13.5819 42.1412 13.2559 41.3352 13.2949C41.8372 12.1889 41.6352 10.8369 40.7272 9.9289C40.1752 9.3779 39.4472 9.0679 38.6702 9.0509C39.3992 7.8929 39.2592 6.3409 38.2512 5.3329C37.1182 4.1999 35.1422 4.1999 34.0092 5.3329L30.2152 9.1269C30.5452 9.2749 30.7722 9.5429 30.9022 9.8539L34.7162 6.0399C35.4722 5.2839 36.7882 5.2839 37.5442 6.0399C38.3232 6.8189 38.3232 8.0889 37.5442 8.8679L36.4872 9.9239C36.4862 9.9259 36.4842 9.9269 36.4832 9.9289C36.2882 10.1239 36.2882 10.4409 36.4832 10.6359C36.6782 10.8309 36.9952 10.8309 37.1902 10.6359C37.9462 9.8799 39.2632 9.8799 40.0192 10.6359C40.7982 11.4159 40.7982 12.6849 40.0192 13.4649L39.3122 14.1719C39.1172 14.3669 39.1172 14.6839 39.3122 14.8789C39.5072 15.0739 39.8242 15.0739 40.0192 14.8789C40.7752 14.1229 42.0912 14.1229 42.8472 14.8789C43.2252 15.2569 43.4332 15.7589 43.4332 16.2929C43.4332 16.8269 43.2252 17.3289 42.8472 17.7069L41.7862 18.7679C41.5912 18.9629 41.5912 19.2799 41.7862 19.4749C41.9812 19.6699 42.2982 19.6699 42.4932 19.4749L42.4972 19.4709C43.2532 18.7199 44.5672 18.7199 45.3212 19.4749C46.1012 20.2549 46.1012 21.5239 45.3212 22.3039L37.5432 30.0819C36.8272 30.7979 35.3982 31.6389 34.4232 31.9179L26.9922 34.0409C27.2182 34.2969 27.3372 34.6319 27.3582 34.9759L34.6982 32.8789C35.8462 32.5499 37.4072 31.6319 38.2502 30.7889L46.0282 23.0109C47.2002 21.8409 47.2002 19.9379 46.0302 18.7679Z" fill="#0A0D50"/>
<path d="M26.1288 37.961C26.4618 38.061 26.7498 38.269 26.9198 38.585L29.4118 36.092L17.3918 24.072L14.8828 26.581C15.2028 26.711 15.4808 26.936 15.6588 27.22L17.3918 25.487L27.9978 36.093L26.1288 37.961Z" fill="#0A0D50"/>
<path d="M14.563 25.4858L4.25 35.9768L4.525 37.1168L14.563 26.8998L27.498 39.8348L9.287 58.3708L9.564 59.5158L28.912 39.8348L14.563 25.4858Z" fill="#0A0D50"/>
<path d="M22.9019 43.017C22.1219 43.796 20.8529 43.797 20.0729 43.017C19.2929 42.237 19.2939 40.968 20.0729 40.189C20.8529 39.409 22.1219 39.409 22.9019 40.189C23.6819 40.969 23.6819 42.238 22.9019 43.017ZM20.7809 40.896C20.3899 41.286 20.3909 41.92 20.7809 42.31C21.1699 42.7 21.8039 42.7 22.1949 42.31C22.5849 41.919 22.5849 41.286 22.1949 40.896C21.8049 40.506 21.1709 40.505 20.7809 40.896Z" fill="#0A0D50"/>
<path d="M19.595 22.853C18.905 22.853 18.256 22.584 17.768 22.096L16.383 20.711C15.894 20.223 15.625 19.572 15.625 18.882C15.626 18.192 15.895 17.543 16.383 17.057C17.358 16.08 19.063 16.08 20.037 17.057L21.422 18.441C21.91 18.929 22.18 19.579 22.18 20.269C22.18 20.959 21.91 21.609 21.422 22.096C20.934 22.584 20.285 22.853 19.595 22.853ZM18.21 17.299C17.787 17.299 17.389 17.464 17.09 17.764C16.79 18.063 16.626 18.459 16.625 18.882C16.625 19.306 16.79 19.704 17.09 20.004L18.475 21.389C19.073 21.987 20.118 21.987 20.715 21.389C21.015 21.09 21.18 20.692 21.18 20.269C21.18 19.845 21.015 19.448 20.715 19.148L19.33 17.764C19.031 17.464 18.633 17.299 18.21 17.299Z" fill="#0A0D50"/>
<path d="M23.2439 20.248C22.5539 20.248 21.9039 19.978 21.4159 19.49L18.4689 16.543C17.9809 16.055 17.7109 15.405 17.7109 14.715C17.7109 14.025 17.9809 13.375 18.4689 12.888C19.4439 11.911 21.1469 11.911 22.1229 12.888L25.0699 15.836C25.5589 16.324 25.8279 16.975 25.8279 17.665C25.8269 18.355 25.5579 19.004 25.0699 19.49C24.5829 19.978 23.9349 20.248 23.2439 20.248ZM20.2949 13.13C19.8719 13.13 19.4749 13.295 19.1759 13.594C18.8759 13.893 18.7109 14.291 18.7109 14.714C18.7109 15.138 18.8759 15.535 19.1759 15.835L22.1229 18.782C22.7229 19.382 23.7659 19.383 24.3629 18.782C24.6629 18.483 24.8269 18.087 24.8279 17.664C24.8279 17.24 24.6629 16.842 24.3629 16.542L21.4159 13.594C21.1169 13.295 20.7189 13.13 20.2949 13.13Z" fill="#0A0D50"/>
<path d="M26.8914 17.6418C26.2014 17.6418 25.5514 17.3718 25.0644 16.8838L21.0744 12.8938C20.5864 12.4068 20.3164 11.7568 20.3164 11.0668C20.3164 10.3768 20.5864 9.72683 21.0744 9.23983C22.0494 8.26383 23.7524 8.26183 24.7284 9.23983L28.7184 13.2298C29.2064 13.7168 29.4764 14.3668 29.4764 15.0568C29.4764 15.7468 29.2064 16.3968 28.7184 16.8838C28.2304 17.3728 27.5814 17.6418 26.8914 17.6418ZM22.9004 9.48183C22.4774 9.48183 22.0794 9.64683 21.7804 9.94683C21.4804 10.2458 21.3154 10.6438 21.3154 11.0668C21.3154 11.4898 21.4804 11.8878 21.7804 12.1868L25.7704 16.1768C26.3684 16.7768 27.4134 16.7768 28.0104 16.1768C28.3104 15.8778 28.4754 15.4798 28.4754 15.0568C28.4754 14.6338 28.3104 14.2358 28.0104 13.9368L24.0204 9.94683C23.7214 9.64683 23.3234 9.48183 22.9004 9.48183Z" fill="#0A0D50"/>
<path d="M29.4951 13.9938C28.8061 13.9938 28.1561 13.7248 27.6681 13.2368L24.7201 10.2888C23.7131 9.28085 23.7131 7.64185 24.7201 6.63485C25.6951 5.65785 27.3991 5.65785 28.3751 6.63485L31.3221 9.58185C31.8101 10.0698 32.0801 10.7198 32.0801 11.4098C32.0801 12.0998 31.8101 12.7498 31.3221 13.2368C30.8341 13.7248 30.1861 13.9938 29.4951 13.9938ZM26.5471 6.87585C26.1241 6.87585 25.7261 7.04085 25.4271 7.34085C24.8101 7.95785 24.8101 8.96285 25.4271 9.58085L28.3751 12.5288C28.9741 13.1278 30.0191 13.1268 30.6151 12.5288C30.9151 12.2298 31.0801 11.8318 31.0801 11.4088C31.0801 10.9848 30.9151 10.5878 30.6151 10.2878L27.6681 7.34085C27.3681 7.04185 26.9711 6.87585 26.5471 6.87585Z" fill="#0A0D50"/>
</g>
<defs>
<filter id="filter0_d_2057_12209" x="-4" y="0" width="72" height="72" filterUnits="userSpaceOnUse" color-interpolation-filters="sRGB">
<feFlood flood-opacity="0" result="BackgroundImageFix"/>
<feColorMatrix in="SourceAlpha" type="matrix" values="0 0 0 0 0 0 0 0 0 0 0 0 0 0 0 0 0 0 127 0" result="hardAlpha"/>
<feOffset dy="4"/>
<feGaussianBlur stdDeviation="2"/>
<feComposite in2="hardAlpha" operator="out"/>
<feColorMatrix type="matrix" values="0 0 0 0 0 0 0 0 0 0 0 0 0 0 0 0 0 0 0.25 0"/>
<feBlend mode="normal" in2="BackgroundImageFix" result="effect1_dropShadow_2057_12209"/>
<feBlend mode="normal" in="SourceGraphic" in2="effect1_dropShadow_2057_12209" result="shape"/>
</filter>
</defs>
</svg>
