<svg width="64" height="64" viewBox="0 0 64 64" fill="none" xmlns="http://www.w3.org/2000/svg">
<path d="M43.2279 38.0211L43.4809 38.0931C44.4479 36.2751 45.0009 34.2021 45.0009 31.9981C45.0009 27.6511 42.8609 23.8141 39.5859 21.4541C39.7079 21.9131 39.7959 22.4211 39.8639 22.9551C42.3929 25.1581 43.9999 28.3911 43.9999 31.9991C43.9999 34.1071 43.4489 36.0881 42.4899 37.8121L43.2279 38.0211Z" fill="#0A0D50"/>
<path d="M24.137 22.9571C24.205 22.4221 24.293 21.9151 24.415 21.4561C21.14 23.8151 19 27.6521 19 31.9991C19 34.2031 19.553 36.2751 20.52 38.0941L20.773 38.0221L21.51 37.8121C20.551 36.0881 20 34.1071 20 31.9991C20 28.3911 21.607 25.1581 24.137 22.9571Z" fill="#0A0D50"/>
<path d="M32.5 48H31.5V59H32.5V48Z" fill="#0A0D50"/>
<path d="M32.5 5H31.5V16H32.5V5Z" fill="#0A0D50"/>
<path d="M16 31.5H5V32.5H16V31.5Z" fill="#0A0D50"/>
<path d="M59 31.5H48V32.5H59V31.5Z" fill="#0A0D50"/>
<path d="M30.5018 8.05207V7.04907C17.8888 7.79507 7.79678 17.8861 7.05078 30.5001H8.05378C8.80078 18.4601 18.4618 8.79807 30.5018 8.05207Z" fill="#0A0D50"/>
<path d="M8.05378 33.5H7.05078C7.79678 46.113 17.8888 56.205 30.5018 56.951V55.948C18.4618 55.201 8.80078 45.54 8.05378 33.5Z" fill="#0A0D50"/>
<path d="M55.948 30.5001H56.951C56.205 17.8861 46.113 7.79507 33.5 7.04907V8.05207C45.54 8.79807 55.201 18.4601 55.948 30.5001Z" fill="#0A0D50"/>
<path d="M33.5 55.948V56.951C46.113 56.205 56.205 46.113 56.951 33.5H55.948C55.201 45.54 45.54 55.201 33.5 55.948Z" fill="#0A0D50"/>
<path d="M33.5 51.924V52.924C43.898 52.188 52.188 43.899 52.924 33.5H51.924C51.189 43.33 43.331 51.189 33.5 51.924Z" fill="#0A0D50"/>
<path d="M51.924 30.4999H52.924C52.188 20.1019 43.898 11.8129 33.5 11.0759V12.0759C43.331 12.8109 51.189 20.6689 51.924 30.4999Z" fill="#0A0D50"/>
<path d="M12.0742 33.5H11.0742C11.8102 43.898 20.0992 52.188 30.4982 52.924V51.924C20.6672 51.189 12.8092 43.33 12.0742 33.5Z" fill="#0A0D50"/>
<path d="M30.4982 12.0759V11.0759C20.1002 11.8129 11.8112 20.1019 11.0742 30.4999H12.0742C12.8092 20.6689 20.6672 12.8109 30.4982 12.0759Z" fill="#0A0D50"/>
<path d="M41.9339 38.694L35.9999 37L34.9999 38.382L31.9999 39.881L28.9999 38.382L27.9999 37L21.0469 38.983C21.2249 39.261 24.6559 44.999 31.9999 44.999C39.3439 44.999 42.7749 39.262 42.9509 38.986C42.9509 38.986 42.5439 38.869 41.9339 38.694ZM22.7189 39.546L27.4139 38.207L29.6779 43.742L29.6959 43.752C26.8969 43.2 24.4549 41.681 22.7189 39.546ZM31.9999 43.999C31.6039 43.999 31.2179 43.963 30.8319 43.925L29.0279 39.514L31.9999 40.999L34.9719 39.514L33.1679 43.925C32.7819 43.963 32.3959 43.999 31.9999 43.999ZM34.3059 43.752L34.3239 43.742L36.5869 38.207L41.2819 39.546C39.5449 41.68 37.1029 43.2 34.3059 43.752Z" fill="#0A0D50"/>
<path d="M34.975 35.25H35V38.224L32 39.849L29 38.224V35.25H29.025C28.732 34.949 28.458 34.611 28.204 34.25H28V38.917L32 41.116L36 38.917V34.25H35.796C35.542 34.611 35.268 34.949 34.975 35.25Z" fill="#0A0D50"/>
<path d="M37.8011 27.085H37.0261C36.9421 26.874 36.7571 26.706 36.5181 26.672L35.5391 26.532C35.3501 26.505 35.0921 26.49 34.8411 26.49C34.6301 26.49 34.4231 26.5 34.2621 26.52L32.9641 26.682C32.7231 26.713 32.5521 26.876 32.4931 27.084H31.5131C31.4531 26.876 31.2831 26.712 31.0411 26.682L29.7421 26.52C29.5811 26.5 29.3751 26.49 29.1631 26.49C28.9121 26.49 28.6561 26.504 28.4641 26.532L27.4851 26.672C27.2461 26.706 27.0621 26.874 26.9771 27.085H26.2031V27.73H26.9281L27.0901 28.863C27.1331 29.214 27.4571 29.462 27.8081 29.513L28.7871 29.612C28.9261 29.633 29.0991 29.622 29.2791 29.622C29.5541 29.622 29.8461 29.589 30.0561 29.547L30.4041 29.473C30.7511 29.403 31.1061 29.224 31.1921 28.88L31.5191 27.731C31.5191 27.731 31.5801 27.409 32.0021 27.409C32.4241 27.409 32.4851 27.731 32.4851 27.731L32.8121 28.878C32.8981 29.221 33.2531 29.479 33.6011 29.549L33.9481 29.578C34.1581 29.62 34.4501 29.623 34.7261 29.623C34.9061 29.623 35.0791 29.603 35.2171 29.583L36.1961 29.438C36.5471 29.388 36.8701 29.218 36.9141 28.866L37.0761 27.731H37.8011V27.085ZM31.2101 27.31L30.8781 28.638C30.8221 28.862 30.5651 29.106 30.3391 29.151L29.9911 29.22C29.8091 29.257 29.5421 29.279 29.2771 29.279C29.1071 29.279 28.9481 29.27 28.8311 29.253L27.8521 29.113C27.6451 29.083 27.4341 28.868 27.4081 28.661L27.2461 27.362C27.2241 27.186 27.3531 27.016 27.5291 26.991L28.5091 26.851C28.6771 26.827 28.9161 26.813 29.1621 26.813C29.3681 26.813 29.5591 26.823 29.7011 26.84L30.9991 27.003C31.0771 27.013 31.1411 27.049 31.1791 27.106C31.2181 27.162 31.2291 27.234 31.2101 27.31ZM36.5941 28.661C36.5681 28.868 36.3561 29.083 36.1511 29.113L35.1721 29.253C35.0541 29.27 34.8961 29.279 34.7261 29.279C34.4591 29.279 34.1941 29.257 34.0101 29.22L33.6631 29.151C33.4371 29.106 33.1811 28.861 33.1251 28.638L32.7931 27.31C32.7741 27.234 32.7851 27.162 32.8241 27.105C32.8631 27.049 32.9271 27.012 33.0031 27.002L34.3031 26.839C34.4451 26.822 34.6361 26.812 34.8411 26.812C35.0881 26.812 35.3251 26.826 35.4941 26.85L36.4731 26.99C36.6501 27.015 36.7801 27.185 36.7571 27.361L36.5941 28.661Z" fill="#0A0D50"/>
<path d="M36.67 22.0588C36.878 22.6328 37 23.2648 37 23.9498V28.9498C37 31.9418 34.528 35.9488 32 35.9488C29.472 35.9488 27 31.9418 27 28.9498V23.9498C27 23.2768 27.12 22.6578 27.32 22.0928C26.982 22.4108 26.344 24.1338 26.041 25.0308C26.024 24.9798 26.016 24.9338 26 24.8838V28.9498C26 32.4758 28.825 36.9488 32 36.9488C35.175 36.9488 38 32.4758 38 28.9498V24.8958C37.603 23.8348 36.963 22.3068 36.67 22.0588Z" fill="#0A0D50"/>
<path d="M32.0084 17.95C35.4464 17.95 37.6144 19.7609 37.9534 23.6229C37.6164 22.6289 36.8924 21.521 36.5974 21.521C36.1344 21.521 35.7444 21.742 35.2934 21.999C34.5874 22.4 33.6194 22.95 32.0084 22.95C30.3934 22.95 29.4244 22.402 28.7174 22.002C28.2664 21.746 27.8774 21.5259 27.4164 21.5259C27.1204 21.5259 26.3974 22.6319 26.0624 23.6229C26.4014 19.7619 28.5704 17.95 32.0084 17.95ZM32.0084 16.95C27.9044 16.95 25.4144 19.406 25.0674 23.535C24.8544 26.068 26.1024 28.749 26.1024 28.749L27.0104 23.9419C27.1904 23.4099 27.4884 22.885 27.6954 22.594C27.8374 22.653 28.0084 22.748 28.2244 22.87C28.9824 23.3 30.1284 23.9489 32.0084 23.9489C33.8844 23.9489 35.0294 23.298 35.7874 22.867C36.0034 22.744 36.1754 22.648 36.3174 22.589C36.5264 22.881 36.8254 23.408 37.0054 23.943L37.8514 28.905C37.8514 28.905 39.0364 26.222 38.9494 23.534C38.8204 19.531 36.1114 16.95 32.0084 16.95Z" fill="#0A0D50"/>
</svg>
