<svg width="24" height="24" viewBox="0 0 24 24" fill="none" xmlns="http://www.w3.org/2000/svg">
<circle cx="12" cy="12" r="12" fill="#0A0D50"/>
<path fill-rule="evenodd" clip-rule="evenodd" d="M5.96282 11.7364C5.61135 11.3849 5.61135 10.8151 5.96282 10.4636L11.3628 5.06361C11.7143 4.71213 12.2841 4.71213 12.6356 5.06361L18.0356 10.4636C18.3871 10.8151 18.3871 11.3849 18.0356 11.7364C17.6841 12.0879 17.1143 12.0879 16.7628 11.7364L12.8992 7.8728L12.8992 18.3C12.8992 18.7971 12.4963 19.2 11.9992 19.2C11.5022 19.2 11.0992 18.7971 11.0992 18.3L11.0992 7.8728L7.23562 11.7364C6.88414 12.0879 6.31429 12.0879 5.96282 11.7364Z" fill="white"/>
</svg>
