<svg width="64" height="64" viewBox="0 0 64 64" fill="none" xmlns="http://www.w3.org/2000/svg">
<path d="M17.9221 31.599C19.5221 31.409 21.0721 32.188 21.8711 33.586C21.8811 33.603 21.8871 33.622 21.8961 33.64C22.2381 33.046 22.7221 32.524 23.3591 32.16C23.8461 31.882 24.3741 31.712 24.9281 31.654C25.2021 31.625 25.4481 31.822 25.4761 32.099C25.5041 32.373 25.3061 32.62 25.0311 32.648C24.6171 32.691 24.2211 32.819 23.8551 33.028C22.4191 33.849 21.9181 35.685 22.7401 37.122C23.1511 37.841 23.8201 38.346 24.6261 38.545C24.8931 38.611 25.0571 38.882 24.9901 39.151C24.9241 39.419 24.6531 39.583 24.3841 39.515C23.3131 39.249 22.4201 38.576 21.8721 37.618C21.4251 36.836 21.2851 35.966 21.3921 35.135C21.3771 35.099 21.3571 35.068 21.3511 35.029C21.2891 34.698 21.1721 34.38 21.0031 34.084C20.4031 33.035 19.2401 32.45 18.0391 32.593C17.8341 32.618 17.6431 32.513 17.5471 32.345C17.5141 32.288 17.4921 32.224 17.4841 32.156C17.4511 31.88 17.6461 31.631 17.9221 31.599Z" fill="#0A0D50"/>
<path d="M11.8133 45.442C12.4423 43.959 13.8893 43 15.4993 43C15.5193 43 15.5383 43.005 15.5583 43.005C15.2123 42.413 14.9993 41.733 14.9993 41C14.9993 40.438 15.1133 39.896 15.3383 39.387C15.4493 39.134 15.7423 39.019 15.9973 39.132C16.2493 39.243 16.3643 39.538 16.2523 39.791C16.0843 40.172 15.9993 40.579 15.9993 41C15.9993 42.654 17.3453 44 18.9993 44C19.8273 44 20.5983 43.67 21.1713 43.069C21.3603 42.87 21.6773 42.862 21.8783 43.053C22.0773 43.243 22.0853 43.56 21.8943 43.76C21.1313 44.56 20.1033 45 18.9993 45C18.0983 45 17.2733 44.689 16.6043 44.185C16.5663 44.18 16.5293 44.182 16.4923 44.168C16.1743 44.057 15.8403 44 15.4993 44C14.2913 44 13.2063 44.72 12.7333 45.833C12.6533 46.023 12.4673 46.138 12.2733 46.138C12.2083 46.138 12.1413 46.125 12.0783 46.098C11.8243 45.99 11.7053 45.697 11.8133 45.442Z" fill="#0A0D50"/>
<path d="M21.9982 53.0021C22.5482 53.0021 23.0962 52.8881 23.6142 52.6581C24.5922 52.2271 25.3432 51.4411 25.7282 50.4441C26.1142 49.4481 26.0882 48.3611 25.6562 47.3841C25.5452 47.1311 25.2462 47.0181 24.9972 47.1291C24.7442 47.2401 24.6302 47.5361 24.7422 47.7881C25.0662 48.5201 25.0852 49.3351 24.7962 50.0821C24.5072 50.8301 23.9432 51.4201 23.2102 51.7431C22.4762 52.0651 21.6592 52.0851 20.9142 51.7971C20.1672 51.5071 19.5772 50.9441 19.2552 50.2111C19.1432 49.9581 18.8472 49.8461 18.5962 49.9541C18.3432 50.0651 18.2282 50.3611 18.3392 50.6131C18.7712 51.5921 19.5562 52.3421 20.5532 52.7281C21.0212 52.9111 21.5102 53.0021 21.9982 53.0021Z" fill="#0A0D50"/>
<path d="M8.102 44.256C8.143 44.278 8.188 44.279 8.232 44.29C7.769 45.104 7.5 46.029 7.5 47C7.5 50.032 9.968 52.5 13 52.5C13.066 52.5 13.13 52.485 13.188 52.462C13.843 55.065 16.196 57 19 57C19.91 57 21.681 56.591 21.775 56.645C22.752 57.204 23.867 57.5 25 57.5C28.584 57.5 31.5 54.584 31.5 51C31.5 49.181 30.735 47.473 29.427 46.253C31.492 45.454 31.5 42.837 31.5 41C31.5 39.327 31.494 37.005 29.935 36C31.495 34.995 31.5 32.673 31.5 31C31.5 29.327 31.494 27.005 29.935 26C31.495 24.995 31.5 22.673 31.5 21C31.5 19.292 31.492 16.911 29.834 15.941C30.897 14.91 31.5 13.503 31.5 12C31.5 8.968 29.032 6.5 26 6.5C23.396 6.5 21.214 8.321 20.647 10.755C20.117 10.588 19.563 10.5 19 10.5C15.968 10.5 13.5 12.968 13.5 16C13.5 16.077 13.518 16.15 13.521 16.228C13.453 16.218 13.382 16.221 13.312 16.242C10.773 16.983 9 19.352 9 22C9 23.129 9.336 24.203 9.906 25.131C7.66 25.631 6 27.622 6 30C6 31.528 6.705 32.95 7.872 33.89C6.152 34.946 5 36.839 5 39C5 41.184 6.188 43.198 8.102 44.256ZM8.747 43.529C8.705 43.47 8.653 43.418 8.586 43.381C6.991 42.499 6 40.82 6 39C6 36.243 8.243 34 11 34C11.236 34 11.47 34.016 11.698 34.047C11.969 34.079 12.223 33.893 12.261 33.619C12.299 33.346 12.108 33.094 11.833 33.056C11.562 33.02 11.283 33 11 33C10.258 33 9.549 33.142 8.892 33.39C7.723 32.662 7 31.387 7 30C7 27.941 8.556 26.252 10.576 26.038C11.195 26.719 11.968 27.266 12.857 27.605C12.916 27.627 12.976 27.638 13.036 27.638C13.237 27.638 13.427 27.516 13.503 27.317C13.602 27.059 13.473 26.77 13.215 26.671C11.292 25.937 10 24.06 10 22C10 19.793 11.478 17.819 13.594 17.2C13.611 17.195 13.623 17.182 13.639 17.177C13.847 18.126 14.293 19.013 14.966 19.74C15.065 19.846 15.199 19.9 15.333 19.9C15.455 19.9 15.576 19.856 15.673 19.767C15.875 19.579 15.888 19.262 15.7 19.06C14.926 18.225 14.5 17.138 14.5 16C14.5 13.519 16.519 11.5 19 11.5C19.476 11.5 19.943 11.573 20.39 11.719C20.431 11.733 20.472 11.731 20.514 11.734C20.509 11.822 20.5 11.91 20.5 12C20.5 12.276 20.724 12.5 21 12.5C21.276 12.5 21.5 12.276 21.5 12C21.5 9.519 23.519 7.5 26 7.5C28.481 7.5 30.5 9.519 30.5 12C30.5 13.389 29.874 14.679 28.782 15.538C28.772 15.546 28.767 15.558 28.758 15.566C28.523 15.527 28.276 15.5 28 15.5C27.724 15.5 27.5 15.724 27.5 16C27.5 16.276 27.724 16.5 28 16.5C30.126 16.5 30.5 17.951 30.5 21C30.5 24.049 30.126 25.5 28 25.5C27.724 25.5 27.5 25.724 27.5 26C27.5 26.276 27.724 26.5 28 26.5C30.126 26.5 30.5 27.951 30.5 31C30.5 34.049 30.126 35.5 28 35.5C27.724 35.5 27.5 35.724 27.5 36C27.5 36.276 27.724 36.5 28 36.5C30.126 36.5 30.5 37.951 30.5 41C30.5 44.049 30.126 45.5 28 45.5C27.724 45.5 27.5 45.724 27.5 46C27.5 46.276 27.724 46.5 28 46.5C28.051 46.5 28.094 46.493 28.144 46.491C29.619 47.522 30.5 49.199 30.5 51C30.5 54.032 28.032 56.5 25 56.5C24.122 56.5 23.261 56.28 22.485 55.882C22.777 55.672 23.056 55.438 23.312 55.173C23.504 54.975 23.499 54.658 23.3 54.466C23.102 54.275 22.786 54.279 22.593 54.478C21.644 55.459 20.367 56 19 56C16.243 56 14 53.757 14 51C14 50.724 13.776 50.5 13.5 50.5C13.224 50.5 13 50.724 13 51C13 51.171 13.012 51.338 13.025 51.505C13.016 51.505 13.008 51.5 13 51.5C10.519 51.5 8.5 49.481 8.5 47C8.5 45.24 9.536 43.631 11.139 42.901C11.391 42.787 11.501 42.49 11.387 42.239C11.273 41.987 10.976 41.879 10.725 41.991C9.939 42.349 9.272 42.884 8.747 43.529Z" fill="#0A0D50"/>
<path d="M15 22C16.286 22 17.377 22.817 17.803 23.957C18.065 23.675 18.381 23.443 18.741 23.277C19.466 22.941 20.282 22.907 21.036 23.183C21.295 23.279 21.428 23.566 21.333 23.826C21.236 24.086 20.951 24.215 20.69 24.123C20.19 23.938 19.644 23.959 19.161 24.185C18.676 24.41 18.307 24.809 18.124 25.311C17.743 26.345 18.276 27.498 19.312 27.877C19.571 27.973 19.704 28.26 19.609 28.52C19.534 28.722 19.342 28.847 19.139 28.847C19.081 28.847 19.024 28.837 18.966 28.817C17.519 28.285 16.742 26.75 17.103 25.287C17.042 25.204 17 25.109 17 25C17 23.897 16.103 23 15 23C14.724 23 14.5 22.776 14.5 22.5C14.5 22.224 14.724 22 15 22Z" fill="#0A0D50"/>
<path d="M20.3582 15.513C20.5742 15.338 20.8872 15.369 21.0622 15.582C21.5402 16.166 22.2462 16.5 22.9982 16.5C24.3772 16.5 25.4982 15.379 25.4982 14C25.4982 13.454 25.3252 12.935 24.9982 12.498C24.8322 12.277 24.8762 11.964 25.0982 11.799C25.3182 11.632 25.6322 11.678 25.7972 11.899C26.2562 12.509 26.4982 13.235 26.4982 14C26.4982 14.993 26.0782 15.886 25.4122 16.522C25.3872 16.565 25.3612 16.608 25.3232 16.643C24.7992 17.117 24.4982 17.793 24.4982 18.499C24.4982 19.167 24.7582 19.795 25.2302 20.268C25.4252 20.463 25.4252 20.78 25.2302 20.975C25.1322 21.073 25.0042 21.121 24.8762 21.121C24.7482 21.121 24.6202 21.072 24.5222 20.975C23.8612 20.314 23.4972 19.435 23.4972 18.499C23.4972 18.131 23.5732 17.773 23.6852 17.43C23.4632 17.476 23.2332 17.5 22.9982 17.5C21.9452 17.5 20.9582 17.032 20.2892 16.217C20.1142 16.003 20.1452 15.688 20.3582 15.513Z" fill="#0A0D50"/>
<path d="M46.0762 31.599C44.4762 31.409 42.9262 32.188 42.1272 33.586C42.1172 33.603 42.1112 33.622 42.1022 33.64C41.7602 33.046 41.2762 32.524 40.6392 32.16C40.1522 31.882 39.6242 31.712 39.0702 31.654C38.7962 31.625 38.5502 31.822 38.5222 32.099C38.4942 32.373 38.6922 32.62 38.9672 32.648C39.3812 32.691 39.7772 32.819 40.1432 33.028C41.5792 33.849 42.0802 35.685 41.2582 37.122C40.8472 37.841 40.1782 38.346 39.3722 38.545C39.1052 38.611 38.9412 38.882 39.0082 39.151C39.0742 39.419 39.3452 39.583 39.6142 39.515C40.6852 39.249 41.5782 38.576 42.1262 37.618C42.5732 36.836 42.7132 35.966 42.6062 35.135C42.6212 35.099 42.6412 35.068 42.6472 35.029C42.7092 34.698 42.8262 34.38 42.9952 34.084C43.5952 33.035 44.7582 32.45 45.9592 32.593C46.1642 32.618 46.3552 32.513 46.4512 32.345C46.4842 32.288 46.5062 32.224 46.5142 32.156C46.5472 31.88 46.3522 31.631 46.0762 31.599Z" fill="#0A0D50"/>
<path d="M52.1842 45.442C51.5552 43.959 50.1082 43 48.4982 43C48.4782 43 48.4592 43.005 48.4392 43.005C48.7852 42.413 48.9982 41.733 48.9982 41C48.9982 40.438 48.8842 39.896 48.6592 39.387C48.5482 39.134 48.2552 39.019 48.0002 39.132C47.7482 39.243 47.6332 39.538 47.7452 39.791C47.9132 40.172 47.9982 40.579 47.9982 41C47.9982 42.654 46.6522 44 44.9982 44C44.1702 44 43.3992 43.67 42.8262 43.069C42.6372 42.87 42.3202 42.862 42.1192 43.053C41.9202 43.243 41.9122 43.56 42.1032 43.76C42.8662 44.56 43.8942 45 44.9982 45C45.8992 45 46.7242 44.689 47.3932 44.185C47.4312 44.18 47.4682 44.182 47.5052 44.168C47.8232 44.057 48.1572 44 48.4982 44C49.7062 44 50.7912 44.72 51.2642 45.833C51.3442 46.023 51.5302 46.138 51.7242 46.138C51.7892 46.138 51.8562 46.125 51.9192 46.098C52.1732 45.99 52.2922 45.697 52.1842 45.442Z" fill="#0A0D50"/>
<path d="M42.0019 53.0021C41.4519 53.0021 40.9038 52.8881 40.3858 52.6581C39.4078 52.2271 38.6569 51.4411 38.2719 50.4441C37.8859 49.4481 37.9118 48.3611 38.3438 47.3841C38.4548 47.1311 38.7539 47.0181 39.0029 47.1291C39.2559 47.2401 39.3699 47.5361 39.2579 47.7881C38.9339 48.5201 38.9149 49.3351 39.2039 50.0821C39.4929 50.8301 40.0568 51.4201 40.7898 51.7431C41.5238 52.0651 42.3409 52.0851 43.0859 51.7971C43.8329 51.5071 44.4229 50.9441 44.7449 50.2111C44.8569 49.9581 45.1529 49.8461 45.4039 49.9541C45.6569 50.0651 45.7719 50.3611 45.6609 50.6131C45.2289 51.5921 44.4439 52.3421 43.4469 52.7281C42.9789 52.9111 42.4899 53.0021 42.0019 53.0021Z" fill="#0A0D50"/>
<path d="M59 39C59 36.839 57.848 34.946 56.128 33.89C57.295 32.95 58 31.528 58 30C58 27.622 56.34 25.631 54.094 25.131C54.664 24.203 55 23.129 55 22C55 19.352 53.227 16.983 50.687 16.241C50.617 16.22 50.546 16.218 50.478 16.227C50.482 16.15 50.5 16.077 50.5 16C50.5 12.968 48.032 10.5 45 10.5C44.437 10.5 43.883 10.588 43.353 10.755C42.786 8.321 40.604 6.5 38 6.5C34.968 6.5 32.5 8.968 32.5 12C32.5 13.503 33.103 14.91 34.166 15.941C32.508 16.911 32.5 19.292 32.5 21C32.5 22.673 32.506 24.995 34.065 26C32.505 27.005 32.5 29.327 32.5 31C32.5 32.673 32.506 34.995 34.065 36C32.505 37.005 32.5 39.327 32.5 41C32.5 42.837 32.508 45.454 34.573 46.253C33.265 47.473 32.5 49.181 32.5 51C32.5 54.584 35.416 57.5 39 57.5C40.133 57.5 41.248 57.204 42.225 56.645C42.319 56.591 44.09 57 45 57C47.804 57 50.157 55.065 50.813 52.462C50.87 52.485 50.934 52.5 51 52.5C54.032 52.5 56.5 50.032 56.5 47C56.5 46.029 56.231 45.104 55.769 44.29C55.813 44.279 55.858 44.278 55.899 44.256C57.812 43.198 59 41.184 59 39ZM53.275 41.991C53.024 41.879 52.727 41.987 52.613 42.239C52.499 42.49 52.609 42.787 52.861 42.901C54.464 43.631 55.5 45.24 55.5 47C55.5 49.481 53.481 51.5 51 51.5C50.991 51.5 50.983 51.505 50.975 51.505C50.988 51.338 51 51.171 51 51C51 50.724 50.776 50.5 50.5 50.5C50.224 50.5 50 50.724 50 51C50 53.757 47.757 56 45 56C43.633 56 42.356 55.459 41.406 54.478C41.213 54.28 40.897 54.275 40.699 54.466C40.501 54.658 40.495 54.975 40.687 55.173C40.943 55.438 41.222 55.672 41.514 55.882C40.739 56.28 39.878 56.5 39 56.5C35.968 56.5 33.5 54.032 33.5 51C33.5 49.199 34.381 47.522 35.856 46.491C35.906 46.493 35.949 46.5 36 46.5C36.276 46.5 36.5 46.276 36.5 46C36.5 45.724 36.276 45.5 36 45.5C33.874 45.5 33.5 44.049 33.5 41C33.5 37.951 33.874 36.5 36 36.5C36.276 36.5 36.5 36.276 36.5 36C36.5 35.724 36.276 35.5 36 35.5C33.874 35.5 33.5 34.049 33.5 31C33.5 27.951 33.874 26.5 36 26.5C36.276 26.5 36.5 26.276 36.5 26C36.5 25.724 36.276 25.5 36 25.5C33.874 25.5 33.5 24.049 33.5 21C33.5 17.951 33.874 16.5 36 16.5C36.276 16.5 36.5 16.276 36.5 16C36.5 15.724 36.276 15.5 36 15.5C35.724 15.5 35.477 15.527 35.242 15.566C35.232 15.557 35.227 15.545 35.218 15.538C34.126 14.679 33.5 13.389 33.5 12C33.5 9.519 35.519 7.5 38 7.5C40.481 7.5 42.5 9.519 42.5 12C42.5 12.276 42.724 12.5 43 12.5C43.276 12.5 43.5 12.276 43.5 12C43.5 11.91 43.491 11.822 43.486 11.733C43.528 11.73 43.569 11.732 43.61 11.718C44.057 11.573 44.524 11.5 45 11.5C47.481 11.5 49.5 13.519 49.5 16C49.5 17.138 49.074 18.225 48.3 19.06C48.112 19.262 48.125 19.579 48.327 19.767C48.424 19.856 48.545 19.9 48.667 19.9C48.801 19.9 48.936 19.846 49.034 19.74C49.707 19.013 50.153 18.127 50.361 17.177C50.377 17.183 50.389 17.196 50.406 17.2C52.522 17.819 54 19.793 54 22C54 24.06 52.708 25.937 50.785 26.672C50.527 26.771 50.398 27.06 50.497 27.318C50.573 27.517 50.763 27.639 50.964 27.639C51.024 27.639 51.084 27.628 51.143 27.606C52.033 27.266 52.805 26.719 53.424 26.039C55.444 26.252 57 27.941 57 30C57 31.387 56.277 32.662 55.108 33.39C54.451 33.142 53.742 33 53 33C52.717 33 52.438 33.02 52.167 33.057C51.893 33.094 51.701 33.346 51.739 33.62C51.776 33.893 52.03 34.08 52.302 34.048C52.53 34.016 52.764 34 53 34C55.757 34 58 36.243 58 39C58 40.82 57.009 42.499 55.414 43.381C55.347 43.418 55.295 43.471 55.253 43.529C54.728 42.884 54.061 42.349 53.275 41.991Z" fill="#0A0D50"/>
<path d="M49.0004 22C47.7144 22 46.6234 22.817 46.1974 23.957C45.9354 23.675 45.6194 23.443 45.2594 23.277C44.5344 22.941 43.7184 22.907 42.9644 23.183C42.7054 23.279 42.5724 23.566 42.6674 23.826C42.7644 24.086 43.0494 24.215 43.3104 24.123C43.8104 23.938 44.3564 23.959 44.8394 24.185C45.3244 24.41 45.6934 24.809 45.8764 25.311C46.2574 26.345 45.7244 27.498 44.6884 27.877C44.4294 27.973 44.2964 28.26 44.3914 28.52C44.4664 28.722 44.6584 28.847 44.8614 28.847C44.9194 28.847 44.9764 28.837 45.0344 28.817C46.4814 28.285 47.2584 26.75 46.8974 25.287C46.9584 25.204 47.0004 25.109 47.0004 25C47.0004 23.897 47.8974 23 49.0004 23C49.2764 23 49.5004 22.776 49.5004 22.5C49.5004 22.224 49.2764 22 49.0004 22Z" fill="#0A0D50"/>
<path d="M43.64 15.513C43.424 15.338 43.111 15.369 42.936 15.582C42.458 16.166 41.752 16.5 41 16.5C39.621 16.5 38.5 15.379 38.5 14C38.5 13.454 38.673 12.935 39 12.498C39.166 12.277 39.122 11.964 38.9 11.799C38.68 11.632 38.366 11.678 38.201 11.899C37.742 12.509 37.5 13.235 37.5 14C37.5 14.993 37.92 15.886 38.586 16.522C38.611 16.565 38.637 16.608 38.675 16.643C39.199 17.117 39.5 17.793 39.5 18.499C39.5 19.167 39.24 19.795 38.768 20.268C38.573 20.463 38.573 20.78 38.768 20.975C38.866 21.073 38.994 21.121 39.122 21.121C39.25 21.121 39.378 21.072 39.476 20.975C40.137 20.314 40.501 19.435 40.501 18.499C40.501 18.131 40.425 17.773 40.313 17.43C40.535 17.476 40.765 17.5 41 17.5C42.053 17.5 43.04 17.032 43.709 16.217C43.884 16.003 43.853 15.688 43.64 15.513Z" fill="#0A0D50"/>
</svg>
