<svg width="64" height="64" viewBox="0 0 64 64" fill="none" xmlns="http://www.w3.org/2000/svg">
<path d="M20.9998 27.83L26.0678 32.898C26.0578 32.904 26.0488 32.91 26.0408 32.916H25.9998C23.5188 32.916 21.4998 34.935 21.4998 37.416C21.4998 39.897 23.5188 41.916 25.9998 41.916C28.4808 41.916 30.4998 39.897 30.4998 37.416V37.375C30.5048 37.366 30.5108 37.357 30.5178 37.348L35.5858 42.416L30.4998 47.502C30.0878 47.914 29.8518 48.457 29.8518 48.992C29.8518 49.437 30.0178 49.847 30.3158 50.144C30.4968 50.326 31.1388 50.917 31.8168 50.917L31.9218 50.915H31.9998C33.3788 50.915 34.4998 52.036 34.4998 53.415C34.4998 54.794 33.3788 55.915 31.9998 55.915C30.6208 55.915 29.4998 54.794 29.4998 53.415V53.3C29.5378 52.621 28.9818 51.984 28.7288 51.73C28.4288 51.431 28.0198 51.267 27.5748 51.267C27.0408 51.267 26.4978 51.503 26.0858 51.915L20.9998 57.001L15.9138 51.915C15.5018 51.503 14.9588 51.267 14.4248 51.267C13.9798 51.267 13.5708 51.431 13.2688 51.732C13.0178 51.984 12.4618 52.622 12.4998 53.3V53.415C12.4998 54.794 11.3788 55.915 9.99981 55.915C8.62081 55.915 7.49981 54.794 7.49981 53.415C7.49981 52.036 8.62081 50.915 9.99981 50.915H10.0908L10.1068 50.917H10.1838C10.8618 50.917 11.5038 50.325 11.6828 50.146C11.9828 49.847 12.1488 49.437 12.1488 48.992C12.1488 48.457 11.9128 47.914 11.5008 47.502L6.41481 42.416L11.4828 37.348C11.4898 37.358 11.4958 37.367 11.5008 37.375V37.416C11.5008 39.897 13.5198 41.916 16.0008 41.916C18.4818 41.916 20.5008 39.897 20.5008 37.416C20.5008 34.935 18.4818 32.916 16.0008 32.916H15.9598C15.9508 32.91 15.9418 32.904 15.9328 32.898L20.9978 27.832C20.9978 27.832 20.9988 27.832 21.0008 27.832V27.83H20.9998ZM20.9998 26.832C20.7438 26.832 20.4868 26.929 20.2928 27.123L15.2068 32.209C14.8178 32.598 14.7348 33.151 15.0228 33.438C15.2938 33.71 15.6398 33.917 15.8158 33.917C15.8258 33.917 15.8358 33.917 15.8438 33.915C15.8438 33.915 15.8438 33.915 15.9988 33.915C17.9328 33.915 19.4988 35.481 19.4988 37.415C19.4988 39.349 17.9328 40.915 15.9988 40.915C14.0648 40.915 12.4988 39.349 12.4988 37.415C12.4988 37.26 12.4988 37.26 12.4988 37.26C12.5238 37.096 12.3098 36.726 12.0218 36.438C11.9058 36.323 11.7478 36.267 11.5738 36.267C11.3148 36.267 11.0238 36.39 10.7918 36.622L5.70581 41.708C5.31681 42.097 5.31681 42.733 5.70581 43.122L10.7918 48.208C11.1808 48.597 11.2638 49.15 10.9758 49.437C10.7048 49.709 10.3588 49.916 10.1828 49.916C10.1728 49.916 10.1628 49.916 10.1548 49.914C10.1548 49.914 10.1548 49.914 9.99981 49.914C8.06581 49.914 6.49981 51.48 6.49981 53.414C6.49981 55.348 8.06581 56.914 9.99981 56.914C11.9338 56.914 13.4998 55.348 13.4998 53.414C13.4998 53.259 13.4998 53.259 13.4998 53.259C13.4748 53.095 13.6888 52.725 13.9768 52.437C14.0928 52.322 14.2508 52.266 14.4248 52.266C14.6838 52.266 14.9748 52.389 15.2068 52.621L20.2928 57.707C20.4868 57.903 20.7438 58 20.9998 58C21.2558 58 21.5128 57.903 21.7068 57.709L26.7928 52.623C27.0248 52.391 27.3168 52.268 27.5748 52.268C27.7488 52.268 27.9068 52.324 28.0228 52.439C28.3098 52.727 28.5248 53.097 28.4998 53.261C28.4998 53.261 28.4998 53.261 28.4998 53.416C28.4998 55.35 30.0658 56.916 31.9998 56.916C33.9338 56.916 35.4998 55.35 35.4998 53.416C35.4998 51.482 33.9338 49.916 31.9998 49.916C31.8448 49.916 31.8448 49.916 31.8448 49.916C31.8358 49.918 31.8258 49.918 31.8168 49.918C31.6408 49.918 31.2958 49.711 31.0238 49.439C30.7358 49.152 30.8188 48.598 31.2078 48.21L36.2938 43.124C36.6828 42.735 36.6828 42.099 36.2938 41.71L31.2078 36.624C30.9758 36.392 30.6838 36.269 30.4258 36.269C30.2518 36.269 30.0938 36.325 29.9778 36.44C29.6908 36.728 29.4758 37.098 29.5008 37.262C29.5008 37.262 29.5008 37.262 29.5008 37.417C29.5008 39.351 27.9348 40.917 26.0008 40.917C24.0668 40.917 22.5008 39.351 22.5008 37.417C22.5008 35.483 24.0668 33.917 26.0008 33.917C26.1558 33.917 26.1558 33.917 26.1558 33.917C26.1648 33.919 26.1748 33.919 26.1838 33.919C26.3598 33.919 26.7048 33.712 26.9768 33.44C27.2648 33.153 27.1818 32.599 26.7928 32.211L21.7068 27.125C21.5128 26.929 21.2558 26.832 20.9998 26.832Z" fill="#0A0D50"/>
<path d="M42.9998 5.83003L48.0678 10.898C48.0578 10.905 48.0488 10.911 48.0408 10.916H47.9998C45.5188 10.916 43.4998 12.935 43.4998 15.416C43.4998 17.897 45.5188 19.916 47.9998 19.916C50.4808 19.916 52.4998 17.897 52.4998 15.416V15.375C52.5048 15.366 52.5108 15.357 52.5178 15.348L57.5858 20.416L52.5178 25.484C52.5108 25.474 52.5048 25.465 52.4998 25.458V25.416C52.4998 22.935 50.4808 20.916 47.9998 20.916C45.5188 20.916 43.4998 22.935 43.4998 25.416C43.4998 27.897 45.5188 29.916 47.9998 29.916H48.0408C48.0498 29.922 48.0588 29.928 48.0678 29.934L42.9998 35.002L37.9138 29.916C37.5018 29.504 36.9588 29.268 36.4248 29.268C35.9798 29.268 35.5708 29.432 35.2688 29.733C35.0178 29.985 34.4618 30.623 34.4998 31.301V31.416C34.4998 32.795 33.3788 33.916 31.9998 33.916C30.6208 33.916 29.4998 32.795 29.4998 31.416C29.4998 30.038 30.6208 28.916 31.9998 28.916H32.0908L32.1068 28.918H32.1838C32.8618 28.918 33.5038 28.326 33.6828 28.147C33.9828 27.847 34.1488 27.437 34.1488 26.992C34.1488 26.458 33.9128 25.914 33.5008 25.502L28.4148 20.416L33.5008 15.33C33.9128 14.918 34.1488 14.375 34.1488 13.84C34.1488 13.395 33.9828 12.985 33.6848 12.688C33.5038 12.507 32.8618 11.915 32.1838 11.915L32.0788 11.917H32.0008C30.6218 11.917 29.5008 10.796 29.5008 9.41703C29.5008 8.03903 30.6218 6.91703 32.0008 6.91703C33.3798 6.91703 34.5008 8.03903 34.5008 9.41703V9.53203C34.4628 10.211 35.0188 10.849 35.2718 11.103C35.5718 11.401 35.9808 11.565 36.4258 11.565C36.9598 11.565 37.5028 11.329 37.9148 10.917L42.9978 5.83303C42.9978 5.83303 42.9988 5.83303 43.0008 5.83303L42.9998 5.83003ZM42.9998 4.83203C42.7438 4.83203 42.4868 4.92903 42.2928 5.12303L37.2068 10.209C36.9748 10.441 36.6828 10.564 36.4248 10.564C36.2508 10.564 36.0928 10.508 35.9768 10.393C35.6898 10.105 35.4748 9.73503 35.4998 9.57103C35.4998 9.57103 35.4998 9.57103 35.4998 9.41603C35.4998 7.48203 33.9338 5.91603 31.9998 5.91603C30.0658 5.91603 28.4998 7.48203 28.4998 9.41603C28.4998 11.35 30.0658 12.916 31.9998 12.916C32.1548 12.916 32.1548 12.916 32.1548 12.916C32.1638 12.915 32.1738 12.914 32.1828 12.914C32.3588 12.914 32.7038 13.121 32.9758 13.393C33.2638 13.68 33.1808 14.234 32.7918 14.622L27.7058 19.708C27.3168 20.097 27.3168 20.733 27.7058 21.122L32.7918 26.208C33.1808 26.597 33.2638 27.15 32.9758 27.437C32.7048 27.709 32.3588 27.916 32.1828 27.916C32.1728 27.916 32.1628 27.916 32.1548 27.914C32.1548 27.914 32.1548 27.914 31.9998 27.914C30.0658 27.914 28.4998 29.48 28.4998 31.414C28.4998 33.348 30.0658 34.914 31.9998 34.914C33.9338 34.914 35.4998 33.348 35.4998 31.414C35.4998 31.259 35.4998 31.259 35.4998 31.259C35.4748 31.095 35.6888 30.725 35.9768 30.437C36.0928 30.322 36.2508 30.266 36.4248 30.266C36.6838 30.266 36.9748 30.389 37.2068 30.621L42.2928 35.707C42.4868 35.903 42.7438 36 42.9998 36C43.2558 36 43.5128 35.903 43.7068 35.709L48.7928 30.623C49.1818 30.234 49.2648 29.681 48.9768 29.394C48.7058 29.122 48.3598 28.915 48.1838 28.915C48.1738 28.915 48.1638 28.916 48.1558 28.917C48.1558 28.917 48.1558 28.917 48.0008 28.917C46.0668 28.917 44.5008 27.351 44.5008 25.417C44.5008 23.483 46.0668 21.917 48.0008 21.917C49.9348 21.917 51.5008 23.483 51.5008 25.417C51.5008 25.572 51.5008 25.572 51.5008 25.572C51.4758 25.736 51.6898 26.106 51.9778 26.394C52.0938 26.509 52.2518 26.565 52.4258 26.565C52.6848 26.565 52.9758 26.442 53.2078 26.21L58.2938 21.124C58.6828 20.735 58.6828 20.099 58.2938 19.71L53.2078 14.624C52.9758 14.392 52.6838 14.269 52.4258 14.269C52.2518 14.269 52.0938 14.325 51.9778 14.44C51.6908 14.728 51.4758 15.098 51.5008 15.262C51.5008 15.262 51.5008 15.262 51.5008 15.417C51.5008 17.351 49.9348 18.917 48.0008 18.917C46.0668 18.917 44.5008 17.351 44.5008 15.417C44.5008 13.483 46.0668 11.917 48.0008 11.917C48.1558 11.917 48.1558 11.917 48.1558 11.917C48.1648 11.919 48.1748 11.919 48.1838 11.919C48.3598 11.919 48.7048 11.712 48.9768 11.44C49.2648 11.153 49.1818 10.599 48.7928 10.211L43.7068 5.12503C43.5128 4.92903 43.2558 4.83203 42.9998 4.83203Z" fill="#0A0D50"/>
</svg>
