<svg width="16" height="16" viewBox="0 0 16 16" fill="none" xmlns="http://www.w3.org/2000/svg">
<path fill-rule="evenodd" clip-rule="evenodd" d="M7.98567 4.77049e-05C6.08955 0.000302881 4.25537 0.675143 2.81124 1.90385C1.3671 3.13256 0.407216 4.83498 0.103287 6.70658C-0.200642 8.57818 0.171213 10.4969 1.15233 12.1194C2.13346 13.7419 3.65984 14.9625 5.45844 15.5628C5.85778 15.6369 6.02892 15.3916 6.02892 15.1805V13.8228C3.80975 14.302 3.34196 12.7503 3.34196 12.7503C3.1859 12.2613 2.85746 11.8457 2.41778 11.5808C1.69327 11.0902 2.47483 11.0959 2.47483 11.0959C2.7279 11.1316 2.96945 11.2248 3.18103 11.3681C3.39262 11.5115 3.56864 11.7013 3.69565 11.9231C3.91663 12.3194 4.28595 12.6118 4.72242 12.7359C5.1589 12.86 5.62678 12.8056 6.02321 12.5848C6.05542 12.1801 6.23387 11.8009 6.52524 11.518C4.75675 11.3127 2.89128 10.6281 2.89128 7.57032C2.87834 6.77615 3.17265 6.00768 3.71277 5.42532C3.4683 4.73743 3.49688 3.98199 3.79264 3.31454C3.79264 3.31454 4.4601 3.09776 5.98899 4.13032C7.29623 3.77375 8.67511 3.77375 9.98235 4.13032C11.5055 3.09776 12.173 3.31454 12.173 3.31454C12.4687 3.98199 12.4973 4.73743 12.2529 5.42532C12.793 6.00768 13.0873 6.77615 13.0744 7.57032C13.0744 10.6395 11.2089 11.3127 9.42898 11.5123C9.61965 11.7056 9.76668 11.9375 9.86016 12.1924C9.95365 12.4472 9.99142 12.7192 9.97094 12.9899V15.1805C9.97094 15.4429 10.1136 15.6426 10.5414 15.5628C12.3424 14.9618 13.8703 13.7388 14.8513 12.1133C15.8323 10.4878 16.2021 8.56596 15.8944 6.69246C15.5867 4.81896 14.6217 3.11634 13.1724 1.88992C11.7231 0.663494 9.88425 -0.00651138 7.98567 4.77049e-05Z" fill="#192031"/>
</svg>
