<svg width="34" height="34" viewBox="0 0 34 34" fill="none" xmlns="http://www.w3.org/2000/svg">
<path fill-rule="evenodd" clip-rule="evenodd" d="M16.9857 8.99996C15.0896 9.00021 13.2554 9.67505 11.8112 10.9038C10.3671 12.1325 9.40722 13.8349 9.10329 15.7065C8.79936 17.5781 9.17121 19.4968 10.1523 21.1193C11.1335 22.7419 12.6598 23.9624 14.4584 24.5627C14.8578 24.6368 15.0289 24.3915 15.0289 24.1804V22.8227C12.8098 23.3019 12.342 21.7502 12.342 21.7502C12.1859 21.2612 11.8575 20.8456 11.4178 20.5807C10.6933 20.0901 11.4748 20.0958 11.4748 20.0958C11.7279 20.1315 11.9694 20.2247 12.181 20.368C12.3926 20.5114 12.5686 20.7012 12.6957 20.923C12.9166 21.3193 13.286 21.6117 13.7224 21.7358C14.1589 21.8599 14.6268 21.8055 15.0232 21.5848C15.0554 21.18 15.2339 20.8008 15.5252 20.518C13.7567 20.3126 11.8913 19.628 11.8913 16.5702C11.8783 15.7761 12.1727 15.0076 12.7128 14.4252C12.4683 13.7373 12.4969 12.9819 12.7926 12.3144C12.7926 12.3144 13.4601 12.0977 14.989 13.1302C16.2962 12.7737 17.6751 12.7737 18.9823 13.1302C20.5055 12.0977 21.173 12.3144 21.173 12.3144C21.4687 12.9819 21.4973 13.7373 21.2529 14.4252C21.793 15.0076 22.0873 15.7761 22.0744 16.5702C22.0744 19.6394 20.2089 20.3126 18.429 20.5122C18.6196 20.7055 18.7667 20.9374 18.8602 21.1923C18.9537 21.4471 18.9914 21.7191 18.9709 21.9898V24.1804C18.9709 24.4429 19.1136 24.6425 19.5414 24.5627C21.3424 23.9617 22.8703 22.7388 23.8513 21.1132C24.8323 19.4877 25.2021 17.5659 24.8944 15.6924C24.5867 13.8189 23.6217 12.1162 22.1724 10.8898C20.7231 9.6634 18.8842 8.9934 16.9857 8.99996Z" fill="white"/>
</svg>
