<svg width="84" height="84" viewBox="0 0 84 84" fill="none" xmlns="http://www.w3.org/2000/svg">
<g filter="url(#filter0_d_5087_1703)">
<circle cx="42" cy="36" r="30" fill="#12126B"/>
<circle cx="42" cy="36" r="27.5" stroke="white" stroke-width="5"/>
</g>
<path d="M38.011 30.215C36.3 30.206 34.151 31.133 32.512 32.772C31.887 33.397 31.336 34.127 30.911 34.946C32.39 33.827 33.968 33.476 35.814 34.512C36.358 33.075 37.084 31.612 38.011 30.215V30.215ZM47.796 39.988C46.28 40.979 44.789 41.694 43.499 42.198C44.535 44.046 44.185 45.622 43.065 47.1C43.884 46.676 44.614 46.125 45.24 45.498C46.884 43.856 47.812 41.702 47.796 39.988V39.988ZM53.948 24.042C53.536 24.014 53.132 24 52.735 24C44.133 24 39.237 30.558 37.455 35.833L42.183 40.562C47.611 38.616 54 33.901 54 25.39C54 24.951 53.983 24.502 53.948 24.042V24.042ZM44.06 33.952C43.669 33.561 43.669 32.929 44.06 32.538C44.451 32.147 45.083 32.147 45.474 32.538C45.865 32.929 45.865 33.561 45.474 33.952C45.083 34.343 44.45 34.342 44.06 33.952ZM46.888 31.124C46.107 30.344 46.107 29.077 46.888 28.296C47.669 27.515 48.936 27.515 49.716 28.296C50.497 29.077 50.497 30.343 49.716 31.124C48.935 31.905 47.669 31.905 46.888 31.124ZM31.969 43.578L31.063 42.672L36.271 37.484L37.177 38.39L31.969 43.578V43.578ZM36.948 45.435L36.042 44.529L39.678 40.865L40.584 41.771L36.948 45.435ZM30.906 48L30 47.094L36.448 40.656L37.354 41.562L30.906 48Z" fill="white"/>
<defs>
<filter id="filter0_d_5087_1703" x="0" y="0" width="84" height="84" filterUnits="userSpaceOnUse" color-interpolation-filters="sRGB">
<feFlood flood-opacity="0" result="BackgroundImageFix"/>
<feColorMatrix in="SourceAlpha" type="matrix" values="0 0 0 0 0 0 0 0 0 0 0 0 0 0 0 0 0 0 127 0" result="hardAlpha"/>
<feOffset dy="6"/>
<feGaussianBlur stdDeviation="6"/>
<feColorMatrix type="matrix" values="0 0 0 0 0.196078 0 0 0 0 0.286275 0 0 0 0 0.392157 0 0 0 0.1 0"/>
<feBlend mode="normal" in2="BackgroundImageFix" result="effect1_dropShadow_5087_1703"/>
<feBlend mode="normal" in="SourceGraphic" in2="effect1_dropShadow_5087_1703" result="shape"/>
</filter>
</defs>
</svg>
