<svg width="80" height="80" viewBox="0 0 80 80" fill="none" xmlns="http://www.w3.org/2000/svg">
<path d="M70.7158 8.29932H33.7617V38.217H70.7158V8.29932Z" fill="white"/>
<path d="M70.7165 38.4371H33.7623C33.7041 38.4371 33.6484 38.414 33.6072 38.3728C33.5661 38.3317 33.543 38.2759 33.543 38.2178V8.2994C33.543 8.24124 33.5661 8.18544 33.6072 8.14432C33.6484 8.1032 33.7041 8.08008 33.7623 8.08008H70.7165C70.7745 8.08008 70.8305 8.1032 70.8717 8.14432C70.9129 8.18544 70.9357 8.24124 70.9357 8.2994V38.2178C70.9357 38.2759 70.9129 38.3317 70.8717 38.3728C70.8305 38.414 70.7745 38.4371 70.7165 38.4371ZM33.9816 37.9984H70.4973V8.51872H33.9816V37.9984Z" fill="#7A7AFB"/>
<path d="M49.5438 23.0596H39.6744C39.6162 23.0596 39.5604 23.0365 39.5193 22.9954C39.4782 22.9542 39.4551 22.8984 39.4551 22.8403V16.6262C39.4551 16.568 39.4782 16.5122 39.5193 16.4711C39.5604 16.43 39.6162 16.4068 39.6744 16.4068H42.9446L44.4518 14.8204C44.4726 14.7989 44.497 14.7818 44.5242 14.7702C44.5518 14.7585 44.581 14.7524 44.6106 14.7524H49.547C49.605 14.7524 49.6606 14.7755 49.7018 14.8166C49.743 14.8578 49.7662 14.9136 49.7662 14.9718V22.8403C49.7662 22.8693 49.7602 22.8981 49.749 22.9249C49.7378 22.9517 49.7214 22.976 49.701 22.9964C49.6802 23.0168 49.6558 23.0329 49.6286 23.0437C49.6018 23.0546 49.573 23.06 49.5438 23.0596ZM39.8937 22.6209H49.3246V15.1896H44.7022L43.1946 16.7753C43.1742 16.797 43.1494 16.8143 43.1218 16.8261C43.0946 16.8379 43.065 16.844 43.035 16.844H39.8915L39.8937 22.6209Z" fill="#7A7AFB"/>
<path d="M64.8056 23.0596H54.9364C54.878 23.0596 54.8224 23.0365 54.7812 22.9954C54.74 22.9542 54.7168 22.8984 54.7168 22.8403V16.6262C54.7168 16.568 54.74 16.5122 54.7812 16.4711C54.8224 16.43 54.878 16.4068 54.9364 16.4068H58.2064L59.714 14.8204C59.7344 14.7988 59.7592 14.7817 59.7864 14.77C59.814 14.7583 59.8432 14.7523 59.8732 14.7524H64.8092C64.8676 14.7524 64.9232 14.7755 64.9644 14.8167C65.0056 14.8578 65.0288 14.9136 65.0288 14.9718V22.8403C65.0288 22.8694 65.0228 22.8982 65.0116 22.925C65.0004 22.9519 64.984 22.9762 64.9632 22.9966C64.9424 23.0171 64.918 23.0332 64.8908 23.044C64.8636 23.0548 64.8348 23.0601 64.8056 23.0596ZM55.1556 22.621H64.5864V15.1896H59.9632L58.4556 16.7753C58.4352 16.7969 58.4108 16.8141 58.3832 16.826C58.356 16.8378 58.3268 16.8439 58.2968 16.844H55.1532L55.1556 22.621Z" fill="#7A7AFB"/>
<path d="M48.3174 31.1754H40.5946C40.5362 31.1754 40.4806 31.1523 40.4394 31.1111C40.3982 31.07 40.375 31.0143 40.375 30.9561V25.1075C40.375 25.0493 40.3982 24.9935 40.4394 24.9524C40.4806 24.9113 40.5362 24.8882 40.5946 24.8882H48.3174C48.3758 24.8882 48.4314 24.9113 48.4726 24.9524C48.5138 24.9935 48.537 25.0493 48.537 25.1075V30.9561C48.537 31.0143 48.5138 31.07 48.4726 31.1111C48.4314 31.1523 48.3758 31.1754 48.3174 31.1754ZM40.8162 30.7367H48.0982V25.3268H40.8138L40.8162 30.7367Z" fill="#7A7AFB"/>
<path d="M49.5441 34.7325H39.6719V28.5162H43.0357L44.6081 26.8618H49.5441V34.7325Z" fill="white"/>
<path d="M49.5438 34.9493H39.6744C39.6162 34.9493 39.5604 34.9261 39.5193 34.885C39.4782 34.8439 39.4551 34.7881 39.4551 34.7299V28.5158C39.4551 28.4577 39.4782 28.4018 39.5193 28.3607C39.5604 28.3196 39.6162 28.2965 39.6744 28.2965H42.9446L44.4518 26.7101C44.4726 26.6886 44.497 26.6715 44.5242 26.6598C44.5518 26.6481 44.581 26.6421 44.6106 26.6421H49.547C49.605 26.6421 49.6606 26.6652 49.7018 26.7063C49.743 26.7475 49.7662 26.8032 49.7662 26.8614V34.7299C49.7662 34.759 49.7602 34.7877 49.749 34.8145C49.7378 34.8413 49.7214 34.8656 49.701 34.886C49.6802 34.9064 49.6558 34.9225 49.6286 34.9334C49.6018 34.9442 49.573 34.9497 49.5438 34.9493ZM39.8937 34.5106H49.3246V27.0815H44.7022L43.1946 28.6679C43.1738 28.6894 43.1494 28.7066 43.1218 28.7183C43.0946 28.73 43.065 28.736 43.035 28.7359H39.8915L39.8937 34.5106Z" fill="#7A7AFB"/>
<path d="M64.8056 34.9493H54.9364C54.878 34.9493 54.8224 34.9261 54.7812 34.885C54.74 34.8439 54.7168 34.7881 54.7168 34.7299V28.5158C54.7168 28.4577 54.74 28.4019 54.7812 28.3607C54.8224 28.3196 54.878 28.2965 54.9364 28.2965H58.2064L59.714 26.7101C59.7344 26.6885 59.7592 26.6714 59.7864 26.6597C59.814 26.648 59.8432 26.642 59.8732 26.6421H64.8092C64.8676 26.6421 64.9232 26.6652 64.9644 26.7063C65.0056 26.7475 65.0288 26.8032 65.0288 26.8614V34.7299C65.0288 34.759 65.0228 34.7879 65.0116 34.8147C65.0004 34.8416 64.984 34.8659 64.9632 34.8863C64.9424 34.9067 64.918 34.9228 64.8908 34.9336C64.8636 34.9444 64.8348 34.9497 64.8056 34.9493ZM55.1556 34.5106H64.5864V27.0815H59.9632L58.4556 28.6679C58.4352 28.6894 58.4104 28.7065 58.3832 28.7181C58.356 28.7298 58.3268 28.7358 58.2968 28.7359H55.1532L55.1556 34.5106Z" fill="#7A7AFB"/>
<path d="M70.7165 12.5558H33.7623C33.7041 12.5558 33.6484 12.5327 33.6072 12.4916C33.5661 12.4505 33.543 12.3947 33.543 12.3365C33.543 12.2783 33.5661 12.2225 33.6072 12.1814C33.6484 12.1403 33.7041 12.1172 33.7623 12.1172H70.7165C70.7745 12.1172 70.8305 12.1403 70.8717 12.1814C70.9129 12.2225 70.9357 12.2783 70.9357 12.3365C70.9357 12.3947 70.9129 12.4505 70.8717 12.4916C70.8305 12.5327 70.7745 12.5558 70.7165 12.5558Z" fill="#7A7AFB"/>
<path d="M40.2241 10.4582H35.4869C35.4287 10.4582 35.3729 10.4351 35.3318 10.3939C35.2907 10.3528 35.2676 10.2971 35.2676 10.2389C35.2676 10.1807 35.2907 10.1249 35.3318 10.0838C35.3729 10.0427 35.4287 10.0195 35.4869 10.0195H40.2241C40.2825 10.0195 40.3381 10.0427 40.3793 10.0838C40.4205 10.1249 40.4437 10.1807 40.4437 10.2389C40.4437 10.2971 40.4205 10.3528 40.3793 10.3939C40.3381 10.4351 40.2825 10.4582 40.2241 10.4582Z" fill="#7A7AFB"/>
<path d="M67.2759 11.4271C67.2323 11.427 67.1895 11.4139 67.1531 11.3895C67.1171 11.365 67.0891 11.3303 67.0727 11.2897C67.0563 11.2492 67.0523 11.2047 67.0615 11.1619C67.0707 11.1192 67.0923 11.0802 67.1239 11.0498L68.9003 9.33838C68.9207 9.31742 68.9455 9.30078 68.9723 9.28942C68.9995 9.2781 69.0287 9.27234 69.0579 9.27246C69.0875 9.27258 69.1163 9.27858 69.1435 9.2901C69.1703 9.30166 69.1947 9.3185 69.2151 9.33962C69.2355 9.36078 69.2515 9.38578 69.2619 9.41318C69.2723 9.44062 69.2771 9.46982 69.2763 9.49918C69.2755 9.5285 69.2683 9.55734 69.2559 9.58398C69.2439 9.61062 69.2263 9.6345 69.2043 9.65422L67.4279 11.3657C67.3875 11.4054 67.3327 11.4275 67.2759 11.4271Z" fill="#7A7AFB"/>
<path d="M69.0513 11.4271C68.9945 11.4275 68.9401 11.4054 68.8993 11.3657L67.1229 9.65422C67.1009 9.6345 67.0837 9.61062 67.0713 9.58398C67.0589 9.55734 67.0521 9.5285 67.0509 9.49918C67.0501 9.46982 67.0549 9.44062 67.0653 9.41318C67.0761 9.38578 67.0917 9.36078 67.1121 9.33962C67.1325 9.3185 67.1569 9.30166 67.1841 9.2901C67.2109 9.27858 67.2401 9.27258 67.2693 9.27246C67.2985 9.27234 67.3277 9.2781 67.3549 9.28942C67.3821 9.30078 67.4065 9.31742 67.4269 9.33838L69.2033 11.0498C69.2349 11.0802 69.2565 11.1192 69.2657 11.1619C69.2749 11.2047 69.2709 11.2492 69.2545 11.2897C69.2385 11.3303 69.2101 11.365 69.1741 11.3895C69.1377 11.4139 69.0953 11.427 69.0513 11.4271Z" fill="#7A7AFB"/>
<path d="M44.9547 25.9313C44.6207 26.3093 43.4735 25.6082 42.4859 26.1316C38.9409 28.0097 34.5019 36.0011 31.9343 37.8799C31.7735 38.1865 31.6117 38.4819 31.4489 38.766C29.3741 42.3936 24.9233 46.7268 24.3385 50.3548C23.7156 54.2084 28.2629 57.1196 28.2029 60.1644C28.143 63.2092 22.6015 65.9836 22.6015 65.9836C22.6015 65.9836 25.3474 67.4416 25.3474 68.0504C25.3474 68.6596 21.0209 68.5476 21.0209 68.5476C21.0209 68.5476 20.6963 69.0792 17.2157 69.1068C15.6651 69.1192 14.2402 69.3124 14.0399 68.5476C13.7175 67.318 16.6323 61.7712 16.6323 61.2296C16.6323 60.688 6.49235 57.398 7.51143 48.582C8.58099 39.334 15.3127 38.6395 19.4739 31.456C22.2191 26.715 22.1109 23.6387 23.2755 20.2275C24.1689 17.6139 27.3937 15.3937 30.9072 16.4347C35.3609 17.755 36.3902 21.6099 36.1972 24.6512C36.1336 25.6433 35.9128 26.8744 35.578 28.2225C37.8209 26.2325 40.8915 23.5853 42.5231 23.6496C44.7895 23.7381 44.9555 24.8829 44.9555 24.8829C44.9555 24.8829 44.0467 24.8654 44.0199 25.0292C43.9563 25.413 45.2887 25.5533 44.9547 25.9313Z" fill="#12126B"/>
<path d="M21.6396 29.5479C21.6396 29.5479 15.4759 25.8926 12.2972 29.3476C8.49566 33.4848 12.4478 38.4721 13.7594 39.8019C15.0205 41.0764 15.8481 41.7928 16.2531 41.5564C16.3063 41.5316 16.3535 41.4956 16.3913 41.4504C16.4291 41.4056 16.4567 41.3528 16.4721 41.296C16.4874 41.2392 16.4903 41.18 16.4803 41.122C16.4704 41.064 16.448 41.0092 16.4146 40.9608C16.4146 40.9608 16.8401 41.2928 17.1457 40.9848C17.3797 40.7508 17.1786 40.4044 17.1786 40.4044C17.1786 40.4044 17.6216 40.6704 17.8548 40.258C18.1005 39.8268 16.9257 39.1849 16.8913 38.8135C16.8642 38.5094 18.0647 38.8048 17.9279 38.2199C17.7817 37.5992 15.8956 38.0847 15.3283 37.5181C14.7609 36.9515 13.7601 36.0165 14.6608 33.7165L17.5975 31.3142L20.6285 33.1741L21.6396 29.5479Z" fill="#12126B"/>
<path d="M18.4365 30.9561L21.9303 37.2645L13.5895 42.7709L10.2207 36.4449L18.4365 30.9561Z" fill="white"/>
<path d="M13.5922 42.9907C13.5739 42.9911 13.5557 42.9883 13.5381 42.9835C13.5085 42.9759 13.4808 42.9623 13.4568 42.9439C13.4328 42.9251 13.4129 42.9015 13.3984 42.8747L10.0275 36.5478C10.0019 36.4996 9.99528 36.4436 10.0088 36.3907C10.0223 36.3379 10.055 36.292 10.1006 36.2619L18.3156 30.7738C18.3409 30.7569 18.3694 30.7454 18.3994 30.7401C18.4294 30.7349 18.4601 30.7359 18.4896 30.7431C18.5191 30.7501 18.5468 30.7631 18.5709 30.7815C18.5949 30.7999 18.6148 30.8232 18.6293 30.8498L22.1231 37.1583C22.1506 37.2071 22.1583 37.2646 22.1447 37.319C22.1311 37.3734 22.0972 37.4205 22.05 37.4507L13.7099 42.9535C13.675 42.9771 13.6342 42.9899 13.5922 42.9907ZM10.5078 36.5164L13.6697 42.4547L21.6384 37.1911L18.3588 31.2695L10.5078 36.5164Z" fill="#7A7AFB"/>
<path d="M12.2972 29.3476C8.49566 33.4847 12.4478 38.4721 13.7594 39.8019C15.0205 41.0761 15.8481 41.7925 16.2531 41.5565C16.3063 41.5317 16.3535 41.4953 16.3913 41.4505C16.4291 41.4053 16.4567 41.3529 16.4721 41.2961C16.4874 41.2393 16.4903 41.1801 16.4803 41.1221C16.4704 41.0641 16.448 41.0089 16.4146 40.9605C16.4146 40.9605 16.8401 41.2925 17.1457 40.9849C17.3797 40.7509 17.1786 40.4045 17.1786 40.4045C17.1786 40.4045 17.6216 40.6705 17.8548 40.2581C18.1005 39.8268 16.9257 39.1849 16.8913 38.8135C16.8642 38.5094 18.0647 38.8047 17.9279 38.2199C17.7817 37.5992 15.8956 38.0846 15.3283 37.5181C14.7609 36.9515 14.0781 36.1166 14.6608 33.7165C14.9591 32.5109 15.4759 25.8903 12.2972 29.3476Z" fill="#12126B"/>
<path d="M27.3691 69.1069H41.3246L47.8786 66.4905L34.9781 66.4253L27.3691 69.1069Z" fill="white"/>
<path d="M41.3235 69.3265H27.3681C27.3163 69.3265 27.2661 69.3081 27.2265 69.2749C27.1869 69.2413 27.1603 69.1953 27.1516 69.1441C27.1428 69.0929 27.1524 69.0405 27.1787 68.9961C27.2049 68.9513 27.2461 68.9173 27.295 68.9001L34.9047 66.2185C34.9281 66.2101 34.9529 66.2057 34.9778 66.2061L47.8775 66.2713C47.9287 66.2713 47.9779 66.2889 48.0171 66.3217C48.0567 66.3541 48.0831 66.3993 48.0927 66.4497C48.1023 66.4997 48.0939 66.5517 48.0695 66.5965C48.0447 66.6409 48.0055 66.6757 47.9579 66.6945L41.4055 69.3097C41.3795 69.3201 41.3515 69.3257 41.3235 69.3265ZM28.6496 68.8877H41.2819L46.7511 66.7041L35.0122 66.6449L28.6496 68.8877Z" fill="#7A7AFB"/>
<path d="M32.0449 70.4485H46.0005L52.5545 67.8321L39.6539 67.7661L32.0449 70.4485Z" fill="white"/>
<path d="M46.0013 70.6677H32.0458C31.994 70.6681 31.9439 70.6497 31.9043 70.6165C31.8646 70.5829 31.8381 70.5365 31.8293 70.4857C31.8206 70.4345 31.8301 70.3821 31.8564 70.3373C31.8827 70.2929 31.9239 70.2589 31.9727 70.2417L39.5824 67.5593C39.6059 67.5509 39.6306 67.5469 39.6555 67.5469L52.5561 67.6125C52.6065 67.6133 52.6553 67.6313 52.6941 67.6641C52.7329 67.6965 52.7593 67.7417 52.7689 67.7913C52.7781 67.8413 52.7701 67.8925 52.7457 67.9369C52.7217 67.9817 52.6825 68.0161 52.6357 68.0353L46.0825 70.6517C46.0565 70.6621 46.0289 70.6677 46.0013 70.6677ZM33.3274 70.2293H45.9597L51.4285 68.0453L39.6921 67.9857L33.3274 70.2293Z" fill="#7A7AFB"/>
<path d="M44.7578 71.7195H58.9922L65.6774 69.3831L52.5194 69.3247L44.7578 71.7195Z" fill="white"/>
<path d="M58.9914 71.9411H44.7574C44.705 71.9407 44.6546 71.9219 44.615 71.8879C44.5754 71.8535 44.5494 71.8063 44.5414 71.7547C44.5338 71.7031 44.5446 71.6503 44.5722 71.6059C44.5998 71.5615 44.6422 71.5283 44.6922 71.5127L52.4538 69.1171C52.4754 69.1103 52.4974 69.1071 52.5198 69.1075L65.679 69.1659C65.731 69.1659 65.781 69.1843 65.8206 69.2175C65.8602 69.2507 65.8866 69.2971 65.8954 69.3483C65.9042 69.3991 65.8946 69.4519 65.8686 69.4963C65.8422 69.5411 65.801 69.5751 65.7522 69.5923L59.0642 71.9263C59.041 71.9359 59.0162 71.9407 58.9914 71.9411ZM46.2106 71.5023H58.9554L64.401 69.6015L52.5514 69.5483L46.2106 71.5023Z" fill="#7A7AFB"/>
<path d="M51.1914 70.4484H65.427L72.1118 68.112L58.9534 68.0532L51.1914 70.4484Z" fill="white"/>
<path d="M65.4244 70.6675H51.1904C51.1376 70.6679 51.0868 70.6491 51.0468 70.6147C51.0072 70.5803 50.9808 70.5331 50.9732 70.4807C50.9652 70.4287 50.9764 70.3759 51.0044 70.3311C51.0324 70.2867 51.0756 70.2539 51.126 70.2387L58.888 67.8471C58.9088 67.8407 58.9304 67.8375 58.952 67.8379L72.1116 67.8963C72.1632 67.8963 72.2136 67.9143 72.2532 67.9479C72.2928 67.9811 72.3192 68.0275 72.328 68.0783C72.3368 68.1295 72.3272 68.1819 72.3008 68.2267C72.2748 68.2715 72.2336 68.3051 72.1844 68.3223L65.4996 70.6619C65.4752 70.6679 65.4496 70.6699 65.4244 70.6675ZM52.6436 70.2291H65.3884L70.8344 68.3283L58.9852 68.2755L52.6436 70.2291Z" fill="#7A7AFB"/>
<path d="M54.1914 68.5033H66.5414L72.3418 66.4757L60.9254 66.4253L54.1914 68.5033Z" fill="white"/>
<path d="M66.5412 68.7244H54.1912C54.1384 68.7248 54.0876 68.706 54.0476 68.672C54.0076 68.6376 53.9812 68.59 53.9732 68.538C53.9652 68.486 53.9764 68.4328 54.0044 68.3884C54.0324 68.3436 54.0756 68.3108 54.126 68.2952L60.8608 66.2176C60.882 66.2112 60.9044 66.208 60.9264 66.208L72.3424 66.2584C72.394 66.2584 72.4444 66.2768 72.484 66.31C72.5236 66.3436 72.55 66.3896 72.5588 66.4408C72.5676 66.492 72.558 66.5444 72.5316 66.5892C72.5056 66.6336 72.4644 66.6676 72.4152 66.6848L66.6136 68.71C66.5904 68.7188 66.566 68.7236 66.5412 68.7244ZM55.6484 68.286H66.504L71.0652 66.6912L60.958 66.6468L55.6484 68.286Z" fill="#7A7AFB"/>
<path d="M36.4293 24.1012C36.7693 23.0697 36.1704 21.9453 35.0917 21.5898C34.013 21.2343 32.8629 21.7823 32.523 22.8139C32.183 23.8454 32.7819 24.9698 33.8606 25.3253C34.9393 25.6808 36.0893 25.1328 36.4293 24.1012Z" fill="white"/>
<path d="M34.5296 25.6549C34.2794 25.6546 34.0309 25.6143 33.7934 25.5357C32.5996 25.1432 31.9416 23.8916 32.3159 22.7467C32.4068 22.471 32.5532 22.217 32.7461 22C32.939 21.7832 33.1742 21.6081 33.4374 21.4856C33.978 21.2323 34.595 21.1953 35.1621 21.3822C35.7291 21.5691 36.2033 21.9657 36.4874 22.4908C36.6261 22.7459 36.7112 23.0266 36.7374 23.3158C36.7635 23.605 36.7302 23.8965 36.6394 24.1723C36.3397 25.0796 35.4719 25.6549 34.5296 25.6549ZM34.4214 21.702C34.1452 21.7012 33.8724 21.7624 33.6231 21.8811C33.414 21.9792 33.2271 22.1189 33.074 22.2918C32.9209 22.4646 32.8047 22.667 32.7326 22.8863C32.4307 23.8016 32.968 24.8039 33.9301 25.1212C34.8922 25.4385 35.9208 24.9523 36.2227 24.037C36.2947 23.8175 36.321 23.5856 36.3 23.3555C36.279 23.1254 36.2112 22.9021 36.1007 22.6992C35.8714 22.2723 35.4857 21.9508 35.0245 21.8022C34.8302 21.7366 34.6265 21.7028 34.4214 21.702Z" fill="#7A7AFB"/>
<path d="M35.4869 24.4582C35.6706 24.4582 35.8196 24.3093 35.8196 24.1256C35.8196 23.9419 35.6706 23.793 35.4869 23.793C35.3032 23.793 35.1543 23.9419 35.1543 24.1256C35.1543 24.3093 35.3032 24.4582 35.4869 24.4582Z" fill="#7A7AFB"/>
<path d="M33.4832 23.6307C33.9288 22.2786 33.1439 20.8047 31.73 20.3388C30.3161 19.8728 28.8087 20.5912 28.3631 21.9433C27.9175 23.2954 28.7025 24.7693 30.1163 25.2352C31.5302 25.7012 33.0376 24.9828 33.4832 23.6307Z" fill="white"/>
<path d="M30.998 25.598C30.675 25.5979 30.3542 25.546 30.0476 25.4445C28.5211 24.9415 27.6724 23.3405 28.1549 21.8754C28.2714 21.523 28.4588 21.1982 28.7055 20.9208C28.9521 20.6435 29.2529 20.4195 29.5892 20.2626C30.2812 19.9347 31.0734 19.8878 31.7993 20.1318C33.3257 20.6348 34.1745 22.2358 33.692 23.7009C33.5754 24.0532 33.3881 24.3781 33.1414 24.6554C32.8948 24.9328 32.594 25.1567 32.2576 25.3136C31.8642 25.5011 31.4338 25.5983 30.998 25.598ZM30.8518 20.4169C30.4811 20.4168 30.115 20.4992 29.78 20.6582C29.4973 20.7898 29.2444 20.978 29.037 21.2109C28.8296 21.4439 28.6719 21.7168 28.5738 22.0128C28.1666 23.2484 28.8903 24.6008 30.1872 25.0278C30.8058 25.2362 31.481 25.1968 32.0712 24.9181C32.354 24.7864 32.6068 24.5983 32.8143 24.3654C33.0217 24.1324 33.1793 23.8595 33.2775 23.5634C33.6847 22.3286 32.9609 20.9762 31.664 20.5485C31.4015 20.4616 31.1268 20.4172 30.8503 20.4169H30.8518Z" fill="#7A7AFB"/>
<path d="M32.5143 23.7922C32.698 23.7922 32.8469 23.6433 32.8469 23.4596C32.8469 23.2759 32.698 23.127 32.5143 23.127C32.3306 23.127 32.1816 23.2759 32.1816 23.4596C32.1816 23.6433 32.3306 23.7922 32.5143 23.7922Z" fill="#7A7AFB"/>
<path d="M33.4858 27.7334C33.4858 27.7334 32.1465 29.3111 30.4409 30.0136C29.2946 30.4859 27.9823 30.5626 26.7994 29.4975C25.7372 28.5405 25.5566 27.4293 25.7409 26.4175C26.0421 24.7645 27.3185 23.3799 27.3185 23.3799C27.3185 23.3799 27.3806 25.5987 29.4115 26.756C31.4425 27.9132 33.4858 27.7334 33.4858 27.7334Z" fill="#7A7AFB"/>
<path d="M28.9019 30.567C28.0758 30.567 27.3235 30.2643 26.6531 29.6605C25.6683 28.7744 25.2889 27.6697 25.525 26.3779C25.8343 24.6819 27.1027 23.2892 27.1568 23.2307C27.1866 23.1983 27.2254 23.1755 27.2682 23.1655C27.311 23.1554 27.3559 23.1585 27.397 23.1742C27.438 23.19 27.4734 23.2178 27.4985 23.2539C27.5236 23.2901 27.5373 23.3329 27.5377 23.3769C27.5377 23.3974 27.6254 25.4897 29.5204 26.5687C30.7242 27.2416 32.09 27.5704 33.4681 27.5191C33.5115 27.5153 33.555 27.5245 33.593 27.5455C33.6312 27.5664 33.6622 27.5982 33.6822 27.6369C33.7022 27.6755 33.7102 27.7192 33.7053 27.7624C33.7004 27.8056 33.6827 27.8464 33.6546 27.8796C33.599 27.9453 32.2619 29.5062 30.5263 30.219C30.0129 30.4404 29.4609 30.5587 28.9019 30.567ZM27.1656 23.9142C26.7796 24.426 26.1508 25.3903 25.9564 26.4569C25.7495 27.5886 26.0828 28.5573 26.9462 29.3351C27.8966 30.1912 29.0452 30.3506 30.3574 29.8103C31.4935 29.3432 32.4739 28.4608 32.971 27.9607C31.6842 27.9234 30.4256 27.5752 29.3025 26.946C27.7877 26.0826 27.3132 24.6767 27.1656 23.9142Z" fill="#7A7AFB"/>
<path d="M30.4409 30.0137C29.2946 30.486 27.9823 30.5627 26.7994 29.4976C25.7372 28.5406 25.5566 27.4294 25.7409 26.4176C25.7409 26.4176 28.1256 25.7925 28.6198 27.6801C28.6205 27.6801 30.8657 27.52 30.4409 30.0137Z" fill="white"/>
<path d="M28.9019 30.567C28.0758 30.567 27.3235 30.2643 26.6531 29.6605C25.6683 28.7744 25.2889 27.6698 25.525 26.378C25.531 26.3477 25.5432 26.3191 25.561 26.2939C25.5788 26.2687 25.6016 26.2475 25.6281 26.2317C25.6507 26.2185 25.6755 26.2094 25.7012 26.2047C26.1339 26.1051 26.5801 26.0785 27.0216 26.1257C27.9171 26.2347 28.5224 26.6953 28.7827 27.4629C29.1036 27.4738 29.7865 27.5623 30.2529 28.077C30.6667 28.5324 30.8019 29.1977 30.6564 30.0509C30.6502 30.0875 30.6346 30.122 30.6114 30.1511C30.5881 30.1801 30.5578 30.2027 30.5234 30.2168C30.011 30.4386 29.4601 30.5576 28.9019 30.567ZM25.933 26.6002C25.7787 27.6705 26.1194 28.5902 26.9462 29.3351C27.8696 30.1664 28.9786 30.3411 30.2434 29.8557C30.334 29.1977 30.2295 28.702 29.9312 28.3709C29.4611 27.8503 28.6431 27.8979 28.635 27.8986C28.5842 27.902 28.5338 27.8875 28.4924 27.8578C28.4511 27.8281 28.4214 27.7848 28.4084 27.7356C28.0341 26.3071 26.4192 26.5052 25.933 26.6002Z" fill="#7A7AFB"/>
<path d="M28.716 28.6526C28.6624 28.653 28.6104 28.6338 28.57 28.5984C28.5296 28.5632 28.5035 28.5143 28.4967 28.461L28.4009 27.7073C28.3965 27.6784 28.398 27.6489 28.4052 27.6206C28.4123 27.5922 28.4251 27.5656 28.4427 27.5423C28.4603 27.5189 28.4824 27.4994 28.5077 27.4847C28.533 27.47 28.561 27.4606 28.59 27.4568C28.619 27.4532 28.6484 27.4553 28.6766 27.4631C28.7048 27.471 28.7311 27.4844 28.754 27.5025C28.7769 27.5207 28.796 27.5432 28.81 27.5688C28.8241 27.5945 28.8329 27.6226 28.8359 27.6517L28.9317 28.4055C28.9391 28.4632 28.9234 28.5214 28.8879 28.5675C28.8524 28.6136 28.8 28.6436 28.7423 28.6511C28.7336 28.6522 28.7248 28.6527 28.716 28.6526Z" fill="#7A7AFB"/>
<path d="M22.4158 30.8198C22.3642 30.8197 22.3143 30.8014 22.2748 30.7681C22.2353 30.7348 22.2089 30.6887 22.2001 30.6378C22.0371 29.7042 20.8608 29.3482 20.8491 29.3445C20.7949 29.327 20.7496 29.289 20.7229 29.2387C20.6961 29.1883 20.6901 29.1295 20.7059 29.0747C20.7218 29.02 20.7584 28.9736 20.8079 28.9453C20.8574 28.9171 20.916 28.9092 20.9712 28.9234C21.0304 28.9409 22.4224 29.3577 22.6322 30.5625C22.6422 30.6198 22.629 30.6787 22.5955 30.7263C22.5621 30.7738 22.5111 30.8062 22.4538 30.8161C22.4413 30.8185 22.4286 30.8197 22.4158 30.8198Z" fill="#7A7AFB"/>
<path d="M32.0804 37.8573C32.0415 37.8573 32.0033 37.8469 31.9698 37.8272C31.9362 37.8075 31.9084 37.7793 31.8894 37.7454C31.8703 37.7114 31.8606 37.673 31.8614 37.6341C31.862 37.5952 31.873 37.5572 31.8933 37.5239C34.0134 34.0535 35.2606 28.4426 35.273 28.3856C35.2855 28.3287 35.3201 28.2792 35.3691 28.2479C35.4181 28.2166 35.4776 28.206 35.5344 28.2185C35.5912 28.231 35.6407 28.2656 35.672 28.3146C35.7034 28.3636 35.714 28.4231 35.7014 28.4799C35.689 28.5369 34.4228 34.2181 32.2654 37.7513C32.2461 37.7833 32.219 37.8097 32.1867 37.8283C32.1543 37.8469 32.1178 37.8568 32.0804 37.8573Z" fill="#7A7AFB"/>
<path d="M21.0311 68.6448C21.018 68.6464 21.0048 68.6464 20.9916 68.6448C20.9345 68.6344 20.8838 68.602 20.8506 68.5544C20.8174 68.5064 20.8045 68.4476 20.8147 68.3904C20.8762 68.052 19.7912 67.5072 19.2064 67.2148C18.5082 66.864 18.158 66.6876 18.1829 66.4108C18.2019 66.2132 18.4183 66.0452 19.6282 65.198C21.0904 64.1744 23.5307 62.4616 24.0037 61.3304C24.666 59.7464 23.584 57.5224 21.1094 55.3824C21.0654 55.3444 21.0383 55.2904 21.0341 55.2324C21.0299 55.1744 21.049 55.1168 21.0871 55.0728C21.1252 55.0288 21.1792 55.0016 21.2372 54.9976C21.2953 54.9936 21.3526 55.0124 21.3967 55.0504C22.6351 56.1216 23.5723 57.2548 24.106 58.3272C24.6858 59.4904 24.7903 60.5868 24.4087 61.4992C23.8867 62.748 21.4756 64.4384 19.8804 65.5576C19.387 65.9032 18.8796 66.2588 18.6793 66.4348C18.9129 66.5776 19.1538 66.708 19.4008 66.826C20.3198 67.2872 21.3608 67.8108 21.2417 68.4708C21.2314 68.5192 21.205 68.5632 21.1668 68.5948C21.1286 68.6264 21.0807 68.644 21.0311 68.6448Z" fill="#7A7AFB"/>
<path d="M10.3697 30.1239C10.3339 30.1239 10.2987 30.1152 10.2671 30.0984C10.2355 30.0817 10.2085 30.0575 10.1884 30.028C10.1683 29.9984 10.1557 29.9644 10.1517 29.9289C10.1478 29.8934 10.1526 29.8574 10.1657 29.8242C11.1614 27.2968 13.7479 26.772 13.8598 26.7537C13.8883 26.7477 13.9176 26.7475 13.9462 26.753C13.9747 26.7585 14.0019 26.7696 14.0261 26.7857C14.0503 26.8018 14.0711 26.8225 14.0873 26.8468C14.1034 26.871 14.1145 26.8981 14.1201 26.9267C14.1256 26.9552 14.1254 26.9846 14.1194 27.013C14.1135 27.0415 14.102 27.0685 14.0855 27.0925C14.0691 27.1165 14.048 27.1369 14.0235 27.1527C13.9991 27.1684 13.9717 27.1792 13.9431 27.1843C13.9073 27.1916 11.4772 27.696 10.5743 29.9879C10.5577 30.0284 10.5293 30.063 10.4928 30.0873C10.4563 30.1115 10.4135 30.1243 10.3697 30.1239Z" fill="#7A7AFB"/>
<path d="M8.65682 31.4919C8.59866 31.4919 8.54286 31.4689 8.50174 31.4277C8.46062 31.3866 8.4375 31.3308 8.4375 31.2726C8.4375 28.613 10.7331 26.767 10.8303 26.6895C10.8759 26.6534 10.9341 26.6369 10.992 26.6435C11.0498 26.6503 11.1027 26.6797 11.1388 26.7254C11.175 26.771 11.1915 26.8292 11.1848 26.8871C11.1781 26.9449 11.1487 26.9977 11.103 27.0339C11.0803 27.0514 8.87614 28.8279 8.87614 31.2741C8.87574 31.332 8.85246 31.3874 8.81138 31.4282C8.7703 31.4691 8.71474 31.4919 8.65682 31.4919Z" fill="#7A7AFB"/>
<path d="M30.3861 59.9451H30.3744C30.3164 59.9419 30.2619 59.9159 30.2229 59.8727C30.184 59.8295 30.1638 59.7727 30.1668 59.7147C30.2933 57.1839 28.7295 55.7055 28.7134 55.6939C28.6706 55.6543 28.6452 55.5995 28.6428 55.5415C28.6404 55.4831 28.6612 55.4263 28.7006 55.3835C28.7401 55.3407 28.795 55.3151 28.8532 55.3127C28.9114 55.3103 28.9681 55.3311 29.011 55.3707C29.0841 55.4359 30.7422 56.9959 30.6047 59.7395C30.6012 59.7951 30.5766 59.8475 30.536 59.8855C30.4954 59.9235 30.4418 59.9451 30.3861 59.9451Z" fill="#7A7AFB"/>
<path d="M31.4518 58.2222C31.3974 58.2226 31.3449 58.2026 31.3044 58.1666C31.2639 58.1302 31.2382 58.0802 31.2324 58.0262C31.0014 55.9354 30.1548 54.6474 29.4859 53.9322C28.76 53.1594 28.0779 52.8765 28.0713 52.8737C28.0188 52.8509 27.9774 52.8086 27.9558 52.7554C27.9341 52.7026 27.934 52.6434 27.9555 52.5902C27.9769 52.5374 28.0182 52.4946 28.0706 52.4718C28.123 52.4486 28.1822 52.447 28.2358 52.4674C28.3564 52.5154 31.1974 53.705 31.6682 57.9766C31.6745 58.0342 31.6577 58.0921 31.6214 58.1377C31.585 58.1829 31.5322 58.2121 31.4744 58.2185L31.4518 58.2222Z" fill="#7A7AFB"/>
</svg>
