<svg width="80" height="80" viewBox="0 0 80 80" fill="none" xmlns="http://www.w3.org/2000/svg">
<path d="M21.6477 7.85938H7.61914V19.9926H21.6477V7.85938Z" fill="white"/>
<path d="M21.6484 20.2123H7.61983C7.56163 20.2123 7.50583 20.1891 7.46467 20.148C7.42351 20.1068 7.40039 20.051 7.40039 19.9928V7.85958C7.40039 7.80138 7.42351 7.74558 7.46467 7.70442C7.50583 7.66326 7.56163 7.64014 7.61983 7.64014H21.6484C21.7066 7.64014 21.7625 7.66326 21.8036 7.70442C21.8448 7.74558 21.8679 7.80138 21.8679 7.85958V19.9928C21.8679 20.051 21.8448 20.1068 21.8036 20.148C21.7625 20.1891 21.7066 20.2123 21.6484 20.2123ZM7.83931 19.7733H21.429V8.07906H7.83931V19.7733Z" fill="#7A7AFB"/>
<path d="M18.5042 17.118H10.7624C10.7042 17.118 10.6484 17.0948 10.6072 17.0537C10.5661 17.0126 10.543 16.9567 10.543 16.8985V10.9578C10.543 10.8996 10.5661 10.8437 10.6072 10.8026C10.6484 10.7614 10.7042 10.7383 10.7624 10.7383H18.5042C18.5624 10.7383 18.6182 10.7614 18.6594 10.8026C18.7006 10.8437 18.7237 10.8996 18.7237 10.9578V16.8985C18.7237 16.9567 18.7006 17.0126 18.6594 17.0537C18.6182 17.0948 18.5624 17.118 18.5042 17.118ZM10.9819 16.679H18.2848V11.1772H10.9819V16.679Z" fill="#7A7AFB"/>
<path d="M14.6351 14.1456C14.5867 14.1456 14.5396 14.1297 14.5012 14.1002L10.6307 11.1316C10.586 11.0957 10.5572 11.0437 10.5504 10.9868C10.5436 10.9299 10.5592 10.8726 10.5941 10.8271C10.629 10.7816 10.6803 10.7516 10.737 10.7434C10.7937 10.7353 10.8514 10.7496 10.8977 10.7834L14.6358 13.6496L18.3732 10.7834C18.4195 10.7496 18.4772 10.7353 18.5339 10.7434C18.5906 10.7516 18.6419 10.7816 18.6768 10.8271C18.7116 10.8726 18.7274 10.9299 18.7205 10.9868C18.7137 11.0437 18.6849 11.0957 18.6402 11.1316L14.769 14.1002C14.7306 14.1297 14.6835 14.1456 14.6351 14.1456Z" fill="#7A7AFB"/>
<path d="M46.7115 14.1457H42.5287C42.4707 14.1457 42.4147 14.1225 42.3735 14.0814C42.3323 14.0402 42.3091 13.9844 42.3091 13.9262V8.07906H27.5324V11.5641C27.5324 11.6223 27.5093 11.6781 27.4681 11.7193C27.4269 11.7604 27.3711 11.7835 27.3129 11.7835H21.6472C21.589 11.7835 21.5332 11.7604 21.492 11.7193C21.4509 11.6781 21.4277 11.6223 21.4277 11.5641C21.4277 11.5059 21.4509 11.4501 21.492 11.4089C21.5332 11.3677 21.589 11.3446 21.6472 11.3446H27.092V7.85958C27.092 7.80138 27.1151 7.74558 27.1563 7.70442C27.1974 7.66326 27.2533 7.64014 27.3115 7.64014H42.5271C42.5855 7.64014 42.6415 7.66326 42.6823 7.70442C42.7235 7.74558 42.7467 7.80138 42.7467 7.85958V13.7067H46.7103C46.7683 13.7067 46.8243 13.7299 46.8655 13.771C46.9067 13.8122 46.9295 13.868 46.9295 13.9262C46.9295 13.9844 46.9067 14.0402 46.8655 14.0814C46.8243 14.1225 46.7683 14.1457 46.7103 14.1457H46.7115Z" fill="#7A7AFB"/>
<path d="M57.5037 9.56738H46.7129V18.2836H57.5037V9.56738Z" fill="white"/>
<path d="M57.5041 18.5077H46.7133C46.6553 18.5077 46.5993 18.4845 46.5581 18.4434C46.5169 18.4022 46.4941 18.3464 46.4941 18.2882V9.56762C46.4941 9.50942 46.5169 9.45358 46.5581 9.41242C46.5993 9.37126 46.6553 9.34814 46.7133 9.34814H57.5041C57.5625 9.34814 57.6181 9.37126 57.6593 9.41242C57.7005 9.45358 57.7237 9.50942 57.7237 9.56762V18.2882C57.7237 18.3464 57.7005 18.4022 57.6593 18.4434C57.6181 18.4845 57.5625 18.5077 57.5041 18.5077ZM46.9329 18.0687H57.2849V9.78706H46.9329V18.0687Z" fill="#7A7AFB"/>
<path d="M51.8446 16.0203C51.791 16.0203 51.7386 16.0006 51.6986 15.9647L49.5206 14.0122C49.479 13.973 49.4542 13.919 49.4514 13.8617C49.449 13.8045 49.469 13.7485 49.5074 13.7057C49.5454 13.663 49.599 13.637 49.6562 13.6331C49.7134 13.6293 49.7698 13.648 49.8134 13.6852L51.809 15.4745L54.3694 11.9179C54.3862 11.8945 54.4074 11.8746 54.4318 11.8595C54.4566 11.8443 54.4838 11.8341 54.5122 11.8295C54.5406 11.8249 54.5698 11.8259 54.5978 11.8325C54.6258 11.8391 54.6526 11.8512 54.6758 11.8681C54.699 11.8849 54.719 11.9063 54.7342 11.9308C54.7494 11.9553 54.7594 11.9826 54.7642 12.0111C54.7686 12.0395 54.7678 12.0686 54.761 12.0967C54.7546 12.1247 54.7422 12.1512 54.7254 12.1746L52.0226 15.9296C52.0046 15.9546 51.9814 15.9756 51.9546 15.9911C51.9278 16.0066 51.8982 16.0163 51.8674 16.0195L51.8446 16.0203Z" fill="#7A7AFB"/>
<path d="M60.5079 27.837H52.1083C52.0499 27.837 51.9943 27.8138 51.9531 27.7727C51.9119 27.7316 51.8887 27.6757 51.8887 27.6175V18.2883C51.8887 18.2301 51.9119 18.1743 51.9531 18.1331C51.9943 18.092 52.0499 18.0688 52.1083 18.0688C52.1663 18.0688 52.2223 18.092 52.2635 18.1331C52.3047 18.1743 52.3279 18.2301 52.3279 18.2883V27.398H60.5079C60.5659 27.398 60.6219 27.4212 60.6631 27.4623C60.7039 27.5035 60.7271 27.5593 60.7271 27.6175C60.7271 27.6757 60.7039 27.7316 60.6631 27.7727C60.6219 27.8138 60.5659 27.837 60.5079 27.837Z" fill="#7A7AFB"/>
<path d="M72.3586 21.3765H60.5078V32.822H72.3586V21.3765Z" fill="white"/>
<path d="M72.3575 33.0417H60.5067C60.4483 33.0417 60.3927 33.0185 60.3515 32.9774C60.3103 32.9363 60.2871 32.8804 60.2871 32.8222V21.3767C60.2871 21.3185 60.3103 21.2627 60.3515 21.2215C60.3927 21.1803 60.4483 21.1572 60.5067 21.1572H72.3575C72.4155 21.1572 72.4715 21.1803 72.5127 21.2215C72.5539 21.2627 72.5767 21.3185 72.5767 21.3767V32.8222C72.5767 32.8804 72.5539 32.9363 72.5127 32.9774C72.4715 33.0185 72.4155 33.0417 72.3575 33.0417ZM60.7259 32.6027H72.1379V21.5961H60.7259V32.6027Z" fill="#7A7AFB"/>
<path d="M51.4145 46.534C51.3565 46.534 51.3005 46.5108 51.2593 46.47C51.2181 46.4288 51.1953 46.3728 51.1953 46.3148V37.7242C51.1953 37.666 51.2181 37.6102 51.2593 37.569C51.3005 37.5279 51.3565 37.5048 51.4145 37.5048H66.2133V32.823C66.2133 32.7648 66.2365 32.709 66.2777 32.6678C66.3189 32.6266 66.3749 32.6035 66.4329 32.6035C66.4913 32.6035 66.5469 32.6266 66.5881 32.6678C66.6293 32.709 66.6525 32.7648 66.6525 32.823V37.7242C66.6525 37.7824 66.6293 37.8383 66.5881 37.8794C66.5469 37.9206 66.4913 37.9437 66.4329 37.9437H51.6341V46.3148C51.6341 46.3728 51.6109 46.4288 51.5697 46.47C51.5285 46.5108 51.4729 46.534 51.4145 46.534Z" fill="#7A7AFB"/>
<path d="M63.0419 46.3149H39.7871V60.1933H63.0419V46.3149Z" fill="white"/>
<path d="M63.0407 60.4128H39.7859C39.7277 60.4128 39.6718 60.3896 39.6307 60.3484C39.5895 60.3072 39.5664 60.2516 39.5664 60.1932V46.3148C39.5664 46.2564 39.5895 46.2004 39.6307 46.1596C39.6718 46.1184 39.7277 46.0952 39.7859 46.0952H63.0407C63.0987 46.0952 63.1547 46.1184 63.1959 46.1596C63.2371 46.2004 63.2599 46.2564 63.2599 46.3148V60.1932C63.2599 60.2516 63.2371 60.3072 63.1959 60.3484C63.1547 60.3896 63.0987 60.4128 63.0407 60.4128ZM40.0055 59.9736H62.8211V46.534H40.0055V59.9736Z" fill="#7A7AFB"/>
<path d="M46.2349 60.4129H42.3485C42.2901 60.4129 42.2345 60.3897 42.1933 60.3485C42.1521 60.3073 42.1289 60.2517 42.1289 60.1933V56.0853C42.1289 56.0269 42.1521 55.9709 42.1933 55.9301C42.2345 55.8889 42.2901 55.8657 42.3485 55.8657H46.2349C46.2933 55.8657 46.3489 55.8889 46.3901 55.9301C46.4313 55.9709 46.4545 56.0269 46.4545 56.0853V60.1933C46.4545 60.2517 46.4313 60.3073 46.3901 60.3485C46.3489 60.3897 46.2933 60.4129 46.2349 60.4129ZM42.5677 59.9741H46.0153V56.3045H42.5677V59.9741Z" fill="#7A7AFB"/>
<path d="M53.3563 60.413H49.4731C49.4151 60.413 49.3591 60.3898 49.3179 60.3486C49.2767 60.3074 49.2539 60.2518 49.2539 60.1934V53.8666C49.2539 53.8082 49.2767 53.7526 49.3179 53.7114C49.3591 53.6702 49.4151 53.647 49.4731 53.647H53.3599C53.4179 53.647 53.4739 53.6702 53.5151 53.7114C53.5563 53.7526 53.5791 53.8082 53.5791 53.8666V60.1934C53.5791 60.2226 53.5735 60.2514 53.5623 60.2782C53.5511 60.305 53.5343 60.3294 53.5135 60.3498C53.4931 60.3702 53.4683 60.3866 53.4411 60.3974C53.4143 60.4082 53.3851 60.4134 53.3563 60.413ZM49.6891 59.9742H53.1367V54.0858H49.6927L49.6891 59.9742Z" fill="#7A7AFB"/>
<path d="M60.479 60.4129H56.5926C56.5342 60.4129 56.4782 60.3897 56.4374 60.3485C56.3962 60.3073 56.373 60.2517 56.373 60.1933V49.7573C56.373 49.6993 56.3962 49.6433 56.4374 49.6021C56.4782 49.5609 56.5342 49.5381 56.5926 49.5381H60.479C60.5374 49.5381 60.593 49.5609 60.6342 49.6021C60.6754 49.6433 60.6986 49.6993 60.6986 49.7573V60.1933C60.6986 60.2517 60.6754 60.3073 60.6342 60.3485C60.593 60.3897 60.5374 60.4129 60.479 60.4129ZM56.8119 59.9741H60.2594V49.9769H56.8119V59.9741Z" fill="#7A7AFB"/>
<path d="M45.46 48.9089H42.5868C42.5284 48.9089 42.4724 48.8857 42.4316 48.8445C42.3904 48.8033 42.3672 48.7477 42.3672 48.6893C42.3672 48.6313 42.3904 48.5753 42.4316 48.5341C42.4724 48.4929 42.5284 48.4697 42.5868 48.4697H45.46C45.5184 48.4697 45.574 48.4929 45.6152 48.5341C45.6564 48.5753 45.6796 48.6313 45.6796 48.6893C45.6796 48.7477 45.6564 48.8033 45.6152 48.8445C45.574 48.8857 45.5184 48.9089 45.46 48.9089Z" fill="#7A7AFB"/>
<path d="M47.5148 50.6346H42.5868C42.5284 50.6346 42.4724 50.6114 42.4316 50.5702C42.3904 50.529 42.3672 50.4734 42.3672 50.415C42.3672 50.357 42.3904 50.301 42.4316 50.2598C42.4724 50.2186 42.5284 50.1958 42.5868 50.1958H47.5148C47.5732 50.1958 47.6288 50.2186 47.67 50.2598C47.7112 50.301 47.7344 50.357 47.7344 50.415C47.7344 50.4734 47.7112 50.529 47.67 50.5702C47.6288 50.6114 47.5732 50.6346 47.5148 50.6346Z" fill="#7A7AFB"/>
<path d="M66.4329 31.0826C65.8821 31.0826 65.3369 30.9684 64.8325 30.7471C64.3281 30.5258 63.8749 30.2022 63.5017 29.7968C63.1285 29.3914 62.8437 28.913 62.6649 28.3918C62.4861 27.8707 62.4173 27.3181 62.4629 26.7691C62.5089 26.22 62.6677 25.6864 62.9301 25.202C63.1929 24.7175 63.5529 24.2928 63.9877 23.9547C64.4229 23.6165 64.9233 23.3723 65.4573 23.2374C65.9917 23.1025 66.5481 23.08 67.0913 23.1711C67.1197 23.1758 67.1469 23.1862 67.1713 23.2015C67.1957 23.2168 67.2169 23.2368 67.2337 23.2603C67.2505 23.2838 67.2625 23.3104 67.2689 23.3385C67.2753 23.3666 67.2761 23.3958 67.2713 23.4242L66.7469 26.5412L69.1521 24.493C69.1741 24.4743 69.1993 24.4601 69.2269 24.4512C69.2541 24.4424 69.2833 24.439 69.3121 24.4413C69.3405 24.4436 69.3685 24.4515 69.3945 24.4647C69.4201 24.4778 69.4429 24.4959 69.4613 24.5178C69.9549 25.0969 70.2725 25.8052 70.3761 26.5589C70.4797 27.3126 70.3653 28.0803 70.0465 28.771C69.7277 29.4618 69.2177 30.0468 68.5765 30.4568C67.9357 30.8669 67.1909 31.0848 66.4301 31.0848L66.4329 31.0826ZM66.4329 23.5551C65.6345 23.5553 64.8597 23.825 64.2341 24.3206C63.6081 24.8161 63.1681 25.5084 62.9849 26.2854C62.8017 27.0624 62.8861 27.8785 63.2245 28.6014C63.5633 29.3244 64.1357 29.9118 64.8501 30.2686C65.5641 30.6254 66.3777 30.7306 67.1593 30.5672C67.9405 30.4038 68.6437 29.9813 69.1549 29.3682C69.6665 28.7551 69.9557 27.9874 69.9761 27.1894C69.9965 26.3914 69.7469 25.6098 69.2677 24.9714L66.5757 27.2662C66.5413 27.2956 66.4989 27.3136 66.4541 27.318C66.4089 27.3224 66.3641 27.3128 66.3245 27.2905C66.2853 27.2683 66.2541 27.2345 66.2345 27.1938C66.2153 27.153 66.2089 27.1073 66.2165 27.0628L66.8017 23.5742C66.6793 23.5613 66.5561 23.555 66.4329 23.5551Z" fill="#7A7AFB"/>
<path d="M48.4414 19.6048C48.4414 19.6048 48.5246 19.8974 47.8786 20.3882C47.5978 20.6019 47.1854 20.8703 47.1854 20.8703C47.1854 20.8703 42.409 26.2442 40.1722 28.8309C38.1415 31.1652 35.8036 33.2134 33.2225 34.9194C30.6307 41.5418 28.9028 50.501 29.0762 55.2318C29.3066 61.545 30.3842 68.9358 30.3842 68.9358C30.3842 68.9358 34.8911 71.069 34.8143 71.6846C34.7375 72.3006 28.717 71.9846 28.5305 71.4894C28.5305 71.4894 23.3022 72.6598 22.0696 72.2582C20.8369 71.8566 25.9964 69.0118 25.9964 69.0118C25.9964 69.0118 14.5655 57.153 15.9913 39.8024C16.1724 37.5154 16.5258 35.2454 17.0483 33.0116C16.0366 32.4264 15.0066 31.2193 15.6438 28.7468C16.3658 25.942 18.9284 24.3876 20.6636 23.637C23.8896 17.9669 27.8114 15.2244 29.3864 14.2734C33.082 12.0408 36.1604 13.5294 37.1486 14.3794C40.8518 17.5682 40.6454 21.2558 38.499 25.411C39.4676 24.866 40.8998 23.9728 42.0362 22.9003C42.9534 22.0349 44.2174 20.5016 45.3322 19.1812C45.3726 18.6084 45.1326 17.7072 45.4246 17.5646C45.7946 17.3838 46.083 18.04 46.083 18.3948C46.9726 17.3634 47.5826 16.6143 47.8458 16.8154C48.1518 17.0503 47.1874 18.5316 47.1874 18.5316C47.1874 18.5316 48.0514 18.2719 47.9586 18.9493C47.9622 18.9464 48.581 18.7664 48.4414 19.6048Z" fill="#12126B"/>
<path d="M31.5438 34.0197L25.6696 28.8354L19.0801 36.3019L24.9543 41.4863L31.5438 34.0197Z" fill="white"/>
<path d="M24.9528 41.7054C24.8989 41.7058 24.8469 41.6862 24.8065 41.6506L18.933 36.4662C18.8897 36.4276 18.8633 36.3734 18.8598 36.3155C18.8561 36.2575 18.8756 36.2004 18.914 36.1567L25.5036 28.69C25.5227 28.6683 25.5459 28.6507 25.5718 28.638C25.5978 28.6253 25.6259 28.6179 25.6547 28.6161C25.6836 28.6144 25.7125 28.6183 25.7397 28.6277C25.767 28.6371 25.7922 28.6518 25.8138 28.671L31.688 33.8553C31.7313 33.8939 31.7576 33.9481 31.7611 34.0061C31.7646 34.0641 31.7449 34.1213 31.7063 34.1648L25.1174 41.6314C25.0967 41.655 25.0714 41.6734 25.043 41.6862C25.0146 41.699 24.9839 41.7054 24.9528 41.7054ZM19.3887 36.284L24.9337 41.1782L31.233 34.0404L25.688 29.1465L19.3887 36.284Z" fill="#7A7AFB"/>
<path d="M29.8733 32.766C29.8194 32.7663 29.7673 32.7468 29.7269 32.7112L27.1907 30.4726C27.1474 30.4341 27.1211 30.3799 27.1176 30.3219C27.1141 30.2639 27.1338 30.2067 27.1725 30.1632L28.0971 29.1149C28.1357 29.0714 28.1899 29.045 28.2479 29.0414C28.3059 29.0379 28.3629 29.0574 28.4065 29.0959L30.9427 31.3337C30.9644 31.3527 30.9821 31.376 30.9947 31.4019C31.0074 31.4278 31.0149 31.456 31.0166 31.4848C31.0184 31.5136 31.0145 31.5425 31.0051 31.5698C30.9956 31.5971 30.9809 31.6222 30.9618 31.6438L30.0386 32.6921C30.0179 32.7155 29.9924 32.7341 29.9639 32.7469C29.9354 32.7596 29.9045 32.7661 29.8733 32.766ZM27.6472 30.289L29.8542 32.2371L30.4877 31.5195L28.2807 29.5714L27.6472 30.289Z" fill="#7A7AFB"/>
<path d="M38.5479 22.9501C39.6702 22.8545 40.4844 21.6556 40.3668 20.2725C40.2488 18.8893 39.2434 17.8455 38.1211 17.9411C36.9988 18.0367 36.1845 19.2356 36.3024 20.6187C36.4202 22.0019 37.4256 23.0457 38.5479 22.9501Z" fill="white"/>
<path d="M38.4038 23.1732C37.8514 23.1732 37.3196 22.934 36.891 22.4885C36.419 21.9808 36.135 21.3269 36.0863 20.6355C35.9582 19.1336 36.8639 17.8264 38.1046 17.7203C38.7147 17.6684 39.3101 17.9091 39.7805 18.3977C40.2528 18.9056 40.5368 19.5598 40.5852 20.2514C40.7132 21.7526 39.8076 23.0605 38.5669 23.1659C38.512 23.171 38.4579 23.1732 38.4038 23.1732ZM38.264 18.1527C38.2231 18.1527 38.1814 18.1527 38.1397 18.1578C37.1397 18.2434 36.414 19.3378 36.5215 20.5982C36.5622 21.1896 36.8041 21.7492 37.207 22.1842C37.5844 22.5755 38.0541 22.7694 38.5296 22.7284C39.5296 22.6436 40.2552 21.5492 40.1476 20.2888C40.1068 19.6972 39.865 19.1373 39.4623 18.702C39.1178 18.3451 38.6964 18.1527 38.264 18.1527Z" fill="#7A7AFB"/>
<path d="M35.407 22.962C36.8876 22.8358 37.9698 21.3476 37.8241 19.638C37.6784 17.9283 36.3601 16.6446 34.8795 16.7708C33.3989 16.8969 32.3167 18.3851 32.4624 20.0948C32.608 21.8044 33.9264 23.0881 35.407 22.962Z" fill="white"/>
<path d="M35.2088 23.1894C34.5072 23.1894 33.8313 22.9041 33.2863 22.3737C32.6802 21.7691 32.3119 20.9664 32.249 20.1126C32.1665 19.2605 32.3935 18.4072 32.8883 17.7088C33.3829 17.0292 34.0851 16.6173 34.8635 16.5508C36.4619 16.4147 37.8891 17.7944 38.0449 19.618C38.2007 21.4418 37.0259 23.0431 35.4282 23.1784C35.3551 23.185 35.2819 23.1894 35.2088 23.1894ZM35.0844 16.9809C35.0237 16.9809 34.9637 16.9809 34.903 16.9882C34.2512 17.0438 33.6594 17.3913 33.2431 17.967C32.8104 18.5801 32.6128 19.3284 32.6865 20.0753C32.7404 20.8238 33.0619 21.528 33.5921 22.0592C34.1042 22.5552 34.7421 22.798 35.3931 22.7424C36.7509 22.6268 37.745 21.242 37.6097 19.6554C37.4765 18.1418 36.3631 16.9794 35.0808 16.9794L35.0844 16.9809Z" fill="#7A7AFB"/>
<path d="M39.4066 20.2038C39.5944 20.2038 39.7468 20.0515 39.7468 19.8636C39.7468 19.6757 39.5944 19.5234 39.4066 19.5234C39.2187 19.5234 39.0664 19.6757 39.0664 19.8636C39.0664 20.0515 39.2187 20.2038 39.4066 20.2038Z" fill="#7A7AFB"/>
<path d="M36.9573 19.9479C37.1452 19.9479 37.2975 19.7956 37.2975 19.6077C37.2975 19.4199 37.1452 19.2676 36.9573 19.2676C36.7695 19.2676 36.6172 19.4199 36.6172 19.6077C36.6172 19.7956 36.7695 19.9479 36.9573 19.9479Z" fill="#7A7AFB"/>
<path d="M31.8436 27.0855C30.4003 27.1586 28.8377 26.6363 27.9496 24.7877C27.4785 23.8082 27.3388 22.8931 27.4134 22.0686C27.6687 19.2325 30.4551 17.4643 31.0418 17.8447C31.72 18.2837 30.2825 20.7906 30.987 22.6451C32.3169 26.1447 34.9599 24.4695 35.1435 25.4432C35.2459 25.9823 33.6373 26.9933 31.8436 27.0855Z" fill="#7A7AFB"/>
<path d="M31.5824 27.3116C29.8625 27.3116 28.5099 26.4572 27.752 24.8829C27.2985 23.9385 27.1112 22.9853 27.1954 22.049C27.3929 19.8544 29.0352 18.2984 30.0908 17.7841C30.4192 17.6239 30.872 17.4732 31.1617 17.6605C31.6006 17.9429 31.4543 18.6415 31.2685 19.5252C31.0747 20.4579 30.8296 21.6196 31.1954 22.5676C32.0132 24.7205 33.2992 24.79 34.2386 24.8405C34.7674 24.869 35.2664 24.8961 35.3614 25.403C35.3944 25.5757 35.3336 25.7615 35.1815 25.9554C34.7045 26.5603 33.3314 27.2304 31.8574 27.305C31.7638 27.3094 31.6723 27.3116 31.5824 27.3116ZM30.8333 18.0131C30.7345 18.0131 30.556 18.046 30.2832 18.1792C29.3168 18.6495 27.8135 20.0812 27.6328 22.0885C27.5553 22.9444 27.7286 23.8207 28.1449 24.6927C29.0608 26.5947 30.654 26.9261 31.8304 26.8661C33.2364 26.793 34.4763 26.1346 34.8296 25.6832C34.9079 25.5837 34.9291 25.5135 34.924 25.4842C34.8969 25.3379 34.7301 25.3072 34.2086 25.2794C33.2693 25.2282 31.6979 25.1441 30.7784 22.7235C30.3724 21.6554 30.6284 20.425 30.834 19.4359C30.9598 18.8324 31.1025 18.1477 30.9188 18.0292C30.892 18.017 30.8627 18.0115 30.8333 18.0131Z" fill="#7A7AFB"/>
<path d="M31.8436 27.0854C30.4003 27.1586 28.8377 26.6363 27.9496 24.7877C27.4785 23.8082 27.3388 22.893 27.4134 22.0686C27.619 22.0445 29.4464 21.8265 30.3249 23.0927C31.1464 24.2727 30.8458 25.0627 30.8458 25.0627C30.8458 25.0627 32.4815 25.3656 31.8436 27.0854Z" fill="white"/>
<path d="M31.5824 27.3117C29.8625 27.3117 28.5099 26.4573 27.752 24.8831C27.2985 23.9387 27.1112 22.9855 27.1954 22.0491C27.1999 21.9988 27.2217 21.9516 27.257 21.9155C27.2923 21.8794 27.339 21.8565 27.3892 21.8509C27.9013 21.7916 29.6262 21.7002 30.5063 22.9657C31.1288 23.8604 31.1493 24.5612 31.1039 24.9057C31.3614 24.9957 31.7857 25.1984 32.0293 25.63C32.2649 26.0469 32.2722 26.5619 32.0498 27.1618C32.0354 27.2027 32.0093 27.2384 31.9746 27.2644C31.94 27.2904 31.8985 27.3057 31.8552 27.3081C31.7638 27.3096 31.6723 27.3117 31.5824 27.3117ZM27.6196 22.27C27.5809 23.0681 27.7586 23.8794 28.1478 24.6929C29.0256 26.5217 30.5268 26.897 31.6855 26.8721C31.812 26.4617 31.7996 26.1179 31.6489 25.848C31.3929 25.3937 30.8113 25.2759 30.8055 25.2752C30.7741 25.2691 30.7444 25.2563 30.7186 25.2376C30.6927 25.2189 30.6712 25.1948 30.6556 25.1669C30.64 25.1391 30.6306 25.1081 30.6282 25.0763C30.6258 25.0445 30.6304 25.0125 30.6416 24.9825C30.6511 24.9562 30.8808 24.2723 30.1456 23.2159C29.4836 22.2642 28.2041 22.2298 27.6196 22.27Z" fill="#7A7AFB"/>
<path d="M30.4067 26.1667C30.3643 26.167 30.3225 26.155 30.2867 26.1321C30.2509 26.1092 30.2225 26.0764 30.205 26.0376C30.1875 25.9989 30.1816 25.9559 30.1881 25.9139C30.1945 25.8718 30.2131 25.8326 30.2414 25.8009C30.4455 25.5646 30.5948 25.1426 30.635 24.9962C30.6428 24.9685 30.6559 24.9425 30.6738 24.9198C30.6916 24.8972 30.7137 24.8782 30.7388 24.8641C30.7639 24.85 30.7916 24.8409 30.8203 24.8375C30.8489 24.8341 30.8779 24.8363 30.9057 24.8441C30.9334 24.8519 30.9594 24.865 30.9821 24.8828C31.0047 24.9007 31.0237 24.9228 31.0378 24.9479C31.0519 24.973 31.061 25.0007 31.0644 25.0293C31.0678 25.058 31.0656 25.087 31.0578 25.1148C31.0505 25.1396 30.883 25.7278 30.5728 26.0862C30.5526 26.1109 30.5273 26.1309 30.4987 26.1448C30.47 26.1586 30.4386 26.1662 30.4067 26.1667Z" fill="#7A7AFB"/>
<path d="M20.9385 23.754C20.8867 23.7541 20.8365 23.7358 20.7969 23.7024C20.7572 23.6691 20.7307 23.6227 20.7219 23.5716C20.7131 23.5206 20.7227 23.468 20.749 23.4234C20.7753 23.3787 20.8165 23.3447 20.8654 23.3275C23.8785 22.288 24.7739 23.3107 24.8105 23.3553C24.8454 23.4 24.8616 23.4564 24.8559 23.5127C24.8501 23.5691 24.8227 23.621 24.7796 23.6577C24.7364 23.6943 24.6807 23.7129 24.6242 23.7094C24.5676 23.706 24.5146 23.6808 24.4762 23.6392C24.4572 23.6187 23.6715 22.8242 21.008 23.7423C20.9857 23.7499 20.9622 23.7539 20.9385 23.754Z" fill="#7A7AFB"/>
<path d="M19.7277 30.3115C19.7277 30.3115 22.5953 32.9538 23.2507 33.0182C23.9062 33.0826 24.7716 32.1404 25.054 32.6524C25.2229 32.9568 24.3575 33.738 24.3575 33.738C24.3575 33.738 26.1571 34.4922 25.9845 34.9428C25.7906 35.4505 24.2113 34.7234 24.1732 34.8031C24.1249 34.8997 25.7445 35.6437 25.5163 36.0467C25.1813 36.6371 23.754 35.4169 23.7109 35.4615C23.6275 35.5493 24.7628 36.6086 24.4746 36.9246C24.2427 37.1777 23.1922 36.1067 21.8411 35.1689C20.4387 34.1974 18.7116 33.3503 17.2324 33.0584L19.7277 30.3115Z" fill="#12126B"/>
<path d="M24.3864 37.1783C24.0975 37.1783 23.6783 36.8469 23.0082 36.3173C22.6241 36.0137 22.1896 35.6699 21.7141 35.3407C20.2189 34.3085 18.5298 33.5294 17.1889 33.2661C17.1317 33.2548 17.0814 33.2213 17.0489 33.173C17.0165 33.1246 17.0046 33.0654 17.0159 33.0082C17.0271 32.9511 17.0606 32.9008 17.1089 32.8683C17.1573 32.8358 17.2166 32.824 17.2737 32.8352C18.668 33.1102 20.4193 33.912 21.9643 34.98C22.4508 35.3173 22.8911 35.6655 23.2811 35.9727C23.6403 36.2566 24.0741 36.5997 24.2877 36.7043C24.2145 36.5046 23.9109 36.1242 23.7851 35.9669C23.5232 35.6392 23.3915 35.4746 23.5517 35.3085C23.6907 35.1622 23.8283 35.2566 24.0572 35.4124C24.3111 35.5858 24.9863 36.0459 25.2657 35.9815C25.2859 35.9781 25.3039 35.9671 25.3162 35.9508C25.2577 35.7745 24.6285 35.3838 24.4179 35.2536C24.0433 35.021 23.8721 34.915 23.9789 34.705C24.0733 34.5148 24.243 34.5682 24.581 34.675C24.8503 34.7659 25.1261 34.8359 25.4062 34.8842C25.6556 34.9193 25.7493 34.8842 25.7719 34.8652C25.7171 34.6838 25.0141 34.247 24.2701 33.9347C24.2359 33.9205 24.2058 33.8979 24.1827 33.869C24.1595 33.84 24.1441 33.8057 24.1378 33.7692C24.1315 33.7326 24.1346 33.6951 24.1467 33.6601C24.1589 33.6251 24.1797 33.5937 24.2072 33.5689C24.5481 33.2602 24.8509 32.8732 24.8539 32.7438C24.7983 32.6706 24.6147 32.7438 24.2599 32.923C23.9402 33.0839 23.5773 33.2661 23.2277 33.2332C22.5334 33.168 20.0638 30.9215 19.5759 30.4716C19.5331 30.4321 19.5077 30.3773 19.5054 30.3191C19.5031 30.261 19.5239 30.2042 19.5634 30.1614C19.6029 30.1187 19.6577 30.0933 19.7159 30.091C19.7741 30.0886 19.8308 30.1095 19.8736 30.149C21.2569 31.4234 22.9051 32.762 23.2686 32.7957C23.4925 32.8169 23.7961 32.6648 24.0631 32.5309C24.4727 32.3253 24.9819 32.07 25.243 32.5389C25.4201 32.8564 25.0777 33.318 24.7434 33.6618C25.4749 33.9954 26.3755 34.5214 26.1875 35.0144C26.0638 35.3378 25.7017 35.3751 25.3008 35.3122C25.6388 35.5755 25.867 35.8608 25.7046 36.1468C25.669 36.2114 25.6201 36.2676 25.5611 36.3118C25.502 36.3559 25.4343 36.387 25.3623 36.4029C25.1172 36.46 24.8187 36.3634 24.5093 36.2032C24.7185 36.5243 24.8378 36.8411 24.6337 37.0627C24.6033 37.0988 24.5655 37.1278 24.5228 37.1478C24.4801 37.1677 24.4335 37.1781 24.3864 37.1783Z" fill="#7A7AFB"/>
<path d="M20.7131 31.2641C20.6741 31.264 20.6359 31.2535 20.6023 31.2337C20.5687 31.2139 20.5409 31.1856 20.5219 31.1515C20.5029 31.1175 20.4934 31.079 20.4942 31.04C20.495 31.001 20.5062 30.963 20.5266 30.9297C21.3701 29.5537 22.7731 28.5076 22.8353 28.4637C22.8822 28.4327 22.9393 28.4208 22.9947 28.4306C23.0501 28.4404 23.0996 28.4711 23.133 28.5163C23.1665 28.5616 23.1812 28.6179 23.1743 28.6738C23.1673 28.7296 23.1392 28.7807 23.0957 28.8163C23.0818 28.8273 21.6985 29.8588 20.9011 31.1573C20.8817 31.1898 20.8541 31.2167 20.8212 31.2354C20.7883 31.2541 20.751 31.264 20.7131 31.2641Z" fill="#7A7AFB"/>
<path d="M33.3639 34.787C33.3364 34.7869 33.3091 34.7816 33.2834 34.7716C33.2293 34.7503 33.1859 34.7083 33.1627 34.655C33.1395 34.6016 33.1385 34.5412 33.1598 34.4871C35.2674 29.1286 38.1342 25.5192 38.1628 25.4834C38.1808 25.4608 38.203 25.4421 38.2283 25.4282C38.2536 25.4142 38.2813 25.4054 38.31 25.4022C38.3386 25.399 38.3677 25.4015 38.3954 25.4096C38.4231 25.4176 38.449 25.431 38.4715 25.449C38.494 25.467 38.5128 25.4893 38.5267 25.5145C38.5406 25.5398 38.5494 25.5676 38.5526 25.5962C38.5558 25.6249 38.5533 25.6539 38.5453 25.6816C38.5373 25.7093 38.5239 25.7352 38.5058 25.7577C38.4773 25.7928 35.6529 29.3546 33.568 34.648C33.5519 34.689 33.5238 34.7242 33.4874 34.7489C33.451 34.7737 33.408 34.787 33.3639 34.787Z" fill="#7A7AFB"/>
<path d="M28.4373 71.5107C28.395 71.5107 28.3535 71.4987 28.318 71.4755C28.2824 71.4527 28.2543 71.4199 28.2369 71.3811C25.5734 65.4719 24.1315 55.3447 24.1169 55.2427C24.1098 55.1859 24.1255 55.1283 24.1605 55.0823C24.1955 55.0367 24.247 55.0067 24.304 54.9987C24.3609 54.9907 24.4188 55.0051 24.4651 55.0395C24.5114 55.0735 24.5424 55.1247 24.5514 55.1815C24.5661 55.2823 25.9991 65.3499 28.637 71.2019C28.6522 71.2355 28.6587 71.2719 28.6561 71.3087C28.6534 71.3451 28.6416 71.3807 28.6217 71.4115C28.6019 71.4423 28.5745 71.4679 28.5423 71.4855C28.5101 71.5031 28.474 71.5123 28.4373 71.5123V71.5107Z" fill="#7A7AFB"/>
<path d="M46.6774 20.267C46.5646 20.2684 46.4563 20.2259 46.3743 20.1485C46.3167 20.095 46.2711 20.0298 46.2407 19.9573C46.2099 19.8848 46.1954 19.8066 46.1974 19.7279C46.2062 19.3278 46.6267 18.9517 46.6751 18.91C46.7191 18.8719 46.7767 18.8528 46.8347 18.857C46.8927 18.8612 46.9467 18.8883 46.9851 18.9324C47.0231 18.9764 47.0422 19.0338 47.0378 19.0919C47.0338 19.15 47.0066 19.204 46.9626 19.2422C46.8286 19.3585 46.6391 19.5896 46.6355 19.7381C46.6351 19.7557 46.6387 19.7731 46.6459 19.7891C46.6531 19.805 46.6638 19.8192 46.6774 19.8303C46.8178 19.8603 47.3359 19.409 47.7307 18.8983C47.7471 18.873 47.7691 18.8513 47.7943 18.8347C47.8195 18.8181 47.8482 18.8069 47.8778 18.8019C47.9078 18.7968 47.9386 18.798 47.9678 18.8054C47.9974 18.8128 48.0246 18.8262 48.0486 18.8447C48.0726 18.8633 48.0927 18.8866 48.1071 18.9132C48.1215 18.9398 48.1306 18.9691 48.133 18.9993C48.1358 19.0295 48.1323 19.0599 48.1223 19.0886C48.1127 19.1173 48.0971 19.1437 48.0767 19.1661C47.9391 19.3424 47.2259 20.2253 46.7155 20.2634L46.6774 20.267Z" fill="#7A7AFB"/>
<path d="M47.3208 20.7973C47.2656 20.7972 47.2112 20.7865 47.16 20.7658C46.748 20.5997 46.7648 20.1381 46.8308 19.9172C46.848 19.8625 46.8864 19.8167 46.9372 19.7898C46.988 19.7629 47.0472 19.7571 47.1024 19.7735C47.1576 19.7898 47.204 19.8272 47.2316 19.8775C47.2596 19.9277 47.2668 19.9869 47.2512 20.0423C47.2512 20.0503 47.178 20.3013 47.3244 20.3591C47.4304 20.3729 47.7928 20.0328 48.0808 19.5902C48.1148 19.5474 48.1636 19.5188 48.2176 19.5101C48.2716 19.5014 48.3272 19.5132 48.3728 19.5431C48.4184 19.5731 48.4516 19.619 48.4652 19.672C48.4788 19.7249 48.4724 19.7811 48.4468 19.8294C48.2476 20.1389 47.7672 20.7965 47.3208 20.7973Z" fill="#7A7AFB"/>
<path d="M14.7497 46.9138C14.6989 46.9138 14.6497 46.8962 14.6105 46.8638C14.5712 46.8318 14.5444 46.7866 14.5346 46.737C13.8762 43.3938 14.1966 38.5108 14.2003 38.4618C14.2043 38.4036 14.2312 38.3493 14.2752 38.311C14.2969 38.292 14.3222 38.2775 14.3496 38.2683C14.377 38.2591 14.4059 38.2554 14.4347 38.2573C14.4636 38.2593 14.4917 38.2669 14.5176 38.2798C14.5435 38.2926 14.5665 38.3105 14.5855 38.3322C14.6045 38.354 14.619 38.3793 14.6283 38.4067C14.6375 38.4341 14.6412 38.463 14.6392 38.4918C14.6392 38.5401 14.3181 43.3666 14.9662 46.6522C14.9717 46.6802 14.9716 46.7094 14.9659 46.7378C14.9602 46.7658 14.949 46.793 14.9329 46.8166C14.9168 46.8406 14.8961 46.861 14.8721 46.877C14.8481 46.893 14.8211 46.9042 14.7928 46.9094C14.7786 46.9126 14.7642 46.9138 14.7497 46.9138Z" fill="#7A7AFB"/>
<path d="M15.0325 54.6591C14.994 54.6591 14.9561 54.6491 14.9227 54.6299C14.8893 54.6103 14.8616 54.5827 14.8423 54.5495C12.9023 51.1903 12.4692 44.8515 12.4516 44.5831C12.4478 44.5247 12.4674 44.4675 12.5058 44.4235C12.5443 44.3799 12.5986 44.3531 12.6568 44.3491C12.715 44.3455 12.7724 44.3651 12.8162 44.4035C12.86 44.4419 12.8868 44.4963 12.8906 44.5543C12.8972 44.6231 13.3361 51.0607 15.222 54.3299C15.2512 54.3803 15.2592 54.4403 15.2442 54.4963C15.2292 54.5527 15.1926 54.6007 15.1422 54.6299C15.1088 54.6491 15.071 54.6591 15.0325 54.6591Z" fill="#7A7AFB"/>
<path d="M41.1013 29.9194C41.0613 29.9192 41.0221 29.9081 40.9877 29.8871C40.9533 29.8662 40.9257 29.8362 40.9073 29.8005C40.8889 29.7648 40.8805 29.7248 40.8833 29.6848C40.8861 29.6447 40.8997 29.6062 40.9229 29.5734C42.7465 26.9918 44.2149 25.4848 44.2333 25.4702C44.2745 25.431 44.3293 25.4093 44.3861 25.4097C44.4429 25.4101 44.4977 25.4326 44.5381 25.4725C44.5789 25.5124 44.6025 25.5664 44.6037 25.6234C44.6053 25.6802 44.5845 25.7355 44.5461 25.7774C44.5317 25.7921 43.0833 27.2764 41.2813 29.8265C41.2609 29.8553 41.2341 29.8788 41.2029 29.8949C41.1713 29.9111 41.1365 29.9195 41.1013 29.9194Z" fill="#7A7AFB"/>
<path d="M39.7869 34.1209C39.7517 34.1208 39.7171 34.1123 39.6859 34.096C39.635 34.0693 39.5966 34.0237 39.5789 33.969C39.5613 33.9143 39.5658 33.8548 39.5916 33.8034C40.6085 31.8334 43.0121 29.0163 43.1145 28.897C43.1329 28.8735 43.1557 28.854 43.1817 28.8396C43.2077 28.8251 43.2361 28.8161 43.2657 28.8131C43.2953 28.8101 43.3253 28.8132 43.3537 28.8221C43.3821 28.8309 43.4085 28.8455 43.4309 28.8649C43.4533 28.8842 43.4717 28.9079 43.4849 28.9346C43.4981 28.9613 43.5057 28.9903 43.5073 29.0201C43.5089 29.0497 43.5041 29.0794 43.4941 29.1073C43.4837 29.1352 43.4681 29.1607 43.4473 29.1823C43.4233 29.2116 40.9749 32.0807 39.9815 34.0046C39.9627 34.0399 39.9347 34.0693 39.9004 34.0898C39.8661 34.1103 39.8268 34.1211 39.7869 34.1209Z" fill="#7A7AFB"/>
</svg>
