<svg width="80" height="80" viewBox="0 0 80 80" fill="none" xmlns="http://www.w3.org/2000/svg">
<path d="M8.0625 23.2326L13.2782 17.8911C13.2782 17.8911 15.8654 19.167 17.8679 21.7002C19.8704 24.2334 20.2052 25.6113 20.2052 25.6113L14.6553 29.7419C14.6553 29.7419 13.4453 25.4028 8.0625 23.2326Z" fill="white"/>
<path d="M14.6556 29.9628C14.6304 29.9632 14.6054 29.9592 14.5816 29.9509C14.5478 29.9395 14.5173 29.9201 14.4926 29.8944C14.4679 29.8686 14.4498 29.8373 14.4397 29.8031C14.4397 29.7927 14.13 28.7268 13.1831 27.4155C12.3108 26.2076 10.6994 24.5378 7.97697 23.4401C7.94341 23.4262 7.91381 23.4044 7.89069 23.3764C7.86757 23.3485 7.85169 23.3153 7.84437 23.2797C7.83709 23.2442 7.83861 23.2074 7.84885 23.1726C7.85909 23.1378 7.87769 23.106 7.90305 23.0801L13.121 17.7357C13.1537 17.7021 13.1962 17.6797 13.2424 17.6717C13.2886 17.6637 13.3362 17.6706 13.3782 17.6914C13.4854 17.7446 16.0327 19.0182 18.044 21.5618C20.0554 24.1053 20.4094 25.4995 20.422 25.5579C20.4322 25.6001 20.4299 25.6444 20.4152 25.6853C20.4004 25.7261 20.374 25.7618 20.3392 25.7878L14.7894 29.9191C14.7507 29.9478 14.7037 29.9631 14.6556 29.9628ZM8.44633 23.1533C11.0926 24.2939 12.6804 25.9563 13.5542 27.1708C14.0521 27.8518 14.4592 28.5948 14.765 29.381L19.9438 25.5261C19.8048 25.1247 19.2785 23.8474 17.6914 21.8368C16.0068 19.7057 13.8809 18.4683 13.3184 18.1637L8.44633 23.1533Z" fill="#7A7AFB"/>
<path d="M14.4848 20.0237C14.4414 20.0236 14.399 20.0107 14.3629 19.9868L13.28 19.2712C13.2539 19.256 13.2312 19.2357 13.2133 19.2114C13.1954 19.1872 13.1826 19.1595 13.1758 19.1301C13.1689 19.1008 13.1681 19.0703 13.1734 19.0406C13.1787 19.011 13.19 18.9827 13.2066 18.9575C13.2232 18.9323 13.2448 18.9108 13.27 18.8943C13.2952 18.8777 13.3235 18.8665 13.3532 18.8612C13.3829 18.856 13.4134 18.8569 13.4427 18.8638C13.4721 18.8708 13.4997 18.8836 13.5239 18.9016L14.6068 19.6164C14.6468 19.6426 14.6773 19.681 14.6936 19.7259C14.71 19.7708 14.7115 19.8198 14.6978 19.8656C14.6841 19.9114 14.656 19.9515 14.6176 19.98C14.5792 20.0085 14.5326 20.0238 14.4848 20.0237Z" fill="#7A7AFB"/>
<path d="M13.4016 20.4729C13.3554 20.4728 13.3105 20.4583 13.273 20.4315L12.6395 19.982C12.6157 19.9649 12.5956 19.9433 12.5802 19.9185C12.5648 19.8936 12.5545 19.866 12.5498 19.8371C12.5451 19.8082 12.5461 19.7787 12.5528 19.7503C12.5595 19.7218 12.5718 19.6949 12.5888 19.6712C12.6059 19.6475 12.6275 19.6273 12.6524 19.6119C12.6772 19.5965 12.7049 19.5862 12.7338 19.5815C12.7626 19.5768 12.7921 19.5778 12.8206 19.5845C12.8491 19.5912 12.8759 19.6035 12.8997 19.6206L13.5332 20.07C13.5716 20.0972 13.6005 20.1359 13.6154 20.1807C13.6304 20.2253 13.6308 20.2737 13.6164 20.3185C13.6021 20.3635 13.5738 20.4026 13.5357 20.4304C13.4976 20.4581 13.4517 20.473 13.4045 20.4729H13.4016Z" fill="#7A7AFB"/>
<path d="M11.0682 24.2276C11.0252 24.2278 10.9831 24.2155 10.947 24.1921L9.61646 23.3258C9.58918 23.3081 9.56614 23.2845 9.54898 23.2569C9.53182 23.2293 9.52094 23.1982 9.51714 23.1659C9.51334 23.1336 9.5167 23.1009 9.52694 23.07C9.53722 23.0391 9.55414 23.0109 9.57654 22.9873L10.3586 22.1638C10.396 22.1237 10.4469 22.0989 10.5015 22.0941C10.5561 22.0893 10.6105 22.1049 10.6543 22.1379L11.9021 23.0508C11.9271 23.0691 11.948 23.0925 11.9635 23.1194C11.979 23.1463 11.9886 23.1761 11.9918 23.207C11.995 23.2379 11.9917 23.2691 11.9821 23.2986C11.9725 23.3281 11.9568 23.3553 11.9361 23.3783L11.236 24.1545C11.2149 24.1779 11.189 24.1965 11.16 24.2092C11.1311 24.2218 11.0998 24.2281 11.0682 24.2276ZM10.0821 23.0996L11.0305 23.7169L11.4393 23.2637L10.5463 22.611L10.0821 23.0996Z" fill="#7A7AFB"/>
<path d="M13.2539 26.1247C13.2246 26.1247 13.1956 26.1188 13.1686 26.1076C13.1416 26.0962 13.1171 26.0797 13.0965 26.0589L11.723 24.67C11.6815 24.6284 11.6582 24.572 11.6582 24.5132C11.6582 24.4545 11.6815 24.3981 11.723 24.3565L14.4411 21.6607C14.4826 21.6194 14.5388 21.5962 14.5974 21.5962C14.656 21.5962 14.7122 21.6194 14.7538 21.6607L16.0961 23.0038C16.1372 23.0453 16.1602 23.1014 16.1602 23.1598C16.1602 23.2182 16.1372 23.2742 16.0961 23.3158L13.4106 26.0574C13.39 26.0785 13.3654 26.0952 13.3382 26.1066C13.3111 26.118 13.2819 26.1239 13.2524 26.124L13.2539 26.1247ZM12.1939 24.5155L13.2532 25.5866L15.6275 23.1627L14.5926 22.1316L12.1939 24.5155Z" fill="#7A7AFB"/>
<path d="M14.954 28.3778C14.9425 28.3789 14.9309 28.3789 14.9193 28.3778C14.8885 28.3729 14.8591 28.3615 14.833 28.3445C14.8068 28.3274 14.7846 28.305 14.7678 28.2788L13.7558 26.7028C13.7273 26.6584 13.7156 26.6052 13.7228 26.5529C13.73 26.5006 13.7556 26.4526 13.795 26.4175L17.2603 23.3299C17.2834 23.3094 17.3105 23.2939 17.3399 23.2845C17.3693 23.2751 17.4004 23.2719 17.4311 23.2752C17.4617 23.2784 17.4913 23.2879 17.518 23.3032C17.5448 23.3185 17.568 23.3391 17.5863 23.3639L18.8023 25.0152C18.836 25.0611 18.8507 25.1181 18.8436 25.1745C18.8364 25.2309 18.8079 25.2823 18.7638 25.3183L15.0945 28.3276C15.0549 28.36 15.0053 28.3778 14.954 28.3778ZM14.2296 26.62L15.0043 27.8264L18.3188 25.1084L17.372 23.8229L14.2296 26.62Z" fill="#7A7AFB"/>
<path d="M44.1309 13.7228L50.2785 9.19971C50.2785 9.19971 55.2313 12.8395 55.5785 18.8137L49.0421 21.5487C49.0421 21.5487 47.5585 16.2649 44.1309 13.7228Z" fill="white"/>
<path d="M49.0457 21.7679C48.9973 21.7678 48.9505 21.7519 48.9121 21.7227C48.8737 21.6935 48.8457 21.6525 48.8329 21.6061C48.8181 21.5543 47.3277 16.3689 44.0021 13.9007C43.9741 13.8801 43.9513 13.8532 43.9357 13.8222C43.9201 13.7912 43.9121 13.7569 43.9121 13.7222C43.9121 13.6875 43.9201 13.6532 43.9357 13.6222C43.9513 13.5912 43.9741 13.5643 44.0021 13.5437L50.1477 9.02054C50.1857 8.99262 50.2317 8.97754 50.2789 8.97754C50.3261 8.97754 50.3721 8.99262 50.4101 9.02054C50.4621 9.05822 51.6877 9.96746 52.9737 11.6299C54.1617 13.1659 55.6165 15.657 55.8005 18.8001C55.8029 18.8459 55.7913 18.8915 55.7669 18.9304C55.7425 18.9693 55.7069 18.9997 55.6645 19.0174L49.1277 21.7524C49.1017 21.7626 49.0737 21.7679 49.0457 21.7679ZM44.4997 13.7263C47.4121 16.0481 48.8549 20.1964 49.1841 21.2468L55.3473 18.67C54.9705 13.489 51.0377 10.0901 50.2749 9.4781L44.4997 13.7263Z" fill="#7A7AFB"/>
<path d="M47.3165 14.8292C47.3017 14.8292 47.2873 14.8278 47.2729 14.8248L46.3909 14.6474C46.3333 14.6357 46.2825 14.6016 46.2501 14.5525C46.2173 14.5034 46.2057 14.4434 46.2173 14.3857C46.2289 14.328 46.2629 14.2772 46.3121 14.2447C46.3613 14.2121 46.4213 14.2003 46.4789 14.212L47.0949 14.3369V13.2784C47.0949 13.2196 47.1181 13.1632 47.1597 13.1216C47.2013 13.08 47.2577 13.0566 47.3165 13.0566C47.3753 13.0566 47.4317 13.08 47.4733 13.1216C47.5149 13.1632 47.5381 13.2196 47.5381 13.2784V14.609C47.5381 14.6418 47.5309 14.6742 47.5169 14.7038C47.5029 14.7335 47.4825 14.7596 47.4569 14.7804C47.4173 14.8124 47.3677 14.8296 47.3165 14.8292Z" fill="#7A7AFB"/>
<path d="M48.637 16.963C48.6154 16.9632 48.5938 16.9599 48.5726 16.9534L47.7162 16.691C47.6594 16.6744 47.6118 16.6359 47.5838 16.5841C47.5554 16.5324 47.549 16.4715 47.5658 16.4149C47.5822 16.3584 47.6206 16.3108 47.6726 16.2826C47.7242 16.2543 47.785 16.2478 47.8418 16.2645L48.4426 16.4478L48.5462 15.3952C48.5518 15.3364 48.5806 15.2822 48.6262 15.2447C48.6718 15.2071 48.7306 15.1892 48.7894 15.1949C48.8482 15.2006 48.9022 15.2294 48.9398 15.275C48.9774 15.3206 48.9954 15.3793 48.9898 15.4381L48.8602 16.7605C48.855 16.8155 48.8294 16.8666 48.7882 16.9036C48.7474 16.9407 48.6938 16.9611 48.6386 16.9608L48.637 16.963Z" fill="#7A7AFB"/>
<path d="M49.82 19.2605C49.798 19.2603 49.7764 19.257 49.7556 19.2509L48.8972 18.9878C48.8696 18.9793 48.8436 18.9654 48.8212 18.9469C48.7988 18.9284 48.78 18.9056 48.7664 18.8799C48.7528 18.8542 48.744 18.826 48.7412 18.797C48.7384 18.7681 48.7416 18.7388 48.75 18.711C48.7584 18.6831 48.7724 18.6572 48.7908 18.6347C48.8092 18.6122 48.832 18.5936 48.8576 18.5799C48.8836 18.5662 48.9116 18.5577 48.9408 18.5549C48.9696 18.552 48.9988 18.555 49.0268 18.5635L49.6276 18.7475L49.7312 17.6942C49.7368 17.6354 49.766 17.5813 49.8116 17.5438C49.8572 17.5063 49.916 17.4884 49.9748 17.4942C50.0336 17.5 50.0876 17.5289 50.1252 17.5746C50.1628 17.6203 50.1804 17.679 50.1748 17.7378L50.0452 19.0602C50.042 19.0928 50.0316 19.1244 50.0148 19.1525C49.998 19.1806 49.9752 19.2046 49.9476 19.2228C49.91 19.2482 49.8652 19.2614 49.82 19.2605Z" fill="#7A7AFB"/>
<path d="M48.6354 13.4253C48.5882 13.4257 48.5422 13.4109 48.5038 13.3831C48.4654 13.3553 48.437 13.316 48.4226 13.2709C48.4082 13.2258 48.4086 13.1773 48.4238 13.1324C48.439 13.0876 48.4682 13.0488 48.507 13.0217L50.329 11.737C50.377 11.7046 50.4358 11.6924 50.493 11.7029C50.5498 11.7134 50.6006 11.7457 50.6338 11.7931C50.6674 11.8404 50.681 11.8989 50.6718 11.9562C50.6626 12.0134 50.6314 12.0647 50.585 12.0992L48.7626 13.3817C48.7258 13.409 48.6814 13.4243 48.6354 13.4253Z" fill="#7A7AFB"/>
<path d="M50.0073 15.6411C49.9597 15.6412 49.9133 15.6259 49.8749 15.5974C49.8365 15.5689 49.8081 15.5287 49.7945 15.483C49.7809 15.4372 49.7821 15.3882 49.7985 15.3433C49.8149 15.2984 49.8453 15.26 49.8853 15.2338L51.7333 14.0163C51.7577 13.9984 51.7853 13.9855 51.8145 13.9786C51.8441 13.9717 51.8745 13.9708 51.9041 13.976C51.9337 13.9812 51.9621 13.9925 51.9873 14.009C52.0125 14.0256 52.0341 14.0471 52.0509 14.0723C52.0673 14.0974 52.0785 14.1257 52.0841 14.1554C52.0893 14.1851 52.0885 14.2155 52.0817 14.2449C52.0749 14.2743 52.0621 14.3019 52.0441 14.3261C52.0261 14.3504 52.0033 14.3707 51.9773 14.3859L50.1293 15.6034C50.0933 15.6277 50.0509 15.6408 50.0073 15.6411Z" fill="#7A7AFB"/>
<path d="M51.2641 18.0387C51.2153 18.039 51.1681 18.0233 51.1289 17.9939C51.0901 17.9646 51.0621 17.9232 51.0489 17.8763C51.0361 17.8293 51.0389 17.7794 51.0569 17.7342C51.0749 17.689 51.1077 17.6511 51.1497 17.6262L53.1121 16.4479C53.1625 16.4177 53.2229 16.4089 53.2801 16.4232C53.3369 16.4375 53.3861 16.474 53.4161 16.5245C53.4465 16.5749 53.4553 16.6353 53.4409 16.6924C53.4265 16.7494 53.3901 16.7984 53.3397 16.8286L51.3757 18.0032C51.3425 18.0248 51.3037 18.0371 51.2641 18.0387Z" fill="#7A7AFB"/>
<path d="M39.3912 11.5553L33.4038 13.6591C33.4038 13.6591 31.3555 8.74268 36.2083 5.1502L42.713 4.74072C42.713 4.74072 39.0135 7.8128 39.3912 11.5553Z" fill="white"/>
<path d="M33.4048 13.8809C33.361 13.8809 33.3181 13.8679 33.2817 13.8435C33.2453 13.8192 33.2169 13.7846 33.2001 13.7441C33.1786 13.6924 32.6693 12.4491 32.7661 10.7393C32.8549 9.16114 33.5016 6.87926 36.0777 4.97358C36.1121 4.94794 36.1532 4.93279 36.196 4.92999L42.7009 4.52047C42.7477 4.51751 42.7941 4.52935 42.8337 4.55439C42.8733 4.57939 42.9037 4.61626 42.9209 4.65974C42.9385 4.70322 42.9413 4.75107 42.9301 4.79643C42.9185 4.84179 42.8929 4.88231 42.8569 4.91227C42.8205 4.94255 39.2518 7.9555 39.6133 11.5347C39.6182 11.5843 39.6063 11.634 39.5795 11.676C39.5527 11.718 39.5125 11.7497 39.4655 11.7661L33.478 13.8698C33.4545 13.8778 33.4297 13.8816 33.4048 13.8809ZM36.2877 5.36758C34.3702 6.80534 33.3309 8.61487 33.2082 10.7452C33.157 11.6351 33.2687 12.5269 33.5379 13.3767L39.1557 11.4031C38.9495 8.44634 41.1145 5.96855 42.1021 5.00095L36.2877 5.36758Z" fill="#7A7AFB"/>
<path d="M13.5234 73.8821L18.9462 71.9409L26.4061 72.3725L21.7506 74.5837L13.5234 73.8821Z" fill="white"/>
<path d="M21.7511 74.809H21.7319L13.5047 74.1074C13.4544 74.103 13.4072 74.0814 13.3708 74.0462C13.3344 74.0114 13.311 73.965 13.3046 73.915C13.2981 73.8646 13.3089 73.8138 13.3352 73.771C13.3615 73.7278 13.4018 73.695 13.4492 73.6778L18.872 71.7366C18.8999 71.7266 18.9295 71.7218 18.9592 71.7234L26.4192 72.1478C26.4685 72.1502 26.5155 72.1695 26.5528 72.2019C26.5902 72.2343 26.6156 72.2782 26.6251 72.3266C26.6346 72.375 26.6276 72.4254 26.6053 72.4694C26.583 72.5134 26.5466 72.5486 26.5019 72.5698L21.845 74.7806C21.8162 74.797 21.7841 74.8066 21.7511 74.809ZM14.5573 73.751L21.7097 74.361L25.5284 72.5471L18.9792 72.1686L14.5573 73.751Z" fill="#7A7AFB"/>
<path d="M8.51562 74.5294L13.9383 72.5874L21.3983 73.019L16.7429 75.2302L8.51562 74.5294Z" fill="white"/>
<path d="M16.7429 75.4521H16.7244L8.49721 74.7513C8.44653 74.7473 8.39877 74.7261 8.36193 74.6909C8.32513 74.6561 8.30141 74.6093 8.29485 74.5589C8.28825 74.5085 8.29917 74.4573 8.32581 74.4141C8.35241 74.3709 8.39309 74.3381 8.44101 74.3209L13.86 72.3793C13.8882 72.3693 13.9181 72.3649 13.948 72.3665L21.408 72.7985C21.457 72.8013 21.5036 72.8205 21.5405 72.8529C21.5774 72.8853 21.6025 72.9293 21.6119 72.9773C21.6213 73.0253 21.6144 73.0753 21.5924 73.1193C21.5703 73.1633 21.5343 73.1985 21.49 73.2197L16.8331 75.4305C16.8048 75.4437 16.7741 75.4513 16.7429 75.4521ZM9.54905 74.3949L16.7015 75.0041L20.5202 73.1909L13.9702 72.8133L9.54905 74.3949Z" fill="#7A7AFB"/>
<path d="M55.7539 73.4964L62.1495 71.5264L70.9475 72.0356L65.4567 74.3228L55.7539 73.4964Z" fill="white"/>
<path d="M65.4561 74.5443H65.4369L55.7349 73.7163C55.6841 73.7115 55.6361 73.6895 55.5997 73.6535C55.5629 73.6175 55.5401 73.5703 55.5345 73.5191C55.5289 73.4683 55.5413 73.4167 55.5693 73.3739C55.5977 73.3311 55.6397 73.2991 55.6885 73.2839L62.0841 71.3139C62.1093 71.3067 62.1361 71.3035 62.1625 71.3051L70.9589 71.8135C71.0089 71.8163 71.0565 71.8359 71.0941 71.8695C71.1313 71.9027 71.1565 71.9475 71.1649 71.9971C71.1737 72.0463 71.1653 72.0975 71.1413 72.1415C71.1173 72.1855 71.0789 72.2199 71.0329 72.2395L65.5421 74.5307C65.5145 74.5411 65.4853 74.5455 65.4561 74.5443ZM56.9105 73.3719L65.4213 74.0971L69.9729 72.2011L62.1765 71.7499L56.9105 73.3719Z" fill="#7A7AFB"/>
<path d="M36.9267 10.8361C36.6101 10.8374 36.2971 10.7695 36.0097 10.637C35.7222 10.5046 35.4671 10.3108 35.2625 10.0693C35.0578 9.82783 34.9085 9.54447 34.825 9.23915C34.7414 8.93383 34.7257 8.61395 34.7789 8.30191C34.8322 7.98987 34.953 7.69323 35.133 7.43287C35.313 7.17251 35.5478 6.95467 35.8209 6.79467C36.094 6.63463 36.3989 6.53635 36.714 6.50663C37.0292 6.47695 37.347 6.51655 37.6452 6.62271C37.7006 6.64215 37.7461 6.68279 37.7716 6.73575C37.7971 6.78871 37.8006 6.84959 37.7812 6.90507L37.3939 8.00795L38.3046 7.27543C38.3502 7.23847 38.4088 7.22119 38.4672 7.22735C38.5252 7.23395 38.5783 7.26315 38.615 7.30867C38.8715 7.62743 39.0326 8.01223 39.0798 8.41867C39.127 8.82511 39.0583 9.23659 38.8816 9.60563C38.7049 9.97467 38.4275 10.2862 38.0813 10.5044C37.7352 10.7225 37.3343 10.8382 36.9252 10.8384L36.9267 10.8361ZM36.9267 6.94131C36.5451 6.94211 36.1745 7.06939 35.8729 7.30327C35.5713 7.53715 35.3558 7.86443 35.2602 8.23387C35.1644 8.60331 35.1939 8.99403 35.3439 9.34495C35.494 9.69583 35.7561 9.98707 36.0894 10.1731C36.4226 10.3591 36.8081 10.4294 37.1856 10.3729C37.563 10.3164 37.911 10.1364 38.1752 9.86099C38.4394 9.58563 38.6049 9.23039 38.6457 8.85095C38.6865 8.47151 38.6003 8.08927 38.4006 7.76403L37.0701 8.83735C37.0325 8.86751 36.9862 8.88459 36.938 8.88607C36.8899 8.88755 36.8425 8.87331 36.8032 8.84551C36.7639 8.81767 36.7347 8.77783 36.72 8.73195C36.7054 8.68607 36.706 8.63663 36.7219 8.59119L37.2889 6.97603C37.1697 6.95199 37.0483 6.94035 36.9267 6.94131Z" fill="#7A7AFB"/>
<path d="M20.957 22.6376C20.957 22.6376 22.1885 20.4813 24.4157 20.8731C26.6429 21.2649 28.8841 24.5425 31.6014 20.8731L31.01 15.6633C26.6961 18.1839 26.1358 14.3741 23.7829 14.4303C21.4301 14.4865 20.0293 17.4839 20.0293 17.4839L20.957 22.6376Z" fill="white"/>
<path d="M20.956 22.859C20.9432 22.8601 20.9303 22.8601 20.9176 22.859C20.8727 22.8512 20.8313 22.8298 20.799 22.7976C20.7668 22.7655 20.7452 22.7242 20.7372 22.6794L19.8102 17.5213C19.802 17.4762 19.808 17.4297 19.8272 17.3882C19.8871 17.2603 21.3145 14.2659 23.7768 14.2097C24.7089 14.1875 25.383 14.7197 26.035 15.2342C27.1371 16.1042 28.2769 17.0038 30.8974 15.4729C30.9292 15.4544 30.9652 15.4441 31.002 15.4429C31.0389 15.4418 31.0754 15.4498 31.1083 15.4663C31.1413 15.4829 31.1696 15.5073 31.1907 15.5375C31.2118 15.5677 31.2251 15.6027 31.2293 15.6393L31.8207 20.8491C31.8271 20.9051 31.812 20.9613 31.7785 21.0066C30.7688 22.3696 29.8078 22.8198 28.8957 22.8198C27.951 22.8198 27.061 22.3356 26.2272 21.881C25.5826 21.5299 24.9742 21.198 24.374 21.0931C22.3309 20.7331 21.1955 22.6668 21.1459 22.7496C21.1265 22.7827 21.0987 22.8102 21.0654 22.8294C21.0321 22.8486 20.9944 22.8588 20.956 22.859ZM23.8832 20.6037C24.0743 20.6041 24.265 20.6211 24.4531 20.6547C25.1243 20.773 25.794 21.1374 26.4416 21.49C28.0478 22.3652 29.5661 23.1901 31.3698 20.8099L30.8294 16.0199C29.8499 16.5485 29.0598 16.7503 28.396 16.7503C27.2443 16.7503 26.4741 16.1427 25.763 15.5809C25.1457 15.0937 24.5625 14.634 23.79 14.6517C21.7839 14.6997 20.4748 17.0992 20.2626 17.5161L21.0816 22.0828C21.5414 21.5129 22.4994 20.6037 23.8802 20.6037H23.8832Z" fill="#7A7AFB"/>
<path d="M67.2213 32.9745C67.2213 32.9745 68.0937 30.9868 66.6861 29.796C65.2789 28.6051 61.8565 29.0198 63.0237 25.2448L66.9465 22.7012C67.3901 26.8444 70.3277 25.0666 71.4881 26.5879C72.6485 28.1091 71.2773 30.6741 71.2773 30.6741L67.2213 32.9745Z" fill="white"/>
<path d="M67.2215 33.1963C67.1671 33.1959 67.1143 33.1754 67.0739 33.1386C67.0395 33.1073 67.0155 33.0661 67.0059 33.0205C66.9963 32.9751 67.0011 32.9277 67.0199 32.8851C67.0531 32.8111 67.8055 31.0327 66.5439 29.9653C66.1743 29.6503 65.6347 29.4515 65.0655 29.2416C63.6611 28.7241 61.9155 28.0781 62.8115 25.1797C62.8267 25.1301 62.8591 25.0875 62.9023 25.0592L66.8263 22.5149C66.8579 22.4942 66.8947 22.482 66.9323 22.4795C66.9703 22.477 67.0083 22.4842 67.0423 22.5005C67.0767 22.5169 67.1063 22.5417 67.1283 22.5727C67.1499 22.6037 67.1635 22.6398 67.1675 22.6775C67.4339 25.1546 68.5723 25.3593 69.7695 25.5767C70.4687 25.7031 71.1919 25.8339 71.6643 26.4533C72.8971 28.0699 71.5319 30.6667 71.4735 30.7791C71.4535 30.816 71.4235 30.8465 71.3871 30.8671L67.3311 33.1674C67.2975 33.1863 67.2599 33.1963 67.2215 33.1963ZM63.2123 25.3867C62.4899 27.8171 63.7555 28.2851 65.2191 28.8254C65.7987 29.0398 66.3975 29.2615 66.8291 29.6267C67.8639 30.5049 67.7679 31.7807 67.5987 32.5059L71.1107 30.5145C71.2939 30.1449 72.2823 27.9945 71.3115 26.7224C70.9419 26.2397 70.3631 26.1311 69.6911 26.0128C68.5567 25.808 67.1567 25.5552 66.7731 23.0782L63.2123 25.3867Z" fill="#7A7AFB"/>
<path d="M25.7207 64.5854H27.0919V53.5034H25.7207V64.5854Z" fill="white"/>
<path d="M27.091 64.8069H25.7198C25.661 64.8069 25.6046 64.7837 25.563 64.7421C25.5214 64.7005 25.498 64.6441 25.498 64.5853V53.5033C25.498 53.4445 25.5214 53.3881 25.563 53.3465C25.6046 53.3049 25.661 53.2817 25.7198 53.2817H27.091C27.1498 53.2817 27.2062 53.3049 27.2478 53.3465C27.2894 53.3881 27.3128 53.4445 27.3128 53.5033V64.5853C27.3128 64.6441 27.2894 64.7005 27.2478 64.7421C27.2062 64.7837 27.1498 64.8069 27.091 64.8069ZM25.9408 64.3637H26.8692V53.7249H25.9416L25.9408 64.3637Z" fill="#7A7AFB"/>
<path d="M30.3024 68.7022C30.2436 68.7022 30.1872 68.679 30.1456 68.6374C30.104 68.5958 30.0807 68.5394 30.0807 68.4806C30.0807 67.5062 29.6937 66.5722 29.0049 65.8834C28.316 65.1946 27.3818 64.8074 26.4076 64.8074C25.4335 64.8074 24.4992 65.1946 23.8104 65.8834C23.1215 66.5722 22.7345 67.5062 22.7345 68.4806C22.7345 68.5394 22.7112 68.5958 22.6696 68.6374C22.628 68.679 22.5716 68.7022 22.5128 68.7022C22.454 68.7022 22.3976 68.679 22.356 68.6374C22.3144 68.5958 22.291 68.5394 22.291 68.4806C22.291 67.3886 22.7247 66.3418 23.4967 65.5698C24.2688 64.7978 25.3158 64.3638 26.4076 64.3638C27.4994 64.3638 28.5465 64.7978 29.3185 65.5698C30.0905 66.3418 30.5242 67.3886 30.5242 68.4806C30.5242 68.5394 30.5008 68.5958 30.4592 68.6374C30.4177 68.679 30.3612 68.7022 30.3024 68.7022Z" fill="#7A7AFB"/>
<path d="M26.4073 68.7026C26.3485 68.7026 26.2921 68.6794 26.2505 68.6378C26.2089 68.5962 26.1855 68.5398 26.1855 68.481V64.5854C26.1855 64.5266 26.2089 64.4702 26.2505 64.4286C26.2921 64.387 26.3485 64.3638 26.4073 64.3638C26.4661 64.3638 26.5225 64.387 26.5641 64.4286C26.6057 64.4702 26.629 64.5266 26.629 64.5854V68.481C26.629 68.5398 26.6057 68.5962 26.5641 68.6378C26.5225 68.6794 26.4661 68.7026 26.4073 68.7026Z" fill="#7A7AFB"/>
<path d="M30.3012 71.1134C30.0284 71.1134 29.7617 71.0322 29.5349 70.8806C29.3081 70.7294 29.1313 70.5138 29.0269 70.2618C28.9225 70.0098 28.8952 69.7322 28.9484 69.465C29.0016 69.1974 29.133 68.9514 29.3259 68.7586C29.5188 68.5658 29.7646 68.4342 30.0321 68.381C30.2997 68.3278 30.577 68.355 30.8291 68.4594C31.0811 68.5638 31.2965 68.7406 31.4481 68.9674C31.5997 69.1946 31.6806 69.461 31.6806 69.7338C31.6802 70.0998 31.5347 70.4502 31.2761 70.709C31.0175 70.9674 30.6669 71.113 30.3012 71.1134ZM30.3012 68.7982C30.1161 68.7982 29.9352 68.853 29.7813 68.9558C29.6274 69.0586 29.5075 69.2046 29.4366 69.3758C29.3658 69.5466 29.3473 69.735 29.3834 69.9166C29.4195 70.0982 29.5086 70.2646 29.6395 70.3958C29.7704 70.5266 29.9371 70.6158 30.1186 70.6518C30.3002 70.6878 30.4884 70.6694 30.6594 70.5986C30.8304 70.5278 30.9765 70.4078 31.0793 70.2538C31.1822 70.0998 31.237 69.919 31.237 69.7338C31.237 69.4854 31.1385 69.2474 30.963 69.0718C30.7876 68.8958 30.5496 68.797 30.3012 68.7966V68.7982Z" fill="#7A7AFB"/>
<path d="M22.509 71.1134C22.2361 71.1134 21.9694 71.0326 21.7425 70.881C21.5155 70.7298 21.3386 70.5142 21.2341 70.2622C21.1296 70.0102 21.1022 69.733 21.1553 69.4654C21.2085 69.1978 21.3398 68.9518 21.5327 68.759C21.7255 68.5658 21.9713 68.4346 22.2388 68.381C22.5064 68.3278 22.7838 68.355 23.0359 68.4594C23.288 68.5638 23.5035 68.7406 23.6551 68.9674C23.8067 69.1942 23.8876 69.461 23.8876 69.7338C23.8872 70.0994 23.7419 70.4498 23.4834 70.7086C23.225 70.967 22.8745 71.1126 22.509 71.1134ZM22.509 68.7982C22.3239 68.7978 22.1428 68.8526 21.9888 68.9554C21.8348 69.0582 21.7148 69.2042 21.6438 69.3754C21.5729 69.5462 21.5543 69.7346 21.5903 69.9162C21.6263 70.0978 21.7154 70.2646 21.8463 70.3954C21.9771 70.5262 22.1438 70.6154 22.3254 70.6518C22.5069 70.6878 22.6951 70.6694 22.8662 70.5986C23.0372 70.5278 23.1834 70.4078 23.2863 70.2538C23.3892 70.0998 23.444 69.919 23.444 69.7338C23.4442 69.4858 23.3459 69.2474 23.1705 69.0718C22.9952 68.8958 22.7573 68.797 22.509 68.7966V68.7982Z" fill="#7A7AFB"/>
<path d="M26.4067 71.1134C26.1339 71.1134 25.8672 71.0322 25.6404 70.8806C25.4135 70.7294 25.2367 70.5138 25.1323 70.2618C25.0279 70.0098 25.0006 69.7322 25.0539 69.465C25.1071 69.1974 25.2384 68.9514 25.4313 68.7586C25.6243 68.5658 25.87 68.4342 26.1376 68.381C26.4051 68.3278 26.6825 68.355 26.9345 68.4594C27.1866 68.5638 27.402 68.7406 27.5535 68.9674C27.7051 69.1946 27.786 69.461 27.786 69.7338C27.7856 70.0998 27.6402 70.4502 27.3816 70.709C27.123 70.9674 26.7724 71.113 26.4067 71.1134ZM26.4067 68.7982C26.2216 68.7982 26.0407 68.853 25.8868 68.9558C25.7329 69.0586 25.6129 69.2046 25.5421 69.3758C25.4713 69.5466 25.4527 69.735 25.4889 69.9166C25.5249 70.0982 25.6141 70.2646 25.7449 70.3958C25.8758 70.5266 26.0426 70.6158 26.2241 70.6518C26.4057 70.6878 26.5938 70.6694 26.7648 70.5986C26.9358 70.5278 27.0819 70.4078 27.1848 70.2538C27.2876 70.0998 27.3425 69.919 27.3425 69.7338C27.3425 69.4854 27.2439 69.2474 27.0685 69.0718C26.893 68.8958 26.655 68.797 26.4067 68.7966V68.7982Z" fill="#7A7AFB"/>
<path d="M22.2682 43.6841C21.4293 40.6421 20.8268 36.5788 17.7902 37.4237C10.7679 39.3796 18.5612 53.8389 22.2394 56.5393C25.6966 59.0769 30.3957 58.0621 31.2376 57.8461C32.0796 57.6305 33.1263 55.4857 33.1263 55.4857L22.2682 43.6841Z" fill="white"/>
<path d="M28.0028 58.4499C27.9074 58.4499 27.8113 58.4499 27.7144 58.4499C25.4932 58.4023 23.6068 57.8199 22.1084 56.7199C20.6248 55.6283 18.5906 52.8547 17.0383 49.8123C15.9628 47.7019 14.2367 43.7051 14.7608 40.6367C15.0624 38.8707 16.0603 37.7183 17.7279 37.2112C18.3932 37.0086 19.0068 37.0574 19.5464 37.359C21.0129 38.1721 21.6944 40.7011 22.2954 42.9319C22.3538 43.1499 22.4122 43.3659 22.4699 43.5763L33.2917 55.3383C33.322 55.3711 33.3416 55.4127 33.348 55.4567C33.3545 55.5007 33.3475 55.5459 33.3279 55.5863C33.2155 55.8147 32.2102 57.8295 31.2951 58.0639C30.2169 58.3231 29.1116 58.4527 28.0028 58.4499ZM18.507 37.5305C18.2855 37.533 18.0656 37.5681 17.8543 37.6348C16.3612 38.0894 15.4668 39.1235 15.1932 40.7107C14.3639 45.5715 19.5619 54.2983 22.3686 56.3591C25.8295 58.8999 30.6432 57.7683 31.1805 57.6307C31.6913 57.4999 32.4482 56.3215 32.857 55.5227L22.1047 43.8367C22.081 43.8107 22.0638 43.7795 22.0544 43.7455C21.9916 43.5179 21.9288 43.2843 21.8652 43.0471C21.2872 40.9035 20.6315 38.4693 19.329 37.7471C19.0783 37.6053 18.7951 37.531 18.507 37.5312V37.5305Z" fill="#7A7AFB"/>
<path d="M51.6562 25.7899C51.1478 27.6191 50.3294 29.3477 49.237 30.9007C48.9354 34.247 46.3982 35.9235 43.5806 36.6989C41.7326 37.2075 38.9732 37.4071 36.6603 38.2342C37.1075 39.8449 37.962 41.6663 39.5926 42.8019C43.7566 45.6911 46.281 46.2531 46.3982 47.0375C46.5122 47.7951 40.3526 47.5771 35.9314 44.3119C34.5506 43.2919 33.5379 42.3451 32.7979 41.5251C32.5296 42.2103 32.3958 43.0235 32.4343 43.9843C32.5821 47.6427 42.7134 49.4923 44.0138 54.3599C45.745 60.8375 38.8394 67.3607 38.8394 67.3607C38.8394 67.3607 42.1094 69.5199 41.9618 70.0019C41.8414 70.3935 39.0848 70.0543 39.0848 70.0543C39.0848 70.0543 40.0034 71.1527 39.8299 71.3731C39.3938 71.9267 34.1226 70.1839 33.9984 69.8571C33.7885 69.3063 36.7245 60.5075 32.8283 58.0639C27.1135 54.4803 20.8134 57.1767 19.2197 46.7335C18.635 42.8999 19.7933 39.2861 21.1416 36.0026C20.3458 35.387 19.6133 34.6937 18.9551 33.9328C16.5823 31.2126 16.6133 28.5545 16.6133 28.5545L17.5839 27.8375C17.5839 27.8375 17.4619 26.4965 18.0946 26.4234C18.7274 26.3502 17.229 28.6409 21.2525 31.6717C21.759 32.0522 22.3079 32.3727 22.8883 32.6267C25.4755 28.5338 29.3415 25.3331 33.5505 23.6299C34.3238 23.3157 35.1134 23.0431 35.9159 22.8131C36.6166 21.6755 37.5916 19.6775 37.653 17.2995C37.7816 12.2648 35.4761 12.4119 35.9269 11.961C36.3779 11.5101 37.4349 12.4836 37.4349 12.4836L38.4742 12.114C38.4742 12.114 40.227 13.5651 41.1922 17.2004C41.6118 18.8229 41.8202 20.4927 41.8118 22.1686C44.6774 22.4391 46.8058 23.6639 47.9626 25.3656C48.4674 25.1265 48.9298 24.8067 49.3314 24.4187C51.2082 22.5455 49.4054 19.9502 49.9286 19.8098C50.4522 19.6693 50.9858 20.9689 50.9858 20.9689L51.8542 20.6103C51.8542 20.6103 52.4922 22.7008 51.6562 25.7899Z" fill="#12126B"/>
<path d="M53.3546 30.8409L46.5098 33.1827L54.1234 32.8678C54.1234 32.8678 52.0774 36.6051 55.3366 37.5062C58.2642 38.3149 58.4966 35.0743 58.4966 35.0743C58.4966 35.0743 61.5058 35.4343 61.7762 33.0474C62.047 30.6606 59.5698 30.8409 59.5698 30.8409C59.5698 30.8409 61.3262 29.7602 60.4702 28.1391C59.6142 26.5181 58.1282 27.3734 58.1282 27.3734C58.1282 27.3734 58.849 24.8061 56.1022 24.6265C53.3554 24.4469 53.9402 26.9232 53.9402 26.9232C53.9402 26.9232 52.4986 26.6075 51.7334 28.1842C50.9686 29.7609 53.3546 30.8409 53.3546 30.8409Z" fill="white"/>
<path d="M56.2159 37.858C55.8983 37.8542 55.5827 37.8077 55.2775 37.7198C54.3739 37.4699 53.7655 36.9887 53.4691 36.288C52.9851 35.1445 53.4783 33.7429 53.7599 33.1043L45.7027 33.4384C45.6483 33.4409 45.5955 33.4235 45.5531 33.3895C45.5111 33.3556 45.4827 33.3074 45.4739 33.2541C45.4647 33.2008 45.4755 33.146 45.5039 33.1C45.5323 33.054 45.5767 33.0201 45.6287 33.0045L52.7899 30.7869C52.3391 30.5067 51.6959 30.0093 51.4595 29.3447C51.3839 29.1416 51.3515 28.925 51.3643 28.7087C51.3771 28.4923 51.4347 28.281 51.5331 28.0881C52.1423 26.8315 53.1675 26.6733 53.6771 26.6799C53.6399 26.2874 53.6511 25.5845 54.0999 25.0537C54.5151 24.5629 55.1931 24.3448 56.1139 24.4047C57.0091 24.4638 57.6599 24.7706 58.0463 25.3169C58.4515 25.8897 58.4619 26.5839 58.4159 27.017C58.7667 26.9053 59.1419 26.8965 59.4975 26.9919C59.9807 27.1316 60.3739 27.4827 60.6659 28.0349C61.2523 29.1437 60.7399 30.0921 60.1643 30.6509C60.5751 30.7123 61.1119 30.8727 61.5051 31.2822C61.9167 31.7109 62.0815 32.3133 61.9959 33.0717C61.9219 33.7429 61.6359 34.2774 61.1523 34.6603C60.3327 35.3093 59.1723 35.3329 58.6903 35.31C58.6163 35.7779 58.3627 36.8675 57.5207 37.4626C57.1383 37.7281 56.6819 37.8665 56.2159 37.858ZM54.1203 32.646C54.1591 32.646 54.1967 32.656 54.2303 32.6751C54.2635 32.6942 54.2915 32.7216 54.3111 32.7547C54.3307 32.7878 54.3415 32.8255 54.3419 32.8639C54.3427 32.9024 54.3335 32.9404 54.3147 32.9742C54.3051 32.9919 53.3259 34.8148 53.8779 36.1165C54.1191 36.6849 54.6299 37.0811 55.3955 37.2925C56.1615 37.504 56.7875 37.4404 57.2659 37.1004C58.1647 36.4661 58.2747 35.072 58.2755 35.0587C58.2775 35.0288 58.2859 34.9996 58.2995 34.9729C58.3131 34.9462 58.3323 34.9226 58.3555 34.9035C58.3783 34.8843 58.4051 34.87 58.4343 34.8615C58.4631 34.8529 58.4931 34.8504 58.5231 34.8539C58.5371 34.8539 59.9903 35.0173 60.8795 34.3121C61.2663 34.0053 61.4939 33.5729 61.5559 33.023C61.6263 32.4021 61.5019 31.9208 61.1863 31.5919C60.6179 31.0005 59.5951 31.0611 59.5847 31.0619C59.5351 31.0651 59.4863 31.0517 59.4455 31.0239C59.4047 30.9961 59.3743 30.9555 59.3591 30.9084C59.3439 30.8614 59.3451 30.8107 59.3619 30.7643C59.3791 30.7179 59.4111 30.6785 59.4531 30.6524C59.5167 30.6125 61.0207 29.6581 60.2735 28.2426C60.0407 27.7991 59.7375 27.5241 59.3739 27.4184C58.7943 27.2513 58.2439 27.5625 58.2387 27.5662C58.2003 27.5883 58.1563 27.5985 58.1123 27.5955C58.0683 27.5925 58.0263 27.5765 57.9915 27.5494C57.9567 27.5223 57.9307 27.4855 57.9167 27.4436C57.9031 27.4017 57.9019 27.3566 57.9139 27.3142C57.9139 27.3045 58.1911 26.2852 57.6843 25.5719C57.3783 25.1409 56.8407 24.8977 56.0867 24.8482C55.3143 24.7979 54.7615 24.9628 54.4419 25.339C53.9431 25.9259 54.1531 26.864 54.1551 26.8729C54.1639 26.9093 54.1631 26.9474 54.1531 26.9835C54.1427 27.0196 54.1239 27.0526 54.0975 27.0793C54.0711 27.106 54.0387 27.1257 54.0027 27.1363C53.9667 27.1471 53.9287 27.1485 53.8919 27.1405C53.8411 27.1294 52.6079 26.8891 51.9323 28.2818C51.8591 28.4207 51.8159 28.5736 51.8059 28.7304C51.7955 28.8872 51.8187 29.0444 51.8735 29.1917C52.1875 30.0617 53.4331 30.6339 53.4455 30.6398C53.4867 30.6583 53.5211 30.6889 53.5443 30.7275C53.5675 30.7661 53.5783 30.8108 53.5755 30.8557C53.5727 30.9006 53.5563 30.9437 53.5287 30.979C53.5007 31.0144 53.4627 31.0405 53.4199 31.0537L47.3843 32.9254L54.1107 32.6467L54.1203 32.646Z" fill="#7A7AFB"/>
<path d="M57.2277 32.324C57.1749 32.3246 57.1237 32.3063 57.0829 32.2726C57.0425 32.2388 57.0153 32.1917 57.0065 32.1397C56.9977 32.0877 57.0073 32.0342 57.0345 31.9889C57.0613 31.9435 57.1037 31.9093 57.1537 31.8923C57.5297 31.7637 58.0117 31.5227 58.1661 31.091C58.2881 30.7532 58.1957 30.3289 57.8913 29.8344C57.3989 29.0264 56.7705 29.0634 56.4381 29.1573C55.9341 29.2985 55.5569 29.7117 55.5569 29.9859C55.5569 30.0447 55.5337 30.1011 55.4921 30.1427C55.4505 30.1843 55.3941 30.2077 55.3353 30.2077C55.2765 30.2077 55.2201 30.1843 55.1785 30.1427C55.1369 30.1011 55.1133 30.0447 55.1133 29.9859C55.1133 29.4803 55.6537 28.917 56.3177 28.7293C56.6829 28.6265 57.6029 28.5075 58.2713 29.5993C58.6497 30.2173 58.7545 30.7695 58.5853 31.2403C58.4161 31.7112 57.9705 32.0815 57.2985 32.3114C57.2757 32.3194 57.2517 32.3237 57.2277 32.324Z" fill="#7A7AFB"/>
<path d="M58.4954 35.2961H58.4722C58.4142 35.29 58.3606 35.261 58.3238 35.2156C58.2866 35.1702 58.269 35.112 58.275 35.0536C58.295 34.8548 58.2994 34.2864 58.0834 34.0439C58.0442 33.9999 58.0242 33.9421 58.0278 33.8833C58.031 33.8244 58.0578 33.7693 58.1018 33.7301C58.1458 33.6909 58.2034 33.6708 58.2622 33.6742C58.321 33.6776 58.3762 33.7042 58.4154 33.7482C58.7982 34.1792 58.725 35.0049 58.7162 35.0973C58.7106 35.1519 58.685 35.2025 58.6442 35.2392C58.6034 35.276 58.5502 35.2962 58.4954 35.2961Z" fill="#7A7AFB"/>
<path d="M54.6028 27.6486C54.566 27.6486 54.53 27.6396 54.4976 27.6221C54.4652 27.6047 54.4376 27.5795 54.4172 27.5488C54.1668 27.1659 53.9412 27.1444 53.9316 27.1437H53.94V26.7002C53.9864 26.7002 54.4024 26.7172 54.7884 27.3048C54.8104 27.3383 54.8232 27.3771 54.8248 27.4171C54.8264 27.4572 54.8176 27.4969 54.7984 27.5322C54.7792 27.5674 54.7512 27.5968 54.7168 27.6174C54.6824 27.6378 54.6428 27.6486 54.6028 27.6486Z" fill="#7A7AFB"/>
<path d="M53.8704 68.4686H55.036L55.016 49.0078H53.8496L53.8704 68.4686Z" fill="white"/>
<path d="M55.0369 68.6907H53.8705C53.8117 68.6907 53.7553 68.6671 53.7137 68.6255C53.6721 68.5839 53.6485 68.5275 53.6485 68.4687L53.6289 49.0111C53.6285 48.9819 53.6345 48.9527 53.6457 48.9259C53.6565 48.8987 53.6729 48.8743 53.6937 48.8535C53.7353 48.8123 53.7917 48.7891 53.8505 48.7891H55.0169C55.0757 48.7891 55.1321 48.8127 55.1737 48.8543C55.2153 48.8959 55.2385 48.9523 55.2385 49.0111L55.2593 68.4711C55.2593 68.5299 55.2361 68.5863 55.1945 68.6279C55.1529 68.6695 55.0965 68.6927 55.0377 68.6927L55.0369 68.6907ZM54.0921 68.2471H54.8113L54.7945 49.2327H54.0721L54.0921 68.2471Z" fill="#7A7AFB"/>
<path d="M49.4785 70.5756H59.4605L55.0921 68.4688H53.7741L49.4785 70.5756Z" fill="white"/>
<path d="M59.4599 70.7971H49.4807C49.4307 70.7971 49.3823 70.7799 49.3431 70.7491C49.3043 70.7179 49.2767 70.6743 49.2655 70.6255C49.2543 70.5767 49.2595 70.5259 49.2811 70.4807C49.3023 70.4355 49.3383 70.3987 49.3835 70.3767L53.6787 68.2691C53.7091 68.2543 53.7427 68.2467 53.7763 68.2471H55.0943C55.1279 68.2471 55.1607 68.2543 55.1911 68.2683L59.5567 70.3735C59.6019 70.3955 59.6383 70.4323 59.6603 70.4775C59.6819 70.5227 59.6875 70.5739 59.6763 70.6231C59.6651 70.6719 59.6375 70.7155 59.5983 70.7467C59.5591 70.7779 59.5103 70.7951 59.4599 70.7951V70.7971ZM50.4335 70.3539H58.4911L55.0419 68.6907H53.8251L50.4335 70.3539Z" fill="#7A7AFB"/>
<path d="M42.4531 50.091H66.4323V48.665H42.4531V50.091Z" fill="white"/>
<path d="M66.4336 50.3126H42.4544C42.3956 50.3126 42.3392 50.2894 42.2976 50.2478C42.256 50.2062 42.2324 50.1498 42.2324 50.091V48.665C42.2324 48.6062 42.256 48.5498 42.2976 48.5082C42.3392 48.4666 42.3956 48.4434 42.4544 48.4434H66.4336C66.4924 48.4434 66.5488 48.4666 66.5904 48.5082C66.632 48.5498 66.6556 48.6062 66.6556 48.665V50.091C66.6556 50.1498 66.632 50.2062 66.5904 50.2478C66.5488 50.2894 66.4924 50.3126 66.4336 50.3126ZM42.676 49.869H66.212V48.8866H42.676V49.869Z" fill="#7A7AFB"/>
<path d="M52.8788 50.3126H42.456C42.3972 50.3126 42.3408 50.2894 42.2992 50.2478C42.2576 50.2062 42.2344 50.1498 42.2344 50.091V48.665C42.2344 48.6062 42.2576 48.5498 42.2992 48.5082C42.3408 48.4666 42.3972 48.4434 42.456 48.4434H52.8788C52.9376 48.4434 52.994 48.4666 53.0356 48.5082C53.0772 48.5498 53.1004 48.6062 53.1004 48.665V50.091C53.1004 50.1498 53.0772 50.2062 53.0356 50.2478C52.994 50.2894 52.9376 50.3126 52.8788 50.3126ZM42.678 49.869H52.6572V48.8866H42.678V49.869Z" fill="#7A7AFB"/>
<path d="M43.6289 48.623L61.8505 48.6674L61.8533 47.5742L43.6313 47.5298L43.6289 48.623Z" fill="white"/>
<path d="M61.8518 48.8866L43.6302 48.841C43.5714 48.841 43.515 48.8178 43.4734 48.7762C43.4318 48.7346 43.4082 48.6782 43.4082 48.6194V47.5258C43.4082 47.467 43.4318 47.4106 43.4734 47.369C43.515 47.3274 43.5714 47.3042 43.6302 47.3042L61.8518 47.3494C61.9106 47.3494 61.967 47.3726 62.0086 47.4142C62.0502 47.4558 62.0738 47.5122 62.0738 47.571V48.6642C62.0738 48.723 62.0502 48.7794 62.0086 48.821C61.967 48.8626 61.9106 48.8862 61.8518 48.8862V48.8866ZM43.8526 48.3982L61.6302 48.4426V47.7922L43.8518 47.7478L43.8526 48.3982Z" fill="#7A7AFB"/>
<path d="M50.9141 47.5434L61.8549 47.571L65.3689 38.6133L54.4281 38.5859L50.9141 47.5434Z" fill="white"/>
<path d="M61.8547 47.7928L50.9147 47.7656C50.8787 47.7656 50.8431 47.7568 50.8111 47.74C50.7795 47.7228 50.7523 47.6984 50.7319 47.6688C50.7115 47.6392 50.6987 47.6048 50.6947 47.5688C50.6907 47.5332 50.6955 47.4968 50.7083 47.4632L54.2211 38.5057C54.2375 38.4644 54.2663 38.4291 54.3031 38.4043C54.3399 38.3796 54.3835 38.3665 54.4279 38.3667L65.3683 38.3941C65.4043 38.3942 65.4395 38.4031 65.4715 38.4201C65.5035 38.437 65.5307 38.4615 65.5507 38.4913C65.5711 38.5212 65.5839 38.5556 65.5879 38.5914C65.5915 38.6273 65.5867 38.6635 65.5735 38.6971L62.0619 47.6524C62.0455 47.694 62.0167 47.7296 61.9799 47.7548C61.9431 47.7796 61.8995 47.7932 61.8547 47.7928ZM51.2391 47.3228L61.7039 47.3496L65.0435 38.8346L54.5787 38.8102L51.2391 47.3228Z" fill="#7A7AFB"/>
<path d="M58.2532 44.8716C58.1468 44.872 58.0416 44.8464 57.9468 44.7976C57.4764 44.5524 57.3296 43.7584 57.6124 42.9896C57.79 42.5076 58.1004 42.1404 58.4432 42.0072C58.536 41.968 58.6364 41.95 58.7368 41.9536C58.8376 41.9572 58.936 41.9828 59.026 42.0288C59.4968 42.2732 59.644 43.0636 59.3608 43.836C59.1832 44.3188 58.872 44.686 58.53 44.8184C58.442 44.8532 58.348 44.8712 58.2532 44.8716ZM58.7192 42.3968C58.6792 42.3972 58.64 42.4052 58.6032 42.4204C58.3812 42.5056 58.1596 42.79 58.0288 43.1428C57.8108 43.734 57.9184 44.2816 58.1512 44.4028C58.186 44.4196 58.224 44.4284 58.2624 44.4284C58.3008 44.4284 58.3384 44.4196 58.3732 44.4028C58.5948 44.318 58.8168 44.0332 58.9484 43.6808C59.17 43.0892 59.0584 42.5408 58.8248 42.4196C58.7924 42.402 58.756 42.3932 58.7192 42.3932V42.3968Z" fill="#7A7AFB"/>
<path d="M50.913 48.8633C50.8542 48.8633 50.7978 48.8401 50.7562 48.7985C50.7146 48.7569 50.6914 48.7005 50.6914 48.6417V47.5477C50.6914 47.4889 50.7146 47.4325 50.7562 47.3909C50.7978 47.3493 50.8542 47.3257 50.913 47.3257C50.9718 47.3257 51.0282 47.3493 51.0698 47.3909C51.1114 47.4325 51.1346 47.4889 51.1346 47.5477V48.6417C51.1346 48.7005 51.1114 48.7569 51.0698 48.7985C51.0282 48.8401 50.9718 48.8633 50.913 48.8633Z" fill="#7A7AFB"/>
<path d="M49.5389 30.9466C50.1337 30.18 49.9661 29.0541 49.1641 28.4319C48.3625 27.8097 47.2301 27.9268 46.6353 28.6935C46.0405 29.4602 46.2081 30.586 47.0101 31.2082C47.8117 31.8304 48.9441 31.7133 49.5389 30.9466Z" fill="white"/>
<path d="M48.1645 31.8322C47.6613 31.8297 47.1749 31.6481 46.7933 31.3199C46.4113 30.9918 46.1589 30.5385 46.0809 30.0411C46.0393 29.7813 46.0513 29.5157 46.1165 29.2609C46.1817 29.006 46.2985 28.7672 46.4601 28.5593C46.6213 28.3514 46.8233 28.1788 47.0541 28.0523C47.2849 27.9257 47.5389 27.8479 47.8009 27.8235C48.3385 27.7693 48.8765 27.9254 49.3013 28.2589C50.1981 28.9553 50.3837 30.223 49.7145 31.0849C49.5309 31.3198 49.2953 31.5094 49.0265 31.639C48.7577 31.7686 48.4629 31.8347 48.1645 31.8322ZM48.0109 28.2567C47.9549 28.2567 47.8993 28.2597 47.8437 28.2656C47.6417 28.2844 47.4457 28.3444 47.2677 28.4419C47.0897 28.5394 46.9337 28.6724 46.8089 28.8325C46.6845 28.9928 46.5937 29.1769 46.5429 29.3734C46.4921 29.5699 46.4821 29.7747 46.5133 29.9753C46.5773 30.3968 46.8021 30.7771 47.1409 31.0361C47.8445 31.5823 48.8409 31.4796 49.3585 30.8143C49.8757 30.1491 49.7281 29.1571 49.0237 28.6108C48.7345 28.3836 48.3785 28.259 48.0109 28.2567Z" fill="#7A7AFB"/>
<path d="M48.2249 30.9283C48.3889 30.9283 48.5221 30.7952 48.5221 30.6311C48.5221 30.467 48.3889 30.334 48.2249 30.334C48.0605 30.334 47.9277 30.467 47.9277 30.6311C47.9277 30.7952 48.0605 30.9283 48.2249 30.9283Z" fill="#7A7AFB"/>
<path d="M47.1995 29.6685C47.9791 28.6638 47.7595 27.1883 46.7087 26.3729C45.6575 25.5575 44.1739 25.711 43.3943 26.7157C42.6147 27.7204 42.8347 29.1958 43.8855 30.0112C44.9363 30.8266 46.4199 30.6732 47.1995 29.6685Z" fill="white"/>
<path d="M45.3965 30.7583C44.7993 30.7569 44.2197 30.5566 43.7489 30.1891C42.6033 29.302 42.3661 27.6817 43.2189 26.5825C44.0721 25.4833 45.6989 25.3111 46.8449 26.2004C47.3937 26.6201 47.7585 27.2365 47.8625 27.9197C47.9149 28.2507 47.8989 28.5889 47.8153 28.9135C47.7321 29.238 47.5829 29.5421 47.3777 29.8069C47.1425 30.1067 46.8417 30.3485 46.4981 30.5135C46.1545 30.6784 45.7777 30.7622 45.3965 30.7583ZM45.1965 26.074C44.8837 26.071 44.5745 26.1397 44.2925 26.2749C44.0105 26.4101 43.7633 26.6081 43.5701 26.8538C42.8673 27.7608 43.0697 29.0995 44.0217 29.8387C44.9737 30.5779 46.3213 30.4419 47.0249 29.5349C47.1937 29.3169 47.3157 29.0667 47.3841 28.7998C47.4521 28.5328 47.4653 28.2547 47.4221 27.9826C47.3373 27.4523 47.0673 26.9692 46.6597 26.6193C46.2525 26.2694 45.7341 26.0754 45.1969 26.0717L45.1965 26.074Z" fill="#7A7AFB"/>
<path d="M44.9027 27.2315C45.0667 27.2315 45.1999 27.0984 45.1999 26.9344C45.1999 26.7702 45.0667 26.6372 44.9027 26.6372C44.7387 26.6372 44.6055 26.7702 44.6055 26.9344C44.6055 27.0984 44.7387 27.2315 44.9027 27.2315Z" fill="#7A7AFB"/>
<path d="M45.3957 35.1594C45.3457 35.1596 45.2961 35.1541 45.2477 35.1431C44.8737 35.0604 44.7253 34.7964 44.6173 34.6035C44.5361 34.4594 44.4813 34.3692 44.3801 34.3212C44.0681 34.1733 43.6245 34.2428 43.6201 34.2472C43.5621 34.257 43.5025 34.2434 43.4545 34.2093C43.4065 34.1752 43.3741 34.1234 43.3645 34.0654C43.3545 34.0074 43.3681 33.9478 43.4021 33.8998C43.4365 33.8519 43.4881 33.8194 43.5461 33.8096C43.5697 33.8059 44.1293 33.7158 44.5685 33.9242C44.8021 34.0343 44.9129 34.2317 45.0017 34.3899C45.1073 34.5762 45.1701 34.676 45.3425 34.7144C45.5641 34.7624 45.8397 34.4187 46.0349 33.8532C46.3405 32.9721 46.3101 31.9905 46.0637 31.8722C45.7305 31.7118 45.3321 31.9646 44.8813 32.2862C44.8049 32.3454 44.7165 32.3873 44.6225 32.409C44.5285 32.4307 44.4309 32.4316 44.3365 32.4118C43.9881 32.3327 43.7857 31.9808 43.7633 31.941C43.7349 31.8895 43.7281 31.8288 43.7441 31.7722C43.7605 31.7157 43.7985 31.6679 43.8501 31.6394C43.9013 31.6108 43.9621 31.6039 44.0185 31.6201C44.0753 31.6364 44.1229 31.6744 44.1517 31.7258C44.1833 31.7828 44.3037 31.9476 44.4353 31.9794C44.4685 31.9852 44.5029 31.9834 44.5353 31.974C44.5677 31.9647 44.5973 31.948 44.6225 31.9254C45.0585 31.6127 45.6573 31.1862 46.2529 31.4723C46.8805 31.7739 46.7425 33.1576 46.4513 33.9981C46.1977 34.7447 45.8161 35.1594 45.3957 35.1594Z" fill="#7A7AFB"/>
<path d="M46.0693 33.2689C46.1361 32.9164 46.0217 32.5984 45.8129 32.5588C45.6045 32.5191 45.3809 32.7727 45.3141 33.1252C45.2469 33.4778 45.3617 33.7957 45.5701 33.8354C45.7785 33.875 46.0021 33.6214 46.0693 33.2689Z" fill="#7A7AFB"/>
<path d="M26.1185 33.4074C24.921 33.4074 23.1018 32.9513 23.025 32.9321C22.9679 32.9177 22.9189 32.8812 22.8888 32.8307C22.8586 32.7802 22.8498 32.7197 22.8642 32.6627C22.8786 32.6056 22.9151 32.5566 22.9656 32.5265C23.0161 32.4963 23.0766 32.4875 23.1336 32.5019C23.1521 32.5071 24.9764 32.9639 26.1185 32.9639C27.1534 32.9639 27.8556 32.473 28.6 31.9534C29.3088 31.4596 30.0414 30.9488 31.0607 30.9045C31.0899 30.9033 31.1189 30.9078 31.1463 30.9178C31.1737 30.9278 31.1988 30.9432 31.2202 30.9629C31.2417 30.9826 31.259 31.0064 31.2713 31.0328C31.2836 31.0593 31.2905 31.0879 31.2917 31.117C31.293 31.1461 31.2884 31.1752 31.2784 31.2026C31.2684 31.23 31.253 31.2551 31.2333 31.2765C31.2136 31.298 31.1898 31.3153 31.1634 31.3276C31.1369 31.3398 31.1084 31.3468 31.0792 31.348C30.1922 31.3864 29.5402 31.8388 28.8535 32.3178C28.0855 32.853 27.2908 33.4074 26.1185 33.4074Z" fill="#7A7AFB"/>
<path d="M26.4691 37.8972C23.3083 37.8972 21.2748 36.3855 21.1794 36.3131C21.1326 36.2775 21.1018 36.2248 21.0938 36.1664C21.0859 36.1082 21.1014 36.0491 21.137 36.0022C21.1725 35.9554 21.2253 35.9246 21.2836 35.9166C21.3418 35.9086 21.4009 35.9242 21.4478 35.9597C21.4729 35.9782 23.9928 37.8447 27.6836 37.376C27.7128 37.3716 27.7427 37.373 27.7713 37.3803C27.8 37.3876 27.8269 37.4005 27.8505 37.4183C27.8741 37.4361 27.8939 37.4584 27.9087 37.484C27.9236 37.5096 27.9331 37.5379 27.9369 37.5672C27.9406 37.5965 27.9384 37.6263 27.9305 37.6548C27.9226 37.6832 27.909 37.7098 27.8907 37.733C27.8723 37.7562 27.8495 37.7754 27.8236 37.7897C27.7977 37.8039 27.7692 37.8128 27.7398 37.8158C27.3184 37.8698 26.894 37.8969 26.4691 37.8972Z" fill="#7A7AFB"/>
<path d="M36.5458 38.2974C36.5114 38.2974 36.4774 38.2894 36.4466 38.274C36.4158 38.2586 36.3891 38.2362 36.3684 38.2086C35.8369 37.499 35.5146 36.6349 35.23 35.8735C34.8205 34.7758 34.4672 33.8282 33.6519 33.6131C33.6237 33.6056 33.5972 33.5928 33.574 33.5751C33.5508 33.5574 33.5313 33.5354 33.5166 33.5102C33.4869 33.4593 33.4787 33.3988 33.4937 33.3418C33.5087 33.2848 33.5457 33.2362 33.5965 33.2065C33.6474 33.1768 33.708 33.1686 33.7649 33.1836C34.7998 33.4578 35.2123 34.5556 35.6455 35.7183C35.933 36.4878 36.2294 37.2839 36.7232 37.9426C36.7479 37.9755 36.7629 38.0147 36.7667 38.0557C36.7703 38.0967 36.7625 38.1379 36.7441 38.1748C36.7257 38.2116 36.6974 38.2426 36.6624 38.2642C36.6273 38.2859 36.587 38.2974 36.5458 38.2974Z" fill="#7A7AFB"/>
<path d="M32.6509 41.5922C32.62 41.5922 32.5896 41.5854 32.5614 41.5726C32.5333 41.5598 32.5081 41.5414 32.4875 41.5186L31.0099 39.9189C30.97 39.8755 30.949 39.8181 30.9514 39.7593C30.9538 39.7005 30.9795 39.645 31.0228 39.6051C31.0662 39.5652 31.1236 39.5441 31.1824 39.5466C31.2412 39.549 31.2967 39.5747 31.3366 39.618L32.815 41.2226C32.8434 41.2546 32.862 41.2938 32.8687 41.3358C32.8754 41.3778 32.8698 41.421 32.8527 41.4598C32.8356 41.499 32.8076 41.5322 32.772 41.5558C32.7365 41.579 32.695 41.5918 32.6524 41.5922H32.6509Z" fill="#7A7AFB"/>
<path d="M38.942 70.1154C38.9109 70.1154 38.8801 70.109 38.8517 70.0962C38.8233 70.0834 38.7979 70.065 38.7772 70.0418C38.2479 69.4502 37.0031 68.0642 36.9078 67.8698C36.8339 67.7162 36.8205 67.6962 38.1378 65.0246C39.1978 62.8758 40.6512 59.933 40.9652 58.7822C41.4736 56.9254 41.0488 55.5298 39.5437 54.115C39.5021 54.0742 39.478 54.019 39.4767 53.961C39.4755 53.903 39.4971 53.8466 39.5369 53.8042C39.5767 53.7618 39.6316 53.7366 39.6897 53.7346C39.7478 53.7322 39.8045 53.753 39.8475 53.7918C41.4892 55.3346 41.9512 56.8626 41.3924 58.8998C41.0656 60.0914 39.6036 63.0562 38.5362 65.2214C38.0018 66.3034 37.4511 67.4198 37.3417 67.7242C37.5375 67.9806 38.3625 68.9182 39.1069 69.7446C39.1264 69.7662 39.1415 69.7914 39.1512 69.819C39.161 69.8462 39.1652 69.8754 39.1637 69.9046C39.1622 69.9338 39.155 69.9622 39.1424 69.9886C39.1299 70.015 39.1123 70.0382 39.0906 70.0578C39.0499 70.095 38.997 70.1154 38.942 70.1154Z" fill="#7A7AFB"/>
<path d="M45.4468 47.7542C45.388 47.7574 45.3304 47.7374 45.2864 47.6982C45.2424 47.659 45.216 47.6038 45.2128 47.545C45.2092 47.4862 45.2296 47.4286 45.2688 47.3846C45.308 47.3406 45.3628 47.3142 45.422 47.3106C45.4648 47.305 45.6648 47.2702 45.6848 47.1022C45.566 46.9722 44.9456 46.7254 44.318 46.561C44.29 46.5538 44.2636 46.541 44.2404 46.5234C44.2172 46.5058 44.1976 46.4838 44.1828 46.4586C44.168 46.4334 44.1584 46.4058 44.1544 46.3766C44.1504 46.3478 44.1524 46.3186 44.1596 46.2902C44.1672 46.2622 44.18 46.2358 44.1976 46.2122C44.2152 46.189 44.2372 46.1698 44.2624 46.155C44.2876 46.1402 44.3152 46.1306 44.344 46.1266C44.3728 46.1226 44.4024 46.1242 44.4304 46.1318C46.1308 46.5754 46.1308 46.9486 46.1308 47.0706C46.1308 47.5518 45.7012 47.7262 45.472 47.7514L45.4468 47.7542Z" fill="#7A7AFB"/>
<path d="M36.1227 22.9663C36.0699 22.9669 36.0187 22.9487 35.9782 22.9149C35.9377 22.8811 35.9105 22.834 35.9016 22.782C35.8927 22.73 35.9027 22.6765 35.9296 22.6312C35.9566 22.5859 35.9989 22.5516 36.0488 22.5346C38.429 21.7126 41.5061 21.9063 41.6365 21.9152C41.6953 21.9191 41.7501 21.9462 41.7889 21.9906C41.8277 22.0349 41.8473 22.0929 41.8433 22.1517C41.8393 22.2105 41.8121 22.2654 41.7681 22.3042C41.7237 22.343 41.6657 22.3626 41.6069 22.3587C41.5757 22.3587 38.4874 22.1621 36.1937 22.9545C36.1708 22.9623 36.1469 22.9663 36.1227 22.9663Z" fill="#7A7AFB"/>
<path d="M49.1655 28.6564C49.1103 28.6567 49.0567 28.636 49.0155 28.5987C48.9743 28.5613 48.9487 28.5099 48.9439 28.4546C48.8419 27.4573 48.4859 26.5028 47.9091 25.6827C47.8895 25.6599 47.8747 25.6334 47.8659 25.6047C47.8567 25.5761 47.8535 25.5459 47.8567 25.516C47.8595 25.4862 47.8687 25.4572 47.8831 25.4309C47.8975 25.4046 47.9175 25.3816 47.9411 25.3631C47.9647 25.3447 47.9919 25.3313 48.0211 25.3236C48.0499 25.316 48.0803 25.3144 48.1099 25.3188C48.1399 25.3233 48.1683 25.3337 48.1939 25.3495C48.2195 25.3653 48.2415 25.3861 48.2587 25.4106C48.8903 26.296 49.2779 27.3321 49.3823 28.4147C49.3847 28.4438 49.3819 28.473 49.3731 28.5008C49.3643 28.5287 49.3503 28.5545 49.3315 28.5769C49.3131 28.5993 49.2899 28.6178 49.2643 28.6313C49.2383 28.6448 49.2103 28.6531 49.1811 28.6557L49.1655 28.6564Z" fill="#7A7AFB"/>
<path d="M17.7233 35.1621C17.6941 35.1623 17.6652 35.1567 17.6381 35.1457C17.6111 35.1347 17.5866 35.1184 17.5658 35.0979C16.4445 33.975 15.655 32.4367 15.6218 32.3702C15.5951 32.3178 15.5904 32.2569 15.6086 32.2009C15.6268 32.145 15.6665 32.0986 15.719 32.0719C15.7714 32.0453 15.8323 32.0405 15.8882 32.0588C15.9442 32.077 15.9906 32.1167 16.0172 32.1692C16.0254 32.1847 16.8089 33.7119 17.88 34.7837C17.911 34.8147 17.932 34.8542 17.9406 34.8972C17.9491 34.9402 17.9447 34.9847 17.928 35.0252C17.9112 35.0657 17.8828 35.1003 17.8464 35.1247C17.8099 35.1491 17.7671 35.1621 17.7233 35.1621Z" fill="#7A7AFB"/>
<path d="M15.5162 34.6395C15.4841 34.6395 15.4525 34.6326 15.4234 34.6192C15.3943 34.6058 15.3685 34.5862 15.3476 34.5619C14.0215 33.0096 13.3333 30.9125 13.3045 30.8238C13.2876 30.7681 13.2932 30.7081 13.3202 30.6565C13.3472 30.605 13.3933 30.5661 13.4487 30.5483C13.504 30.5305 13.5642 30.5351 13.6162 30.5612C13.6681 30.5873 13.7078 30.6327 13.7266 30.6878C13.7332 30.7085 14.4177 32.7915 15.6847 34.2736C15.7123 34.3058 15.73 34.3453 15.7358 34.3873C15.7417 34.4293 15.7353 34.472 15.7176 34.5105C15.6999 34.549 15.6715 34.5817 15.6357 34.6045C15.6001 34.6274 15.5585 34.6395 15.5162 34.6395Z" fill="#7A7AFB"/>
<path d="M45.0642 44.9492C45.0406 44.9492 45.017 44.9456 44.9946 44.938C43.579 44.4756 41.8686 43.1772 41.7962 43.1228C41.773 43.1052 41.7534 43.0828 41.739 43.0576C41.7242 43.0324 41.7146 43.0048 41.711 42.976C41.707 42.9472 41.709 42.9176 41.7162 42.8896C41.7238 42.8612 41.7366 42.8348 41.7542 42.812C41.7722 42.7888 41.7942 42.7692 41.8194 42.7548C41.8446 42.74 41.8722 42.7304 41.901 42.7264C41.9302 42.7228 41.9594 42.7244 41.9874 42.732C42.0158 42.7396 42.0422 42.7524 42.0654 42.77C42.0822 42.7828 43.789 44.0776 45.133 44.516C45.1834 44.532 45.2266 44.5656 45.2546 44.6108C45.2826 44.656 45.2934 44.7096 45.285 44.7624C45.2766 44.8148 45.2498 44.8624 45.2094 44.8968C45.1686 44.9312 45.1174 44.9496 45.0642 44.9492Z" fill="#7A7AFB"/>
<path d="M47.1077 44.5621C47.0901 44.5621 47.0721 44.5597 47.0545 44.5553C45.7729 44.2369 44.2301 43.3193 44.1665 43.2817C44.1417 43.2669 44.1197 43.2469 44.1025 43.2237C44.0849 43.2001 44.0725 43.1737 44.0653 43.1453C44.0581 43.1173 44.0569 43.0877 44.0609 43.0589C44.0653 43.0301 44.0753 43.0025 44.0901 42.9777C44.1049 42.9525 44.1249 42.9309 44.1481 42.9133C44.1717 42.8961 44.1981 42.8833 44.2265 42.8761C44.2545 42.8693 44.2841 42.8677 44.3129 42.8721C44.3417 42.8761 44.3693 42.8861 44.3941 42.9009C44.4097 42.9097 45.9465 43.8229 47.1625 44.1253C47.2149 44.1381 47.2609 44.1701 47.2913 44.2145C47.3221 44.2593 47.3353 44.3133 47.3289 44.3669C47.3221 44.4205 47.2965 44.4701 47.2561 44.5061C47.2157 44.5417 47.1633 44.5617 47.1093 44.5621H47.1077Z" fill="#7A7AFB"/>
</svg>
