<svg width="80" height="80" viewBox="0 0 80 80" fill="none" xmlns="http://www.w3.org/2000/svg">
<path d="M56.0408 23.7082C56.4864 23.7082 56.8472 23.3471 56.8472 22.9017C56.8472 22.4563 56.4864 22.0952 56.0408 22.0952C55.5956 22.0952 55.2344 22.4563 55.2344 22.9017C55.2344 23.3471 55.5956 23.7082 56.0408 23.7082Z" fill="white"/>
<path d="M63.1443 36.2243C63.5899 36.2243 63.9507 35.8632 63.9507 35.4178C63.9507 34.9724 63.5899 34.6113 63.1443 34.6113C62.6991 34.6113 62.3379 34.9724 62.3379 35.4178C62.3379 35.8632 62.6991 36.2243 63.1443 36.2243Z" fill="white"/>
<path d="M26.4784 53.4418C26.9238 53.4418 27.2849 53.0806 27.2849 52.635C27.2849 52.1898 26.9238 51.8286 26.4784 51.8286C26.033 51.8286 25.6719 52.1898 25.6719 52.635C25.6719 53.0806 26.033 53.4418 26.4784 53.4418Z" fill="white"/>
<path d="M12.9393 28.6598C13.3847 28.6598 13.7458 28.2988 13.7458 27.8534C13.7458 27.408 13.3847 27.0469 12.9393 27.0469C12.4939 27.0469 12.1328 27.408 12.1328 27.8534C12.1328 28.2988 12.4939 28.6598 12.9393 28.6598Z" fill="white"/>
<path d="M56.0403 23.9382C55.8355 23.9382 55.6351 23.8774 55.4647 23.7635C55.2939 23.6496 55.1611 23.4878 55.0827 23.2984C55.0043 23.109 54.9839 22.9006 55.0239 22.6995C55.0639 22.4984 55.1627 22.3138 55.3075 22.1688C55.4523 22.0238 55.6371 21.9252 55.8383 21.8852C56.0391 21.8452 56.2475 21.8657 56.4371 21.9441C56.6263 22.0226 56.7883 22.1554 56.9023 22.3259C57.0159 22.4963 57.0767 22.6967 57.0767 22.9017C57.0763 23.1765 56.9671 23.4399 56.7727 23.6342C56.5787 23.8284 56.3151 23.9378 56.0403 23.9382ZM56.0403 22.3283C55.9263 22.3283 55.8147 22.3621 55.7199 22.4255C55.6251 22.4889 55.5511 22.579 55.5075 22.6843C55.4639 22.7897 55.4527 22.9057 55.4751 23.0175C55.4975 23.1294 55.5523 23.2321 55.6331 23.3127C55.7135 23.3933 55.8163 23.4482 55.9283 23.4703C56.0403 23.4924 56.1563 23.4809 56.2615 23.4372C56.3667 23.3934 56.4567 23.3194 56.5199 23.2245C56.5835 23.1296 56.6171 23.0181 56.6167 22.904C56.6171 22.8282 56.6023 22.7531 56.5731 22.683C56.5443 22.613 56.5019 22.5493 56.4483 22.4956C56.3947 22.4419 56.3311 22.3993 56.2611 22.3702C56.1911 22.3411 56.1163 22.3261 56.0403 22.326V22.3283Z" fill="#7A7AFB"/>
<path d="M53.115 11.716C53.5606 11.716 53.9218 11.3549 53.9218 10.9095C53.9218 10.4641 53.5606 10.103 53.115 10.103C52.6698 10.103 52.3086 10.4641 52.3086 10.9095C52.3086 11.3549 52.6698 11.716 53.115 11.716Z" fill="white"/>
<path d="M20.0878 21.1921C20.5332 21.1921 20.8943 20.831 20.8943 20.3856C20.8943 19.9401 20.5332 19.5791 20.0878 19.5791C19.6423 19.5791 19.2812 19.9401 19.2812 20.3856C19.2812 20.831 19.6423 21.1921 20.0878 21.1921Z" fill="white"/>
<path d="M53.1145 11.946C52.9097 11.946 52.7093 11.8852 52.5389 11.7713C52.3685 11.6574 52.2357 11.4956 52.1573 11.3062C52.0785 11.1168 52.0581 10.9084 52.0981 10.7073C52.1381 10.5063 52.2369 10.3216 52.3817 10.1766C52.5269 10.0317 52.7113 9.93297 52.9125 9.89297C53.1137 9.85297 53.3221 9.87349 53.5113 9.95197C53.7009 10.0304 53.8625 10.1632 53.9765 10.3337C54.0905 10.5042 54.1513 10.7045 54.1513 10.9095C54.1509 11.1843 54.0413 11.4477 53.8473 11.642C53.6529 11.8363 53.3893 11.9456 53.1145 11.946ZM53.1145 10.3361C53.0005 10.3361 52.8893 10.3699 52.7945 10.4332C52.6997 10.4966 52.6257 10.5866 52.5821 10.692C52.5385 10.7973 52.5269 10.9132 52.5493 11.0251C52.5717 11.1369 52.6265 11.2396 52.7069 11.3202C52.7877 11.4009 52.8905 11.4558 53.0021 11.478C53.1141 11.5003 53.2301 11.4888 53.3353 11.4452C53.4405 11.4016 53.5305 11.3277 53.5941 11.2329C53.6573 11.1381 53.6913 11.0266 53.6913 10.9126C53.6917 10.8366 53.6769 10.7613 53.6481 10.691C53.6193 10.6207 53.5769 10.5568 53.5233 10.503C53.4697 10.4491 53.4061 10.4064 53.3361 10.3772C53.2657 10.348 53.1905 10.333 53.1145 10.333V10.3361Z" fill="#7A7AFB"/>
<path d="M20.088 21.4221C19.883 21.4222 19.6825 21.3616 19.512 21.2478C19.3414 21.134 19.2085 20.9722 19.1299 20.7828C19.0513 20.5934 19.0307 20.385 19.0706 20.1839C19.1105 19.9828 19.2091 19.798 19.3541 19.653C19.499 19.508 19.6837 19.4092 19.8848 19.3691C20.0859 19.329 20.2943 19.3495 20.4837 19.428C20.6731 19.5064 20.8351 19.6392 20.949 19.8097C21.0629 19.9802 21.1237 20.1806 21.1237 20.3856C21.1233 20.6602 21.0141 20.9235 20.82 21.1178C20.6259 21.3121 20.3627 21.4215 20.088 21.4221ZM20.088 19.8122C19.974 19.812 19.8624 19.8457 19.7675 19.909C19.6726 19.9722 19.5986 20.0622 19.5549 20.1675C19.5111 20.2729 19.4996 20.3888 19.5217 20.5007C19.5439 20.6126 19.5987 20.7153 19.6793 20.7961C19.7599 20.8767 19.8627 20.9318 19.9745 20.954C20.0863 20.9764 20.2023 20.965 20.3077 20.9214C20.4131 20.8778 20.5032 20.8039 20.5665 20.709C20.6299 20.6142 20.6637 20.5028 20.6637 20.3887C20.6641 20.3128 20.6496 20.2376 20.6208 20.1673C20.5921 20.097 20.5497 20.0332 20.4963 19.9793C20.4428 19.9255 20.3792 19.8827 20.3091 19.8535C20.2391 19.8243 20.1639 19.8092 20.088 19.8091V19.8122Z" fill="#7A7AFB"/>
<path d="M63.1439 36.4543C62.9391 36.4543 62.7387 36.3935 62.5683 36.2797C62.3979 36.1659 62.2651 36.0041 62.1867 35.8148C62.1079 35.6255 62.0875 35.4172 62.1271 35.2162C62.1671 35.0152 62.2659 34.8305 62.4107 34.6855C62.5555 34.5405 62.7399 34.4416 62.9407 34.4015C63.1419 34.3613 63.3503 34.3816 63.5395 34.4598C63.7291 34.538 63.8911 34.6706 64.0051 34.8409C64.1191 35.0111 64.1803 35.2114 64.1803 35.4163C64.1803 35.6913 64.0711 35.9551 63.8771 36.1497C63.6827 36.3444 63.4191 36.4539 63.1439 36.4543ZM63.1439 34.8444C63.0299 34.8444 62.9183 34.8782 62.8235 34.9415C62.7287 35.0049 62.6551 35.0949 62.6115 35.2003C62.5679 35.3056 62.5563 35.4215 62.5787 35.5334C62.6007 35.6452 62.6555 35.7479 62.7363 35.8285C62.8171 35.9092 62.9195 35.9641 63.0315 35.9863C63.1435 36.0086 63.2591 35.9971 63.3647 35.9535C63.4699 35.9099 63.5599 35.836 63.6235 35.7412C63.6867 35.6464 63.7203 35.5349 63.7203 35.4209C63.7207 35.3449 63.7063 35.2696 63.6775 35.1993C63.6487 35.129 63.6063 35.0651 63.5527 35.0113C63.4991 34.9574 63.4355 34.9147 63.3651 34.8855C63.2951 34.8563 63.2199 34.8413 63.1439 34.8413V34.8444Z" fill="#7A7AFB"/>
<path d="M26.4779 53.6714C26.2729 53.6714 26.0725 53.6106 25.9021 53.497C25.7316 53.383 25.5987 53.221 25.5203 53.0318C25.4419 52.8422 25.4213 52.6338 25.4613 52.433C25.5013 52.2318 25.6 52.047 25.745 51.9022C25.8899 51.7574 26.0746 51.6586 26.2757 51.6186C26.4767 51.5786 26.6851 51.599 26.8745 51.6774C27.0639 51.7558 27.2258 51.889 27.3397 52.0594C27.4536 52.2298 27.5143 52.4302 27.5143 52.635C27.5139 52.9098 27.4046 53.1734 27.2103 53.3674C27.0161 53.5618 26.7527 53.671 26.4779 53.6714ZM26.4779 52.0618C26.3639 52.0618 26.2524 52.0954 26.1576 52.159C26.0628 52.2222 25.9889 52.3122 25.9453 52.4174C25.9016 52.523 25.8902 52.639 25.9125 52.7506C25.9347 52.8626 25.9896 52.965 26.0702 53.0458C26.1509 53.1266 26.2536 53.1814 26.3654 53.2038C26.4772 53.2258 26.5931 53.2146 26.6985 53.1706C26.8038 53.127 26.8939 53.0534 26.9572 52.9586C27.0206 52.8638 27.0544 52.7522 27.0544 52.6382C27.0546 52.5622 27.0398 52.487 27.011 52.417C26.9821 52.3466 26.9397 52.283 26.8862 52.229C26.8326 52.175 26.769 52.1326 26.699 52.103C26.6289 52.0738 26.5538 52.059 26.4779 52.0586V52.0618Z" fill="#7A7AFB"/>
<path d="M12.9388 28.8899C12.7338 28.8899 12.5334 28.8291 12.363 28.7152C12.1925 28.6013 12.0597 28.4394 11.9812 28.25C11.9028 28.0606 11.8823 27.8522 11.9222 27.6512C11.9622 27.4501 12.061 27.2654 12.2059 27.1205C12.3509 26.9755 12.5356 26.8768 12.7366 26.8368C12.9377 26.7968 13.1461 26.8173 13.3355 26.8958C13.5248 26.9743 13.6867 27.1071 13.8006 27.2775C13.9145 27.448 13.9753 27.6484 13.9753 27.8534C13.9749 28.1281 13.8656 28.3915 13.6713 28.5858C13.477 28.7801 13.2136 28.8895 12.9388 28.8899ZM12.9388 27.2799C12.8248 27.2799 12.7134 27.3137 12.6185 27.3771C12.5237 27.4405 12.4498 27.5305 12.4062 27.6358C12.3626 27.7412 12.3512 27.8571 12.3734 27.9689C12.3956 28.0807 12.4506 28.1835 12.5312 28.2641C12.6118 28.3447 12.7145 28.3996 12.8264 28.4219C12.9382 28.4441 13.0541 28.4327 13.1594 28.3891C13.2648 28.3454 13.3548 28.2715 13.4182 28.1767C13.4815 28.0819 13.5153 27.9705 13.5153 27.8565C13.5156 27.7805 13.501 27.7053 13.4721 27.635C13.4433 27.5647 13.4009 27.5009 13.3473 27.447C13.2938 27.3932 13.2301 27.3505 13.16 27.3213C13.0899 27.2921 13.0148 27.277 12.9388 27.2769V27.2799Z" fill="#7A7AFB"/>
<path d="M74.2085 32.1914H63.1445V43.2554H74.2085V32.1914Z" fill="white"/>
<path d="M74.2081 43.4854H63.1441C63.0833 43.4854 63.0245 43.461 62.9813 43.4182C62.9385 43.375 62.9141 43.3162 62.9141 43.2554V32.1914C62.9141 32.1304 62.9385 32.0719 62.9813 32.0288C63.0245 31.9857 63.0833 31.9614 63.1441 31.9614H74.2081C74.2689 31.9614 74.3277 31.9857 74.3709 32.0288C74.4137 32.0719 74.4381 32.1304 74.4381 32.1914V43.2554C74.4381 43.3162 74.4137 43.375 74.3709 43.4182C74.3277 43.461 74.2689 43.4854 74.2081 43.4854ZM63.3741 43.0254H73.9781V32.4214H63.3741V43.0254Z" fill="#7A7AFB"/>
<path d="M71.4417 40.7195H65.9097C65.8489 40.7195 65.7901 40.6955 65.7469 40.6523C65.7041 40.6091 65.6797 40.5507 65.6797 40.4895V34.9561C65.6797 34.8951 65.7041 34.8366 65.7469 34.7934C65.7901 34.7503 65.8489 34.7261 65.9097 34.7261H71.4417C71.5025 34.7261 71.5613 34.7503 71.6045 34.7934C71.6473 34.8366 71.6717 34.8951 71.6717 34.9561V40.4879C71.6717 40.5183 71.6661 40.5483 71.6545 40.5767C71.6433 40.6047 71.6261 40.6303 71.6049 40.6515C71.5833 40.6731 71.5581 40.6903 71.5301 40.7019C71.5021 40.7135 71.4721 40.7195 71.4417 40.7195ZM66.1397 40.2595H71.2117V35.1861H66.1397V40.2595Z" fill="#7A7AFB"/>
<path d="M68.5025 39.4938C68.4657 39.4939 68.4297 39.4852 68.3973 39.4685C68.3649 39.4519 68.3365 39.4277 68.3153 39.398L67.2113 37.8578C67.1925 37.8334 67.1789 37.8054 67.1713 37.7756C67.1637 37.7458 67.1621 37.7148 67.1665 37.6843C67.1709 37.6539 67.1817 37.6246 67.1977 37.5983C67.2137 37.572 67.2349 37.5492 67.2597 37.5313C67.2849 37.5133 67.3133 37.5005 67.3433 37.4937C67.3733 37.4869 67.4041 37.4862 67.4345 37.4916C67.4649 37.4971 67.4937 37.5086 67.5197 37.5254C67.5453 37.5422 67.5677 37.564 67.5849 37.5895L68.4717 38.8261L69.8769 36.1375C69.9069 36.0864 69.9553 36.0488 70.0121 36.0324C70.0689 36.016 70.1297 36.0222 70.1821 36.0497C70.2349 36.0771 70.2745 36.1237 70.2933 36.1798C70.3125 36.2358 70.3089 36.297 70.2841 36.3506L68.7065 39.3704C68.6881 39.4052 68.6613 39.4347 68.6285 39.4562C68.5957 39.4776 68.5577 39.4904 68.5185 39.493L68.5025 39.4938Z" fill="#7A7AFB"/>
<path d="M35.2791 52.6353H19.0273V64.5617H35.2791V52.6353Z" fill="white"/>
<path d="M35.2793 64.7917H19.0268C18.9658 64.7917 18.9074 64.7673 18.8642 64.7245C18.8211 64.6813 18.7969 64.6229 18.7969 64.5617V52.6353C18.7969 52.5745 18.8211 52.5157 18.8642 52.4725C18.9074 52.4297 18.9658 52.4053 19.0268 52.4053H35.2793C35.3403 52.4053 35.3988 52.4297 35.442 52.4725C35.4851 52.5157 35.5093 52.5745 35.5093 52.6353V64.5617C35.5093 64.6229 35.4851 64.6813 35.442 64.7245C35.3988 64.7673 35.3403 64.7917 35.2793 64.7917ZM19.2568 64.3317H35.0494V52.8653H19.2568V64.3317Z" fill="#7A7AFB"/>
<path d="M25.9199 59.1424H21.3355C21.2745 59.1424 21.2159 59.118 21.1728 59.0748C21.1297 59.032 21.1055 58.9732 21.1055 58.9124V56.0252C21.1055 55.9644 21.1297 55.9056 21.1728 55.8628C21.2159 55.8196 21.2745 55.7952 21.3355 55.7952H22.7997L23.4621 55.0976C23.4836 55.0752 23.5093 55.0572 23.5379 55.0448C23.5665 55.0328 23.5974 55.0264 23.6284 55.0264H25.9199C25.9809 55.0264 26.0394 55.0504 26.0825 55.0936C26.1256 55.1368 26.1499 55.1952 26.1499 55.2564V58.9124C26.1499 58.9732 26.1256 59.032 26.0825 59.0748C26.0394 59.118 25.9809 59.1424 25.9199 59.1424ZM21.5639 58.6824H25.6899V55.4864H23.7258L23.0634 56.1832C23.042 56.206 23.016 56.224 22.9873 56.2364C22.9586 56.2488 22.9276 56.2552 22.8963 56.2552H21.5654L21.5639 58.6824Z" fill="#7A7AFB"/>
<path d="M33.0093 59.1424H28.4234C28.3624 59.1424 28.3038 59.118 28.2607 59.0748C28.2176 59.032 28.1934 58.9732 28.1934 58.9124V56.0252C28.1934 55.9644 28.2176 55.9056 28.2607 55.8628C28.3038 55.8196 28.3624 55.7952 28.4234 55.7952H29.8876L30.55 55.0976C30.5714 55.0752 30.5972 55.0572 30.6258 55.0448C30.6544 55.0328 30.6852 55.0264 30.7163 55.0264H33.0093C33.0703 55.0264 33.1288 55.0504 33.1719 55.0936C33.2151 55.1368 33.2393 55.1952 33.2393 55.2564V58.9124C33.2393 58.9732 33.2151 59.032 33.1719 59.0748C33.1288 59.118 33.0703 59.1424 33.0093 59.1424ZM28.6534 58.6824H32.7793V55.4864H30.8152L30.1513 56.1832C30.1298 56.206 30.1039 56.224 30.0752 56.2364C30.0465 56.2488 30.0155 56.2552 29.9842 56.2552H28.6534V58.6824Z" fill="#7A7AFB"/>
<path d="M25.9199 60.8145H21.3355C21.2745 60.8145 21.2159 60.7901 21.1728 60.7473C21.1297 60.7041 21.1055 60.6457 21.1055 60.5845C21.1055 60.5237 21.1297 60.4649 21.1728 60.4221C21.2159 60.3789 21.2745 60.3545 21.3355 60.3545H25.9199C25.9809 60.3545 26.0394 60.3789 26.0825 60.4221C26.1256 60.4649 26.1499 60.5237 26.1499 60.5845C26.1499 60.6457 26.1256 60.7041 26.0825 60.7473C26.0394 60.7901 25.9809 60.8145 25.9199 60.8145Z" fill="#7A7AFB"/>
<path d="M24.4135 62.1958H21.3355C21.2745 62.1958 21.2159 62.1714 21.1728 62.1286C21.1297 62.0854 21.1055 62.027 21.1055 61.9658C21.1055 61.905 21.1297 61.8462 21.1728 61.803C21.2159 61.7602 21.2745 61.7358 21.3355 61.7358H24.415C24.476 61.7358 24.5345 61.7602 24.5776 61.803C24.6207 61.8462 24.645 61.905 24.645 61.9658C24.645 62.027 24.6207 62.0854 24.5776 62.1286C24.5345 62.1714 24.476 62.1958 24.415 62.1958H24.4135Z" fill="#7A7AFB"/>
<path d="M33.0093 60.8145H28.4234C28.3624 60.8145 28.3038 60.7901 28.2607 60.7473C28.2176 60.7041 28.1934 60.6457 28.1934 60.5845C28.1934 60.5237 28.2176 60.4649 28.2607 60.4221C28.3038 60.3789 28.3624 60.3545 28.4234 60.3545H33.0093C33.0703 60.3545 33.1288 60.3789 33.1719 60.4221C33.2151 60.4649 33.2393 60.5237 33.2393 60.5845C33.2393 60.6457 33.2151 60.7041 33.1719 60.7473C33.1288 60.7901 33.0703 60.8145 33.0093 60.8145Z" fill="#7A7AFB"/>
<path d="M31.5029 62.1958H28.4234C28.3624 62.1958 28.3038 62.1714 28.2607 62.1286C28.2176 62.0854 28.1934 62.027 28.1934 61.9658C28.1934 61.905 28.2176 61.8462 28.2607 61.803C28.3038 61.7602 28.3624 61.7358 28.4234 61.7358H31.5029C31.5639 61.7358 31.6224 61.7602 31.6655 61.803C31.7086 61.8462 31.7329 61.905 31.7329 61.9658C31.7329 62.027 31.7086 62.0854 31.6655 62.1286C31.6224 62.1714 31.5639 62.1958 31.5029 62.1958Z" fill="#7A7AFB"/>
<path d="M68.6305 10.9092H46.8477V22.9015H68.6305V10.9092Z" fill="white"/>
<path d="M68.63 23.1315H46.8472C46.786 23.1315 46.7276 23.1073 46.6844 23.0642C46.6412 23.021 46.6172 22.9626 46.6172 22.9016V10.9092C46.6172 10.8482 46.6412 10.7897 46.6844 10.7466C46.7276 10.7034 46.786 10.6792 46.8472 10.6792H68.63C68.6908 10.6792 68.7496 10.7034 68.7924 10.7466C68.8356 10.7897 68.86 10.8482 68.86 10.9092V22.9016C68.86 22.9626 68.8356 23.021 68.7924 23.0642C68.7496 23.1073 68.6908 23.1315 68.63 23.1315ZM47.0768 22.6716H68.4V11.1392H47.0768V22.6716Z" fill="#7A7AFB"/>
<path d="M53.1144 17.0939H48.5288C48.4676 17.0939 48.4092 17.0696 48.366 17.0265C48.3228 16.9833 48.2988 16.9249 48.2988 16.8639V13.976C48.2988 13.915 48.3228 13.8565 48.366 13.8133C48.4092 13.7702 48.4676 13.746 48.5288 13.746H49.992L50.6544 13.0483C50.676 13.0257 50.702 13.0077 50.7308 12.9955C50.7596 12.9833 50.7904 12.977 50.8216 12.9771H53.1144C53.1756 12.9771 53.234 13.0013 53.2772 13.0444C53.3204 13.0875 53.3444 13.1461 53.3444 13.2071V16.8639C53.3444 16.9249 53.3204 16.9833 53.2772 17.0265C53.234 17.0696 53.1756 17.0939 53.1144 17.0939ZM48.7584 16.6339H52.8844V13.437H50.9204L50.258 14.1339C50.2368 14.1567 50.2108 14.1748 50.182 14.1872C50.1532 14.1995 50.1224 14.2059 50.0908 14.2059H48.7584V16.6339Z" fill="#7A7AFB"/>
<path d="M60.0312 17.0939H55.4488C55.388 17.0939 55.3296 17.0696 55.2864 17.0265C55.2432 16.9833 55.2188 16.9249 55.2188 16.8639V13.976C55.2188 13.915 55.2432 13.8565 55.2864 13.8133C55.3296 13.7702 55.388 13.746 55.4488 13.746H56.9056L57.5679 13.0483C57.5895 13.0257 57.6152 13.0077 57.644 12.9955C57.6728 12.9833 57.7036 12.977 57.7348 12.9771H60.0279C60.0887 12.9771 60.1476 13.0013 60.1908 13.0444C60.2336 13.0875 60.2579 13.1461 60.2579 13.2071V16.8639C60.2579 16.9243 60.234 16.9824 60.1916 17.0254C60.1492 17.0685 60.0916 17.093 60.0312 17.0939ZM55.6788 16.6339H59.8048V13.437H57.8367L57.1744 14.1339C57.1532 14.1567 57.1271 14.1748 57.0983 14.1872C57.0695 14.1995 57.0387 14.2059 57.0075 14.2059H55.6788V16.6339Z" fill="#7A7AFB"/>
<path d="M66.9496 17.0939H62.3628C62.302 17.0939 62.2432 17.0696 62.2004 17.0265C62.1572 16.9833 62.1328 16.9249 62.1328 16.8639V13.976C62.1328 13.915 62.1572 13.8565 62.2004 13.8133C62.2432 13.7702 62.302 13.746 62.3628 13.746H63.8264L64.4888 13.0483C64.5104 13.0257 64.536 13.0077 64.5648 12.9955C64.5936 12.9833 64.6244 12.977 64.656 12.9771H66.9496C67.0104 12.9771 67.0692 13.0013 67.1124 13.0444C67.1552 13.0875 67.1796 13.1461 67.1796 13.2071V16.8639C67.1796 16.9249 67.1552 16.9833 67.1124 17.0265C67.0692 17.0696 67.0104 17.0939 66.9496 17.0939ZM62.5936 16.6339H66.7196V13.437H64.7548L64.0924 14.1339C64.0708 14.1567 64.0448 14.1748 64.0164 14.1872C63.9876 14.1995 63.9564 14.2059 63.9252 14.2059H62.5928L62.5936 16.6339Z" fill="#7A7AFB"/>
<path d="M60.6824 19.1123H54.7964C54.7352 19.1123 54.6768 19.0881 54.6336 19.0449C54.5904 19.0018 54.5664 18.9433 54.5664 18.8823C54.5664 18.8213 54.5904 18.7628 54.6336 18.7197C54.6768 18.6765 54.7352 18.6523 54.7964 18.6523H60.6824C60.7436 18.6523 60.802 18.6765 60.8452 18.7197C60.888 18.7628 60.9124 18.8213 60.9124 18.8823C60.9124 18.9433 60.888 19.0018 60.8452 19.0449C60.802 19.0881 60.7436 19.1123 60.6824 19.1123Z" fill="#7A7AFB"/>
<path d="M59.716 20.8853H55.7632C55.7024 20.8853 55.6436 20.861 55.6008 20.8179C55.5576 20.7748 55.5332 20.7163 55.5332 20.6553C55.5332 20.5943 55.5576 20.5358 55.6008 20.4927C55.6436 20.4495 55.7024 20.4253 55.7632 20.4253H59.716C59.7772 20.4253 59.8356 20.4495 59.8788 20.4927C59.9216 20.5358 59.946 20.5943 59.946 20.6553C59.946 20.7163 59.9216 20.7748 59.8788 20.8179C59.8356 20.861 59.7772 20.8853 59.716 20.8853Z" fill="#7A7AFB"/>
<path d="M20.0859 16.4966H5.78906V27.8534H20.0859V16.4966Z" fill="white"/>
<path d="M20.0881 28.0834H5.79055C5.72955 28.0834 5.67103 28.0592 5.62791 28.016C5.58479 27.9729 5.56055 27.9144 5.56055 27.8534V16.4966C5.56055 16.4356 5.58479 16.3771 5.62791 16.334C5.67103 16.2908 5.72955 16.2666 5.79055 16.2666H20.0881C20.1491 16.2666 20.2076 16.2908 20.2507 16.334C20.2939 16.3771 20.3181 16.4356 20.3181 16.4966V27.8534C20.3181 27.9144 20.2939 27.9729 20.2507 28.016C20.2076 28.0592 20.1491 28.0834 20.0881 28.0834ZM6.02051 27.6234H19.8581V16.7266H6.02051V27.6234Z" fill="#7A7AFB"/>
<path d="M14.4895 18.7759H11.3862C11.3252 18.7759 11.2667 18.7516 11.2236 18.7085C11.1805 18.6654 11.1562 18.6069 11.1562 18.5459C11.1562 18.4849 11.1805 18.4264 11.2236 18.3833C11.2667 18.3401 11.3252 18.3159 11.3862 18.3159H14.4895C14.5505 18.3159 14.609 18.3401 14.6522 18.3833C14.6953 18.4264 14.7195 18.4849 14.7195 18.5459C14.7195 18.6069 14.6953 18.6654 14.6522 18.7085C14.609 18.7516 14.5505 18.7759 14.4895 18.7759Z" fill="#7A7AFB"/>
<path d="M16.6479 20.6157H9.23C9.169 20.6157 9.11048 20.5915 9.06736 20.5484C9.02424 20.5052 9 20.4467 9 20.3857C9 20.3247 9.02424 20.2662 9.06736 20.2231C9.11048 20.18 9.169 20.1558 9.23 20.1558H16.6479C16.7089 20.1558 16.7674 20.18 16.8105 20.2231C16.8536 20.2662 16.8778 20.3247 16.8778 20.3857C16.8778 20.4467 16.8536 20.5052 16.8105 20.5484C16.7674 20.5915 16.7089 20.6157 16.6479 20.6157Z" fill="#7A7AFB"/>
<path d="M16.494 26.0349H9.38426C9.32326 26.0349 9.26478 26.0106 9.22166 25.9675C9.1785 25.9243 9.1543 25.8659 9.1543 25.8049V22.168C9.1543 22.107 9.1785 22.0485 9.22166 22.0053C9.26478 21.9622 9.32326 21.938 9.38426 21.938H16.494C16.555 21.938 16.6135 21.9622 16.6566 22.0053C16.6997 22.0485 16.7239 22.107 16.7239 22.168V25.8049C16.7239 25.8659 16.6997 25.9243 16.6566 25.9675C16.6135 26.0106 16.555 26.0349 16.494 26.0349ZM9.61426 25.5749H16.264V22.398H9.61426V25.5749Z" fill="#7A7AFB"/>
<path d="M62.3377 35.6459H56.0405C55.9797 35.6459 55.9209 35.6217 55.8777 35.5786C55.8349 35.5354 55.8105 35.4769 55.8105 35.4159V23.708C55.8105 23.647 55.8349 23.5885 55.8777 23.5454C55.9209 23.5023 55.9797 23.478 56.0405 23.478C56.1017 23.478 56.1601 23.5023 56.2033 23.5454C56.2461 23.5885 56.2705 23.647 56.2705 23.708V35.1859H62.3377C62.3985 35.1859 62.4569 35.2102 62.5001 35.2533C62.5433 35.2965 62.5677 35.3549 62.5677 35.4159C62.5677 35.4769 62.5433 35.5354 62.5001 35.5786C62.4569 35.6217 62.3985 35.6459 62.3377 35.6459Z" fill="#7A7AFB"/>
<path d="M26.4776 52.0587C26.4166 52.0587 26.3581 52.0343 26.3149 51.9911C26.2718 51.9483 26.2476 51.8895 26.2476 51.8287V47.4971H12.9389C12.878 47.4971 12.8195 47.4731 12.7763 47.4299C12.7332 47.3867 12.709 47.3283 12.709 47.2671V28.6597C12.709 28.5987 12.7332 28.5402 12.7763 28.497C12.8195 28.4539 12.878 28.4297 12.9389 28.4297C12.9999 28.4297 13.0585 28.4539 13.1016 28.497C13.1447 28.5402 13.1689 28.5987 13.1689 28.6597V47.0371H26.4776C26.5386 47.0371 26.5971 47.0615 26.6402 47.1047C26.6833 47.1479 26.7076 47.2063 26.7076 47.2671V51.8287C26.7076 51.8895 26.6833 51.9483 26.6402 51.9911C26.5971 52.0343 26.5386 52.0587 26.4776 52.0587Z" fill="#7A7AFB"/>
<path d="M25.3021 20.6154H20.8941C20.8331 20.6154 20.7745 20.5912 20.7314 20.5481C20.6883 20.5049 20.6641 20.4464 20.6641 20.3854C20.6641 20.3245 20.6883 20.2659 20.7314 20.2228C20.7745 20.1797 20.8331 20.1555 20.8941 20.1555H25.0722V7.54982C25.0722 7.48882 25.0964 7.4303 25.1395 7.38718C25.1827 7.34406 25.2411 7.31982 25.3021 7.31982H53.1159C53.1771 7.31982 53.2355 7.34406 53.2787 7.38718C53.3219 7.4303 53.3459 7.48882 53.3459 7.54982V10.1027C53.3459 10.1637 53.3219 10.2222 53.2787 10.2653C53.2355 10.3084 53.1771 10.3327 53.1159 10.3327C53.0551 10.3327 52.9967 10.3084 52.9535 10.2653C52.9103 10.2222 52.8863 10.1637 52.8863 10.1027V7.77978H25.5321V20.3854C25.5321 20.4464 25.5079 20.5049 25.4648 20.5481C25.4217 20.5912 25.3631 20.6154 25.3021 20.6154Z" fill="#7A7AFB"/>
<path d="M65.1583 41.5446C63.6371 43.6726 62.2895 46.3826 61.2323 47.873C58.6655 51.4914 53.7959 52.6046 53.7959 52.6046C53.7959 52.6046 50.8983 56.591 49.2107 60.6686C47.5235 64.7462 47.6299 68.601 47.4867 69.1638C47.3435 69.7262 44.9255 72.6034 43.5155 72.6902C42.8027 72.7346 41.9671 72.6218 41.9671 72.271C41.9671 71.9198 43.2343 72.0578 43.8667 68.8978C44.4991 65.7378 44.4415 55.0786 42.2499 53.079C38.5808 49.7318 31.1131 50.1958 27.5881 42.7298C26.4382 40.2954 26.0089 37.4506 25.9682 34.6747C23.8562 33.0525 18.5803 29.0346 17.3054 28.373C15.7046 27.5412 14.2143 27.1518 13.67 26.7991C13.1257 26.4465 13.6754 25.8891 13.6754 25.8891C13.1388 25.3356 13.69 25.0052 13.69 25.0052C13.69 25.0052 12.3476 24.2493 12.7079 23.7618C13.0682 23.2742 18.7137 26.8045 22.7154 28.3094C24.2694 28.8935 25.4707 29.0239 26.3592 28.9641C26.6328 27.0386 27.039 25.1344 27.5751 23.265C28.6054 19.7807 31.9518 15.752 36.2173 16.9863C41.3539 18.4712 40.7343 23.1193 40.1799 27.9598C41.0171 28.1844 42.2123 28.9204 43.9579 27.9598C50.1675 24.5307 48.7447 20.604 49.3863 20.604C49.8195 20.604 49.7699 22.2538 49.7699 22.2538C49.7699 22.2538 50.3171 21.6919 50.4743 22.5229C50.4743 22.5229 51.2311 22.3972 51.0447 23.2427C50.8835 23.971 48.9747 28.0342 46.7747 29.9745C44.5331 31.9516 41.6827 33.0517 40.0803 34.8319C40.2247 35.5829 40.4807 36.3082 40.8391 36.9838C42.9091 40.8014 45.9627 37.9037 50.3303 40.357C53.8399 42.321 54.7751 45.0058 58.0683 44.079C62.4327 42.8478 63.1283 39.2277 63.6931 38.8766C63.9307 38.7278 64.7291 38.655 65.6755 38.2794C66.9667 37.768 68.0375 36.8228 68.2583 37.2237C68.3887 37.4553 66.8243 39.2139 65.1583 41.5446Z" fill="#12126B"/>
<path d="M40.7101 23.4053C40.9601 22.4304 40.3361 21.4282 39.3167 21.1668C38.2971 20.9054 37.2679 21.4838 37.018 22.4587C36.7681 23.4335 37.392 24.4358 38.4115 24.6972C39.4311 24.9586 40.4601 24.3802 40.7101 23.4053Z" fill="white"/>
<path d="M38.9082 24.9902C38.7212 24.9899 38.535 24.9662 38.3539 24.9197C37.8103 24.7832 37.3405 24.4418 37.043 23.9668C36.8969 23.7366 36.7995 23.479 36.7569 23.2097C36.7143 22.9405 36.7274 22.6653 36.7954 22.4013C37.0759 21.305 38.2328 20.6511 39.3735 20.9448C39.9175 21.0804 40.3876 21.4221 40.6844 21.8976C40.8312 22.1277 40.9292 22.3854 40.9724 22.6548C41.0156 22.9242 41.0028 23.1996 40.9352 23.4639C40.8676 23.7282 40.7464 23.9759 40.5792 24.1915C40.412 24.4071 40.2024 24.586 39.9631 24.7173C39.6409 24.8978 39.2775 24.9918 38.9082 24.9902ZM38.8231 21.3342C38.0871 21.3342 37.4233 21.8041 37.2408 22.5156C37.1884 22.7198 37.1785 22.9326 37.2116 23.1408C37.2447 23.349 37.3201 23.5482 37.4332 23.7261C37.6701 24.098 38.0395 24.3658 38.4665 24.4755C38.8936 24.5851 39.3464 24.5282 39.7331 24.3164C39.9177 24.2153 40.0796 24.0774 40.2088 23.9112C40.3376 23.7451 40.4312 23.5542 40.4836 23.3503C40.536 23.1465 40.546 22.9341 40.5128 22.7263C40.4796 22.5185 40.4044 22.3197 40.2912 22.1422C40.056 21.7677 39.6852 21.4988 39.2563 21.3917C39.1147 21.3552 38.9692 21.3367 38.8231 21.3365V21.3342Z" fill="#7A7AFB"/>
<path d="M39.8199 22.9328C39.9901 22.9328 40.1282 22.7948 40.1282 22.6246C40.1282 22.4544 39.9901 22.3164 39.8199 22.3164C39.6497 22.3164 39.5117 22.4544 39.5117 22.6246C39.5117 22.7948 39.6497 22.9328 39.8199 22.9328Z" fill="#7A7AFB"/>
<path d="M37.954 23.1531C38.2815 21.8755 37.4639 20.5621 36.1277 20.2195C34.7915 19.8769 33.4427 20.6349 33.1152 21.9125C32.7876 23.19 33.6053 24.5034 34.9415 24.846C36.2777 25.1886 37.6265 24.4306 37.954 23.1531Z" fill="white"/>
<path d="M35.5932 25.1605C35.3561 25.1602 35.12 25.1303 34.8902 25.0716C33.4336 24.6974 32.5398 23.2562 32.897 21.8578C32.9837 21.521 33.1384 21.2056 33.3516 20.9308C33.5648 20.656 33.832 20.4278 34.1366 20.2602C34.7617 19.9108 35.4978 19.8172 36.1904 19.9988C37.647 20.3729 38.5409 21.8142 38.1837 23.2125C37.8778 24.3846 36.7915 25.1605 35.5932 25.1605ZM35.4828 20.3691C35.0904 20.3684 34.7043 20.469 34.362 20.6612C34.112 20.7988 33.8927 20.986 33.7176 21.2114C33.5425 21.4369 33.4154 21.6957 33.344 21.9721C33.048 23.122 33.7932 24.3149 35.0045 24.6254C36.2158 24.9358 37.4408 24.2513 37.7367 23.0982C38.0326 21.9452 37.2875 20.7554 36.0762 20.4442C35.881 20.3944 35.6804 20.3692 35.479 20.3691H35.4828Z" fill="#7A7AFB"/>
<path d="M34.025 22.9328C34.1952 22.9328 34.3332 22.7948 34.3332 22.6246C34.3332 22.4544 34.1952 22.3164 34.025 22.3164C33.8548 22.3164 33.7168 22.4544 33.7168 22.6246C33.7168 22.7948 33.8548 22.9328 34.025 22.9328Z" fill="#7A7AFB"/>
<path d="M35.7443 27.05C36.0634 26.7308 36.1707 26.3206 35.9839 26.1338C35.7971 25.947 35.3869 26.0543 35.0678 26.3734C34.7486 26.6926 34.6414 27.1027 34.8282 27.2896C35.015 27.4764 35.4252 27.3691 35.7443 27.05Z" fill="#7A7AFB"/>
<path d="M25.9628 34.7354C25.9039 34.7355 25.8472 34.7129 25.8044 34.6724C25.7616 34.6319 25.736 34.5765 25.7328 34.5177C25.6025 31.941 26.0962 29.1513 26.1016 29.1252C26.106 29.0946 26.1166 29.0653 26.1326 29.0389C26.1486 29.0125 26.1698 28.9896 26.1949 28.9715C26.22 28.9535 26.2484 28.9407 26.2785 28.9339C26.3087 28.9271 26.3398 28.9264 26.3702 28.9319C26.4006 28.9374 26.4296 28.949 26.4554 28.9659C26.4812 28.9829 26.5034 29.0049 26.5205 29.0306C26.5377 29.0563 26.5495 29.0851 26.5552 29.1155C26.5609 29.1459 26.5605 29.1771 26.5539 29.2072C26.5493 29.2341 26.064 31.9717 26.1921 34.4969C26.1936 34.5272 26.1892 34.5574 26.179 34.5859C26.1689 34.6144 26.1532 34.6406 26.1329 34.663C26.1126 34.6855 26.0881 34.7037 26.0608 34.7166C26.0334 34.7295 26.0038 34.737 25.9736 34.7385L25.9628 34.7354Z" fill="#7A7AFB"/>
<path d="M37.1278 29.1726C37.0881 29.1725 37.0492 29.1621 37.0148 29.1425C36.9803 29.1229 36.9515 29.0948 36.9311 29.0607C36.9107 29.0267 36.8995 28.988 36.8985 28.9484C36.8975 28.9087 36.9068 28.8695 36.9254 28.8345C37.9259 26.9594 40.0876 27.6846 40.11 27.6915C40.1384 27.7015 40.1648 27.7171 40.1872 27.7374C40.21 27.7576 40.228 27.782 40.2412 27.8093C40.2544 27.8366 40.262 27.8662 40.2636 27.8965C40.2652 27.9267 40.2608 27.9569 40.2508 27.9855C40.2408 28.014 40.2252 28.0403 40.2048 28.0628C40.1844 28.0853 40.16 28.1036 40.1328 28.1167C40.1056 28.1298 40.076 28.1373 40.0456 28.139C40.0156 28.1406 39.9852 28.1362 39.9567 28.1262C39.88 28.0993 38.1421 27.5274 37.3287 29.0507C37.3092 29.0872 37.2803 29.1178 37.245 29.1392C37.2096 29.1607 37.1691 29.1722 37.1278 29.1726Z" fill="#7A7AFB"/>
<path d="M39.0438 36.1362C39.0088 36.136 38.9742 36.1281 38.9426 36.1132C38.8881 36.0863 38.8465 36.039 38.8268 35.9815C38.8072 35.9241 38.811 35.8612 38.8376 35.8065C39.1503 35.1679 39.7514 34.7678 39.7767 34.7509C39.8018 34.7323 39.8304 34.7189 39.8608 34.7117C39.8913 34.7045 39.9229 34.7036 39.9537 34.7091C39.9845 34.7145 40.0139 34.7261 40.0399 34.7433C40.0663 34.7605 40.0887 34.7828 40.1059 34.8089C40.1231 34.835 40.1347 34.8643 40.1403 34.8951C40.1455 34.9259 40.1447 34.9575 40.1379 34.9879C40.1307 35.0184 40.1175 35.0471 40.0987 35.0722C40.0803 35.0973 40.0567 35.1185 40.0295 35.1342C40.0227 35.1396 39.506 35.4869 39.2508 36.0089C39.2316 36.0474 39.202 36.0797 39.1654 36.1021C39.1289 36.1246 39.0867 36.1364 39.0438 36.1362Z" fill="#7A7AFB"/>
<path d="M53.3604 52.8367C52.9432 52.8367 51.8492 52.8171 50.9752 52.6199C50.9452 52.6139 50.9164 52.6023 50.8908 52.5851C50.8652 52.5679 50.8432 52.5459 50.8264 52.5199C50.8096 52.4943 50.798 52.4651 50.7928 52.4351C50.7872 52.4047 50.788 52.3735 50.7944 52.3435C50.8012 52.3135 50.814 52.2851 50.832 52.2599C50.85 52.2351 50.8728 52.2139 50.8992 52.1979C50.9256 52.1819 50.9548 52.1711 50.9852 52.1667C51.0156 52.1619 51.0468 52.1639 51.0764 52.1715C52.1032 52.4015 53.5084 52.3763 53.522 52.3763H53.5268C53.5876 52.3755 53.6464 52.3991 53.69 52.4419C53.7336 52.4847 53.7584 52.5427 53.7588 52.6039C53.7596 52.6647 53.736 52.7235 53.6932 52.7671C53.6504 52.8107 53.5924 52.8355 53.5312 52.8363L53.3604 52.8367Z" fill="#7A7AFB"/>
<path d="M20.0863 32.8732C20.0325 32.873 19.9804 32.854 19.9391 32.8195C18.6121 31.7117 16.5606 30.6269 16.5399 30.6162C16.5125 30.6026 16.488 30.5836 16.468 30.5604C16.4479 30.5372 16.4328 30.5102 16.4233 30.481C16.4139 30.4519 16.4103 30.4211 16.4129 30.3906C16.4156 30.36 16.4243 30.3303 16.4385 30.3032C16.4528 30.276 16.4723 30.252 16.496 30.2326C16.5197 30.2131 16.547 30.1985 16.5764 30.1898C16.6057 30.181 16.6366 30.1782 16.6671 30.1815C16.6975 30.1848 16.727 30.1942 16.7538 30.2091C16.8397 30.2544 18.8689 31.3268 20.2343 32.4661C20.2708 32.4963 20.2971 32.5371 20.3095 32.5829C20.3219 32.6287 20.3199 32.6772 20.3037 32.7217C20.2875 32.7663 20.2579 32.8048 20.219 32.8319C20.1801 32.859 20.1338 32.8734 20.0863 32.8732Z" fill="#7A7AFB"/>
<path d="M21.8225 36.1358C21.7905 36.1355 21.7589 36.1285 21.7297 36.1153C21.7006 36.1021 21.6745 36.083 21.6531 36.0591C20.4143 34.7099 18.2677 33.3529 18.2447 33.3399C18.1929 33.3075 18.1562 33.2558 18.1425 33.1963C18.1289 33.1368 18.1395 33.0743 18.1719 33.0225C18.2043 32.9708 18.2559 32.934 18.3155 32.9204C18.375 32.9067 18.4375 32.9173 18.4893 32.9497C18.5789 33.0064 20.7125 34.3526 21.9927 35.7509C22.0223 35.784 22.0416 35.8248 22.0485 35.8685C22.0554 35.9123 22.0495 35.9571 22.0315 35.9976C22.0135 36.0381 21.9843 36.0725 21.9472 36.0968C21.9101 36.121 21.8669 36.134 21.8225 36.1343V36.1358Z" fill="#7A7AFB"/>
<path d="M48.3807 30.6433C48.3331 30.6433 48.2863 30.6285 48.2475 30.6011C48.2087 30.5735 48.1795 30.5346 48.1635 30.4897C48.1475 30.4447 48.1463 30.396 48.1591 30.3501C48.1723 30.3043 48.1995 30.2637 48.2363 30.2339C49.2331 29.4328 50.7839 27.1007 50.7999 27.0769C50.8339 27.0261 50.8863 26.9907 50.9463 26.9787C51.0059 26.9666 51.0683 26.9788 51.1191 27.0125C51.1699 27.0463 51.2051 27.0989 51.2171 27.1587C51.2295 27.2185 51.2171 27.2806 51.1835 27.3315C51.1183 27.4296 49.5779 29.7471 48.5247 30.5919C48.4839 30.625 48.4331 30.6431 48.3807 30.6433Z" fill="#7A7AFB"/>
<path d="M60.4732 50.8153C60.4212 50.8157 60.3704 50.7981 60.3296 50.7661C60.2888 50.7337 60.2604 50.6889 60.2484 50.6381C60.2364 50.5877 60.242 50.5345 60.264 50.4873C60.2864 50.4405 60.3236 50.4021 60.3704 50.3793C62.6372 49.2461 63.6 47.0129 63.61 46.9909C63.634 46.9345 63.6788 46.8901 63.7352 46.8669C63.792 46.8441 63.8552 46.8445 63.9116 46.8681C63.9676 46.8917 64.012 46.9369 64.0352 46.9933C64.058 47.0497 64.0576 47.1133 64.034 47.1693C63.9928 47.2673 62.9928 49.5821 60.576 50.7909C60.544 50.8069 60.5088 50.8153 60.4732 50.8153Z" fill="#7A7AFB"/>
<path d="M59.6333 53.2448C59.5781 53.246 59.5245 53.2272 59.4821 53.1924C59.4393 53.1572 59.4109 53.108 59.4017 53.0536C59.3925 52.9992 59.4029 52.9432 59.4313 52.896C59.4597 52.8488 59.5041 52.8136 59.5565 52.7964C62.2521 51.8908 63.8429 49.5728 63.8581 49.5488C63.8925 49.498 63.9453 49.4628 64.0053 49.4512C64.0653 49.4392 64.1277 49.452 64.1785 49.486C64.2293 49.52 64.2645 49.5732 64.2765 49.6332C64.2881 49.6932 64.2757 49.7556 64.2413 49.8064C64.1741 49.9068 62.5549 52.2756 59.7045 53.2324C59.6817 53.2404 59.6577 53.2448 59.6333 53.2448Z" fill="#7A7AFB"/>
</svg>
