<svg width="64" height="65" fill="none" xmlns="http://www.w3.org/2000/svg"><path d="M19.035 33.24L5.262 32.181 59.029 9.042l.29.922L19.036 33.24zm-9.656-1.746l9.424.725L51.425 13.37 9.379 31.494z" fill="#0A0D50"/><path d="M58.66 9.189L18.337 32.488l3.89 14.592 10.249-10.249-.943-.472-8.786 8.787L19.5 32.971l36.525-21.105-.495.495 3.538-2.83-.461 1.167.84-.84.433-1.045-1.22.376z" fill="#0A0D50"/><path d="M24.115 43.776l4.13-8.945-.717-.708-.091.074-5.14 11.136-.07 1.747 10.165-10.166-.95-.466-7.327 7.328z" fill="#0A0D50"/><path d="M45.95 44.127l-18.377-9.188-.136-.743L58.758 9.14l1.245-.609L45.95 44.127zm-17.186-9.711l16.656 8.329 12.493-31.649-29.148 23.32zM16 45.729l-11 9 .633.773 11.001-9-.633-.773zm-7.376.776l9.001-7-.613-.788-9.001 7 .613.788z" fill="#0A0D50"/></svg>