<svg width="64" height="64" fill="none" xmlns="http://www.w3.org/2000/svg"><path d="M43.228 38.021l.253.072A12.94 12.94 0 0045 31.998c0-4.347-2.14-8.184-5.415-10.544.122.46.21.967.278 1.501C42.393 25.158 44 28.391 44 32c0 2.108-.551 4.09-1.51 5.813l.738.21zM24.137 22.957c.068-.535.156-1.042.278-1.5C21.14 23.814 19 27.651 19 31.998c0 2.204.553 4.276 1.52 6.095l.253-.072.737-.21A11.923 11.923 0 0120 32c0-3.608 1.607-6.84 4.137-9.042zM32.5 48h-1v11h1V48zm0-43h-1v11h1V5zM16 31.5H5v1h11v-1zm43 0H48v1h11v-1zM30.502 8.052V7.05C17.889 7.795 7.797 17.886 7.05 30.5h1.003C8.8 18.46 18.462 8.798 30.502 8.052zM8.054 33.5H7.05c.746 12.613 10.838 22.705 23.45 23.451v-1.003C18.462 55.201 8.802 45.54 8.055 33.5zm47.894-3h1.003C56.205 17.886 46.113 7.795 33.5 7.05v1.002C45.54 8.798 55.201 18.46 55.948 30.5zM33.5 55.948v1.003c12.613-.746 22.705-10.838 23.451-23.451h-1.003C55.201 45.54 45.54 55.201 33.5 55.948z" fill="#0A0D50"/><path d="M33.5 51.924v1c10.398-.736 18.688-9.025 19.424-19.424h-1c-.735 9.83-8.593 17.689-18.424 18.424zM51.924 30.5h1c-.736-10.398-9.026-18.687-19.424-19.424v1c9.831.735 17.689 8.593 18.424 18.424zm-39.85 3h-1c.736 10.398 9.025 18.688 19.424 19.424v-1c-9.83-.735-17.689-8.594-18.424-18.424zm18.424-21.424v-1C20.1 11.813 11.811 20.102 11.074 30.5h1c.735-9.831 8.593-17.69 18.424-18.424zm11.436 26.618L36 37l-1 1.382-3 1.499-3-1.499L28 37l-6.953 1.983c.178.278 3.609 6.016 10.953 6.016 7.344 0 10.775-5.737 10.95-6.013l-1.016-.292zm-19.215.852l4.695-1.339 2.264 5.535.018.01a11.972 11.972 0 01-6.977-4.206zm9.28 4.453c-.395 0-.781-.036-1.167-.074l-1.804-4.411L32 40.999l2.972-1.485-1.804 4.411c-.386.038-.772.074-1.168.074zm2.307-.247l.018-.01 2.263-5.535 4.695 1.339a11.984 11.984 0 01-6.976 4.206z" fill="#0A0D50"/><path d="M34.975 35.25H35v2.974l-3 1.625-3-1.625V35.25h.025a8.192 8.192 0 01-.821-1H28v4.667l4 2.199 4-2.199V34.25h-.204a8.192 8.192 0 01-.821 1zm2.826-8.165h-.775a.652.652 0 00-.508-.413l-.979-.14a5.297 5.297 0 00-.698-.042c-.21 0-.418.01-.579.03l-1.298.162a.553.553 0 00-.47.402h-.98a.553.553 0 00-.473-.402l-1.299-.162a4.939 4.939 0 00-.579-.03c-.25 0-.507.014-.699.042l-.979.14a.653.653 0 00-.508.413h-.774v.645h.725l.162 1.133c.043.351.367.599.718.65l.98.099c.138.021.311.01.491.01.275 0 .567-.033.777-.075l.348-.074c.347-.07.702-.249.788-.593l.327-1.149s.061-.322.483-.322.483.322.483.322l.327 1.147c.086.343.441.601.79.671l.346.029c.21.042.502.045.778.045.18 0 .353-.02.491-.04l.98-.145c.35-.05.673-.22.717-.572l.162-1.135h.725v-.646zm-6.59.225l-.333 1.328c-.056.224-.313.468-.539.513l-.348.069a3.895 3.895 0 01-.714.059c-.17 0-.329-.009-.446-.026l-.979-.14a.576.576 0 01-.444-.452l-.162-1.299a.338.338 0 01.283-.371l.98-.14c.168-.024.407-.038.653-.038.206 0 .397.01.54.027l1.297.163c.078.01.142.046.18.103.04.056.05.128.031.204zm5.383 1.351a.578.578 0 01-.443.452l-.979.14a3.306 3.306 0 01-.446.026c-.267 0-.532-.022-.716-.059l-.347-.069c-.226-.045-.482-.29-.538-.513l-.332-1.328a.25.25 0 01.031-.205.254.254 0 01.18-.103l1.3-.163a4.74 4.74 0 01.537-.027c.247 0 .484.014.653.038l.98.14a.337.337 0 01.283.371l-.163 1.3z" fill="#0A0D50"/><path d="M36.67 22.059a5.52 5.52 0 01.33 1.89v5c0 2.993-2.472 7-5 7s-5-4.007-5-7v-5c0-.672.12-1.291.32-1.856-.338.318-.976 2.04-1.279 2.938-.017-.051-.025-.097-.041-.147v4.066c0 3.526 2.825 7.999 6 7.999s6-4.473 6-8v-4.053c-.397-1.061-1.037-2.59-1.33-2.837z" fill="#0A0D50"/><path d="M32.008 17.95c3.438 0 5.606 1.81 5.945 5.673-.337-.994-1.06-2.102-1.356-2.102-.463 0-.853.221-1.304.478-.706.401-1.674.951-3.285.951-1.615 0-2.584-.548-3.29-.948-.452-.256-.84-.476-1.302-.476-.296 0-1.019 1.106-1.354 2.097.34-3.861 2.508-5.673 5.946-5.673zm0-1c-4.104 0-6.594 2.456-6.94 6.585-.214 2.533 1.034 5.214 1.034 5.214l.908-4.807c.18-.532.478-1.057.685-1.348.142.059.313.154.53.276.757.43 1.903 1.079 3.783 1.079 1.876 0 3.021-.651 3.78-1.082.215-.123.387-.219.53-.278.208.292.507.819.687 1.354l.846 4.962s1.185-2.683 1.098-5.371c-.129-4.003-2.838-6.584-6.94-6.584z" fill="#0A0D50"/></svg>