<svg width="64" height="64" fill="none" xmlns="http://www.w3.org/2000/svg"><path d="M17.922 31.599c1.6-.19 3.15.589 3.95 1.987.01.017.015.036.024.054a3.955 3.955 0 011.463-1.48 3.983 3.983 0 011.57-.506.5.5 0 01.103.994 3.003 3.003 0 00-2.291 4.474 2.972 2.972 0 001.885 1.423.5.5 0 11-.242.97 3.97 3.97 0 01-2.512-1.897 3.956 3.956 0 01-.48-2.483c-.015-.036-.035-.067-.04-.106a3.026 3.026 0 00-.349-.945 3 3 0 00-2.964-1.491.498.498 0 01-.555-.437.499.499 0 01.438-.557zm-6.109 13.843A3.998 3.998 0 0115.5 43c.02 0 .04.005.06.005A3.96 3.96 0 0115 41c0-.562.114-1.104.34-1.613a.5.5 0 11.914.404A3.004 3.004 0 0019 44c.827 0 1.598-.33 2.171-.931a.5.5 0 01.723.691 3.965 3.965 0 01-5.29.425c-.038-.005-.075-.003-.112-.017a3.006 3.006 0 00-3.759 1.665.5.5 0 11-.92-.391zm10.185 7.56c.55 0 1.098-.114 1.616-.344a3.964 3.964 0 002.114-2.214 3.97 3.97 0 00-.072-3.06.5.5 0 00-.914.404c.324.732.343 1.547.054 2.294a2.976 2.976 0 01-1.586 1.661 2.996 2.996 0 01-3.955-1.532.5.5 0 00-.916.402 3.969 3.969 0 002.214 2.115c.468.183.957.274 1.445.274z" fill="#0A0D50"/><path d="M8.102 44.256c.041.022.086.023.13.034A5.474 5.474 0 007.5 47c0 3.032 2.468 5.5 5.5 5.5.066 0 .13-.015.188-.038C13.843 55.065 16.196 57 19 57c.91 0 2.681-.409 2.775-.355A6.503 6.503 0 0025 57.5c3.584 0 6.5-2.916 6.5-6.5a6.487 6.487 0 00-2.073-4.747C31.492 45.454 31.5 42.837 31.5 41c0-1.673-.006-3.995-1.565-5 1.56-1.005 1.565-3.327 1.565-5s-.006-3.995-1.565-5c1.56-1.005 1.565-3.327 1.565-5 0-1.708-.008-4.089-1.666-5.059A5.466 5.466 0 0031.5 12c0-3.032-2.468-5.5-5.5-5.5-2.604 0-4.786 1.821-5.353 4.255A5.476 5.476 0 0019 10.5a5.507 5.507 0 00-5.5 5.5c0 .077.018.15.021.228a.48.48 0 00-.209.014C10.773 16.983 9 19.352 9 22c0 1.129.336 2.203.906 3.131A4.986 4.986 0 006 30a5 5 0 001.872 3.89A5.994 5.994 0 005 39a6.008 6.008 0 003.102 5.256zm.645-.727a.488.488 0 00-.161-.148A5.01 5.01 0 016 39a5.006 5.006 0 015.698-4.953.5.5 0 10.135-.991 5.955 5.955 0 00-2.941.334A3.995 3.995 0 017 30a3.984 3.984 0 013.576-3.962 5.953 5.953 0 002.281 1.567.5.5 0 10.358-.934A5.027 5.027 0 0110 22a5.026 5.026 0 013.594-4.8c.017-.005.029-.018.045-.023a5.488 5.488 0 001.327 2.563.501.501 0 00.734-.68A4.488 4.488 0 0114.5 16a4.505 4.505 0 015.89-4.281c.041.014.082.012.124.015-.005.088-.014.176-.014.266a.5.5 0 001 0c0-2.481 2.019-4.5 4.5-4.5s4.5 2.019 4.5 4.5a4.476 4.476 0 01-1.718 3.538c-.01.008-.015.02-.024.028A4.552 4.552 0 0028 15.5a.5.5 0 000 1c2.126 0 2.5 1.451 2.5 4.5s-.374 4.5-2.5 4.5a.5.5 0 000 1c2.126 0 2.5 1.451 2.5 4.5s-.374 4.5-2.5 4.5a.5.5 0 000 1c2.126 0 2.5 1.451 2.5 4.5s-.374 4.5-2.5 4.5a.5.5 0 000 1c.051 0 .094-.007.144-.009A5.497 5.497 0 0130.5 51c0 3.032-2.468 5.5-5.5 5.5-.878 0-1.739-.22-2.515-.618a6.08 6.08 0 00.827-.709.5.5 0 10-.719-.695A4.96 4.96 0 0119 56c-2.757 0-5-2.243-5-5a.5.5 0 00-1 0c0 .171.012.338.025.505-.009 0-.017-.005-.025-.005A4.505 4.505 0 018.5 47a4.515 4.515 0 012.639-4.099.5.5 0 10-.414-.91 5.483 5.483 0 00-1.978 1.538z" fill="#0A0D50"/><path d="M15 22c1.286 0 2.377.817 2.803 1.957.262-.282.578-.514.938-.68a2.985 2.985 0 012.295-.094.502.502 0 01.297.643.503.503 0 01-.643.297 1.975 1.975 0 00-1.529.062 2 2 0 00.151 3.692.502.502 0 01-.346.94 2.993 2.993 0 01-1.863-3.53A.48.48 0 0117 25c0-1.103-.897-2-2-2a.5.5 0 010-1zm5.358-6.487a.5.5 0 01.704.069 2.502 2.502 0 003.936-3.084.497.497 0 01.1-.699.498.498 0 01.7.1c.458.61.7 1.336.7 2.101 0 .993-.42 1.886-1.086 2.522a.497.497 0 01-.089.121 2.507 2.507 0 00-.825 1.856c0 .668.26 1.296.732 1.769a.5.5 0 01-.708.707 3.478 3.478 0 01-1.025-2.476c0-.368.076-.726.188-1.069a3.493 3.493 0 01-3.396-1.213.5.5 0 01.07-.704zm25.718 16.086c-1.6-.19-3.15.589-3.949 1.987-.01.017-.016.036-.025.054a3.955 3.955 0 00-1.463-1.48 3.983 3.983 0 00-1.569-.506.5.5 0 00-.103.994 3.003 3.003 0 012.291 4.474 2.972 2.972 0 01-1.886 1.423.5.5 0 10.242.97 3.97 3.97 0 002.512-1.897 3.956 3.956 0 00.48-2.483c.015-.036.035-.067.041-.106a3.05 3.05 0 01.348-.945 3 3 0 012.964-1.491.498.498 0 00.555-.437.499.499 0 00-.438-.557zm6.108 13.843A3.998 3.998 0 0048.498 43c-.02 0-.039.005-.059.005A3.96 3.96 0 0049 41c0-.562-.115-1.104-.34-1.613a.5.5 0 10-.914.404A3.004 3.004 0 0144.998 44c-.828 0-1.599-.33-2.172-.931a.5.5 0 00-.723.691 3.965 3.965 0 005.29.425c.038-.005.075-.003.112-.017a3.006 3.006 0 013.76 1.665.5.5 0 10.92-.391zm-10.182 7.56c-.55 0-1.098-.114-1.616-.344a3.964 3.964 0 01-2.114-2.214 3.97 3.97 0 01.072-3.06.5.5 0 01.914.404 2.977 2.977 0 00-.054 2.294 2.976 2.976 0 001.586 1.661 2.996 2.996 0 003.955-1.532.5.5 0 01.916.402 3.969 3.969 0 01-2.214 2.115 3.963 3.963 0 01-1.445.274z" fill="#0A0D50"/><path d="M59 39a5.994 5.994 0 00-2.872-5.11A5 5 0 0058 30a4.986 4.986 0 00-3.906-4.869c.57-.928.906-2.002.906-3.131a6.03 6.03 0 00-4.313-5.759.496.496 0 00-.209-.014c.004-.077.022-.15.022-.227 0-3.032-2.468-5.5-5.5-5.5-.563 0-1.117.088-1.647.255C42.786 8.321 40.604 6.5 38 6.5a5.507 5.507 0 00-5.5 5.5c0 1.503.603 2.91 1.666 3.941-1.658.97-1.666 3.351-1.666 5.059 0 1.673.006 3.995 1.565 5-1.56 1.005-1.565 3.327-1.565 5s.006 3.995 1.565 5c-1.56 1.005-1.565 3.327-1.565 5 0 1.837.008 4.454 2.073 5.253A6.487 6.487 0 0032.5 51c0 3.584 2.916 6.5 6.5 6.5a6.503 6.503 0 003.225-.855C42.319 56.591 44.09 57 45 57c2.804 0 5.157-1.935 5.813-4.538A.503.503 0 0051 52.5c3.032 0 5.5-2.468 5.5-5.5 0-.971-.269-1.896-.731-2.71.044-.011.089-.012.13-.034A6.009 6.009 0 0059 39zm-5.725 2.991a.5.5 0 10-.414.91A4.515 4.515 0 0155.5 47c0 2.481-2.019 4.5-4.5 4.5-.009 0-.017.005-.025.005.013-.167.025-.334.025-.505a.5.5 0 00-1 0c0 2.757-2.243 5-5 5a4.963 4.963 0 01-3.594-1.522.5.5 0 00-.719.695c.256.265.535.499.827.709A5.512 5.512 0 0139 56.5a5.507 5.507 0 01-5.5-5.5c0-1.801.881-3.478 2.356-4.509.05.002.093.009.144.009a.5.5 0 000-1c-2.126 0-2.5-1.451-2.5-4.5s.374-4.5 2.5-4.5a.5.5 0 000-1c-2.126 0-2.5-1.451-2.5-4.5s.374-4.5 2.5-4.5a.5.5 0 000-1c-2.126 0-2.5-1.451-2.5-4.5s.374-4.5 2.5-4.5a.5.5 0 000-1c-.276 0-.523.027-.758.066-.01-.009-.015-.021-.024-.028A4.476 4.476 0 0133.5 12c0-2.481 2.019-4.5 4.5-4.5s4.5 2.019 4.5 4.5a.5.5 0 001 0c0-.09-.009-.178-.014-.267.042-.003.083-.001.124-.015A4.505 4.505 0 0149.5 16a4.488 4.488 0 01-1.2 3.06.5.5 0 00.734.68 5.483 5.483 0 001.327-2.563c.016.006.028.019.045.023A5.026 5.026 0 0154 22a5.029 5.029 0 01-3.215 4.672.5.5 0 10.358.934 5.967 5.967 0 002.281-1.567 3.982 3.982 0 011.684 7.351 5.955 5.955 0 00-2.941-.333.499.499 0 10.135.991A5.006 5.006 0 0158 39a5.01 5.01 0 01-2.586 4.381.498.498 0 00-.161.148 5.483 5.483 0 00-1.978-1.538z" fill="#0A0D50"/><path d="M49 22a2.997 2.997 0 00-2.803 1.957 2.983 2.983 0 00-.938-.68 2.985 2.985 0 00-2.295-.094.502.502 0 00-.297.643c.097.26.382.389.643.297a1.975 1.975 0 011.53.062 2 2 0 01-.151 3.692.502.502 0 00.345.94 2.993 2.993 0 001.863-3.53A.48.48 0 0047 25c0-1.103.897-2 2-2a.5.5 0 000-1zm-5.36-6.487a.5.5 0 00-.704.069A2.502 2.502 0 0139 12.498a.497.497 0 00-.1-.699.498.498 0 00-.699.1 3.478 3.478 0 00.385 4.623.497.497 0 00.089.121c.524.474.825 1.15.825 1.856 0 .668-.26 1.296-.732 1.769a.5.5 0 00.708.707 3.478 3.478 0 001.025-2.476c0-.368-.076-.726-.188-1.069a3.493 3.493 0 003.396-1.213.5.5 0 00-.069-.704z" fill="#0A0D50"/></svg>