<svg width="64" height="64" fill="none" xmlns="http://www.w3.org/2000/svg"><path d="M21 27.83l5.068 5.068a.316.316 0 00-.027.018H26a4.505 4.505 0 00-4.5 4.5c0 2.481 2.019 4.5 4.5 4.5 2.48 0 4.5-2.019 4.5-4.5v-.041a.211.211 0 01.018-.027l5.068 5.068-5.086 5.086c-.412.412-.648.955-.648 1.49 0 .445.166.855.464 1.152.18.182.823.773 1.5.773l.106-.002H32c1.379 0 2.5 1.121 2.5 2.5s-1.121 2.5-2.5 2.5a2.502 2.502 0 01-2.5-2.5V53.3c.038-.679-.518-1.316-.771-1.57a1.617 1.617 0 00-1.154-.463c-.534 0-1.077.236-1.49.648L21 57.001l-5.086-5.086c-.412-.412-.955-.648-1.49-.648-.444 0-.853.164-1.155.465-.251.252-.807.89-.77 1.568v.115c0 1.379-1.12 2.5-2.5 2.5a2.502 2.502 0 01-2.5-2.5c0-1.379 1.122-2.5 2.5-2.5h.092l.016.002h.077c.678 0 1.32-.592 1.499-.771.3-.299.466-.709.466-1.154 0-.535-.236-1.078-.648-1.49l-5.086-5.086 5.068-5.068a.63.63 0 01.018.027v.041c0 2.481 2.019 4.5 4.5 4.5 2.48 0 4.5-2.019 4.5-4.5s-2.02-4.5-4.5-4.5h-.041l-.027-.018 5.065-5.066H21v-.002zm0-.998a.998.998 0 00-.707.291l-5.086 5.086c-.39.389-.472.942-.184 1.229.27.272.617.479.793.479.01 0 .02 0 .028-.002h.155c1.934 0 3.5 1.566 3.5 3.5s-1.566 3.5-3.5 3.5a3.499 3.499 0 01-3.5-3.5v-.155c.025-.164-.19-.534-.477-.822a.622.622 0 00-.448-.171c-.26 0-.55.123-.782.355l-5.086 5.086a1.003 1.003 0 000 1.414l5.086 5.086c.389.389.472.942.184 1.229-.271.272-.617.479-.793.479-.01 0-.02 0-.028-.002H10a3.499 3.499 0 00-3.5 3.5c0 1.934 1.566 3.5 3.5 3.5s3.5-1.566 3.5-3.5v-.155c-.025-.164.189-.534.477-.822a.622.622 0 01.448-.171c.259 0 .55.123.782.355l5.086 5.086A.991.991 0 0021 58a.998.998 0 00.707-.291l5.086-5.086c.232-.232.524-.355.782-.355.174 0 .332.056.448.171.287.288.502.658.477.822v.155c0 1.934 1.566 3.5 3.5 3.5s3.5-1.566 3.5-3.5-1.566-3.5-3.5-3.5h-.155c-.01.002-.02.002-.028.002-.176 0-.521-.207-.793-.479-.288-.287-.205-.841.184-1.229l5.086-5.086a1.003 1.003 0 000-1.414l-5.086-5.086c-.232-.232-.524-.355-.782-.355a.622.622 0 00-.448.171c-.287.288-.502.658-.477.822v.155c0 1.934-1.566 3.5-3.5 3.5a3.499 3.499 0 01-3.5-3.5c0-1.934 1.566-3.5 3.5-3.5h.155a.132.132 0 00.028.002c.176 0 .52-.207.793-.479.288-.287.205-.841-.184-1.229l-5.086-5.086a.991.991 0 00-.707-.293zM43 5.83l5.068 5.068a.63.63 0 01-.027.018H48a4.505 4.505 0 00-4.5 4.5c0 2.481 2.019 4.5 4.5 4.5 2.48 0 4.5-2.019 4.5-4.5v-.041a.211.211 0 01.018-.027l5.068 5.068-5.068 5.068-.018-.026v-.042c0-2.481-2.02-4.5-4.5-4.5a4.505 4.505 0 00-4.5 4.5c0 2.481 2.019 4.5 4.5 4.5h.04l.028.018L43 35.002l-5.086-5.086c-.412-.412-.955-.648-1.49-.648-.444 0-.853.164-1.155.465-.251.252-.807.89-.77 1.568v.115c0 1.379-1.12 2.5-2.5 2.5a2.502 2.502 0 01-2.5-2.5c0-1.378 1.122-2.5 2.5-2.5h.092l.016.002h.077c.678 0 1.32-.592 1.499-.771.3-.3.466-.71.466-1.155 0-.534-.236-1.078-.648-1.49l-5.086-5.086L33.5 15.33c.412-.412.648-.955.648-1.49 0-.445-.166-.855-.464-1.152-.181-.181-.823-.773-1.501-.773l-.105.002H32a2.502 2.502 0 01-2.5-2.5c0-1.378 1.12-2.5 2.5-2.5 1.379 0 2.5 1.122 2.5 2.5v.115c-.038.679.518 1.317.77 1.571.3.298.71.462 1.155.462.534 0 1.077-.236 1.489-.648l5.083-5.084H43V5.83zm0-.998a.998.998 0 00-.707.291l-5.086 5.086c-.232.232-.524.355-.782.355a.622.622 0 01-.448-.171c-.287-.288-.502-.658-.477-.822v-.155c0-1.934-1.566-3.5-3.5-3.5a3.499 3.499 0 00-3.5 3.5c0 1.934 1.566 3.5 3.5 3.5h.155a.264.264 0 01.028-.002c.176 0 .52.207.793.479.288.287.205.841-.184 1.229l-5.086 5.086a1.003 1.003 0 000 1.414l5.086 5.086c.389.389.472.942.184 1.229-.271.272-.617.479-.793.479-.01 0-.02 0-.028-.002H32a3.499 3.499 0 00-3.5 3.5c0 1.934 1.566 3.5 3.5 3.5s3.5-1.566 3.5-3.5v-.155c-.025-.164.189-.534.477-.822a.622.622 0 01.448-.171c.259 0 .55.123.782.355l5.086 5.086A.991.991 0 0043 36a.998.998 0 00.707-.291l5.086-5.086c.389-.389.472-.942.184-1.229-.271-.272-.617-.479-.793-.479a.23.23 0 00-.028.002H48a3.499 3.499 0 01-3.5-3.5c0-1.934 1.566-3.5 3.5-3.5s3.5 1.566 3.5 3.5v.155c-.025.164.189.534.477.822a.622.622 0 00.448.171c.259 0 .55-.123.782-.355l5.086-5.086a1.003 1.003 0 000-1.414l-5.086-5.086c-.232-.232-.524-.355-.782-.355a.622.622 0 00-.448.171c-.287.288-.502.658-.477.822v.155c0 1.934-1.566 3.5-3.5 3.5a3.499 3.499 0 01-3.5-3.5c0-1.934 1.566-3.5 3.5-3.5h.155a.132.132 0 00.028.002c.176 0 .52-.207.793-.479.288-.287.205-.841-.184-1.229l-5.086-5.086A.991.991 0 0043 4.832z" fill="#0A0D50"/></svg>