<svg width="34" height="34" fill="none" xmlns="http://www.w3.org/2000/svg"><g clip-path="url(#clip0_5219_4933)"><path d="M12.633 24V13.88h-3.43V24h3.43zm-1.715-11.503c1.196 0 1.94-.777 1.94-1.748-.022-.994-.744-1.75-1.917-1.75C9.767 9 9 9.757 9 10.75c0 .97.744 1.748 1.896 1.748h.022zM14.531 24h3.43v-5.652c0-.302.023-.604.114-.82.248-.605.812-1.23 1.76-1.23 1.24 0 1.737.927 1.737 2.288V24h3.43v-5.803c0-3.109-1.692-4.555-3.949-4.555-1.85 0-2.663 1.014-3.114 1.705h.023V13.88h-3.43c.044.95 0 10.12 0 10.12z" fill="#fff"/></g><defs><clipPath id="clip0_5219_4933"><path fill="#fff" transform="translate(9 9)" d="M0 0h16v15H0z"/></clipPath></defs></svg>