<svg width="24" height="24" fill="none" xmlns="http://www.w3.org/2000/svg"><g clip-path="url(#clip0_2057_12329)"><path d="M3.244 5.395L5.74 2.902a1.894 1.894 0 012.688 0l2.686 2.686a1.896 1.896 0 010 2.688L9.15 10.24a9.23 9.23 0 001.887 2.72 9.265 9.265 0 002.72 1.895l1.965-1.964a1.896 1.896 0 012.688 0l2.688 2.683a1.897 1.897 0 010 2.69l-2.491 2.492a3.08 3.08 0 01-2.67.858c-3.159-.52-6.292-2.2-8.821-4.727-2.527-2.524-4.205-5.656-4.732-8.825a3.085 3.085 0 01.86-2.667z" fill="#192031"/></g><defs><clipPath id="clip0_2057_12329"><path fill="#fff" transform="matrix(-1 0 0 1 24 0)" d="M0 0h24v24H0z"/></clipPath></defs></svg>