<svg width="64" height="64" fill="none" xmlns="http://www.w3.org/2000/svg"><g clip-path="url(#clip0_2057_12208)" fill="#0A0D50"><path d="M45.033 27.013c.014.004.026.007.038.012a1.32 1.32 0 01.903-.581l-1.313-2.765c-.19.266-.47.469-.849.54l1.291 2.724-.07.07zm-8.796 8.776c.033-.07.054-.145.098-.208l-4.682-2.447a1.349 1.349 0 01-.852.429c-.102.038-.21.067-.328.083l5.234 2.737c.114-.243.29-.45.53-.594z"/><path d="M48.45 27.962a1.74 1.74 0 01.706-.709l-2.534-2.534-12.02 12.02 2.527 2.528c.073-.358.254-.681.52-.894l-1.634-1.634 10.607-10.606 1.829 1.829z"/><path d="M54.842 59.516l.28-1.136L36.93 40.067l12.435-12.434L59.47 37.805l.28-1.134-10.386-10.452-13.85 13.848 19.327 19.449zM27.833 7.052c1.146-.502 2.602-1.067 3.123-1.067.186.006.422.118.667.276l.716-.716c-.425-.296-.916-.545-1.397-.56-.86 0-2.857.854-3.84 1.3.357.15.599.434.73.767zm-10.5 17.865c.285 0 .523.07.725.182l1.003-2.851a1.399 1.399 0 01-.938-.346l-1.072 3.042c.09-.015.182-.027.282-.027zm28.697-6.149a2.978 2.978 0 00-2.056-.878 3.004 3.004 0 00-.419-3.718 2.983 2.983 0 00-2.22-.877 3.008 3.008 0 00-.608-3.366 2.986 2.986 0 00-2.057-.878 3.004 3.004 0 00-.419-3.718c-1.133-1.133-3.109-1.133-4.242 0l-3.794 3.794c.33.148.557.416.687.727l3.814-3.814c.756-.756 2.072-.756 2.828 0a2.003 2.003 0 010 2.828l-1.057 1.056c0 .002-.003.003-.004.005a.5.5 0 00.707.707c.756-.756 2.073-.756 2.83 0 .778.78.778 2.049 0 2.829l-.708.707a.5.5 0 00.707.707c.756-.756 2.072-.756 2.828 0 .378.378.586.88.586 1.414 0 .534-.208 1.036-.586 1.414l-1.06 1.06a.5.5 0 00.706.708l.004-.004c.756-.751 2.07-.751 2.824.004.78.78.78 2.049 0 2.829l-7.778 7.778c-.716.716-2.145 1.557-3.12 1.836l-7.43 2.123c.225.256.344.59.365.935l7.34-2.097c1.148-.33 2.71-1.247 3.552-2.09l7.778-7.778a3.001 3.001 0 00.002-4.243z"/><path d="M26.129 37.961c.333.1.62.308.79.624l2.493-2.493-12.02-12.02-2.51 2.509c.32.13.599.355.777.639l1.733-1.733 10.606 10.606-1.87 1.868z"/><path d="M14.563 25.486L4.25 35.976l.275 1.14L14.563 26.9l12.935 12.935L9.287 58.37l.277 1.145 19.348-19.681-14.349-14.35z"/><path d="M22.902 43.017c-.78.779-2.05.78-2.83 0a2.002 2.002 0 010-2.828 2.001 2.001 0 012.829 2.828zm-2.121-2.121a1 1 0 101.414 1.414 1 1 0 00-1.414-1.414zm-1.186-18.043c-.69 0-1.339-.269-1.827-.757l-1.385-1.385a2.569 2.569 0 01-.758-1.829c.001-.69.27-1.339.758-1.825.975-.977 2.68-.977 3.654 0l1.385 1.384a2.57 2.57 0 01.758 1.828c0 .69-.27 1.34-.758 1.827a2.567 2.567 0 01-1.827.757zm-1.385-5.554c-.423 0-.821.165-1.12.465a1.57 1.57 0 00-.465 1.118c0 .424.165.822.465 1.122l1.385 1.385c.598.598 1.643.598 2.24 0 .3-.299.465-.697.465-1.12 0-.424-.165-.821-.465-1.121l-1.385-1.384a1.571 1.571 0 00-1.12-.465z"/><path d="M23.244 20.248c-.69 0-1.34-.27-1.828-.758l-2.947-2.947a2.57 2.57 0 01-.758-1.828c0-.69.27-1.34.758-1.827.975-.977 2.678-.977 3.654 0l2.947 2.948c.489.488.758 1.139.758 1.829a2.564 2.564 0 01-.758 1.825 2.563 2.563 0 01-1.826.758zm-2.95-7.118c-.422 0-.82.165-1.118.464-.3.299-.465.697-.465 1.12 0 .424.165.821.465 1.121l2.947 2.947c.6.6 1.643.601 2.24 0 .3-.299.464-.695.465-1.118 0-.424-.165-.822-.465-1.122l-2.947-2.948a1.575 1.575 0 00-1.121-.464z"/><path d="M26.891 17.642c-.69 0-1.34-.27-1.827-.758l-3.99-3.99a2.567 2.567 0 01-.758-1.827c0-.69.27-1.34.758-1.827.975-.976 2.678-.978 3.654 0l3.99 3.99c.488.487.758 1.137.758 1.827s-.27 1.34-.758 1.827a2.564 2.564 0 01-1.827.758zm-3.99-8.16c-.424 0-.822.165-1.12.465a1.57 1.57 0 00-.466 1.12c0 .423.165.82.465 1.12l3.99 3.99c.598.6 1.643.6 2.24 0 .3-.3.465-.697.465-1.12 0-.423-.165-.821-.465-1.12l-3.99-3.99a1.571 1.571 0 00-1.12-.465z"/><path d="M29.495 13.994a2.57 2.57 0 01-1.827-.757l-2.948-2.948a2.587 2.587 0 010-3.654c.975-.977 2.68-.977 3.655 0l2.947 2.947a2.57 2.57 0 01.758 1.828c0 .69-.27 1.34-.758 1.827a2.566 2.566 0 01-1.827.757zm-2.948-7.118a1.587 1.587 0 00-1.12 2.705l2.948 2.948c.6.599 1.644.598 2.24 0 .3-.3.465-.697.465-1.12 0-.424-.165-.821-.465-1.121L27.668 7.34a1.577 1.577 0 00-1.12-.465z"/></g><defs><clipPath id="clip0_2057_12208"><path fill="#fff" d="M0 0h64v64H0z"/></clipPath></defs></svg>