<svg width="34" height="34" fill="none" xmlns="http://www.w3.org/2000/svg"><g clip-path="url(#clip0_5219_4929)"><path d="M26 11.704a7.674 7.674 0 01-2.121.554 3.564 3.564 0 001.624-1.946 7.623 7.623 0 01-2.345.854 3.776 3.776 0 00-2.696-1.111c-2.04 0-3.693 1.575-3.693 3.518 0 .276.033.544.096.802-3.07-.147-5.79-1.548-7.612-3.676-.318.52-.5 1.124-.5 1.768 0 1.221.652 2.298 1.643 2.929a3.819 3.819 0 01-1.673-.44V15c0 1.704 1.273 3.127 2.962 3.45a3.875 3.875 0 01-1.667.06c.47 1.398 1.833 2.415 3.45 2.443A7.646 7.646 0 018.88 22.46c-.298 0-.592-.016-.881-.049a10.833 10.833 0 005.66 1.58c6.793 0 10.508-5.36 10.508-10.01 0-.152-.004-.303-.01-.454A7.32 7.32 0 0026 11.704" fill="#fff"/></g><defs><clipPath id="clip0_5219_4929"><path fill="#fff" transform="translate(8 10)" d="M0 0h18v14H0z"/></clipPath></defs></svg>