<svg width="16" height="16" fill="none" xmlns="http://www.w3.org/2000/svg"><path fill-rule="evenodd" clip-rule="evenodd" d="M7.986 0a7.987 7.987 0 00-2.528 15.563c.4.074.57-.171.57-.383v-1.357c-2.218.479-2.686-1.073-2.686-1.073a2.117 2.117 0 00-.924-1.17c-.725-.49.057-.484.057-.484a1.677 1.677 0 011.22.827 1.712 1.712 0 002.328.662c.032-.405.21-.784.502-1.067-1.768-.205-3.634-.89-3.634-3.948a3.08 3.08 0 01.822-2.145 2.852 2.852 0 01.08-2.11s.667-.217 2.196.815a7.588 7.588 0 013.993 0c1.524-1.032 2.191-.815 2.191-.815.296.667.324 1.422.08 2.11.54.583.834 1.351.821 2.145 0 3.07-1.865 3.743-3.645 3.942a1.9 1.9 0 01.542 1.478v2.19c0 .263.143.463.57.383A7.987 7.987 0 007.986 0z" fill="#192031"/></svg>