<svg width="18" height="14" fill="none" xmlns="http://www.w3.org/2000/svg"><path d="M18 1.704a7.674 7.674 0 01-2.121.554A3.564 3.564 0 0017.503.312a7.623 7.623 0 01-2.345.854A3.776 3.776 0 0012.462.055c-2.04 0-3.693 1.575-3.693 3.518 0 .276.033.544.096.802-3.07-.147-5.79-1.548-7.612-3.676-.318.52-.5 1.124-.5 1.768 0 1.221.652 2.298 1.643 2.929a3.819 3.819 0 01-1.673-.44V5c0 1.704 1.273 3.126 2.962 3.45a3.876 3.876 0 01-1.667.06c.47 1.398 1.833 2.415 3.45 2.443A7.646 7.646 0 01.88 12.46c-.298 0-.592-.016-.881-.049a10.833 10.833 0 005.66 1.58c6.793 0 10.508-5.36 10.508-10.01 0-.152-.004-.304-.01-.454A7.32 7.32 0 0018 1.704z" fill="#192031"/></svg>