<svg width="34" height="34" fill="none" xmlns="http://www.w3.org/2000/svg"><path fill-rule="evenodd" clip-rule="evenodd" d="M16.986 9a7.987 7.987 0 00-2.528 15.563c.4.074.57-.171.57-.383v-1.357c-2.218.479-2.686-1.073-2.686-1.073a2.117 2.117 0 00-.924-1.17c-.725-.49.057-.484.057-.484a1.677 1.677 0 011.22.827 1.711 1.711 0 002.328.662c.032-.405.21-.784.502-1.067-1.768-.205-3.634-.89-3.634-3.948a3.08 3.08 0 01.822-2.145 2.853 2.853 0 01.08-2.11s.667-.217 2.196.815a7.589 7.589 0 013.993 0c1.524-1.032 2.191-.816 2.191-.816.296.668.324 1.423.08 2.111.54.583.834 1.351.821 2.145 0 3.07-1.865 3.743-3.645 3.942a1.901 1.901 0 01.542 1.478v2.19c0 .263.143.462.57.383A7.987 7.987 0 0016.986 9z" fill="#fff"/></svg>