<svg width="181" height="277" fill="none" xmlns="http://www.w3.org/2000/svg"><path d="M30 70c0-22.091 17.909-40 40-40h28v68H30V70z" fill="#FFFDFB"/><g clip-path="url(#clip0_5142_5398)"><g clip-path="url(#clip1_5142_5398)"><path fill-rule="evenodd" clip-rule="evenodd" d="M30 98H2c15.464 0 28-12.536 28-28v28z" fill="#FFFDFB"/></g></g><g clip-path="url(#clip2_5142_5398)"><g clip-path="url(#clip3_5142_5398)"><path fill-rule="evenodd" clip-rule="evenodd" d="M151 277h28c-15.464 0-28-12.536-28-28v28z" fill="#FFFDFB"/></g></g><g clip-path="url(#clip4_5142_5398)"><g clip-path="url(#clip5_5142_5398)"><path fill-rule="evenodd" clip-rule="evenodd" d="M98 30H70c15.464 0 28-12.536 28-28v28z" fill="#FFFDFB"/></g></g><defs><clipPath id="clip0_5142_5398"><path fill="#fff" transform="translate(0 68)" d="M0 0h30v30H0z"/></clipPath><clipPath id="clip1_5142_5398"><path fill="#fff" transform="translate(0 68)" d="M0 0h30v30H0z"/></clipPath><clipPath id="clip2_5142_5398"><path fill="#fff" transform="matrix(-1 0 0 1 181 247)" d="M0 0h30v30H0z"/></clipPath><clipPath id="clip3_5142_5398"><path fill="#fff" transform="matrix(-1 0 0 1 181 247)" d="M0 0h30v30H0z"/></clipPath><clipPath id="clip4_5142_5398"><path fill="#fff" transform="translate(68)" d="M0 0h30v30H0z"/></clipPath><clipPath id="clip5_5142_5398"><path fill="#fff" transform="translate(68)" d="M0 0h30v30H0z"/></clipPath></defs></svg>