<svg width="98" height="98" fill="none" xmlns="http://www.w3.org/2000/svg"><path d="M30 70c0-22.091 17.909-40 40-40h28v68H30V70z" fill="#FFFDFB"/><g clip-path="url(#clip0_4320_4125)"><g clip-path="url(#clip1_4320_4125)"><path fill-rule="evenodd" clip-rule="evenodd" d="M30 98H2c15.464 0 28-12.536 28-28v28z" fill="#FFFDFB"/></g></g><g clip-path="url(#clip2_4320_4125)"><g clip-path="url(#clip3_4320_4125)"><path fill-rule="evenodd" clip-rule="evenodd" d="M98 30H70c15.464 0 28-12.536 28-28v28z" fill="#FFFDFB"/></g></g><defs><clipPath id="clip0_4320_4125"><path fill="#fff" transform="translate(0 68)" d="M0 0h30v30H0z"/></clipPath><clipPath id="clip1_4320_4125"><path fill="#fff" transform="translate(0 68)" d="M0 0h30v30H0z"/></clipPath><clipPath id="clip2_4320_4125"><path fill="#fff" transform="translate(68)" d="M0 0h30v30H0z"/></clipPath><clipPath id="clip3_4320_4125"><path fill="#fff" transform="translate(68)" d="M0 0h30v30H0z"/></clipPath></defs></svg>