<svg width="48" height="48" viewBox="0 0 48 48" fill="none" xmlns="http://www.w3.org/2000/svg">
<path d="M43.2202 38.3591C42.7215 38.9878 42.0359 39.81 41.5031 40.4101C40.6156 41.3404 39.1597 42.3971 37.1969 43.4736C32.0998 46.269 25.4323 48.1837 21.9297 47.8995C21.4895 47.8481 20.9012 47.7905 20.4628 47.7257C19.9321 47.628 19.2219 47.5103 18.6953 47.3929C18.8213 47.4205 18.9544 47.4449 19.0948 47.4659C23.0954 48.0653 31.4829 45.7298 37.8287 42.2496C40.7246 40.6614 42.6949 39.1092 43.6011 37.834L43.2202 38.3591Z" fill="url(#paint0_linear_1760_3817)"/>
<path d="M45.7204 34.1912C44.9433 35.8312 42.4116 37.9812 38.3851 40.1894C30.7885 44.3556 20.748 47.1513 15.9589 46.4339C15.45 46.3576 15.0207 46.2447 14.6693 46.0989C14.0948 45.8319 13.3233 45.4867 12.7611 45.1947L11.9727 44.7589C12.4175 45.0142 13.0206 45.2044 13.7878 45.3194C19.0785 46.1119 30.1709 43.0234 38.5632 38.4208C43.3495 35.7959 46.2239 33.2455 46.829 31.3913C46.5182 32.2396 46.0953 33.3693 45.7204 34.1912Z" fill="url(#paint1_linear_1760_3817)"/>
<path d="M47.7595 27.3987L47.7542 27.4349C47.4497 29.515 44.1958 32.5504 38.4867 35.6815C29.1884 40.7809 16.8988 44.2028 11.037 43.3246C9.93995 43.1603 9.1458 42.857 8.64052 42.439C7.99852 41.8625 7.14878 41.0856 6.54266 40.4715L6.47266 40.3971C6.98269 40.9413 7.88924 41.3319 9.21447 41.5305C15.4028 42.4575 28.3767 38.845 38.1927 33.4616C44.484 30.0113 47.9512 26.671 48.0007 24.4728C47.9483 25.352 47.876 26.5257 47.7595 27.3987Z" fill="url(#paint2_linear_1760_3817)"/>
<path d="M47.5891 19.5396L47.592 19.5565L47.7338 20.3851C48.0815 22.6777 44.4144 26.3637 37.4599 30.1778C27.1555 35.8289 13.5359 39.6212 7.03975 38.648C5.43335 38.4074 4.41306 37.8979 3.94289 37.1817C3.47266 36.3983 2.85699 35.3457 2.4375 34.534C2.84704 35.3731 3.92171 35.9678 5.70908 36.2355C12.322 37.2262 26.1862 33.3658 36.6759 27.613C44.0005 23.596 47.7428 19.7184 47.0827 17.407C47.2381 18.0459 47.4707 18.8928 47.5891 19.5396Z" fill="url(#paint3_linear_1760_3817)"/>
<path d="M44.6409 11.7381C44.9175 12.2513 45.3067 12.9251 45.5623 13.4491C46.6673 15.7143 42.925 19.7595 35.2712 23.957C24.7817 29.7097 10.9176 33.5701 4.30474 32.5794C2.30951 32.2805 1.20238 31.5742 0.917221 30.5754C0.779475 30.0089 0.573288 29.2585 0.458622 28.6868L0.265625 27.5916C0.432704 28.6963 1.53168 29.4777 3.64388 29.7941C10.1397 30.7673 23.7583 26.9752 34.0621 21.3244C41.8198 17.0699 45.4866 12.9746 44.0527 10.7952L44.6409 11.7381Z" fill="url(#paint4_linear_1760_3817)"/>
<path d="M39.5762 5.72495C40.1694 6.27073 40.9597 7.00043 41.5213 7.57873C43.3991 9.57442 39.9317 13.6411 32.2147 17.8733C22.3997 23.2561 9.42704 26.8682 3.23945 25.9413C1.01709 25.6084 -0.0276757 24.7352 0.0005569 23.5034C0.0486322 22.6982 0.114585 21.6237 0.207902 20.8223L0.246952 20.5445C0.0543596 21.8531 1.02837 22.7839 3.29204 23.1231C9.15368 24.0012 21.443 20.5793 30.7409 15.48C38.2959 11.3367 41.5513 7.36079 39.3617 5.54468L39.5762 5.72495Z" fill="url(#paint5_linear_1760_3817)"/>
<path d="M36.0279 3.22155C38.6466 4.72752 35.7681 8.49385 28.5958 12.4273C20.2048 17.0292 9.11415 20.1172 3.8242 19.3248C1.54931 18.984 0.71762 17.981 1.17599 16.5824C1.48608 15.7362 1.91974 14.6145 2.2819 13.7892C1.59565 15.2412 2.28653 16.2926 4.53498 16.6295C9.32317 17.3468 19.3617 14.5516 26.9569 10.3862C33.7352 6.66883 36.2766 3.11649 33.3413 1.8855C34.1572 2.26559 35.2423 2.7821 36.0279 3.22155Z" fill="url(#paint6_linear_1760_3817)"/>
<path d="M27.5322 0.253447C27.1937 0.20271 26.8534 0.161693 26.5116 0.130452C26.3697 0.10922 26.2211 0.092327 26.0664 0.0797729C26.5062 0.131088 27.0941 0.188652 27.5322 0.253447Z" fill="url(#paint7_linear_1760_3817)"/>
<path d="M27.5331 0.253247C28.0569 0.349919 28.7581 0.465278 29.2779 0.581099C32.7715 1.33041 30.7917 4.53349 24.6561 7.89838C18.3116 11.3779 9.92588 13.7128 5.92611 13.1136C3.75501 12.7883 3.32244 11.6654 4.39544 10.1501L4.62598 9.82864C5.77378 8.35004 5.79571 8.32169 6.49046 7.57539C4.97987 9.16345 5.12866 10.3818 7.24255 10.6985C10.5972 11.2011 17.6305 9.24265 22.9517 6.32432C28.273 3.40599 29.8673 0.632878 26.5126 0.13031C26.8544 0.161551 27.1947 0.20251 27.5331 0.253247Z" fill="url(#paint8_linear_1760_3817)"/>
<path d="M23.2063 0.128896C25.6093 0.488876 24.4672 2.47539 20.6555 4.56583C16.8437 6.65633 11.8056 8.05915 9.4026 7.69916C7.27158 7.37989 7.92854 5.78146 10.763 3.96576C11.6736 3.38474 11.7688 3.32395 12.4465 2.94632C13.1823 2.55505 13.1823 2.55505 13.5533 2.37564C14.2265 2.0599 14.2265 2.0599 14.5647 1.91544C15.2123 1.64726 15.2123 1.64726 15.5388 1.52417C16.1557 1.29947 16.1926 1.286 16.5247 1.17725C17.2166 0.959115 17.2166 0.959115 17.5709 0.860353C18.3243 0.660506 18.3387 0.656674 18.7365 0.566795C19.5997 0.384656 19.6334 0.377573 20.1084 0.2989C20.3758 0.25936 20.7319 0.203272 21.0001 0.168784C21.8575 0.0586418 22.6124 0.0399462 23.2063 0.128896C22.3839 0.207279 21.5588 0.342388 20.7354 0.536022C19.088 0.289261 15.6345 1.25087 13.0215 2.68389C10.4085 4.11695 9.62567 5.47873 11.2729 5.72549C12.9202 5.97225 16.3739 5.01064 18.9868 3.57757C21.5998 2.14455 22.3827 0.782783 20.7354 0.536022C21.5588 0.342388 22.3839 0.207279 23.2063 0.128896Z" fill="url(#paint9_linear_1760_3817)"/>
<path d="M17.4774 1.60551C18.0702 1.69431 17.7885 2.18435 16.8481 2.7001C15.9078 3.21579 14.665 3.56185 14.0721 3.47305C13.4793 3.38425 13.761 2.89427 14.7014 2.37852C15.6417 1.86283 16.8846 1.51671 17.4774 1.60551Z" fill="url(#paint10_linear_1760_3817)"/>
<defs>
<linearGradient id="paint0_linear_1760_3817" x1="18.3262" y1="40.0344" x2="48.9308" y2="32.2812" gradientUnits="userSpaceOnUse">
<stop stop-color="#5CEAD2"/>
<stop offset="1" stop-color="#259CF4"/>
</linearGradient>
<linearGradient id="paint1_linear_1760_3817" x1="11.4561" y1="34.6951" x2="54.6295" y2="24.5004" gradientUnits="userSpaceOnUse">
<stop stop-color="#5CEAD2"/>
<stop offset="1" stop-color="#259CF4"/>
</linearGradient>
<linearGradient id="paint2_linear_1760_3817" x1="5.85726" y1="28.6125" x2="57.5562" y2="17.0048" gradientUnits="userSpaceOnUse">
<stop stop-color="#5CEAD2"/>
<stop offset="1" stop-color="#259CF4"/>
</linearGradient>
<linearGradient id="paint3_linear_1760_3817" x1="1.76593" y1="22.0708" x2="58.3518" y2="9.76415" gradientUnits="userSpaceOnUse">
<stop stop-color="#5CEAD2"/>
<stop offset="1" stop-color="#259CF4"/>
</linearGradient>
<linearGradient id="paint4_linear_1760_3817" x1="-0.40844" y1="15.578" x2="56.4955" y2="3.46539" gradientUnits="userSpaceOnUse">
<stop stop-color="#5CEAD2"/>
<stop offset="1" stop-color="#259CF4"/>
</linearGradient>
<linearGradient id="paint5_linear_1760_3817" x1="-0.62272" y1="10.0228" x2="52.007" y2="-1.03082" gradientUnits="userSpaceOnUse">
<stop stop-color="#5CEAD2"/>
<stop offset="1" stop-color="#259CF4"/>
</linearGradient>
<linearGradient id="paint6_linear_1760_3817" x1="0.52231" y1="5.71434" x2="45.5171" y2="-3.73481" gradientUnits="userSpaceOnUse">
<stop stop-color="#5CEAD2"/>
<stop offset="1" stop-color="#259CF4"/>
</linearGradient>
<linearGradient id="paint7_linear_1760_3817" x1="26.0447" y1="0.117634" x2="27.1395" y2="-0.830975" gradientUnits="userSpaceOnUse">
<stop stop-color="#5CEAD2"/>
<stop offset="1" stop-color="#259CF4"/>
</linearGradient>
<linearGradient id="paint8_linear_1760_3817" x1="3.4295" y1="2.98114" x2="37.4057" y2="-4.26467" gradientUnits="userSpaceOnUse">
<stop stop-color="#5CEAD2"/>
<stop offset="1" stop-color="#259CF4"/>
</linearGradient>
<linearGradient id="paint9_linear_1760_3817" x1="7.90269" y1="1.74747" x2="28.2748" y2="-2.69533" gradientUnits="userSpaceOnUse">
<stop stop-color="#5CEAD2"/>
<stop offset="1" stop-color="#259CF4"/>
</linearGradient>
<linearGradient id="paint10_linear_1760_3817" x1="13.7021" y1="2.0048" x2="18.7278" y2="0.908759" gradientUnits="userSpaceOnUse">
<stop stop-color="#5CEAD2"/>
<stop offset="1" stop-color="#259CF4"/>
</linearGradient>
</defs>
</svg>
